<svg xmlns="http://www.w3.org/2000/svg" xmlns:xlink="http://www.w3.org/1999/xlink" width="100" height="108" viewBox="0 0 100 108"><defs><path id="oxnxa" d="M225.3 625.48l-17.3-9.99.52.3.52.37.51.3.52.3.6.36.51.37 17.38 9.99-.59-.37-.52-.3-.59-.37-.52-.3-.51-.36z"/><path id="oxnxb" d="M231.37 561.87l-8.13-4.73h-.3l-.15-.08h-.37l-.22.08h-.15l-.22.07-.22.07-.15.08-.22.07-.22.08-.22.14-1.56.9-1.62.95-1.56.9-1.63.88-1.55.96-1.63.89-1.55.96-1.63.89-1.62.96-1.56.89-1.62.88-1.56.96-1.62.9-1.56.95-1.62.9-1.56.95-1.63.89-1.55.89-1.63.96-1.55.89-1.63.96-1.62.89-1.56.96-1.62.89-1.56.88-1.62.96-1.56.9-1.62.95-1.56.9-1.63.95-1.55.89-1.63.89-.22.15-.22.14-.15.15-.22.15-.22.15-.15.22-.22.15-.22.22-.15.22-.15.15-.22.22-.15.22-.15.22-.14.23-.15.3-.15.21-.15.23-.15.22-.07.3-.15.22-.07.3-.15.21-.07.23-.08.3-.07.21-.08.3-.07.22v.3l-.07.22v1.77l-.08 41.28v.14l.08.15v.37l.07.08v.14l.07.08v.07l.08.15v.07l.07.08v.07l.08.08.07.07v.07l.07.08.08.07.07.08v.07l.08.07h.07l8.14 4.74-.08-.08-.07-.07v-.08l-.08-.07-.07-.07-.07-.08v-.07l-.08-.07-.07-.08v-.07l-.08-.08v-.07l-.07-.07v-.08l-.07-.07V641.83l-.08-.08V641.46l-.07-.08V641.1l.07-41.2v-1.78l.08-.3v-.22l.07-.3.07-.21.08-.3.07-.22.08-.22.14-.3.08-.22.15-.3.07-.22.15-.22.15-.3.14-.22.15-.22.15-.22.15-.22.15-.23.22-.22.15-.22.14-.22.23-.15.22-.22.14-.15.23-.15.22-.22.15-.15.22-.07.22-.15 1.63-.96 1.55-.89 1.63-.89 1.55-.96 1.63-.88 1.55-.97 1.63-.88 1.55-.96 1.63-.9 1.55-.88 1.63-.96 1.55-.89 1.63-.96 1.63-.89 1.55-.96 1.63-.89 1.55-.89 1.63-.96 1.55-.88 1.63-.97 1.55-.88 1.63-.9 1.55-.95 1.63-.89 1.55-.96 1.63-.89 1.63-.96 1.55-.89 1.63-.89 1.55-.96 1.63-.88 1.55-.97.22-.07.23-.15.22-.07.15-.08.22-.07h.22l.15-.07h.88z"/><path id="oxnxc" d="M209.7 625.33c9.84-5.1 13.68-.66 19.97 2.81.08-5.18.22-9.98-.96-14.42l.22-.15a9.03 9.03 0 0 0 4.07-7.1v-41.79c0-2.59-1.85-3.7-4.07-2.37-17.01 9.84-34.02 19.6-50.96 29.44a9.03 9.03 0 0 0-4.07 7.1v42.24c0 1.03.52 1.92 1.4 2.44.9.51 1.93.51 2.82 0z"/><path id="oxnxd" d="M223.16 599.15l-39.42 22.7v3.93l39.42-22.71z"/><path id="oxnxe" d="M220.13 589.75l-36.39 21.01v3.92l36.39-21z"/><path id="oxnxf" d="M223.16 577.62l-39.35 22.71-.07 3.85 39.42-22.71z"/><path id="oxnxg" d="M148.75 645.67c.23-3.84.9-6.88 1.85-10.87l-2.36 1.4c-1.7.97-3.11.15-3.11-1.77V593.9c0-2 1.4-4.37 3.1-5.4 16.72-9.62 33.36-19.23 50.08-28.85 1.7-.96 3.1-.15 3.1 1.78v40.45c0 .97-.29 2-.95 3.11a5.54 5.54 0 0 1-2.22 2.3c-15.39 8.57-41.35 21.6-49.49 38.38z"/><path id="oxnxh" d="M146.54 640.05l-4.52-2.66V592.64l.08-.3.07-.3v-.21l.08-.3.07-.3.15-.22.07-.3.08-.29.14-.22.08-.3.15-.22.14-.3.15-.22.15-.3.15-.22.14-.22.23-.3.14-.21.15-.23.22-.22.23-.22.14-.15.23-.22.22-.22.22-.15.15-.15.22-.15.22-.14.22-.15 1.7-.96 1.7-.96 1.7-1.04 1.7-.96 1.64-.96 1.7-.96 1.7-.97 1.7-.96 1.7-.96 1.63-1.04 1.7-.96 1.7-.96 1.7-.96 1.7-.96 1.63-.96 1.7-1.04 1.7-.96 1.7-.96 1.7-.96 1.63-.96 1.7-.97 1.7-.96 1.7-1.03 1.63-.96 1.7-.97 1.7-.96 1.7-.96 1.7-.96 1.63-.96 1.7-1.04 1.7-.96 1.7-.96.23-.15.22-.07.22-.08.23-.07.14-.07.23-.08h.22l.22-.07h.52l.22.07h.15l.14.08.15.07-8.95-5.18-.15-.07-.22-.08h-.15l-.14-.07h-.82l-.14.07-.23.08-.22.07-.22.08-.22.07-.22.07-.23.15-1.62.96-1.7.96-1.7.97-1.7 1.03-1.7.96-1.64.96-1.7.97-1.7.96-1.7.96-1.7.96-1.63 1.04-1.7.96-1.7.96-1.7.96-1.7.96-1.63.96-1.7.97-1.7 1.03-1.7.96-1.7.96-1.63.97-1.7.96-1.7.96-1.7 1.03-1.7.97-1.63.96-1.7.96-1.7.96-1.7.96-1.7.96-1.63 1.04-1.7.96-.23.15-.22.15-.22.14-.22.15-.23.15-.14.22-.23.15-.22.22-.15.22-.22.23-.14.22-.23.22-.14.22-.15.3-.22.22-.15.22-.08.3-.14.22-.15.3-.15.3-.07.21-.15.3-.08.3-.07.22-.07.3-.08.29-.07.22-.08.3v.51l-.07.3V632.95l.07.22v.22l.08.23.07.22.08.15.07.22.07.15.08.14.07.15.15.15.15.15.07.14.15.08 3.03 1.77v.15l-.07.52-.08.52-.07.51-.07.52v.6l-.08.51-.07.45v.51l-.08.52v1.04l-.07.51v2l-.07.45v3.03l.07.44V651.3l8.95 5.18V649.44l.07-.44v-1.55l.08-.52v-.44l.07-.52v-.52l.08-.52.07-.52.07-.59.08-.52.07-.51.08-.52.07-.6.07-.51.08-.6z"/><path id="oxnxi" d="M146.54 640.05l-3.11.52-7.77-4.51 1.48.88v.15l-.07.52-.08.52-.07.51-.07.52v.6l-.08.51-.07.45v.51l-.08.52v1.04l-.07.51v2l-.07.45v3.03l.07.44V651.3l8.95 5.18V649.44l.07-.44v-1.55l.08-.52v-.44l.07-.52v-.52l.08-.52.07-.52.07-.59.08-.52.07-.51.08-.52.07-.6.07-.51.08-.6z"/><path id="oxnxj" d="M204.6 601.96v-44.68c0-2.73-1.93-3.92-4.37-2.51-17.9 10.35-35.87 20.78-53.92 31.14-2.36 1.4-4.36 4.73-4.36 7.54v44.23c0 2.74 1.92 3.92 4.36 2.52l.23-.15c-1.19 6.07-1.04 11.02-1.04 16.42 1.78-2.96 3.48-5.92 5.18-8.95 10.94-19.08 32.47-28.7 49.4-37.94a8.96 8.96 0 0 0 3.19-3.26 8.52 8.52 0 0 0 1.33-4.36z"/><path id="oxnxk" d="M152.45 617.79l26.85-15.46v4.07l-26.85 15.46z"/><path id="oxnxl" d="M152.45 606.03l41.72-24.04v4.14l-41.72 24.04z"/><path id="oxnxm" d="M152.45 595l36.84-21.22v4.07l-36.84 21.22z"/><path id="oxnxn" d="M143.43 588.87l-8.95-5.18h-.07l-.15.22-.08.3-.14.22-.15.3-.15.3-.07.21-.15.3-.08.3-.07.22-.07.3-.08.29-.07.22-.08.3v.51l-.07.3V632.95l.07.22v.22l.08.23.07.22.08.15.07.22.07.15.08.14.07.15.15.15.15.15.07.14.15.08 3.03 1.77v.15l-.07.52-.08.52-.07.51-.07.52v.6l-.08.51-.07.45v.51l-.08.52v1.04l-.07.51v2l-.07.45v3.03l.07.44V651.3l8.95 5.18V649.44l.07-.44v-1.55l.08-.52v-.44l.07-.52v-.52l.08-.52.07-.52.07-.59.08-.52.07-.51.08-.52.07-.6.07-.51.08-.6.15-.51-4.52-2.66V592.64l.08-.3.07-.3v-.21l.08-.3.07-.3.15-.22.07-.3.08-.29.14-.22.08-.3.15-.22.14-.3.15-.22z"/></defs><g><g transform="translate(-133 -549)"><g><use fill="#b8b4b4" xlink:href="#oxnxa"/></g><g><use fill="#bab8b8" xlink:href="#oxnxb"/></g><g><use fill="#ccc" xlink:href="#oxnxc"/></g><g><use fill="#3d566e" xlink:href="#oxnxd"/></g><g><use fill="#3d566e" xlink:href="#oxnxe"/></g><g><use fill="#3d566e" xlink:href="#oxnxf"/></g><g><use fill="#e6eaeb" xlink:href="#oxnxg"/></g><g><use fill="#bdbdbd" xlink:href="#oxnxh"/></g><g><use fill="#bccbcf" xlink:href="#oxnxi"/></g><g><use fill="#e6eaeb" xlink:href="#oxnxj"/></g><g><use fill="#2c3e50" xlink:href="#oxnxk"/></g><g><use fill="#2c3e50" xlink:href="#oxnxl"/></g><g><use fill="#2c3e50" xlink:href="#oxnxm"/></g><g><use fill="#9c9c9c" xlink:href="#oxnxn"/></g></g></g></svg>