<svg xmlns="http://www.w3.org/2000/svg" xmlns:xlink="http://www.w3.org/1999/xlink" width="100" height="138" viewBox="0 0 100 138"><defs><path id="2pjma" d="M214.73 1376.8l-8.32-4.81v8.23l8.32 4.8z"/><path id="2pjmb" d="M220.22 1319.76v-.69l-.24-.24 7.62 4.45h.25l.6.6v7.29l-.17.34-.08.17-1.38 1.37-.08.09-.26.26-5.49 2.74-.25.26h-.95l-8.23-4.8h1.03l.17-.18.09-.17 1.88-.94.09-.09.51-.25.17-.09.69-.34.17-.17.69-.35.17-.26 1.03-.51 1.71-1.71.09-.18.09-.17.08-.17v-6.09zm-.86-1.29h.26l.36.36zm.86 19.64V1337.26l-.36-.36 7.82 4.56h.17l.6.6v7.03l-.25.52-1.72 1.71-.86.43-.08.34-4.46 2.23-.26.26h-1.03l-8.23-4.8h1.03l.26-.26-2.06-1.2 2.06 1.2.68-.34.17-.17 1.38-.7.08-.08.17-.08.17-.17.69-.35.17-.08.17-.09.18-.08.34-.18.08-.17.86-.43.26-.17 1.71-1.71.18-.35.08-.17v-6.09zm-.77-1.45h.17l.24.24zm8.4 22.98v.17l.52.52v6.86l-.26.51-1.2 1.2-.08.09-.43.43-5.32 3.08-.26.26h-1.11l-8.24-4.8h1.12l.17-.17h.09l5.31-3.09.09-.09.26-.34 1.54-1.54.26-.52v-6.86l-.28-.27 7.82 4.56zm-8.23-4.8h.17l.24.24zm8.66-48.29v6.18l-.25.51-1.72 1.72-5.32 3.08-.25.26h-.86l-8.23-4.8h.94l.17-.17h.17l5.32-3.09.51-.51.09-.43 1.11-1.12.26-.51v-6.78l-.12-.12 7.41 4.32h.34l.69.69v.77zm-9-6.26h.34l.48.48z"/><path id="2pjmc" d="M154.7 1384.08l-8.24-4.8.35.34v7.46l-.26.52-.94.94-.09.09-.68.68-3.95 1.98-.09-.09-1.37.69-.08.08-.09.09-.09.08h-.95l7.64 4.46.26.26h1.2l.26-.26 5.49-2.74 1.71-1.72.26-.51v-7.2l-.17-.18-.17-.17zm-16.48 8.06l-.59-.34.26.26.17.08zm8.59 6.52v6l-.26.52-.17.17-.09.09-.43.43-.08.08-.52.52-.08.08-.34.35-5.4 3.17-.26.26h-.96l7.64 4.46.35.34h1.2l.26-.26 5.31-3.09.09-.08.08-.09 1.03-1.03.09-.08.43-.43.26-.52v-6.77l-.09-.09-.09-.08-.08-.09-8.24-4.8.26.26v.68h.09zm-8.59 11.67l-.42-.25v.07l.17.18zm-.42-.26h-.02l.02.01zm-.02 0l-.15-.09.09.09zm9.03-65.87v6.1l-.17.33-.26.26h-.09l-.34.34-.09.26-.08.09-.09.17-.51.51-.17.09-.17.17-.09.09-5.32 3.08-.25.26h-1l7.94 4.63.17.17h1.12l.26-.25 5.31-3.09.43-.43.17-.08 1.2-1.2.26-.52v-6.86l-.51-.52-.09-.17-8.23-4.8.6.6v.77zm-8.63 11.75l-.3-.17.18.17zm6.57 14.84l-1.2.6-.17.09-.86.42-.09.18-.34.17-.17.08-.17.09-.17.17-1.03.51-.09.09-1.03.51-.26.26h-.94l-.08.08 7.8 4.55.26.26h1.11l.26-.26 5.49-2.74 1.54-1.54.09-.09.08-.09.26-.51v-7.38l-.43-.42-8.23-4.8.43.42v7.03l-.26.52-.6.6-.09.08-.68.69-.17.17zm-6.6 3.25l-.43-.25.25.26h.18z"/><path id="2pjmd" d="M214.73 1305.35l-8.32-4.8v6.86l8.32 4.8z"/><path id="2pjme" d="M214.73 1312.21l-8.32-4.8-55.14 31.9 8.23 4.8z"/><path id="2pjmf" d="M233 1294.8l-8.32-4.8-18.27 10.55 8.32 4.8z"/><path id="2pjmg" d="M141.23 1347.72l-8.23-4.8v79.76l8.23 4.71z"/><path id="2pjmh" d="M159.5 1337.17l-8.23-4.8-18.27 10.55 8.23 4.8z"/><path id="2pjmi" d="M155.04 1353.8c0 1.3-.94 2.92-2.06 3.61l-5.31 3.09c-1.12.68-2.06.08-2.06-1.2v-4.8c0-1.3.94-2.92 2.06-3.6 1.8-1.04 3.51-2.07 5.31-3.1 1.12-.68 2.06-.08 2.06 1.2zm0 54.47c0 1.28-.94 2.91-2.06 3.6l-5.31 3.09c-1.12.68-2.06.08-2.06-1.2v-4.8c0-1.3.94-2.92 2.06-3.6 1.8-1.04 3.51-2.07 5.31-3.1 1.12-.68 2.06-.08 2.06 1.2zm0-18.18c0 1.28-.94 2.91-2.06 3.6-1.8 1.03-3.51 2.06-5.31 3.09-1.12.68-2.06.08-2.06-1.2v-4.8c0-1.3.94-2.92 2.06-3.61 1.8-1.03 3.51-2.06 5.31-3.09 1.12-.68 2.06-.08 2.06 1.2v4.8zm0-18.19c0 1.29-.94 2.92-2.06 3.6l-5.31 3.1c-1.12.68-2.06.08-2.06-1.2v-4.81c0-1.29.94-2.92 2.06-3.6 1.8-1.03 3.51-2.06 5.31-3.09 1.12-.69 2.06-.09 2.06 1.2v4.8zm73.5-6.09c0 1.3-.94 2.92-2.06 3.6l-5.32 3.1c-1.11.68-2.05.08-2.05-1.2v-4.8c0-1.3.94-2.93 2.05-3.61 1.8-1.03 3.52-2.06 5.32-3.09 1.12-.68 2.06-.08 2.06 1.2zm0-54.45c0 1.28-.94 2.91-2.06 3.6l-5.32 3.08c-1.11.7-2.05.09-2.05-1.2v-4.8c0-1.29.94-2.91 2.05-3.6 1.8-1.03 3.52-2.06 5.32-3.09 1.12-.68 2.06-.08 2.06 1.2zm0 36.27c0 1.29-.94 2.92-2.06 3.6-1.8 1.03-3.51 2.06-5.32 3.1-1.11.68-2.05.08-2.05-1.2v-4.81c0-1.29.94-2.92 2.05-3.6 1.8-1.03 3.52-2.06 5.32-3.1 1.12-.68 2.06-.08 2.06 1.21v4.8zm0-18.1c0 1.3-.94 2.92-2.06 3.6-1.8 1.04-3.51 2.07-5.32 3.1-1.11.68-2.05.08-2.05-1.2v-4.8c0-1.3.94-2.92 2.05-3.6 1.8-1.04 3.52-2.07 5.32-3.1 1.12-.68 2.06-.08 2.06 1.2v4.8zm-69.04 79.08l55.15-31.82v8.24l18.26-10.55v-79.68l-18.18 10.55v6.86l-55.23 31.9v-6.85l-18.27 10.46v79.67l18.27-10.55z"/><path id="2pjmj" d="M161.13 1349.52l51.63-29.76v51.8l-51.63 29.85z"/><path id="2pjmk" d="M173.9 1349.78l32.08-.26-32.07 36.8z"/></defs><g><g transform="translate(-133 -1290)"><g><use fill="#415a73" xlink:href="#2pjma"/></g><g><use fill="#415a73" xlink:href="#2pjmb"/></g><g><use fill="#415a73" xlink:href="#2pjmc"/></g><g><use fill="#2c3e50" xlink:href="#2pjmd"/></g><g><use fill="#415a73" xlink:href="#2pjme"/></g><g><use fill="#415a73" xlink:href="#2pjmf"/></g><g><use fill="#415a73" xlink:href="#2pjmg"/></g><g><use fill="#415a73" xlink:href="#2pjmh"/></g><g><use fill="#2c3e50" xlink:href="#2pjmi"/></g><g><use fill="#e74c3c" xlink:href="#2pjmj"/></g><g><use fill="#e6eaeb" xlink:href="#2pjmk"/></g></g></g></svg>