<?xml version="1.0" encoding="utf-8"?>
<!-- Generator: Adobe Illustrator 22.1.0, SVG Export Plug-In . SVG Version: 6.00 Build 0)  -->
<svg version="1.1" id="Layer_1" xmlns="http://www.w3.org/2000/svg" xmlns:xlink="http://www.w3.org/1999/xlink" x="0px" y="0px"
	 width="934.2px" height="747.3px" viewBox="0 0 934.2 747.3" style="enable-background:new 0 0 934.2 747.3;" xml:space="preserve"
	>
<style type="text/css">
	.st0{fill-rule:evenodd;clip-rule:evenodd;fill:url(#SVGID_1_);}
	.st1{fill-rule:evenodd;clip-rule:evenodd;fill:url(#SVGID_2_);}
</style>
<g>
	<g>
		<linearGradient id="SVGID_1_" gradientUnits="userSpaceOnUse" x1="668.1738" y1="312.4911" x2="791.478" y2="435.7953">
			<stop  offset="0" style="stop-color:#5AD2B1"/>
			<stop  offset="0.9946" style="stop-color:#3FA9F5"/>
		</linearGradient>
		<path class="st0" d="M719.4,367.6c-1.2,2.4-3.1,4.6-5.3,6.5c2.2,1.9,4.1,4.2,5.4,6.6l40,76.9c3.8,7.2,0.4,13.1-7.5,13.1h-39.5
			c-7.9,0-17.3-5.9-21.1-13.1l-40-76.9c-1.1-2-1.5-3.9-1.5-5.6c-0.5-2.1-0.1-4.7,1.3-7.5l40-76.9c3.8-7.2,13.2-13.1,21.1-13.1h39.6
			c7.9,0,11.3,5.9,7.5,13.1L719.4,367.6z"/>
		<linearGradient id="SVGID_2_" gradientUnits="userSpaceOnUse" x1="575.5729" y1="319.7593" x2="686.4355" y2="430.6219">
			<stop  offset="0" style="stop-color:#51F1FC"/>
			<stop  offset="1" style="stop-color:#5AC8FA"/>
		</linearGradient>
		<path class="st1" d="M708.8,380.8L669,447.3c-3.7,6.3-13.2,11.3-21,11.3h-39.4c-7.9,0-11.2-5.1-7.4-11.3l39.8-66.5
			c1.2-2,3.1-4,5.2-5.6c-2.2-1.7-4.1-3.6-5.3-5.7L601.1,303c-3.7-6.3-0.4-11.3,7.4-11.3h39.3c7.8,0,17.2,5.1,21,11.3l39.7,66.5
			c1,1.7,1.5,3.4,1.5,4.9C710.6,376.2,710.2,378.4,708.8,380.8z"/>
	</g>
	
		<image style="overflow:visible;" width="1047" height="242" xlink:href="20C75D76FF0F949A.png"  transform="matrix(0.3635 0 0 0.3635 173.0833 327.6667)">
	</image>
</g>
</svg>
