<svg xmlns="http://www.w3.org/2000/svg" xmlns:xlink="http://www.w3.org/1999/xlink" width="71" height="98" viewBox="0 0 71 98"><defs><path id="1odsa" d="M528.48 3591.12l.1.42.05.42.06.47.05.41.05.47v.47l.05.47v.47l-.05.9-.05.93-.1 1-.11.94-.21.99-.16.94-.26 1-.26.93-.31 1-.37.99-.36.94-.42.99-.42.94-.47.94-.47.94-.52.89-1.1 1.83-1.2 1.72-1.25 1.62-1.36 1.57-.26.26-8.26-4.8-7.47 10.39v.05h-.05v.05l-11.39 15.83-3.24 4.5 13.58 7.78 3.2-4.44 11.38-15.83v-.05h.05v-.06l2.25-3.08 5.48 3.19.1.05h.16l.16-.05.16-.1 1.67-.95 1.57-1.04 1.56-1.15 1.47-1.3 1.46-1.47 1.3-1.51 1.31-1.68 1.2-1.72 1.1-1.78.47-.94.52-.88.47-1 .42-.94.37-.94.41-.99.32-.94.31-1 .26-.93.26-1 .21-.99.16-.94.16-1 .1-.93.05-.94v-1.88l-.05-.42v-.47l-.05-.47-.05-.42-.1-.42-.06-.41-.1-.32-.06-.31-.1-.31-.1-.32-.06-.31-.1-.31-.16-.27-.1-.3 10.5-14.58-13.53-7.84-10.5 14.63.1.26.1.31.1.26.11.32.1.31.06.31.1.32z"/><path id="1odsb" d="M551.78 3581.93l-10.5 14.62c.3.73.57 1.57.73 2.4.2 1.1.36 2.3.36 3.56 0 4.96-1.72 10.4-4.54 15.3-2.77 4.86-6.69 9.15-10.92 11.65l-1.67 1c-.47.26-.84.05-.84-.47v-9.93l-7.47 10.4c0 .05-.05.05-.05.1l-11.39 15.83-3.24 4.5 22.15 5.22v-9.56c0-.53.37-1.2.84-1.47l.05-.05 1.57-.89c7.78-4.54 14.78-12.22 19.9-21.05 5.12-8.93 8.25-18.86 8.25-27.84 0-2.82-.31-5.49-.94-7.79a19.6 19.6 0 0 0-2.3-5.53z"/><path id="1odsc" d="M502.3 3650.83l22.1-30.82-13.53-7.84-22.15 30.82z"/><path id="1odsd" d="M541.28 3596.5l10.5-14.57-13.53-7.84-10.5 14.63z"/><path id="1odse" d="M528.32 3578.06l.16-.1.15-.16.16-.16.1-.2.1-.22.06-.2.05-.21V3567.04l22.15 5.22-13.47-7.83-22.15-5.23V3568.97l-.06.21-.05.2-.1.22-.1.2-.16.16-.16.16-.21.1-.05.06-1.57.88-1.46.9-1.41.93-1.41 1.05-1.41 1.1-1.36 1.14-1.36 1.2-1.3 1.26-1.26 1.36-1.25 1.36-1.2 1.4-1.2 1.47-1.16 1.51-1.1 1.57-1.04 1.57-1.04 1.62-1 1.62-.88 1.67-.9 1.67-.83 1.72-.78 1.73-.73 1.72-.68 1.78-.63 1.77-.57 1.78-.52 1.78-.42 1.77-.37 1.78-.31 1.77-.26 1.73-.16 1.72-.1 1.73-.06 1.67v1.04l.06 1.05.05.99.1 1 .16.93.16.94.2.94.21.9.21.78.21.73.26.73.26.68.32.68.31.68.37.62.36.63 13.53 7.83c-.1-.15-.2-.36-.31-.52l-.05-.05-.06-.05-.3-.58-.32-.62v-.11c-.21-.42-.37-.83-.52-1.3v-.11c-.06-.2-.16-.42-.21-.63v-.1c-.06-.2-.16-.47-.21-.68-.05-.2-.16-.47-.21-.68v-.1c-.16-.58-.26-1.15-.37-1.73v-.1l-.15-.84v-.1c-.06-.31-.1-.58-.1-.89v-.1c-.06-.32-.06-.58-.11-.9v-.1c-.06-.31-.06-.62-.06-.94v-.1c0-.31-.05-.68-.05-1v-1.04c0-.57 0-1.1.05-1.67v-.1c0-.58.06-1.1.1-1.68.11-1.15.27-2.3.43-3.44.2-1.15.42-2.35.68-3.5.15-.58.26-1.15.41-1.73v-.1a71 71 0 0 1 .47-1.67v-.11c.16-.57.37-1.15.53-1.72v-.11c.2-.57.36-1.15.57-1.67v-.1l.63-1.67v-.11c.2-.57.47-1.1.68-1.67.52-1.15 1.04-2.3 1.62-3.45l.83-1.62.05-.05.06-.05c.26-.52.57-1.05.89-1.57v-.1c.3-.53.62-1.05.94-1.57.3-.52.62-1.05.99-1.52l.05-.05.05-.05a62.16 62.16 0 0 1 2.1-3.03v-.1c.36-.53.72-1 1.09-1.47l1.15-1.46a51.18 51.18 0 0 1 13.42-11.7l1.57-.89h.21z"/><path id="1odsf" d="M529.16 3593.1v-.2l-.06-.16-.05-.1-.1-.1c-.16-.11-.37-.06-.58.04l-1.67 1a26.43 26.43 0 0 0-5.75 4.64l8.26 4.76-.05-9.87z"/><path id="1odsg" d="M501.78 3641.11l10.5-14.62a11.7 11.7 0 0 1-.73-2.4c-.2-1.1-.36-2.3-.36-3.56 0-4.96 1.72-10.4 4.54-15.3 2.77-4.86 6.69-9.15 10.92-11.65l1.67-1c.47-.26.84-.05.84.47v9.93l7.47-10.34.1-.1 11.39-15.84 3.24-4.49-22.2-5.17v9.56c0 .52-.37 1.2-.84 1.46l-.05.05-1.57.9c-7.78 4.54-14.78 12.21-19.9 21.04-5.07 8.83-8.26 18.8-8.26 27.74 0 2.82.32 5.49.94 7.79.58 2.09 1.31 3.97 2.3 5.53z"/><path id="1odsh" d="M528.53 3577.9l.16-.15.1-.16.16-.16.1-.2.05-.21.06-.21V3567.04l-13.53-7.84V3568.97l-.06.21-.1.2-.1.22-.11.15-.16.21-.15.16z"/></defs><g><g transform="translate(-485 -3559)"><g><use fill="#943b3b" xlink:href="#1odsa"/></g><g><use fill="#e74c3c" xlink:href="#1odsb"/></g><g><use fill="#e74c3c" xlink:href="#1odsb"/></g><g><use fill="#bf4a3d" xlink:href="#1odsc"/></g><g><use fill="#bf4a3d" xlink:href="#1odsd"/></g><g/><g><use fill="#27ae60" xlink:href="#1odse"/></g><g><use fill="#2a9155" xlink:href="#1odsf"/></g><g><use fill="#34cf75" xlink:href="#1odsg"/></g><g><use fill="#2a9155" xlink:href="#1odsh"/></g></g></g></svg>