<svg xmlns="http://www.w3.org/2000/svg" xmlns:xlink="http://www.w3.org/1999/xlink" width="70" height="94" viewBox="0 0 70 94"><defs><path id="7479a" d="M1063.98 3658.14l-8.32-4.82-.15-.07-.15-.15-.07-.14-.14-.15-.08-.22v-.22l-.07-.29v-67.96l.07-.14.08-.22.07-.22.14-.15.15-.14.07-.15.22-.14.15-.08.22-.14.14-.08.22-.14.22-.07.15-.15.22-.07.14-.15.22-.07.22-.15.15-.07.22-.15.14-.07.22-.15.22-.07.15-.15.14-.07H1059.23l.15.07 8.25 4.75h-.37l-.14.07-.22.15-.15.07-.22.15-.22.07-.14.15-.22.07-.15.14-.22.08-.21.14-.15.08-.22.14-.15.08-.21.14-.22.07-.15.15-.22.07-.14.15-.15.07-.15.22-.07.15-.15.22v.14l-.07.22v55.48l52.48-30.3.15-.07.14-.07.08.07h.14l8.33 4.82-.15-.07h-.15l-.14.07-.15.07-56.13 32.41-4.6-2.63v8.4l.07.22.08.21.07.22.15.15.14.07z"/><path id="7479b" d="M1065.58 3658c-.65.36-1.24.36-1.6.14-.44-.22-.66-.73-.66-1.46v-67.6c0-.5.37-1.09.8-1.3l3.07-1.76c.44-.22.8-.07.8.44v64.89l56.2-32.4c.45-.23.81-.08.81.43v3.5c0 .51-.36 1.1-.8 1.32z"/><path id="7479c" d="M1067.92 3597.85v-1.54l37.23-21.53.94 1.02z"/><path id="7479d" d="M1106.1 3625l-38.18 22.04v-49.2l38.17-22.04z"/><path id="7479e" d="M1097.81 3592.12l.04.03.14.08zm-.1-.11l-.08-.15-.88-1.53-.07-.15-.07-.29-.08-.22v-.66l.08-.21.14-.59.07-.29.15-.3.3-.58.07-.14.14-.22.22-.22 1.02-1.17.51-.58.51-.59.52-.58 1.02-1.17.5-.58 1.54-1.75 1.02-1.17 1.02-1.17.52-.58.94-1.17.52-.59.5-.58.52-.58.5-.59.52-.58.51-.58.51-.59.51-.58.51-.59.51-.58 1.03-1.17 1.53-1.75-2.63-2.19-.51.58-.51.59-.51.58-.59.73-.5.59-.59.58-.51.58-.59.66-.5.58-.52.59-.5.58-.52.59-.51.58-.51.58-.51.59-.51.58-.51.59-.51.58-.8.95-.52.58-.51.59-.51.58-.58.73-.52.58-.58.59-.51.58-.58.66-1.03 1.17-.5.58-.52.59-.5.58-.23.22-.29.44-.15.29-.14.29-.22.44-.22.87-.07.22v.66l.14.44.08.14.87 1.54.08.14.14.15.15.07 2.88 1.72zm12.33 1.6zm-.3-.17l-.14-.34-.15-.36-.07-.44-.15-4.23-3.06-1.76.14 4.24v.44l.15.36.22.3.3.21zm0 .03l.3.14-.3-.17zm-37 44.6zm-.34-.2l-.1-.1-.07-.14-.08-.15-.07-.22v-.87l.07-.3.22-.87.15-.3 11.39-23.64.29-.44.14-.15.3-.43.14-.22.15-.22.22-.3.14-.14.15-.15.14-.14.15-.15.15-.14.14-.15.15-.15.14-.07 12.12-7 5.4-14.1-3.06-1.75-5.4 14.1-12.12 7-.15.07-.29.3-.15.14-.43.44-.15.14-.44.66-.29.44-.44.66-11.38 23.57-.15.3-.15.58-.07.29-.07.3v.87l.07.22.07.14.08.15.14.14.15.15.07.07zm.2.2h.14l-.34-.2z"/><path id="7479f" d="M1072.52 3634.93l11.39-23.65a6.66 6.66 0 0 1 2.48-2.85l12.11-7 5.4-14.1-3.43 3.95c-1.02 1.17-2.33 1.46-2.84.5l-.88-1.52c-.5-.95-.07-2.63.95-3.87 5.77-6.57 11.46-13.14 17.23-19.64l.65 21.68c.08 1.31-.87 3-2.04 3.72l-1.97 1.24c-1.17.73-2.19.22-2.19-1.1l-.15-4.22-6.27 16.35a7.1 7.1 0 0 1-1.1 1.75 6.77 6.77 0 0 1-1.53 1.38l-12.34 7.16-10.5 21.75c-.74 1.46-2.05 2.48-3 2.19l-1.6-.51c-.88-.3-1.03-1.75-.37-3.21z"/></defs><g><g transform="translate(-1055 -3565)"><g><use fill="#2c3e50" xlink:href="#7479a"/></g><g><use fill="#415a73" xlink:href="#7479b"/></g><g><use fill="#ccc" xlink:href="#7479c"/></g><g><use fill="#e6eaeb" xlink:href="#7479d"/></g><g><use fill="#c43e3f" xlink:href="#7479e"/></g><g><use fill="#e74c3c" xlink:href="#7479f"/></g></g></g></svg>