<svg xmlns="http://www.w3.org/2000/svg" xmlns:xlink="http://www.w3.org/1999/xlink" width="80" height="101" viewBox="0 0 80 101"><defs><path id="fhjpa" d="M688.22 3590.5c.33-.42 1.18-1.34 1.43-1.68.5-.85.5-1.1.6-2.11 4.13 4.8 13.83 7.6 17.54.84 1.02 2.53-1.94 7.34-5.82 8.78-2.87 1.1-7.17.42-9.37-1.6l-3.71-3.38z"/><path id="fhjpb" d="M702.56 3595.15c-6.92-.6-10.72-.76-14.26-4.64 2.28 2.53 5.9 5.82 7.17 8.77 1.27 2.87 1.27 12.07 2.37 19.24l10.38-5.99c1.43-9.53 1.85-21.43-.26-25.23l-.08.25c.34 3.3-2.28 4.81-4.81 7.34z"/><path id="fhjpc" d="M688.22 3590.5c2.27 2.54 5.9 5.83 7.17 8.78 1.26 2.87 2.2 11.56 3.88 18.4l-22.03 12.74v-25.4l.17-1.01.09-.6.34-1 .25-.51.25-.5.34-.51.34-.51.33-.5.68-1.02.42-.5.85-.85c2.1-2.36 4.89-4.3 6.92-7zm.08.1l.17.16-.17-.17zm18.99 22.6c1.85-9.87 2.78-22.19.76-25.82l1-2.1c4.06.33 9.88 2.1 9.88 6.83v14.26z"/><path id="fhjpd" d="M705.6 3590.76c1.6-1.52 2.87-4.22 4.05-6.75 1.69-3.38 1.6-7.34 1.6-10.47l-.59-1.85c-.17-.76-.25-1.6-.25-2.37 0-1 0-1.94-.6-2.44-.84-.76-2.19.42-3.7 1.77a15.3 15.3 0 0 1-3.46 2.7c-1.27.76-2.45 1.01-3.46 1.35-1.02.25-1.95.5-2.7 1.18-1.19 1.01-1.1 1.77-1.1 3.2 0 1.36.08 2.62-.76 5.5 0-.09 0-.17-.09-.34 0-.09 0-.17-.08-.34 0-.09 0-.17-.08-.25 0-.09-.09-.17-.09-.26 0-.08-.08-.17-.08-.25 0-.09-.09-.17-.09-.25 0-.09-.08-.17-.08-.26 0-.08-.09-.17-.09-.25 0-.08-.08-.17-.08-.17 0-.08-.09-.17-.09-.17 0-.08-.08-.08-.08-.17 0-.08-.08-.08-.08-.17 0-.08-.09-.08-.09-.16 0-.09-.08-.09-.08-.17 0-.09-.09-.09-.09-.17 0-.09-.08-.09-.08-.17l-.09-.08-.08-.09-.08-.08c-.09 0-.09-.09-.09-.09-.08 0-.08-.08-.17-.08 0 0-.08-.09-.17-.09-.08 0-.08-.08-.17-.08-.08 0-.08 0-.16-.09-.09 0-.09 0-.17-.08h-.17H690.75s-.09 0-.09.08c0 0-.08 0-.08.09 0 0-.09 0-.09.08l-.08.09-.09.08-.08.09-.08.08-.09.09-.08.08-.09.08-.08.09-.09.08c0 .09-.08.09-.08.17 0 .09-.08.09-.08.17 0 .08-.09.08-.09.17 0 .08-.08.08-.08.17 0 .08 0 .08-.09.17 0 .08 0 .08-.08.17 0 .08 0 .08-.09.16V3582.15c0 .09 0 .17.09.17.25.93.76 2.03 1.18 2.87.17.25 0 1.01-.17 1.35 2.95 3.38 7.34 5.74 10.8 5.74 1.6.17 3.38-.42 4.56-1.52z"/><path id="fhjpe" d="M686.53 3565.1c-2.79 5.07-1.02 18.9 3.71 21.86.08-.25.42-1.26.25-1.6-.42-.85-.92-1.94-1.18-2.87-1.01-4.56 4.39-6.67 5.32 0 .84-2.87.76-4.14.76-5.49 0-1.43-.09-2.19 1.1-3.2.75-.68 1.68-.85 2.7-1.18 1.1-.26 2.19-.6 3.46-1.35a22.28 22.28 0 0 0 3.46-2.7c1.6-1.35 2.86-2.54 3.7-1.78.51.51.51 1.44.6 2.45 0 .76 0 1.6.25 2.36l.6 1.86c.16-2.45.08-5.32-.26-7.68-.68-4.47-2.7-4.73-8.27-7.6-.84-.33-2.03-1.1-3.71-1.18-4.22-.16-10.47 4.73-12.5 8.1z"/><path id="fhjpf" d="M703.15 3595.15l-.67.25-1.44 4.47-5.99-2.53 6.08 3.3 1.68-4.9 2.03 3.37 2.87-5.4.76-1.85c-.6 1.43-2.28 3.96-3.71 6.41z"/><path id="fhjpg" d="M704.76 3614.56l-.51-14.26c0-.17.17-1.35.34-2.54l-1.27-2.44-.5.25-1.02 3.12c.25.93.5 1.86.5 2.03-.25 2.2-.41 9.28-.67 15.6z"/><path id="fhjph" d="M704.84 3614.47c0-2.87 0-5.15-.08-5.4-.34-2.95-.43-6.07-.76-9.2 0-.17.16-1.35.33-2.53l-1.26-2.45-.5.26-1.02 3.2c.25.93.5 1.86.5 2.03-.33 3.63-.75 7.26-1.1 10.8 0 .17 0 2.7-.08 5.66z"/><path id="fhjpi" d="M704 3599.62c-.43.6-1.02.76-2.03.34.5.76 1.86 1.1 2.03-.34z"/><path id="fhjpj" d="M704.16 3598.02c0-.17.09-.5.09-.76l-1.18-2.37H702.22l-.67 3.46c.08.26.17.51.17.68l1.1-3.2z"/><path id="fhjpk" d="M691.34 3603.84l.76-1.52-1.27-4.98 2.03 4.73-.6 1.94 3.89 15.53-.26.16z"/><path id="fhjpl" d="M712.35 3595.74l-.93-1.01-.76-4.73.17 5.06 1.01 1.18-1.43 15.03.17-.09z"/><path id="fhjpm" d="M742.3 3623.92l-13.16-7.6-39.24 22.63 13.17 7.59z"/><path id="fhjpn" d="M703.07 3646.54l-13.17-7.6V3650l13.17 7.6V3647.04z"/><path id="fhjpo" d="M742.3 3634.9v-10.98l-39.23 22.62v10.97z"/><path id="fhjpp" d="M751 3611.18l-23.38-13.5-56.62 32.66 23.38 13.5z"/><path id="fhjpq" d="M694.38 3643.84l-23.38-13.5v10.2l23.38 13.51z"/><path id="fhjpr" d="M694.38 3654.05L751 3621.4v-10.2l-56.62 32.65z"/><path id="fhjps" d="M718 3627.55c-.16-.08-.33-.25-.59-.33-3.03-1.78-9.7-5.57-9.7-5.74-.09-.09-.09-.17-.09-.26l-6.58-3.54a5.03 5.03 0 0 1-.76-2.2l13.59-7.84c.59-.34 1.52-.34 2.02 0l12.83 7.42.6 4.73-.1.17-1.93 3.54-6.84 3.97a2.7 2.7 0 0 1-1.18.25c-.5.09-.93 0-1.27-.17z"/><path id="fhjpt" d="M725.18 3615.74l1.85-1.1c.93-.59 1.52-.76 1.7.42l.67 4.98-1.27-2.61z"/><path id="fhjpu" d="M700.28 3615.4V3617l.09.17.17.17.16.17 17.47 10.13.09.08.08.09H720.2l.17-.09.08-.08.09-.09 7.42-4.3c1.1-.68 1.69-1.01 1.77-2.45a4.06 4.06 0 0 0-1.35-3.37l-3.03-1.78v1.52l1.6.93.67.42a2.09 2.09 0 0 1-.08 3.63l-7 4.05h-.34l-.09.09H718.26l-.17-.09h.25l-.08-.08-17.56-10.04-.16-.17-.17-.17-.09-.17z"/><path id="fhjpv" d="M716.15 3622.24l8.6-4.9-.33-.25-8.61 4.98z"/><path id="fhjpw" d="M714.3 3621.22l9.36-5.4-.34-.17-9.37 5.32z"/><path id="fhjpx" d="M712.35 3620.04l7.34-4.22-.34-.17-7.34 4.22z"/><path id="fhjpy" d="M710.5 3619.03l8.6-4.98-.34-.25-8.6 4.98z"/><path id="fhjpz" d="M708.64 3617.93l9.36-5.4-.42-.17-9.28 5.4z"/><path id="fhjpA" d="M706.7 3616.84l7.34-4.3-.34-.18-7.34 4.22z"/></defs><g><g transform="translate(-671 -3557)"><g><g><use fill="#e3cca4" xlink:href="#fhjpa"/></g><g><use fill="#e6eaeb" xlink:href="#fhjpb"/></g><g><use fill="#2c3e50" xlink:href="#fhjpc"/></g><g><use fill="#ffe7bd" xlink:href="#fhjpd"/></g><g><use fill="#2c3e50" xlink:href="#fhjpe"/></g><g><g><use fill="#9c9c9c" xlink:href="#fhjpf"/></g></g><g><use fill="#9c9c9c" xlink:href="#fhjpg"/></g><g><use fill="#3d566e" xlink:href="#fhjph"/></g><g><use fill="#263d52" xlink:href="#fhjpi"/></g><g><use fill="#344e66" xlink:href="#fhjpj"/></g><g><use fill="#1d2c3b" xlink:href="#fhjpk"/></g><g><use fill="#1d2c3b" xlink:href="#fhjpl"/></g></g><g><g><use fill="#8f765e" xlink:href="#fhjpm"/></g><g><use fill="#8f765e" xlink:href="#fhjpn"/></g></g><g><use fill="#b19377" xlink:href="#fhjpo"/></g><g><use fill="#b19377" xlink:href="#fhjpp"/></g><g><use fill="#967b62" xlink:href="#fhjpq"/></g><g><use fill="#c7a585" xlink:href="#fhjpr"/></g><g><g><use fill="#e6eaeb" xlink:href="#fhjps"/></g><g><use fill="#f5f9fa" xlink:href="#fhjpt"/></g><g><use fill="#bdc3c7" xlink:href="#fhjpu"/></g><g><use fill="#2c3e50" xlink:href="#fhjpv"/></g><g><use fill="#2c3e50" xlink:href="#fhjpw"/></g><g><use fill="#2c3e50" xlink:href="#fhjpx"/></g><g><use fill="#2c3e50" xlink:href="#fhjpy"/></g><g><use fill="#2c3e50" xlink:href="#fhjpz"/></g><g><use fill="#2c3e50" xlink:href="#fhjpA"/></g></g></g></g></svg>