<svg xmlns="http://www.w3.org/2000/svg" xmlns:xlink="http://www.w3.org/1999/xlink" width="80" height="84" viewBox="0 0 80 84"><defs><path id="5w7oa" d="M914.01 3575.97l-1.17-.7-.63-.2-.7-.07-.75.14-.84.41-47.76 27.6-.83.55-.83.76-.7.83-.55.9-.56 1.05-.34 1.04-.28 1.04-.07.97v30.98l.07.9.28.77.34.55.49.42 1.18.7-.49-.42-.34-.56-.28-.76-.07-.9v-31l.07-1.03.2-1.04.42-.97.49-1.04.62-.9.7-.9.76-.7.83-.55 47.83-27.6.83-.4.77-.15h.69z"/><path id="5w7ob" d="M859.18 3610.98v30.99c0 2.63 1.87 3.67 4.16 2.35l47.76-27.59a9.12 9.12 0 0 0 4.16-7.14v-30.99c0-2.63-1.87-3.67-4.16-2.35l-47.83 27.59a9.23 9.23 0 0 0-4.1 7.14z"/><path id="5w7oc" d="M859.18 3614.65v9.57l56.01-32.37v-9.57z"/><path id="5w7od" d="M883.16 3657.77l-1.17-.69-.49-.42-.35-.55-.27-.76-.07-.9v-31.06l.07-.97.27-1.04.35-1.04.49-.97.62-.97.7-.84.76-.76.83-.55 47.83-27.6.83-.34.77-.2.69.06.62.21 1.18.7-.62-.28h-.7l-.83.13-.76.42-47.83 27.6-.84.55-.76.76-.7.83-.62.9-.48 1.04-.42 1.04-.2 1.04-.07.97v30.99l.07.97.2.7.42.62z"/><path id="5w7oe" d="M886.08 3616.94l47.76-27.59c2.29-1.32 4.16-.2 4.16 2.36v30.98a9.12 9.12 0 0 1-4.16 7.15l-47.76 27.66c-2.3 1.31-4.16.2-4.16-2.36v-31.06c.07-2.63 1.87-5.82 4.16-7.14z"/><path id="5w7of" d="M932.87 3603.84v-6.31c0-.42-.28-.55-.62-.35-4.1 2.36-8.18 4.72-12.2 7.07-.35.21-.63.7-.63 1.11v6.31c0 .42.28.56.63.35 4.09-2.36 8.18-4.71 12.2-7.07.34-.21.62-.76.62-1.11z"/><path id="5w7og" d="M888.85 3648.34l8.39-4.85c.34-.2.62-.7.62-1.1v-1.46c0-.42-.28-.56-.62-.35l-8.4 4.85c-.34.21-.61.7-.61 1.11v1.46c-.07.41.27.55.62.34z"/><path id="5w7oh" d="M900.5 3641.62l8.38-4.85c.35-.21.63-.7.63-1.11v-1.46c0-.41-.28-.55-.63-.34l-8.38 4.85c-.35.2-.63.7-.63 1.1v1.46c0 .42.28.56.63.35z"/><path id="5w7oi" d="M912.14 3634.9l8.39-4.86c.35-.2.62-.69.62-1.1v-1.46c0-.42-.27-.56-.62-.35l-8.39 4.85c-.34.21-.62.7-.62 1.11v1.46c0 .35.28.55.62.35z"/><path id="5w7oj" d="M923.86 3628.17l8.39-4.85c.34-.2.62-.7.62-1.11v-1.46c0-.41-.28-.55-.62-.34l-8.4 4.85c-.34.2-.62.7-.62 1.1v1.46c0 .35.28.56.63.35z"/><path id="5w7ok" d="M888.16 3628.86c0-.76.55-1.73 1.24-2.14 2.57-1.46 5.13-2.99 7.7-4.44.7-.42 1.25-.07 1.25.7v6.79a2.8 2.8 0 0 1-1.25 2.15c-2.57 1.45-5.13 2.98-7.7 4.43-.69.42-1.24.07-1.24-.7v-6.79z"/></defs><g><g transform="translate(-858 -3575)"><g><g><use fill="#626f70" xlink:href="#5w7oa"/></g><g><use fill="#e6eaeb" xlink:href="#5w7ob"/></g><g><use fill="#2c3e50" xlink:href="#5w7oc"/></g></g><g><g><use fill="#626f70" xlink:href="#5w7od"/></g><g><use fill="#405d79" xlink:href="#5w7oe"/></g><g><use fill="#e6eaeb" xlink:href="#5w7of"/></g><g><use fill="#e6eaeb" xlink:href="#5w7og"/></g><g><use fill="#e6eaeb" xlink:href="#5w7oh"/></g><g><use fill="#e6eaeb" xlink:href="#5w7oi"/></g><g><use fill="#e6eaeb" xlink:href="#5w7oj"/></g><g><use fill="#ffcb05" xlink:href="#5w7ok"/></g></g></g></g></svg>