<svg xmlns="http://www.w3.org/2000/svg" xmlns:xlink="http://www.w3.org/1999/xlink" width="60" height="109" viewBox="0 0 60 109"><defs><path id="adhqa" d="M128.06 3667.51l-7.6-4.4-.31-.2-.26-.25-.25-.38-.26-.39-.12-.44-.13-.45-.13-.57v-68.17l.06-.26.07-.32v-.32l.13-.32.06-.32.06-.32.13-.31.13-.32.06-.32.2-.32.12-.32.13-.32.19-.26.13-.32.19-.31.2-.26.18-.32.2-.25.19-.26.19-.25.25-.26.2-.26.25-.25.25-.2.2-.25.25-.19.26-.19.25-.2.26-.18.25-.13 1.4-.83 1.35-.77 1.34-.76 1.34-.77 1.34-.76 1.34-.77 1.34-.77 1.34-.76 1.28-.77 1.34-.76 1.27-.77 1.34-.77 1.28-.76 1.28-.7 1.34-.77 1.27-.77 1.28-.7 1.34-.76 1.28-.77 1.27-.77 1.34-.7 1.28-.76 1.34-.77 1.28-.77 1.34-.76 1.34-.77 1.34-.76 1.34-.77 1.34-.77 1.34-.83 1.34-.76 1.4-.77.52-.25.5-.26.45-.13.51-.06h.45l.38.06.39.13.38.13 7.53 4.4-.32-.19-.44-.13-.39-.06-.44.06-.45.07-.51.13-.51.19-.51.25-1.34.77-1.4.83-1.35.76-1.34.77-1.34.77-1.34.76-1.34.77-1.28.76-1.34.77-1.27.77-1.34.76-1.28.77-1.34.7-1.28.77-1.27.76-1.34.77-1.28.7-1.28.77-1.34.76-1.27.77-1.28.7-1.34.77-1.28.76-1.34.77-1.34.76-1.28.77-1.34.77-1.34.76-1.34.77-1.4.83-1.34.76-1.34.77-.32.2-.26.12-.19.19-.25.2-.26.25-.25.19-.26.25-.19.2-.26.25-.19.26-.19.25-.25.26-.2.32-.19.25-.19.32-.13.26-.19.31-.13.32-.19.32-.12.26-.13.32-.13.32-.13.32-.06.31-.13.32-.06.32-.07.32-.06.32-.06.32v.64l-.07.25v67.03l.07.57.06.51.13.51.19.45.19.38.26.32.31.26z"/><path id="adhqb" d="M179 3566.98v66.96c0 3.19-2.3 7.15-5.04 8.74-14.75 8.49-27.64 15.96-42.39 24.45-2.8 1.6-5.04.32-5.04-2.94v-66.96c0-3.19 2.3-7.14 5.04-8.74 14.75-8.49 27.64-15.96 42.39-24.45 2.8-1.6 5.04-.32 5.04 2.94z"/><path id="adhqc" d="M151.8 3607.26l-1.65-.96-.13-.07h-.13l-.12.07-.13.06-16.34 9.45-.2.06-.12.13-.13.2-.13.18-.06.2-.06.19-.07.19v16.6l.07.12.06.06.06.13 1.66.96-.06-.13-.06-.06-.07-.13V3617.91l.07-.19.06-.19.06-.19.13-.2.13-.18.13-.13.19-.06 16.34-9.45.13-.06.12-.07h.13z"/><path id="adhqd" d="M174.66 3594.1l-1.66-.95-.13-.06h-.32l-.12.12-16.34 9.39-.13.12-.2.13-.12.2-.13.12-.06.2-.07.18-.06.2v16.59l.06.13.07.13.06.06 1.66.96-.06-.07-.07-.06-.06-.2V3604.7l.06-.19.07-.2.06-.18.13-.13.13-.2.19-.12.12-.13 16.35-9.38.12-.13h.32z"/><path id="adhqe" d="M151.8 3630.3l-1.65-.96-.13-.06h-.13l-.12.06-.13.06-16.34 9.45-.2.06-.12.13-.13.2-.13.19-.06.19-.06.19-.07.19V3656.6l.07.12.06.13.06.06 1.66.96-.06-.06-.06-.13-.07-.13v-16.6l.07-.18.06-.2.06-.19.13-.19.13-.19.13-.13.19-.06 16.34-9.45.13-.06.12-.07h.13z"/><path id="adhqf" d="M174.66 3617.15l-1.66-.96-.13-.06h-.13l-.19.06-.12.07-16.34 9.38-.13.13-.2.12-.12.2-.13.12-.06.2-.07.19-.06.25v16.53l.06.2.07.06.06.13 1.66.95-.06-.12-.07-.07-.06-.19V3627.81l.06-.26.07-.19.06-.19.13-.13.13-.19.19-.13.12-.12 16.35-9.39.12-.06.2-.06h.12z"/><path id="adhqg" d="M157.74 3644.66l16.35-9.45c.44-.25.76-.83.76-1.34v-16.21c0-.51-.32-.7-.76-.45l-16.35 9.45c-.44.25-.76.83-.76 1.34v16.21c0 .45.32.7.76.45z"/><path id="adhqh" d="M134.96 3657.8l16.34-9.44c.44-.25.76-.83.76-1.34v-16.21c0-.51-.32-.7-.76-.45l-16.34 9.45c-.45.25-.77.83-.77 1.34v16.21c0 .51.32.7.77.45z"/><path id="adhqi" d="M174.09 3594.17l-16.35 9.38c-.44.26-.76.83-.76 1.34v16.22c0 .5.32.7.76.44l16.35-9.44c.44-.26.76-.83.76-1.34v-16.15c0-.51-.32-.7-.76-.45z"/><path id="adhqj" d="M151.3 3607.32l-16.34 9.45c-.45.25-.77.83-.77 1.34v16.2c0 .52.32.71.77.46l16.34-9.45c.44-.26.76-.83.76-1.34v-16.21c0-.51-.38-.7-.76-.45z"/><path id="adhqk" d="M140.2 3647.85l1.65-2.94-1.66-.95c-.25-.13-.25-.7 0-1.15l.2-.26c.25-.44.7-.76 1.01-.57l1.66.96 1.66-2.94c.26-.45.7-.7 1.02-.57l.26.12c.26.13.26.7 0 1.15l-1.66 2.94 1.66.96c.26.19.26.7 0 1.14l-.2.26c-.25.45-.7.77-1.01.57l-1.66-.95-1.66 2.93c-.26.45-.7.7-1.02.58l-.26-.13c-.25-.2-.25-.7 0-1.15z"/><path id="adhql" d="M142.23 3625.26v-2.75l-2.3 1.34c-.38.26-.7.06-.7-.38v-.26c0-.44.32-1.02.7-1.21l2.3-1.34v-2.75c0-.44.32-1.02.7-1.2l.33-.26c.38-.26.7-.07.7.38v2.74l2.36-1.34c.38-.25.7-.06.7.39v.25c0 .45-.32 1.02-.7 1.22l-2.36 1.34v2.74c0 .45-.32 1.02-.7 1.21l-.39.2c-.32.31-.64.12-.64-.32z"/><path id="adhqm" d="M133.23 3607.13l39.13-22.6c.45-.25.77-.83.77-1.34v-9.7c0-.51-.32-.7-.77-.45l-39.13 22.6c-.44.25-.76.83-.76 1.34v9.7c0 .51.32.7.76.45z"/><path id="adhqn" d="M165.91 3626.6c.52-.26.9-.07.9.5 0 .58-.38 1.28-.9 1.54-.5.25-.89.06-.89-.51 0-.58.38-1.28.9-1.53z"/><path id="adhqo" d="M162.66 3632.09l6.45-3.77c.38-.26.7-.06.7.38v.2c0 .44-.32 1.01-.7 1.2l-6.45 3.77c-.38.26-.7.07-.7-.38v-.2c0-.44.32-1.01.7-1.2z"/><path id="adhqp" d="M165.91 3635.66c.52-.26.9-.96.9-1.53 0-.58-.38-.77-.9-.51-.5.25-.89.95-.89 1.53 0 .57.38.83.9.51z"/><path id="adhqq" d="M167.9 3578.79l-2.24 1.27v5.11l2.23-1.28zm-2.88.19l3.45-1.98c.38-.2.64-.06.64.38v6.51c0 .39-.26.9-.64 1.09l-3.45 1.98c-.38.19-.64.06-.64-.39v-6.5c0-.39.32-.9.64-1.1z"/><path id="adhqr" d="M162.66 3608.85l6.45-3.76c.38-.26.7-.07.7.38v.19c0 .45-.32 1.02-.7 1.21l-6.45 3.77c-.38.25-.7.06-.7-.38v-.2c0-.44.32-1.02.7-1.2z"/><path id="adhqs" d="M128.2 3592l-7.54-4.4-.2.31-.12.32-.2.26-.12.32-.13.32-.19.32-.06.32-.13.32-.13.31-.06.32-.06.32-.13.32v.32l-.07.32-.06.26V3660.43l.13.57.13.45.12.44.26.39.25.38.26.25.32.2 7.6 4.4-.33-.25-.31-.26-.26-.32-.2-.38-.18-.45-.13-.51-.06-.51-.07-.57v-67.02l.07-.26v-.64l.06-.32.06-.32.07-.32.06-.32.13-.32.06-.31.13-.32.13-.32.13-.32.12-.26.2-.32.12-.32.2-.31z"/><path id="adhqt" d="M132.72 3639.43l-.06.19-.06.19-.07.19V3656.6l.07.12.06.13.06.06 1.66.96-.06-.06-.06-.13-.07-.13v-16.6l.07-.18.06-.2.06-.19z"/><path id="adhqu" d="M132.72 3616.38l-.06.2-.06.19-.07.19v16.53l.07.2.06.05.06.13 1.66.96-.06-.13-.06-.06-.07-.2v-16.53l.07-.19.06-.19.06-.19z"/><path id="adhqv" d="M155.51 3626.21l-.06.2-.07.19-.06.25v16.53l.06.2.07.06.06.13 1.66.95-.06-.12-.07-.07-.06-.19V3627.81l.06-.26.07-.19.06-.19z"/><path id="adhqw" d="M155.51 3603.17l-.06.2-.07.18-.06.2v16.59l.06.13.07.13.06.06 1.66.96-.06-.07-.07-.12-.06-.13v-16.6l.06-.19.07-.2.06-.18z"/></defs><g><g transform="translate(-119 -3559)"><g><use fill="#34485c" xlink:href="#adhqa"/></g><g><use fill="#415a73" xlink:href="#adhqb"/></g><g><g><use fill="#bdbdbd" xlink:href="#adhqc"/></g><g><use fill="#bdbdbd" xlink:href="#adhqd"/></g><g><use fill="#bdbdbd" xlink:href="#adhqe"/></g><g><use fill="#bdbdbd" xlink:href="#adhqf"/></g></g><g><g><use fill="#e6eaeb" xlink:href="#adhqg"/></g><g><use fill="#e6eaeb" xlink:href="#adhqh"/></g><g><use fill="#ebebeb" xlink:href="#adhqi"/></g><g><use fill="#ebebeb" xlink:href="#adhqj"/></g></g><g><use fill="#3d566e" xlink:href="#adhqk"/></g><g><use fill="#3d566e" xlink:href="#adhql"/></g><g><use fill="#9dd6f5" xlink:href="#adhqm"/></g><g><use fill="#3d566e" xlink:href="#adhqn"/></g><g><use fill="#3d566e" xlink:href="#adhqo"/></g><g><use fill="#3d566e" xlink:href="#adhqp"/></g><g><use fill="#3d566e" xlink:href="#adhqq"/></g><g><use fill="#3d566e" xlink:href="#adhqr"/></g><g><use fill="#2c3e50" xlink:href="#adhqs"/></g><g><use fill="#9c9c9c" xlink:href="#adhqt"/></g><g><use fill="#9c9c9c" xlink:href="#adhqu"/></g><g><use fill="#9c9c9c" xlink:href="#adhqv"/></g><g><use fill="#9c9c9c" xlink:href="#adhqw"/></g></g></g></svg>