<svg xmlns="http://www.w3.org/2000/svg" xmlns:xlink="http://www.w3.org/1999/xlink" width="61" height="109" viewBox="0 0 61 109"><defs><path id="1uo5a" d="M322.82 3629.03l3.28-1.87.15-.1.15-.05.16-.05.2-.05.2-.05h.8l.21.05.2.05.2.05.2.1.2.1.26.1.25.1.26.16.25.15.2.15.2.15.2.2.2.2.2.2.21.2.2.21.2.2.2.26.2.25.16.25.15.25.15.26.15.25.16.25.15.25.15.26.15.25.1.25.1.3.1.3.1.3.1.31.06.3.05.3.05.31.05.25.05.26v1.01l-.05.25-.05.25-.05.2-.05.2-.05.2-.1.21-.1.2-.1.15-.1.15-.1.16-.16.15-.15.1-.15.1-.16.1-3.23 1.87c-.8.5-1.97.45-3.23-.3a9.9 9.9 0 0 1-4.5-7.78c.06-1.31.56-2.32 1.37-2.83z"/><path id="1uo5b" d="M315.8 3633.12l3.28-1.87.15-.1.15-.05.16-.05.15-.05.2-.05h.8l.21.05.2.05.2.05.2.1.2.1.21.1.25.16.25.15.26.15.2.15.2.15.2.2.2.2.2.2.21.21.2.2.2.2.2.26.2.25.21.25.15.25.15.26.15.25.16.25.15.25.15.26.1.25.1.3.1.3.1.3.1.31.1.3.06.3.05.31.05.3.05.3.05.26v1.01l-.05.25-.05.25-.05.2-.05.2-.06.21-.1.2-.1.2-.1.16-.1.15-.1.15-.1.15-.15.1-.15.1-.16.1-3.23 1.87c-.8.5-1.97.46-3.23-.3a9.9 9.9 0 0 1-4.5-7.78c.06-1.51.56-2.52 1.42-2.98z"/><path id="1uo5c" d="M343.37 3617.21l3.29-1.87.15-.1.15-.05.15-.05.15-.05.2-.05h.81l.2.05.2.05.21.05.2.1.2.1.26.1.25.1.25.16.2.15.2.15.2.15.2.2.21.2.2.2.2.21.2.2.2.2.21.26.2.25.16.25.15.25.15.26.15.25.15.25.15.25.15.26.1.25.1.25.1.3.1.3.1.31.11.3.05.3.05.31.05.3.05.3.05.26v1.01l-.05.25-.05.25-.05.2-.05.2-.05.21-.1.2-.1.2-.1.16-.1.15-.1.15-.1.15-.16.1-.15.1-.15.1-3.23 1.87c-.81.5-1.97.46-3.24-.3a9.9 9.9 0 0 1-4.49-7.78c.15-1.41.66-2.42 1.46-2.88z"/><path id="1uo5d" d="M336.2 3621.35l3.29-1.86.15-.1.15-.06.15-.05.15-.05.2-.05h.61l.2.05.2.05.2.05.2.05.21.1.2.1.2.1.26.1.25.16.2.15.2.15.2.15.2.2.2.2.21.21.2.2.2.2.2.2.2.26.21.25.2.25.15.26.16.25.15.25.15.25.15.26.15.25.1.25.1.3.1.3.1.31.1.3.1.3.06.31.05.3.05.3.05.3.05.26v1.01l-.05.25-.05.26-.05.2-.05.2-.05.2-.1.2-.1.2-.1.16-.1.15-.1.15-.1.15-.16.1-.15.1-.15.1-3.23 1.87c-.81.51-1.97.46-3.24-.3a9.9 9.9 0 0 1-4.5-7.78c.16-1.51.66-2.52 1.47-2.98z"/><path id="1uo5e" d="M328.88 3605.75l3.28-1.87.15-.1.16-.05.15-.05.15-.05.2-.05H333.57l.2.05.21.05.2.05.2.05.2.1.2.1.26.1.25.1.26.15.25.16.2.15.2.15.2.2.2.2.2.2.21.2.2.2.2.21.2.25.2.26.16.25.15.25.15.25.16.26.15.25.15.25.15.25.15.26.1.25.1.3.1.3.1.3.1.31.06.3.05.3.05.3.05.31.05.25v1.02l-.05.25-.05.25-.05.2-.05.2-.05.2-.1.2-.1.21-.1.15-.1.15-.1.15-.16.16-.15.1-.15.1-.15.1-3.24 1.87c-.8.5-1.97.45-3.23-.3a9.9 9.9 0 0 1-4.5-7.78c.06-1.42.56-2.43 1.42-2.93z"/><path id="1uo5f" d="M321.8 3609.84l3.3-1.87.14-.1.15-.05.16-.05.15-.05.2-.05H326.5l.2.05.21.05.2.05.2.05.2.1.2.1.21.1.25.15.26.16.2.15.2.15.2.15.2.2.2.2.2.2.2.2.21.21.2.2.2.25.2.26.2.25.16.25.15.25.15.26.16.25.15.25.15.25.1.26.1.25.1.3.1.3.1.3.1.31.06.3.05.3.05.31.05.25.05.26v1.01l-.05.25-.05.25-.05.2-.05.2-.06.2-.1.2-.1.21-.1.15-.1.15-.1.16-.1.15-.15.1-.15.1-.16.1-3.23 1.87c-.8.5-1.97.45-3.23-.3a9.9 9.9 0 0 1-4.5-7.78c.1-1.47.66-2.48 1.47-2.93z"/><path id="1uo5g" d="M343.37 3597.36l3.29-1.86.15-.1.15-.06.15-.05.15-.05.2-.05H348.08l.2.05.2.05.2.05.21.05.2.1.2.1.26.1.25.1.25.16.2.15.2.15.2.15.2.2.21.2.2.21.2.2.2.2.2.2.21.26.2.25.16.25.15.26.15.25.15.25.15.25.15.26.15.25.1.25.1.25.1.3.1.31.1.3.21.36.05.3.05.3.05.3.05.3.05.26v1.01l-.05.25-.05.26-.05.2-.05.2-.05.15-.1.2-.1.2-.1.16-.1.15-.1.15-.1.15-.16.1-.15.1-.15.1-3.23 1.87c-.81.5-1.97.46-3.23-.3a9.9 9.9 0 0 1-4.5-7.78c.05-1.41.56-2.42 1.36-2.93z"/><path id="1uo5h" d="M336.2 3601.5l3.29-1.86.15-.1.15-.05.15-.06.15-.05.2-.05h.81l.2.05.2.05.2.06.21.1.2.1.2.1.26.1.25.15.2.15.2.15.2.16.2.2.2.2.21.2.2.2.2.2.2.26.2.25.21.25.2.26.15.25.16.25.15.25.15.26.15.25.15.25.1.25.1.26.1.3.1.3.1.3.1.3.06.31.05.3.05.3.05.31.05.25v1.01l-.05.26-.05.25-.05.2-.05.2-.05.2-.1.2-.1.2-.1.16-.1.15-.1.15-.1.15-.16.1-.15.1-.15.1-3.23 1.88c-.81.5-1.97.45-3.24-.3a9.9 9.9 0 0 1-4.5-7.79c.16-1.41.66-2.42 1.47-2.92z"/><path id="1uo5i" d="M343.37 3577.57l3.29-1.87.15-.1.15-.05.15-.05.2-.06.2-.05h.81l.2.05.2.06.21.05.2.1.2.1.26.1.25.15.25.15.25.15.2.15.2.16.21.2.2.2.2.2.2.2.2.2.21.2.2.26.2.25.2.26.16.25.15.25.15.25.15.26.15.25.16.25.05.35.1.26.1.3.1.3.1.3.1.3.05.31.05.3.05.3.05.26.05.25v1.01l-.05.26-.05.25-.05.2-.05.2-.05.2-.1.2-.1.2-.1.16-.1.15-.1.15-.1.15-.16.1-.15.1-.15.1-3.23 1.88c-.81.5-1.97.45-3.23-.3a9.9 9.9 0 0 1-4.5-7.78c.05-1.47.56-2.48 1.36-2.98z"/><path id="1uo5j" d="M336.2 3581.7l3.29-1.86.15-.1.15-.05.15-.05.15-.05.2-.05h.61l.2.05.2.05.2.05.2.05.21.1.2.1.25.1.26.1.25.15.25.15.2.16.2.15.2.2.21.2.2.2.2.2.2.2.2.21.21.25.2.25.15.26.16.25.15.25.15.26.15.25.15.25.15.25.1.26.1.25.1.3.1.3.1.3.1.31.06.3.05.3.05.3.05.31.05.25v1.01l-.05.26-.05.25v.2l-.05.2-.05.2-.1.2-.1.21-.1.15-.1.15-.1.15-.1.16-.16.1-.15.1-.15.1-3.23 1.87c-.81.5-1.97.45-3.24-.3a9.9 9.9 0 0 1-4.5-7.78c0-1.42.56-2.43 1.37-2.93z"/><path id="1uo5k" d="M328.83 3585.95l3.28-1.87.15-.1.15-.05.16-.05.15-.05.2-.05h.8l.21.05.2.05.2.05.2.1.2.1.21.1.25.15.26.16.2.15.2.15.2.15.2.2.2.2.2.2.2.2.21.21.2.2.2.25.2.26.21.25.15.25.15.25.15.26.16.25.15.25.15.26.1.25.1.25.1.3.1.3.1.3.1.31.06.3.05.3.05.31.05.25.05.26v1.01l-.05.25-.05.25-.05.2.1.26-.05.2-.1.2-.1.2-.1.15-.1.16-.1.15-.16.1-.15.1-.15.1-.1.15-3.24 1.87c-.8.5-1.97.45-3.23-.3a9.9 9.9 0 0 1-4.5-7.78c0-1.41.51-2.43 1.32-2.93z"/><path id="1uo5l" d="M321.8 3590.04l3.3-1.87.14-.1.15-.05.16-.05.15-.05.2-.05h.8l.21.05.2.05.2.05.2.1.2.1.21.1.25.1.26.16.2.15.2.15.2.15.2.2.2.2.2.2.2.2.21.21.2.2.2.26.2.25.16.25.15.25.15.26.15.25.15.25.16.25.15.26.1.25.1.3.1.3.1.3.1.31.1.3.05.3.05.3.06.31.05.3.05.26v1.01l-.05.25-.05.25-.06.2-.05.2-.05.2-.1.21-.1.2-.1.15-.1.16-.1.15v.1l-.15.1-.15.1-.1.1-3.24 1.87c-.8.5-1.97.45-3.23-.3a9.9 9.9 0 0 1-4.5-7.78c0-1.41.51-2.42 1.37-2.88z"/><path id="1uo5m" d="M356.7 3566.96l-6.81-3.94.1.05.05.1.05.1V3628.32l-.05.16-.05.15-.1.15-.1.15-.1.15-.15.1-.1.1-41.72 24.1-.15.04-.1.06h-.1l-.1-.06 6.81 3.94.1.05h.1l.16-.05.1-.05 41.71-24.09.15-.1.1-.1.1-.15.1-.1.1-.2.06-.16.05-.15V3567.21l-.05-.1-.05-.1z"/><path id="1uo5n" d="M350 3628.63l-.11.15-.1.15-.1.15-.15.1-.1.1-41.72 24.1-.15.04-.1.06h-.1l-.1-.06 6.81 3.94.1.05h.1l.16-.05.1-.05 41.71-24.09.15-.1.1-.1.1-.15.1-.1.1-.2z"/><path id="1uo5o" d="M310.1 3663.93l-6.83-3.94-.5-.45-.4-.61-.26-.8-.1-.97v-67.22l.1-1.06.25-1.06.4-1.11.51-1.01.66-1.01.7-.86.82-.76.9-.6 44.45-25.71.86-.36.8-.2.76.05.66.26 6.82 3.93-.66-.25-.7-.05-.81.2-.91.36-44.45 25.7-.86.61-.8.76-.76.86-.66 1-.5 1.07-.4 1.06-.26 1.06-.1 1.06v67.22l.1.96.25.8.4.62z"/><path id="1uo5p" d="M310.1 3663.93l-6.83-3.94-.5-.45-.4-.61-.26-.8-.1-.97v-67.22l.1-1.06.25-1.06.4-1.11 6.83 3.99-.4 1.06-.26 1.06-.1 1.06v67.22l.1.96.25.8.4.62z"/><path id="1uo5q" d="M311.7 3602.97l-2.16-1.26 43.03-24.85 2.17 1.26z"/><path id="1uo5r" d="M311.7 3606.15l-2.16-1.26v-3.18l2.17 1.26z"/><path id="1uo5s" d="M311.7 3625.95l-2.16-1.26v-3.13l2.17 1.2z"/><path id="1uo5t" d="M311.7 3622.77l-2.16-1.21 43.03-24.85 2.17 1.21z"/><path id="1uo5u" d="M311.7 3645.75l-2.16-1.26v-3.14l2.17 1.22z"/><path id="1uo5v" d="M311.7 3642.57l-2.16-1.22 43.03-24.84 2.17 1.26z"/><path id="1uo5w" d="M354.74 3620.9l-43.03 24.85v-3.18l43.03-24.85zm0-19.8c-18.84 10.91-21.26 12.27-43.03 24.85v-3.18l43.03-24.85zm-43.03 1.87l43.03-24.85v3.18c-18.84 10.86-21.26 12.28-43.03 24.85z"/><path id="1uo5x" d="M356.91 3632.11v-64.75c0-.4-.3-.55-.66-.35l-41.71 24.1c-.36.2-.66.7-.66 1.1v64.75c0 .4.3.56.66.35l41.71-24.09c.36-.2.66-.7.66-1.1zm-43.74-45.7l44.5-25.66c2.37-1.37 4.34-.25 4.34 2.47v67.22c0 2.73-1.92 6.12-4.34 7.48l-44.5 25.66c-2.37 1.36-4.34.25-4.34-2.48v-67.22a9.61 9.61 0 0 1 4.34-7.48z"/><path id="1uo5y" d="M343.37 3577.62l3.29-1.92.15-.1.15-.05.15-.05.2-.06h.16l.2-.05h.4l.2.05.2.06.2.05.26.05.2.1.2.1.26.1.25.1.2.15.25.15.2.15.2.2.26.16.2.2.2.2.2.2.2.26.21.2.2.25.15.2.2.26.16.25.15.25.15.3.15.26.15.25.16.3.1.25.1.3.15.26.1.3.05.26.1.3.05.25.1.3.05.26v.3l.05.25v1.06l-.05.26v.25l-.05.2-.1.2-.05.2-.1.2-.05.2-.1.16-.15.15-.1.15-.1.1-.16.16-.15.1-.15.1-3.28 1.87.15-.1.15-.1.15-.1.1-.16.1-.15.16-.15.1-.15.05-.15.1-.2.05-.2.1-.21.05-.25v-.2l.05-.26v-1.06l-.05-.3v-.25l-.05-.3-.1-.26-.05-.3-.1-.25-.05-.3-.1-.26-.16-.3-.1-.26-.1-.3-.15-.25-.15-.3-.15-.26-.15-.25-.16-.25-.15-.25-.2-.26-.15-.25-.2-.2-.2-.25-.2-.2-.2-.2-.21-.21-.2-.2-.26-.2-.2-.16-.2-.15-.25-.15-.2-.15-.26-.15-.25-.1-.2-.1-.2-.05-.26-.1-.2-.06-.2-.05h-.8l-.16.05h-.2l-.15.1-.15.06z"/><path id="1uo5z" d="M346.56 3577.92a9.9 9.9 0 0 1 4.5 7.78c0 2.88-2.03 4.04-4.5 2.57a7.76 7.76 0 0 1-1.62-1.26l2.88-1.72c.3-.2.5-.6.5-1.16a4 4 0 0 0-1.81-3.13 2 2 0 0 0-.71-.25c-.46-.05-.8.15-.96.55l-2.43 1.47a7.11 7.11 0 0 1-.35-2.27c0-2.88 1.97-4.05 4.5-2.58z"/><path id="1uo5A" d="M336.15 3581.76l3.29-1.92.15-.05.2-.1.15-.05.2-.05h.15l.2-.05H340.9l.2.05.2.05.2.05.2.05.26.1.2.1.25.1.2.1.26.15.2.15.25.16.2.2.2.15.26.2.2.2.2.2.2.26.2.2.16.25.2.26.15.2.2.25.16.3.15.26.15.25.15.25.1.3.15.26.1.3.1.25.1.3.1.26.1.3.06.25.05.3.05.3.05.26.05.25v1.06l-.05.26-.05.25-.05.2-.05.2-.05.2-.1.2-.1.21-.1.15-.1.15-.1.15-.16.1-.1.16-.15.1-.15.1-3.28 1.87.15-.1.15-.1.1-.1.15-.16.1-.1.1-.2.1-.15.1-.15.1-.2.06-.2.05-.2.05-.26.05-.2.05-.26v-1.06l-.05-.25-.05-.3-.05-.25-.05-.3-.05-.31-.1-.25-.1-.3-.1-.26-.1-.3-.1-.25-.16-.3-.1-.26-.15-.3-.15-.26-.16-.25-.15-.25-.2-.25-.15-.26-.2-.25-.15-.2-.2-.25-.2-.2-.21-.2-.2-.2-.25-.21-.2-.2-.2-.15-.26-.16-.2-.15-.26-.15-.2-.15-.25-.1-.2-.1-.25-.05-.2-.1-.2-.05h-.21l-.2-.06H337.02l-.16.06-.2.05-.15.05-.2.05z"/><path id="1uo5B" d="M339.33 3582.06a9.9 9.9 0 0 1 4.5 7.78c0 2.88-2.02 4.04-4.5 2.57a7.4 7.4 0 0 1-1.61-1.26l2.88-1.72c.3-.2.5-.6.5-1.16a4 4 0 0 0-1.82-3.13c-.25-.15-.45-.2-.65-.25a.95.95 0 0 0-1.01.55l-2.48 1.42a7.11 7.11 0 0 1-.35-2.27c.05-2.78 2.07-3.94 4.54-2.53z"/><path id="1uo5C" d="M328.83 3586l3.28-1.92.15-.05.15-.1.2-.05.16-.05h.2l.2-.05h.35l.2.05.21.05.25.05.2.05.2.1.26.1.2.1.25.1.2.16.26.15.2.15.25.2.2.15.2.2.2.2.21.2.2.26.2.2.2.26.2.25.16.2.15.25.2.25.16.3.15.26.1.25.15.3.15.26.1.3.1.25.1.3.1.26.06.3.1.26.05.3.05.3.05.25v.26l.05.3v.5l-.05.26v.25l-.05.25-.05.2-.05.2-.1.2-.05.21-.1.2-.1.15-.1.16-.1.15-.16.1-.15.15-.1.1-.15.1-3.29 1.87.15-.1.1-.1.16-.1.1-.15.15-.1.1-.2.1-.16.1-.15.05-.2.1-.2.05-.2.05-.26.06-.2v-.25l.05-.26v-.55l-.05-.25v-.26l-.06-.3-.05-.25-.05-.3-.1-.3-.05-.26-.1-.3-.1-.26-.1-.3-.15-.25-.1-.3-.15-.26-.1-.3-.16-.25-.15-.26-.2-.25-.15-.25-.15-.25-.2-.26-.2-.2-.21-.25-.2-.2-.2-.2-.2-.2-.2-.2-.21-.21-.25-.15-.2-.15-.26-.16-.2-.15-.25-.15-.2-.1-.26-.1-.2-.05-.2-.1-.25-.05-.2-.05h-.76l-.2.05-.16.05-.2.05-.15.05z"/><path id="1uo5D" d="M332.01 3586.3a9.9 9.9 0 0 1 4.5 7.78c0 2.88-2.02 4.04-4.5 2.58a7.4 7.4 0 0 1-1.62-1.27l2.88-1.71c.3-.2.5-.6.5-1.16a4 4 0 0 0-1.81-3.14c-.76-.45-1.41-.25-1.67.3l-2.47 1.42a7.11 7.11 0 0 1-.35-2.27c.05-2.78 2.07-3.94 4.54-2.53z"/><path id="1uo5E" d="M321.76 3590.04l3.28-1.92.15-.05.2-.1.16-.05.15-.05H326.66l.25.05.2.05.2.05.26.1.2.1.2.1.25.16.26.1.2.15.25.2.2.15.2.2.2.2.26.2.2.2.2.21.15.2.2.26.2.25.16.25.2.25.15.26.15.25.16.25.15.3.1.26.15.25.1.3.1.25.1.3.1.31.06.25.1.3.05.26.05.3.05.25v.3l.05.26v.55l-.05.26v.25l-.05.2-.05.25-.05.2-.1.2-.06.16-.1.2-.1.15-.1.16-.1.15-.15.15-.1.1-.15.1-.16.1-3.28 1.92.15-.1.16-.1.1-.15.15-.1.1-.16.1-.15.1-.2.1-.15.05-.2.1-.2.05-.2.05-.2.05-.26v-.25l.06-.26v-.5l-.06-.3v-.26l-.05-.3-.05-.25-.05-.3-.1-.26-.05-.3-.1-.25-.1-.3-.1-.3-.1-.26-.15-.3-.1-.26-.16-.25-.15-.3-.15-.26-.15-.25-.2-.25-.15-.25-.2-.2-.2-.26-.16-.25-.2-.2-.2-.2-.26-.2-.2-.2-.2-.16-.2-.2-.26-.15-.2-.15-.25-.16-.25-.1-.2-.15-.26-.05-.2-.1-.2-.05-.2-.05-.26-.05-.2-.05h-.55l-.2.05-.16.05-.15.05-.2.05z"/><path id="1uo5F" d="M324.94 3590.34a9.9 9.9 0 0 1 4.5 7.78c0 2.88-2.03 4.04-4.5 2.58a7.4 7.4 0 0 1-1.62-1.27l2.88-1.71c.3-.2.5-.6.5-1.16a4 4 0 0 0-1.81-3.14c-.76-.45-1.41-.25-1.67.36l-2.42 1.41a7.33 7.33 0 0 1-.35-2.27c0-2.83 2.02-3.99 4.49-2.58z"/><path id="1uo5G" d="M343.37 3597.41l3.29-1.91.15-.1.15-.06.2-.05.15-.05h.2l.2-.05h.36l.2.05.2.05.26.05.2.05.2.1.25.1.2.1.26.1.2.16.25.15.2.15.26.2.2.16.2.2.2.2.2.2.2.25.21.2.2.26.2.2.16.25.15.26.2.25.15.3.15.25.1.26.16.3.15.25.1.3.1.26.1.3.1.25.05.3.1.26.05.3.05.25.05.3v.26l.05.3v.51l-.05.25v.25l-.05.26-.05.2-.05.2-.1.2-.05.2-.1.2-.1.16-.1.15-.1.15-.15.1-.16.15-.1.1-.15.1-3.28 1.87.15-.1.1-.1.15-.1.15-.15.1-.15.1-.15.1-.16.1-.15.06-.2.1-.2.05-.2.05-.26.05-.2v-.25l.05-.25v-.55l-.05-.26v-.3l-.05-.26-.05-.3-.05-.25-.1-.3-.05-.26-.1-.3-.1-.25-.1-.3-.1-.26-.16-.3-.15-.25-.1-.3-.15-.26-.15-.25-.2-.25-.16-.26-.15-.25-.2-.25-.2-.2-.2-.26-.2-.2-.2-.2-.21-.2-.2-.2-.2-.2-.26-.16-.2-.15-.25-.15-.2-.15-.26-.15-.2-.1-.25-.1-.2-.06-.2-.1-.26-.05-.2-.05h-.75l-.2.05-.16.05-.2.05-.15.05z"/><path id="1uo5H" d="M346.56 3597.72a9.9 9.9 0 0 1 4.5 7.78c0 2.87-2.03 4.04-4.5 2.57a7.4 7.4 0 0 1-1.62-1.26l2.88-1.72c.3-.2.5-.6.5-1.16a4 4 0 0 0-1.81-3.13 2 2 0 0 0-.71-.25c-.46-.05-.8.15-.96.55l-2.43 1.47a7.11 7.11 0 0 1-.35-2.28c0-2.88 2.02-4.04 4.5-2.57z"/><path id="1uo5I" d="M336.2 3601.56l3.29-1.92.15-.05.15-.1.15-.06.2-.05h.15l.2-.05H340.9l.2.05.2.05.2.06.26.05.2.1.2.1.25.1.26.1.2.15.25.15.2.15.2.2.26.16.2.2.2.2.2.2.2.26.2.2.21.25.15.25.2.2.16.26.15.3.15.25.15.26.15.25.15.3.1.25.16.3.1.26.1.3.05.26.1.3.05.25.1.3.05.3v.26l.05.25v1.06l-.05.26v.25l-.05.2-.1.2-.05.2-.1.2-.05.2-.1.16-.1.15-.16.15-.1.1-.15.15-.15.1-.15.1-3.28 1.88.15-.1.15-.1.15-.1.1-.16.15-.1.1-.15.1-.2.06-.16.1-.2.05-.2.1-.2.05-.25v-.2l.05-.26v-1.06l-.05-.25v-.3l-.05-.26-.1-.3-.05-.3-.1-.26-.05-.3-.1-.25-.1-.3-.16-.26-.1-.3-.15-.25-.15-.25-.15-.3-.16-.26-.15-.25-.15-.26-.2-.25-.15-.25-.2-.2-.2-.25-.2-.2-.21-.2-.2-.21-.2-.2-.26-.2-.2-.16-.2-.15-.25-.15-.2-.15-.26-.15-.25-.1-.2-.1-.2-.06-.26-.1-.2-.05h-.2l-.2-.05h-.56l-.2.05-.2.05-.15.05-.16.05z"/><path id="1uo5J" d="M339.38 3601.86a9.9 9.9 0 0 1 4.5 7.78c0 2.88-2.02 4.04-4.5 2.57a9.34 9.34 0 0 1-1.61-1.26l2.88-1.72c.3-.2.5-.6.5-1.16a4 4 0 0 0-1.82-3.13c-.25-.15-.45-.2-.65-.25a.95.95 0 0 0-1.01.55l-2.48 1.42a7.11 7.11 0 0 1-.35-2.28c.05-2.77 2.07-3.94 4.54-2.52z"/><path id="1uo5K" d="M328.83 3605.8l3.28-1.92.15-.05.2-.1.16-.05.2-.05h.15l.2-.05h.4l.2.05.21.05.2.05.2.05.26.1.2.1.25.1.2.1.26.15.2.16.25.15.2.2.2.15.26.2.2.2.2.2.2.26.2.2.16.25.2.26.15.2.2.25.15.25.16.3.15.26.15.25.1.3.15.26.1.3.1.25.1.3.1.26.1.3.06.25.05.3.05.3.05.26.05.25v1.06l-.05.26-.05.25-.05.2-.05.2-.05.2-.1.2-.1.21-.1.15-.1.15-.1.15-.16.1-.1.16-.15.1-.15.1-3.29 1.87.15-.1.16-.1.1-.1.15-.16.1-.1.1-.2.1-.15.1-.15.1-.2.05-.2.05-.2.05-.26.06-.2.05-.26v-1.06l-.05-.25-.06-.3-.05-.25-.05-.3-.05-.31-.1-.25-.1-.3-.1-.26-.1-.3-.1-.25-.15-.3-.1-.26-.16-.3-.15-.26-.15-.25-.15-.25-.2-.25-.15-.26-.2-.25-.16-.2-.2-.25-.2-.2-.2-.2-.2-.2-.26-.21-.2-.2-.2-.15-.25-.16-.2-.15-.26-.15-.2-.15-.25-.1-.2-.1-.26-.05-.2-.1-.2-.05h-.2l-.2-.05H329.68l-.15.05-.2.05-.16.05-.2.05z"/><path id="1uo5L" d="M332.01 3606.1a9.9 9.9 0 0 1 4.5 7.78c0 2.88-2.02 4.04-4.5 2.57a7.4 7.4 0 0 1-1.62-1.26l2.88-1.71c.3-.2.5-.61.5-1.17a4 4 0 0 0-1.81-3.13c-.76-.45-1.41-.25-1.67.3l-2.47 1.42a7.11 7.11 0 0 1-.35-2.27c.05-2.78 2.07-3.94 4.54-2.53z"/><path id="1uo5M" d="M321.8 3609.84l3.3-1.92.14-.05.15-.1.16-.05.2-.05h.95l.21.05.2.05.2.05.26.1.2.1.25.1.2.15.26.1.2.16.25.2.2.15.25.2.2.2.2.15.21.26.2.2.2.2.16.25.2.26.2.25.15.25.15.25.15.26.16.25.15.3.15.25.1.26.1.3.1.25.1.3.1.3.1.26.06.3.05.26.05.3.05.25.05.3v1.07l-.05.25-.05.2-.05.25-.05.2-.05.2-.1.16-.1.2-.1.15-.1.15-.11.16-.1.15-.15.1-.15.1-.16.1-3.28 1.92.15-.1.16-.1.15-.15.1-.1.1-.16.15-.15.05-.2.1-.15.1-.2.05-.2.05-.2.05-.21.05-.25.06-.26v-1.05l-.06-.26-.05-.3-.05-.25-.05-.3-.05-.26-.1-.3-.1-.26-.05-.3-.15-.3-.1-.25-.1-.3-.15-.26-.16-.25-.15-.3-.15-.26-.15-.25-.15-.25-.2-.26-.2-.2-.16-.25-.2-.2-.2-.25-.2-.2-.2-.2-.2-.21-.26-.15-.2-.2-.26-.16-.2-.15-.25-.15-.2-.1-.25-.15-.2-.05-.26-.1-.2-.05-.2-.05-.2-.05-.2-.05H322.61l-.15.05-.2.05-.16.05-.15.05z"/><path id="1uo5N" d="M324.94 3610.14a9.9 9.9 0 0 1 4.5 7.78c0 2.88-2.03 4.04-4.5 2.58a7.4 7.4 0 0 1-1.62-1.27l2.88-1.71c.3-.2.5-.61.5-1.17a4 4 0 0 0-1.81-3.13c-.76-.45-1.41-.25-1.67.36l-2.42 1.41a7.33 7.33 0 0 1-.35-2.27c0-2.83 2.02-4 4.49-2.58z"/><path id="1uo5O" d="M343.37 3617.21l3.29-1.87.15-.1.15-.05.2-.05.15-.05.2-.05h.56l.2.05h.2l.26.05.2.1.2.05.25.1.2.1.26.16.2.15.25.15.2.15.26.15.2.2.2.2.2.2.2.21.2.2.21.26.2.2.2.25.16.25.15.26.2.25.15.25.15.3.1.26.16.25.15.3.1.25.1.3.1.26.1.3.05.25.1.3.05.31.05.25.05.3v.26l.05.25v.56l-.05.25v.25l-.05.2-.05.26-.05.2-.1.2-.05.2-.1.15-.1.2-.1.16-.1.1-.15.15-.16.1-.1.1-.15.1-3.28 1.92.15-.1.1-.1.15-.1.15-.15.1-.15.1-.15.1-.16.1-.2.06-.15.1-.2.05-.25.05-.2.05-.26v-.2l.05-.25v-.56l-.05-.25v-.3l-.05-.26-.05-.3-.05-.25-.1-.3-.05-.3-.1-.26-.1-.3-.1-.26-.1-.3-.16-.25-.15-.3-.1-.26-.15-.25-.15-.25-.2-.26-.16-.25-.15-.25-.2-.25-.2-.26-.2-.2-.2-.2-.2-.25-.21-.2-.2-.16-.2-.2-.26-.2-.2-.15-.25-.15-.2-.1-.26-.16-.2-.1-.25-.1-.2-.1-.2-.05-.26-.05-.2-.05h-.2l-.2-.05h-.15l-.2.05h-.2l-.16.05-.2.05-.15.1z"/><path id="1uo5P" d="M346.56 3617.57a9.9 9.9 0 0 1 4.5 7.77c0 2.88-2.03 4.04-4.5 2.58a7.4 7.4 0 0 1-1.62-1.26l2.88-1.72c.3-.2.5-.6.5-1.16a4 4 0 0 0-1.81-3.13 2 2 0 0 0-.71-.26c-.46-.05-.8.16-.96.56l-2.43 1.41a7.11 7.11 0 0 1-.35-2.27c0-2.83 2.02-3.99 4.5-2.52z"/><path id="1uo5Q" d="M336.2 3621.35l3.29-1.86.15-.1.15-.06.15-.05.2-.05.15-.05h.61l.2.05h.2l.2.05.26.1.2.05.2.1.25.16.26.1.2.15.25.15.2.15.2.2.26.16.2.2.2.2.2.2.2.2.2.26.21.25.15.2.2.25.16.26.15.25.15.25.15.3.15.26.15.25.1.3.16.26.1.3.1.25.05.3.1.3.05.26.1.3.05.25v.3l.05.26v1.06l-.05.25v.26l-.05.2-.1.2-.05.2-.1.2-.05.16-.1.2-.1.15-.16.15-.1.1-.15.1-.15.15-.15.05-3.28 1.92.15-.1.15-.1.15-.1.1-.15.15-.15.1-.15.1-.16.06-.2.1-.15.05-.2.1-.25.05-.2v-.26l.05-.2v-1.06l-.05-.3v-.26l-.05-.3-.1-.25-.05-.3-.1-.26-.05-.3-.1-.3-.1-.26-.16-.3-.1-.25-.15-.3-.15-.26-.15-.25-.16-.25-.15-.25-.15-.26-.2-.25-.15-.25-.2-.25-.2-.2-.2-.2-.21-.26-.2-.2-.2-.15-.26-.2-.2-.16-.2-.2-.25-.15-.2-.1-.26-.15-.25-.1-.2-.1-.2-.1-.26-.06-.2-.05-.2-.05h-.2l-.2-.05-.2.05h-.36l-.2.05-.15.05-.16.1z"/><path id="1uo5R" d="M339.38 3621.7a9.9 9.9 0 0 1 4.5 7.79c0 2.87-2.02 4.04-4.5 2.57a7.4 7.4 0 0 1-1.61-1.26l2.88-1.72c.3-.2.5-.6.5-1.16a4 4 0 0 0-1.82-3.13c-.25-.15-.45-.2-.65-.25a.95.95 0 0 0-1.01.55l-2.48 1.42a7.11 7.11 0 0 1-.35-2.28c.05-2.83 2.07-3.99 4.54-2.52z"/><path id="1uo5S" d="M322.82 3629.08l3.28-1.92.15-.05.15-.1.2-.05.16-.05h.2l.2-.05h.15l.2.05h.2l.21.05.25.05.2.05.2.1.26.1.2.1.25.1.2.16.26.15.2.15.25.2.2.15.2.2.2.2.21.2.2.26.2.2.2.26.2.25.16.25.15.2.2.3.16.26.15.25.1.25.15.3.15.26.1.3.1.25.1.3.1.26.06.3.1.26.05.3.05.3.05.25v.3l.05.26v.51l-.05.3v.2l-.05.25-.05.2-.05.2-.1.2-.05.21-.1.2-.1.15-.1.16-.1.15-.16.1-.15.15-.1.1-.15.1-3.29 1.87.15-.1.1-.1.16-.1.15-.15.1-.1.1-.16.1-.2.1-.15.05-.2.1-.2.05-.2.05-.26.06-.2v-.25l.05-.26v-.55l-.05-.25v-.26l-.06-.3-.05-.25-.05-.3-.1-.3-.05-.26-.1-.3-.1-.26-.1-.3-.1-.25-.15-.3-.15-.26-.1-.25-.16-.3-.15-.26-.2-.25-.15-.25-.15-.25-.2-.26-.2-.2-.21-.25-.2-.2-.2-.2-.2-.2-.2-.2-.21-.21-.25-.15-.2-.15-.26-.15-.2-.16-.25-.15-.2-.1-.26-.1-.2-.05-.2-.1-.25-.05h-.2l-.2-.05h-.56l-.2.05-.16.05-.2.05-.15.05z"/><path id="1uo5T" d="M326 3629.38a9.9 9.9 0 0 1 4.5 7.78c0 2.88-2.02 4.04-4.5 2.58a7.4 7.4 0 0 1-1.62-1.26l2.88-1.72c.3-.2.5-.6.5-1.16a4 4 0 0 0-1.81-3.14c-.76-.45-1.41-.25-1.67.3l-2.47 1.42a7.11 7.11 0 0 1-.35-2.27c.05-2.78 2.07-3.94 4.54-2.53z"/><path id="1uo5U" d="M315.75 3633.12l3.28-1.92.15-.05.2-.05.16-.1h.15l.2-.05h.81l.2.05.2.05.2.05.26.1.2.1.25.1.2.16.26.1.2.15.25.2.2.15.2.2.26.2.2.2.2.21.2.2.15.25.2.2.2.26.16.25.2.25.15.26.15.25.16.25.15.3.1.26.15.25.1.3.1.26.1.3.1.3.1.25.06.3.05.26.05.3.05.26v.3l.05.25v.56l-.05.25v.25l-.05.2-.05.26-.05.2-.05.2-.1.15-.1.2-.1.15-.1.16-.11.15-.15.15-.1.1-.15.1-.16.1-3.28 1.92.15-.1.16-.1.1-.15.15-.1.1-.15.1-.16.1-.2.1-.15.1-.2.05-.2.05-.2.05-.2.05-.26v-.25l.06-.26v-.5l-.06-.3v-.26l-.05-.3-.05-.25-.05-.3-.05-.26-.1-.3-.1-.25-.1-.3-.1-.3-.1-.26-.15-.25-.1-.3-.16-.26-.15-.25-.15-.3-.15-.26-.2-.25-.15-.25-.2-.2-.2-.26-.16-.2-.2-.25-.2-.2-.26-.2-.2-.2-.2-.16-.2-.2-.26-.15-.2-.15-.25-.16-.2-.1-.25-.1-.2-.1-.26-.1-.2-.05-.2-.05-.2-.05-.2-.05H316.6l-.2.05-.16.05-.15.05-.2.05z"/><path id="1uo5V" d="M318.93 3633.42a9.9 9.9 0 0 1 4.5 7.78c0 2.88-2.03 4.04-4.5 2.58a7.4 7.4 0 0 1-1.62-1.26l2.88-1.72c.3-.2.5-.6.5-1.16a4 4 0 0 0-1.81-3.13c-.76-.46-1.41-.26-1.67.35l-2.42 1.41a7.33 7.33 0 0 1-.35-2.27c0-2.83 2.02-3.99 4.49-2.58z"/></defs><g><g transform="translate(-302 -3556)"><g><use fill="#c4a78b" xlink:href="#1uo5a"/></g><g><use fill="#fac13c" xlink:href="#1uo5b"/></g><g><use fill="#fac13c" xlink:href="#1uo5c"/></g><g><use fill="#fac13c" xlink:href="#1uo5d"/></g><g><use fill="#c4a78b" xlink:href="#1uo5e"/></g><g><use fill="#fac13c" xlink:href="#1uo5f"/></g><g><use fill="#fac13c" xlink:href="#1uo5g"/></g><g><use fill="#fac13c" xlink:href="#1uo5h"/></g><g><use fill="#fac13c" xlink:href="#1uo5i"/></g><g><use fill="#fac13c" xlink:href="#1uo5j"/></g><g><use fill="#c4a78b" xlink:href="#1uo5k"/></g><g><use fill="#fac13c" xlink:href="#1uo5l"/></g><g><use fill="#2c3e50" xlink:href="#1uo5m"/></g><g><use fill="#34485c" xlink:href="#1uo5n"/></g><g><use fill="#34485c" xlink:href="#1uo5o"/></g><g><use fill="#2c3e50" xlink:href="#1uo5p"/></g><g><use fill="#3d566e" xlink:href="#1uo5q"/></g><g><use fill="#2c3e50" xlink:href="#1uo5r"/></g><g><use fill="#2c3e50" xlink:href="#1uo5s"/></g><g><use fill="#3d566e" xlink:href="#1uo5t"/></g><g><use fill="#2c3e50" xlink:href="#1uo5u"/></g><g><use fill="#3d566e" xlink:href="#1uo5v"/></g><g><use fill="#34485c" xlink:href="#1uo5w"/></g><g><use fill="#3d566e" xlink:href="#1uo5x"/></g><g><use fill="#fac13c" xlink:href="#1uo5y"/></g><g><use fill="#f0b11d" xlink:href="#1uo5z"/></g><g><use fill="#fac13c" xlink:href="#1uo5A"/></g><g><use fill="#f0b11d" xlink:href="#1uo5B"/></g><g><use fill="#c4a78b" xlink:href="#1uo5C"/></g><g><use fill="#b19377" xlink:href="#1uo5D"/></g><g><use fill="#fac13c" xlink:href="#1uo5E"/></g><g><use fill="#f0b11d" xlink:href="#1uo5F"/></g><g><use fill="#fac13c" xlink:href="#1uo5G"/></g><g><use fill="#f0b11d" xlink:href="#1uo5H"/></g><g><use fill="#fac13c" xlink:href="#1uo5I"/></g><g><use fill="#f0b11d" xlink:href="#1uo5J"/></g><g><use fill="#c4a78b" xlink:href="#1uo5K"/></g><g><use fill="#b19377" xlink:href="#1uo5L"/></g><g><use fill="#fac13c" xlink:href="#1uo5M"/></g><g><use fill="#f0b11d" xlink:href="#1uo5N"/></g><g><use fill="#fac13c" xlink:href="#1uo5O"/></g><g><use fill="#f0b11d" xlink:href="#1uo5P"/></g><g><use fill="#fac13c" xlink:href="#1uo5Q"/></g><g><use fill="#f0b11d" xlink:href="#1uo5R"/></g><g><use fill="#c4a78b" xlink:href="#1uo5S"/></g><g><use fill="#b19377" xlink:href="#1uo5T"/></g><g><use fill="#fac13c" xlink:href="#1uo5U"/></g><g><use fill="#f0b11d" xlink:href="#1uo5V"/></g></g></g></svg>