<svg xmlns="http://www.w3.org/2000/svg" xmlns:xlink="http://www.w3.org/1999/xlink" viewBox="0 0 200 120">
  <defs>
    <style>
      .cls-1 {
        clip-path: url(#clip-_200x120);
      }

      .cls-2 {
        fill: #005a9a;
      }

      .cls-3 {
        fill: #fff;
      }
    </style>
    <clipPath id="clip-_200x120">
      <rect width="200" height="120"/>
    </clipPath>
  </defs>
  <g id="_200x120" data-name="200x120" class="cls-1">
    <rect class="cls-3" width="200" height="120"/>
    <g id="Group_368" data-name="Group 368" transform="translate(8.105 47.1)">
      <g id="Group_362" data-name="Group 362" transform="translate(0 3.351)">
        <path id="Path_1546" data-name="Path 1546" d="M22.53,28.017v-16.1H15.866v16.1h-4.6v-16.1h-6.7v16.1H0V12.587A7.843,7.843,0,0,1,.159,10.8a2.593,2.593,0,0,1,.595-1.19,2.832,2.832,0,0,1,1.23-.674A6.762,6.762,0,0,1,3.966,8.7H23.244a4.172,4.172,0,0,1,3.094.912,4.3,4.3,0,0,1,.833,2.975v15.43Z" transform="translate(0 -8.66)"/>
        <path id="Path_1547" data-name="Path 1547" d="M102.2,28.017V8.7h4.561V27.977H102.2Zm10-9.956,7.219,9.956H114.02l-6.7-9.678L115.21,8.7h5.037Z" transform="translate(-61.663 -8.66)"/>
        <path id="Path_1548" data-name="Path 1548" d="M155,11.973v16.1h-4.6V12.647a4.061,4.061,0,0,1,.912-2.935,4.082,4.082,0,0,1,3.054-.912h8.211v3.213H155Z" transform="translate(-90.744 -8.721)"/>
        <path id="Path_1549" data-name="Path 1549" d="M202.158,23.99A6.856,6.856,0,0,1,202,25.616a2.97,2.97,0,0,1-.595,1.23,3.47,3.47,0,0,1-1.23.793,6.4,6.4,0,0,1-1.944.317c-.833.04-1.547.04-2.221.079-.555.04-1.111.04-1.626.04h-1.745c-.476,0-.952,0-1.507-.04-.635-.04-1.309-.04-2.063-.079a4.662,4.662,0,0,1-2.816-.833,3.529,3.529,0,0,1-.952-2.856V12.646a4.421,4.421,0,0,1,.833-2.9,4,4,0,0,1,3.094-1.071c.793,0,1.507,0,2.142-.04.555-.04,1.111-.04,1.547-.04h1.745c.476,0,.992.04,1.547.04.635.04,1.349.04,2.142.04a9.6,9.6,0,0,1,1.626.2,2.97,2.97,0,0,1,1.23.595,2.652,2.652,0,0,1,.754,1.15,6.521,6.521,0,0,1,.278,1.944V23.99Zm-4.641-12.137h-7.655V24.744h7.655Z" transform="translate(-111.801 -8.6)"/>
        <rect id="Rectangle_172" data-name="Rectangle 172" width="4.601" height="14.517" transform="translate(31.494 4.799)"/>
      </g>
      <circle id="Ellipse_36" data-name="Ellipse 36" class="cls-2" cx="2.38" cy="2.38" r="2.38" transform="translate(31.415 2.082)"/>
      <circle id="Ellipse_37" data-name="Ellipse 37" class="cls-2" cx="2.38" cy="2.38" r="2.38" transform="translate(79.488 10.649)"/>
      <rect id="Rectangle_173" data-name="Rectangle 173" class="cls-2" width="0.873" height="23.601" transform="translate(97.06 0.654)"/>
      <g id="Group_367" data-name="Group 367" transform="translate(101.185 -0.1)">
        <path id="Path_1550" data-name="Path 1550" class="cls-2" d="M458.5,29.067a.39.39,0,0,1-.317.159h-.555a.959.959,0,0,1-.516-.079,3.7,3.7,0,0,1-.793-.4c-1.983-.793-2.3-2.9-4.165-5.474a21.507,21.507,0,0,0-2.3-2.459c-.079,0-.079.079-.159.159-.2,1.031-.4,1.983-.516,2.935-.079.2-.079.357-.159.555a2.62,2.62,0,0,1,.04.555,2.425,2.425,0,0,1-.278.952c-.119.516.119,1.111.04,1.626a.824.824,0,0,1-.476.2c-.119,0-.238-.119-.436-.278-.119-.079-.436-.2-.555-.436A4.863,4.863,0,0,1,447,25.815c0-2.658,1.15-7.536,1.626-9.6.2-.635,1.031-2.856,1.468-4.284a4.452,4.452,0,0,1-1.031-.317c-.238-.2-.159-.595-.476-.674V10.9c0-.04-.04-.079-.04-.119,0-.079.119-.159.119-.278.119-.2.04-.357.079-.555.238-.2.436-.436.635-.635a2.428,2.428,0,0,1,.674-.278c.119,0,.119-.2.238-.2.6-.079,1.785-.238,1.9-.238a9.943,9.943,0,0,1,4.958,1.983.574.574,0,0,1,.079.278,3.65,3.65,0,0,1,1.031,1.626,1.323,1.323,0,0,1,.2.476,2.453,2.453,0,0,1-.159.635,4.973,4.973,0,0,1-.476,1.19c-.119.2-.436.436-.595.635a1.129,1.129,0,0,1-.159.317l-.674.635a17.918,17.918,0,0,1-1.864,1.468c-.516.357-1.111.754-1.706,1.111a9.434,9.434,0,0,1-1.071.476.864.864,0,0,1-.357.278c2.3,1.706,3.49,5.2,5.236,6.862.952.436,1.23,1.19,1.9,1.745a.885.885,0,0,1,.119.555C458.661,28.988,458.5,29.027,458.5,29.067Zm-5.791-18.6c-.119,0-.278.079-.357.079a3.79,3.79,0,0,1,.278.912,5.527,5.527,0,0,1-.119,1.269c-.2.833-.635,1.864-.833,2.459l-.714,1.9a.149.149,0,0,1,.238,0c0-.119.2-.278.317-.357a19.606,19.606,0,0,0,3.173-2.261v-.238a6.637,6.637,0,0,0,1.706-2.3A5.657,5.657,0,0,0,452.712,10.464Z" transform="translate(-370.883 -5.149)"/>
        <path id="Path_1551" data-name="Path 1551" class="cls-2" d="M434.711,24.773c-.2.873-.476,2.5-.476,2.7s.278,1.19.278,1.309c0,.2-.317.357-.317.595-.079,0-.278.04-.436.04-.2,0-.2-.317-.317-.436a2.711,2.711,0,0,1-.793-2.023c-.119-.4.119-1.388.079-2.7,0-.2.436-2.658.436-2.856.278-.793.6-3.213.873-4.363s.674-2.3.992-3.49c.119-.555.357-1.269.555-1.944.2-.516.2-1.388.714-1.706a.836.836,0,0,1,.436-.2c.2,0,.4.4.555.4a1.407,1.407,0,0,0,.278-.04.123.123,0,0,1-.079.04v.119c0,.238.476,1.031.476,1.269a3.453,3.453,0,0,1-.317,1.111,2.589,2.589,0,0,1,.079.436c-.516,1.785-1.071,3.49-1.587,5.117-.119.714-.317,1.547-.516,2.3A18.693,18.693,0,0,1,434.711,24.773Z" transform="translate(-362.204 -5.813)"/>
        <path id="Path_1552" data-name="Path 1552" class="cls-2" d="M275.765,12.38a1.8,1.8,0,0,1-.119.635,3.151,3.151,0,0,0-.159.357c0,.04,0,.04.04.04,0,.04.04.04.079.04-.119.079-.119.2-.238.4-.516,2.142-1.031,4.363-1.468,6.545a1.719,1.719,0,0,0-.04-.2c-.119.2,0,.357,0,.595v-.04c0-.04-.04-.04-.079-.119,0,.238-.159.357-.04.595l.04-.04c.04-.04.04-.04.04-.079,0,.119-.119.2-.04.357-.04,0-.04,0-.04-.04-.04-.04,0-.04-.079-.079a12.785,12.785,0,0,0-.2,1.507,5.029,5.029,0,0,1,0,1.428c.04.436.119.873.2,1.309a1.256,1.256,0,0,1,.238.595v.357a.548.548,0,0,1-.476.436c-.119,0-.2-.04-.357-.04-.119,0-.357-.2-.555-.357a.238.238,0,0,0-.04-.159,2.662,2.662,0,0,1-.754-1.388,14.784,14.784,0,0,1-.278-2.42c0-.119.2-1.547.2-1.706v-.278h.04a.146.146,0,0,0,.119-.04c.119-.635-.04-.516-.04-.635s.278-.793.357-1.19a3.764,3.764,0,0,0,.079-.793c-.119,0-.159.079-.159.238a1.7,1.7,0,0,1,.317-1.031c.04-.119,0-.159,0-.357-.04.04,0,.079.079.2.079-.079.04-.04.04-.159s.079-.357.079-.555c0-.04.119-.159.079-.278l-.04-.04h-.079c0-.476.238-1.388.238-1.547,0-.2.04-.119-.04-.2-.119.119-.4.2-.4.317l-.119-.119c-.079.079-.04.119-.159.2a.105.105,0,0,0,.119.119,1.784,1.784,0,0,1-.278.555c0-.079.04-.119.04-.238a1.438,1.438,0,0,0-.595.833c-.119.2-.317.357-.4.476a4.775,4.775,0,0,1-.357.833c-.079.2,0,.4-.119.595-.516,1.071-1.15,2.221-1.745,3.292a2.267,2.267,0,0,0-.278.317c-.516.833-.833,1.864-1.309,2.618-.555,1.071-.754,2.42-1.388,3.372a2.593,2.593,0,0,1-.833.159c-.119,0-.2-.238-.317-.317a1.72,1.72,0,0,1-1.071-1.23l-.2-.2a5.585,5.585,0,0,1-.04-1.15,4.415,4.415,0,0,1-.159-.912c0-.119.119-.119.159-.2a3.411,3.411,0,0,1,.04-.635l.119-.119c-.278-.436-.119-1.15-.2-1.745l.04-4.2c0-.119-.04-.04-.079-.119-.079-.119.079-.357.079-.436a2.652,2.652,0,0,0-.2-.754,3.414,3.414,0,0,1,.04-.635,8.934,8.934,0,0,0-.159-1.825,1.066,1.066,0,0,0-.436.674c-1.15,2.7-2.578,5.989-3.609,8.925-.2.555-.476,1.15-.674,1.706-.317,1.071-.6,2.142-.833,3.253-.079.119.04.595-.278.833-.079,0-.2.238-.4.238s-.357-.079-.555,0a9.856,9.856,0,0,0-.714-.992.985.985,0,0,1-.04-.754l-.238-.2c-.079-.2.2-.2-.079-.436a.548.548,0,0,0,.2-.357c.04-.04.119-.079.2-.159-.079-.119.04-.278-.159-.278-.119,0-.04-.04-.119.04l.159-.159c.079-.2-.079-.516.04-.754a29.425,29.425,0,0,1,1.388-3.808,3.8,3.8,0,0,1,.357-.635.846.846,0,0,1,0-.317c.079-.436.555-.952.436-1.388a.218.218,0,0,1,.2.119c.04.04-.04.119.079.2.119-.079.079-.278.2-.357a5.077,5.077,0,0,1-.436,1.23v.04c0,.04,0,.04.04.04.04-.04.119-.079.119-.159l1.071-2.578v-.04c0-.04,0-.04-.04-.04a4.123,4.123,0,0,0-.555,1.111h-.04c-.04,0-.04-.04-.079-.04a1.052,1.052,0,0,0-.238.2,1.159,1.159,0,0,1-.079.357c-.04,0-.04,0-.079-.04-.04,0-.04-.04-.079-.04a9.3,9.3,0,0,1,.793-1.785c.119-.2.2-.714.317-.912.04-.04.079-.159.2-.159-.119.119-.159.436-.238.516-.04.119.04.119.04.159a2,2,0,0,1-.278.516c0,.119.04.119.04.238a.363.363,0,0,0-.2-.119,6.237,6.237,0,0,1-.119,1.071c.2-.436.436-.912.635-1.428,0,.079-.04.119-.04.2l.079.119c.119-.119.119-.278.238-.436-.079-.079-.159-.119-.238-.04,0-.04,0-.04.04-.079,0-.04.04-.079.04-.119h.04c.04,0,.04.04.079.04l2.975-5.95L262,10.278l-.238.2a1.224,1.224,0,0,0,.2-.278.039.039,0,0,0,.04.04h.079c.119-.079.119-.357.317-.476l-.079-.04c-.119.079-.2.119-.2.2,0-.079.119-.04,0-.119-.119.119-.2.357-.4.476v.04c0,.04,0,.04.04.04l-.793,1.269a.36.36,0,0,0,.119.278c0-.04-.04-.04-.04-.079a7.187,7.187,0,0,1-1.111,1.785c.278-.595.555-1.507.912-2.1a32.718,32.718,0,0,0,1.547-2.9l.2-.159c.119.04.119.159.2.278l.119-.119c.119,0,.238.04.357.04.119-.079,0-.159,0-.238.4.278.555.238.754.635h.119c.079-.119,0-.119,0-.2.595.357.555,1.071.793,1.547.079.436.278,1.23.357,1.745.079.912.2,2.7.2,2.856V17.18c0,.119-.119,2.3-.2,3.49l.119.119a.3.3,0,0,0,.238-.317v.04c0,.04.04.04.079.079.079-.04.04-.079.159-.2-.04.04-.04.119.04.278a1.205,1.205,0,0,1,.2-.278v-.278c0-.079-.4.04-.2.119,0,.04,0,.04-.04.04h-.119a11.805,11.805,0,0,0,.793-1.15,4.852,4.852,0,0,0-.4.912v.04c0,.04,0,.04.04.04a3.147,3.147,0,0,0,.6-.992,1.717,1.717,0,0,0,.04.2.754.754,0,0,0,.2-.516l-.119.119a4.748,4.748,0,0,0,.516-.833c.079-.2.357-.436.119-.595a1.909,1.909,0,0,0,.476-.635c.436-.635.912-1.309,1.349-1.944.357-.595.714-1.309,1.031-1.983.04-.079.159-.04.238-.2l.912-1.309a9.494,9.494,0,0,1,.516-1.111c.119-.119.516-.278.6-.754-.079,0-.119.04-.2.04.079-.119.555-.278.476-.674,0,.079,0,.119.04.119.119-.119.238-.2.238-.317,0-.04-.079-.04-.238-.04-.2,0-.278.238-.357.357a5.007,5.007,0,0,1,.754-1.309h.2v.04c0,.04-.04.04-.04.119.119.079.317-.04.516.079.04-.04.04-.04.04-.079V7.7c.2.119.4.2.516.278a.829.829,0,0,0,.238.159,1.188,1.188,0,0,1,.4.159c.119.079.119.278.2.357a4.4,4.4,0,0,1,.357.754,6.49,6.49,0,0,1,.119,1.388A5.923,5.923,0,0,1,275.765,12.38ZM255.5,25.708l-.04.119-.159-.04.04-.119Zm2.221-5.434H257.6l-.119.476h.119Zm.04-.674-.119-.04-.079.159.079.079Zm.278-.714h-.119l-.119.238.119.04Zm.04-.833v-.2h.119v.2Zm1.388-3.015a1.41,1.41,0,0,0,.079-.4l.079.119C259.622,14.84,259.542,14.919,259.463,15.038Zm.317-.119c.079-.119-.04-.278.04-.436-.079-.079-.2.04-.278.119a.98.98,0,0,1,.159-.357l.119-.119a.105.105,0,0,0-.119-.119.039.039,0,0,1,.04-.04.146.146,0,0,0,.04-.119.857.857,0,0,0,.04.436.865.865,0,0,0,.4-.436Zm.317-1.111-.119.2-.119-.04.119-.159Zm3.253,12.137h-.079l-.079-.159.079-.04Zm2.182-4.68h-.119v.159h.119Zm.159-.476-.079.159.079.04.119-.159Zm1.269-2.142-.079-.04.04-.2h.119Zm.6-1.19-.278.674-.04-.04.238-.635Zm.119-.119a2.965,2.965,0,0,1,.635-1.15C268.11,16.466,267.872,16.982,267.674,17.339Zm.952-1.745-.079.2-.079-.079.04-.159Zm.2-.357-.159.159-.04-.04.159-.159Zm.357-.516c-.04,0-.04,0-.04-.04-.04,0,0-.04-.079-.04-.04,0-.04,0-.04-.04.119-.079.4-.278.4-.357C269.419,14.324,269.181,14.522,269.181,14.721Zm.317-.595-.04-.04.119-.238.079.04Zm.159.119-.079.159-.119-.04.119-.159Zm.317-.833a.362.362,0,0,1-.119-.2h.04c.04,0,.04.04.079.079l.04-.04c.04-.04.04-.04.04-.079C270.054,13.332,269.974,13.332,269.974,13.412Zm.238-.436c0-.119.04-.238.04-.357A.4.4,0,0,1,270.212,12.975Zm.952-1.428v-.119a.3.3,0,0,1,.079-.2A.477.477,0,0,1,271.164,11.547Zm.317,13.05h-.119l-.119-.4h.119Zm.2-13.922-.079.159-.119-.04.119-.159Zm.278-.317c-.04,0-.04,0-.079-.04-.04,0-.04-.04-.079-.04a2.107,2.107,0,0,0,.516-.516C272.235,9.961,272.037,10.12,271.958,10.358Zm.278,3.966c.119,0,.159-.079.159-.2Zm.4-5.156a1.1,1.1,0,0,0-.119.516c-.079-.079-.119-.04-.2-.04Zm-.2,4.958c.2-.2.278-.436.4-.516A.876.876,0,0,0,272.434,14.126Zm.238,1.349h-.079v.159h.079Zm.714-7.3c-.04,0-.04,0-.079-.04,0,.2-.04.436-.04.555a1.1,1.1,0,0,0,.2-.476C273.425,8.216,273.425,8.176,273.385,8.176Z" transform="translate(-255.1 -4.606)"/>
        <path id="Path_1553" data-name="Path 1553" class="cls-2" d="M322.352,17.565c-.079.4-.4.952-.317,1.309a23.481,23.481,0,0,0-.476,2.42c-.119.992-.476,2.7-.476,2.856v1.587c0,.2-.119.04-.119.2A3.058,3.058,0,0,0,321.4,27.4a3.749,3.749,0,0,0,.912.635,2.023,2.023,0,0,0,.357.555c-.119.119-.04.476-.238.476h-.278c-.04.04,0,.079.079.159-.119,0-.2.159-.357.159-.2,0-.079-.119-.278-.119a2.027,2.027,0,0,1-.555-.278c-.317-.2-.595-.357-.754-.476a4.215,4.215,0,0,1-.595-.595c-.079-.04-.159-.2-.238-.079v-.079c0-.04.04-.04.04-.079a4.955,4.955,0,0,1-.635-1.706.3.3,0,0,1,.04-.2,3.309,3.309,0,0,1-.159-.595V21.175c-.04-.119.04-.079-.04-.159-1.983,2.618-4.046,6.584-6.941,7.933a.177.177,0,0,1-.2,0,4.234,4.234,0,0,1-1.745.2c-.4,0-.873-.754-1.15-.754-.119,0,.04.079-.119.079-.079,0-.238-.119-.436-.357a3.737,3.737,0,0,1-.436-.674,1.465,1.465,0,0,1-.2-.436,4.415,4.415,0,0,0-.119-.516.64.64,0,0,1-.119-.357c0-.079-.04-.278-.04-.436,0-.119.079-1.388.2-2.063.04-.2.119-.516.2-.833v-.2l1.428-4.68,1.983-4.68c.317-.119.357-.635.555-.992a.745.745,0,0,0,.317-.436c.079-.2.04-.436.119-.674,0,.04,0,.04.04.04.04.04.04.04.119.04.2,0,.079.079.2.079s.2-.2.317-.2c.2,0,.04.119.2.119.119,0,.04-.04.238-.04.516,0,.674.555.674.754a10.137,10.137,0,0,1-.873,2.9c-.04.119.04.119.04.238-.4,1.15-.873,2.261-1.309,3.332-.119.2-.079.635-.159.873l-.833,2.261-.079.635c-.2.555-.555,1.269-.754,1.9-.119.833-.238,2.459-.238,2.578,0,.278-.04.595.357.595a3.025,3.025,0,0,0,1.547-.912c.04-.04.079-.04.159-.04a28.93,28.93,0,0,0,3.054-3.728,17.331,17.331,0,0,1,1.468-1.9c.04,0,0-.2.119-.278a13.51,13.51,0,0,0,1.19-1.745c.357-.595.992-2.023,1.388-2.221-.079-.4.555-1.071.754-1.388.119-.357.595-1.388.873-2.142a7.086,7.086,0,0,1,.476-.952c.119.079.2-.079.357-.079.119,0-.04.119.119.119.2,0,.119-.079.119-.119.2.079.436-.04.635-.04.119,0,.754.793,1.071,1.071a1.634,1.634,0,0,1,.04.476C323.264,14.273,322.471,16.494,322.352,17.565Z" transform="translate(-286.535 -6.658)"/>
        <path id="Path_1554" data-name="Path 1554" class="cls-2" d="M357.987,11.512c-.04.079-.119.278-.2.476a.343.343,0,0,1-.238-.119l-.2.238h.04c0-.04,0-.04.04-.079v-.04c0-.04,0-.04-.04-.04a1.243,1.243,0,0,0-.436.317.588.588,0,0,0-.04-.278,2.774,2.774,0,0,1-.674-.555l-.079-.2c.04-.119,0-.317.04-.436h-.04a.085.085,0,0,1-.079-.079,1.4,1.4,0,0,1,.04-.555c.04-.04.079.04.119-.04l.079-.119c-.04-.079.04.04.04-.119a3.865,3.865,0,0,0-.754-1.9,2.654,2.654,0,0,0-.952-.476c-.2,0,.04.04-.159.079-.2,0-.159-.119-.278-.159-.04-.04-.119-.04-.278,0a4.611,4.611,0,0,0-1.468,1.031A4.648,4.648,0,0,0,352,9.687a1.089,1.089,0,0,0-.079.516,4.914,4.914,0,0,0,.159,1.19c0,.119.238.317.278.555.119.4.079.992.4,1.388l.674,1.864c0,.079.119.2.2.317.476,1.19.714,2.023,1.428,3.57a11.8,11.8,0,0,1,.833,3.57,6.685,6.685,0,0,1-.159,1.269c-.04.119.079.238,0,.357a2.333,2.333,0,0,1-.793,1.15,3.587,3.587,0,0,1-.4.436.431.431,0,0,0-.2.04,3.076,3.076,0,0,1-1.388.4l-.6.04c-.2,0-1.19-.4-1.388-.4s.04.079-.119.079c-.119,0-.4-.278-.476-.4a9.182,9.182,0,0,1-1.349-.873,6.629,6.629,0,0,1-1.23-1.745c-.159-.2-.278-.555-.476-.833,0-.079.159-.159.079-.238-.04-.04-.079-.119-.159-.159a2.445,2.445,0,0,0-.079-.912c0-.119-.159-.159-.159-.317,0-.2.079-.159.079-.278.079,0,.04.119.2.159a2.719,2.719,0,0,1-.04-.833c.04,0,.079.079.159.2a1.379,1.379,0,0,0-.159-.873c.119,0-.04-.119.159-.119s.04.04.159.04c0-.2.079-.317.079-.516,0,.2-.079.357,0,.555.04.119.079.04.119.079.119.079,0,.516.278.555a1.564,1.564,0,0,0,.2.555l.119-.119A4.257,4.257,0,0,0,349.1,22.1c.2.159.436.754.595.754.119,0,.04-.04.04-.119.238.476,1.983,1.031,2.737.992a.747.747,0,0,0,.317-.079l.119.119c.079-.079.4-.159.516-.278a1.571,1.571,0,0,0,.555-.754,1.878,1.878,0,0,0,.04-.674c0-.2-.04-.119-.04-.119a2.167,2.167,0,0,0-.04-.714,42.5,42.5,0,0,0-2.221-5.2c0-.119-1.706-4.4-1.745-5.672V9.766a5.05,5.05,0,0,1,.079-.873,7.007,7.007,0,0,1,.714-1.864c0-.079-.079-.04-.079-.159.2-.079.4-.4.555-.4.2,0-.04.119.079.119.2,0,.674-.635.912-.635.555-.04,1.468-.159,1.666-.159.119,0,.992.317,1.349.4a4.3,4.3,0,0,0,.952.4c1.19.079,1.9,3.015,1.944,4.046C358.106,10.639,358.066,11.234,357.987,11.512Z" transform="translate(-310.548 -3.46)"/>
        <path id="Path_1555" data-name="Path 1555" class="cls-2" d="M382.068,20.083a4.6,4.6,0,0,1-.635.119,4.635,4.635,0,0,0-.238.793c-.119.2-.04.317.04.516-.079.119-.119.04-.159.119a25.614,25.614,0,0,1-.159,2.935c-.2,1.071.2,1.587-.357,2.7a1.8,1.8,0,0,0-.119.635c-.079,0-.079.079-.2.079a.406.406,0,0,0-.238.2,4.518,4.518,0,0,0-.754-.357c-.674-.952-.357-1.9-.357-2.935a4.157,4.157,0,0,1,.04-.992l.04-3.411h-.992a13.79,13.79,0,0,0-2.7.754c-.4.754-.674,1.626-1.23,2.539a1.4,1.4,0,0,0-.357.436,8.687,8.687,0,0,0-.476,1.309c-.119,0-.04-.119-.119-.2a.67.67,0,0,0-.119.4c-.079,0-.119.079-.2-.04l-.119.119c-.079-.119-.317-.159-.516-.278a.87.87,0,0,1-.278-.674,8.358,8.358,0,0,1,.595-1.864c.159-.436.357-.912.6-1.468-.4-.278-.952-.595-1.269-.833a6.389,6.389,0,0,1-.595-1.15c0-.159.278-.357.357-.436a.429.429,0,0,0,.278.119,4.787,4.787,0,0,0,1.19-.357,4.749,4.749,0,0,0,1.309-.2c1.15-2.38,2.182-5.117,3.332-7.3.238-.516.635-1.309,1.23-2.38.278-.436.833-1.031,1.23-1.745a2.2,2.2,0,0,0,.159-.912l.04-.04a.569.569,0,0,1,.119-.079c.2,0,.278.079.436.079.119,0,.2.079.278,0,.04.079.04.2.238.2s-.04-.04.119-.04a1.278,1.278,0,0,1,.635.714,5.3,5.3,0,0,1,.2,1.944c0,.119-.079.595-.119.833a3.594,3.594,0,0,0,.04.912c-.2,1.468-.357,2.935-.436,4.442l-.436,3.015c.04.04.159.04.278.04a13.173,13.173,0,0,0,2.142.119c0,.079.04.2.119.2l-.119.159a.771.771,0,0,0,.357.436A6.457,6.457,0,0,1,382.068,20.083Zm-2.539-7.338a58.442,58.442,0,0,0-2.777,5.751,7.181,7.181,0,0,0,2.3.04Z" transform="translate(-325.149 -3.701)"/>
        <path id="Path_1556" data-name="Path 1556" class="cls-2" d="M417.848,7.052c-.079.317-.516.516-.436.793h.04c.04,0,.04-.04.079-.04-.04.079-.119.079-.2.04q-.178.357-.476.833v.04c0,.04,0,.04.04.079.119-.119.278-.357.476-.436-.04.119-.357.516-.2.595a13.447,13.447,0,0,0-.912,1.349c-.317.992-.992,1.428-1.19,2.063-.04.119-.238.317-.278.436a1.867,1.867,0,0,1-.159.635c-.2.357-.357.595-.555.912-.2.238-.317.714-.516,1.031-.2.436-.635.833-.873,1.309a.4.4,0,0,0-.04.357,1.771,1.771,0,0,0-.317.674.572.572,0,0,0-.436.357.3.3,0,0,0,.2.04,1.934,1.934,0,0,1-.4.516c-.079.04.04.159,0,.2-.079.04-.119-.04-.119.04-.436.992-1.15,2.182-1.706,3.253a4.231,4.231,0,0,1-.357.754,1.392,1.392,0,0,0-.317.4c-.4.833-.674,1.825-1.111,2.7a1.814,1.814,0,0,1-.793.357c-.119,0-.278-.2-.476-.278a.675.675,0,0,0-.278-.04c-.4-.317-.436-.714-1.071-.952.119-1.071-.2-2.935-.278-4.8a9.114,9.114,0,0,1-.079-1.507c0-1.23-.159-5.077-.159-5.2L404.6,9.035c0-.2.159-.317.2-.516a2.336,2.336,0,0,1,.833-.2,1.64,1.64,0,0,1,.952.674,7.311,7.311,0,0,1,.357,1.111,24.382,24.382,0,0,1,.238,3.451c.04.833.119,2.142.119,2.856a17.962,17.962,0,0,0,.119,4.323c.436-.317.595-.912.912-1.349.119-.2.357-.357.516-.635a4.319,4.319,0,0,1,.2-.555,3.169,3.169,0,0,0,.516-.635c.635-1.15,1.388-2.459,2.1-3.57.2-.4.754-.992,1.071-1.547.357-.516.793-1.19,1.19-1.745.04-.04.159-.04.2-.119.278-.555.833-1.309,1.15-1.825h.079A4.918,4.918,0,0,0,416.7,7.012c.119,0,.238-.079.317-.278.119,0,.238,0,.238.119,0,.04.04.119.04.159h.04c.119.2.079.2,0,.317v.04a.18.18,0,0,1,.2,0Zm-3.173,2.38-.119.2-.119-.04.159-.238Zm1.507-1.864-.159.159-.04-.04.119-.159Zm.436-.516-.159.159-.079-.079.159-.159Zm0,1.864c.119,0,.159-.04.159-.159Zm.873-2.777-.516.516-.079-.04.555-.516Zm-.317,1.706-.079-.04-.079.159.079.04Zm.159-1.349-.159.119V6.5l.119-.079Z" transform="translate(-345.301 -3.641)"/>
        <g id="Group_363" data-name="Group 363" transform="translate(74.332)">
          <path id="Path_1557" data-name="Path 1557" class="cls-2" d="M445.475,2c-.317.238-.555.714-.912.992a2.244,2.244,0,0,1-.952.238c-.912,0-1.111-.793-1.111-1.349a1.1,1.1,0,0,1,.119-.516c.238-.238.714-.912.912-.912s-.04.079.2.079c.159,0,.4-.476.714-.635-.079.317.436.635.714.555,0,.159-.04.238-.079.238.238.238.555.555.555.754A3.339,3.339,0,0,1,445.475,2Z" transform="translate(-442.5 0.1)"/>
        </g>
        <g id="Group_364" data-name="Group 364" transform="translate(32.684)">
          <path id="Path_1558" data-name="Path 1558" class="cls-2" d="M340.475,2c-.317.238-.555.714-.912.992a2.244,2.244,0,0,1-.952.238c-.912,0-1.111-.793-1.111-1.349a1.1,1.1,0,0,1,.119-.516c.238-.238.714-.912.912-.912s-.04.079.2.079c.159,0,.4-.476.714-.635-.079.317.436.635.714.555,0,.159-.04.238-.079.238.238.238.555.555.555.754A3.333,3.333,0,0,1,340.475,2Z" transform="translate(-337.5 0.1)"/>
        </g>
        <g id="Group_365" data-name="Group 365" transform="translate(28.003)">
          <path id="Path_1559" data-name="Path 1559" class="cls-2" d="M328.675,2c-.317.238-.555.714-.912.992a2.244,2.244,0,0,1-.952.238c-.912,0-1.111-.793-1.111-1.349a1.1,1.1,0,0,1,.119-.516c.238-.238.714-.912.912-.912s-.04.079.2.079c.159,0,.4-.476.714-.635-.079.317.436.635.714.555,0,.159-.04.238-.079.238.238.238.555.555.555.754C328.794,1.725,328.675,1.844,328.675,2Z" transform="translate(-325.7 0.1)"/>
        </g>
        <g id="Group_366" data-name="Group 366" transform="translate(38.99 22.884)">
          <path id="Path_1560" data-name="Path 1560" class="cls-2" d="M355.026,59.619c-.159,0-.357-.2-.595-.159-.079-.119-.278-.555-.714-.595.079-.04.119-.04.159-.119-.119-.119-.2-.159-.278-.119.079,0,.119,0,.079-.119a.406.406,0,0,0-.238-.2c.04-.079.119-.159.079-.278a.275.275,0,0,0-.119-.159l.317.04c.079-.079.079-.159-.04-.2.079,0,.04-.079.159-.119s.873.436,1.15.476a6.422,6.422,0,0,0,1.9.238c.04,0,.079.079.238.119s.278-.04.436-.079a1.637,1.637,0,0,1,.278.436c-.04.079-.159.04-.278.079-.04.079-.079,0-.04.119.04.159.04,0,.079.119.04.079-.04.2-.159.278a2.12,2.12,0,0,1-.793.357A6.236,6.236,0,0,1,355.026,59.619Z" transform="translate(-353.4 -57.594)"/>
        </g>
      </g>
    </g>
  </g>
</svg>
