<svg xmlns="http://www.w3.org/2000/svg" xmlns:xlink="http://www.w3.org/1999/xlink" width="335" height="72" viewBox="0 0 335 72"><defs><path id="iuzra" d="M286.43 74.77c-.43.22-.64.43-.64.65-.65 0-1.51.21-2.16.64-.43.22-1.07.44-1.5.65-1.94.43-4.1.86-6.47 1.3-.21 0-.64.64-1.07.64-1.08 0-1.08.21-2.8.86-.87.22-2.38.43-2.8.43-.22 0-2.16.22-2.38.86-1.72 3.67-2.15 7.54-3.44 11.2l14.43-1.5c.22 0 5.17-.22 5.6-.22h.43c.22.22.65.65.22.86 0 .22.43.44.65.44 0 .21.21.64.43.86-.22 0-.87.21-1.08.21-.22 0-.22.22 0 .65-.22 0-.43 0-.65.21.22 0 .22.22.22.22-.43 0-.65.65-1.51.65a39.9 39.9 0 0 1-7.1 1.72c-.44 0-.22-.22-.66-.22-.21 0-1.72.87-3.23 1.08-.86.22-2.15.22-3.23.43-1.5.22-4.52.43-6.68 1.08-.21 1.72-1.07 4.1-1.5 5.82-.22 1.07-.22 2.37-.44 3.44 0 .22-.43.65-.43 1.08-.21.22-.21 1.5-.21 2.15l-.22.22c0 1.3-.43 3.45-.86 4.96 0-.44 0-.65-.43-.87-.22.43-.22.87-.43 1.3-.22-.22-.22-.22-.22-.43-.21.21-.43 0-.64.21-.43-.43-1.51-1.3-1.51-1.72 0-.22.21-.43.21-.65 0-6.03.87-10.99 1.73-16.16-1.94-1.29-2.37-2.8-2.37-4.74.43-.21 1.3-.21 2.15-.43.43 0 1.3-.21 1.73-.43.64-2.58 1.72-5.81 2.37-8.62.43-1.07.64-2.8 1.29-4.3.21-.44.64-1.08.64-1.51 0-.43-.64-1.73-.64-2.16v-.21c.21-.22.43-.22.64-.22.44 0 0 .22.44.22.21 0 .64-.43 1.29-.65.21 0 .21 0 .43.22 1.3 0 3.23-.22 4.95-.65.87-.21 2.16-.65 2.59-.65h.43c.22 0 4.96-.64 7.32-1.07.44-.22.87-.22 1.3-.43.64-.22 1.72-.22 2.15-.22 1.08 0 2.8 0 3.66.86 0 .22 0 .65.22.86v.22c0 .22.22.22.22.43 0 .22-.44.22-.44.43z"/><path id="iuzrc" d="M307.76 111.61c0 .22.22.43.22.43-.86.22-2.37 1.3-2.59 1.3-.43 0 0-.22-.43-.22-.21 0-2.58.65-3.45.86-4.3.43-8.61 1.94-12.28 1.94-.21 0-2.8-.22-4.09-.86a17.16 17.16 0 0 1-2.8-2.8c-.43-.86-.65-1.94-.86-2.8-.22-.22-.22-.43-.22-.87 0-3.01 2.8-8.83 3.67-11.41.64-1.73 1.07-4.1 1.94-6.04 0-.21.21-.64.43-.86.86-2.8 2.37-6.9 2.58-10.34.43-.64.65-1.5.65-2.37.21-1.07.64-2.37.64-3.44v-1.51h1.51c2.59 1.07 2.8 3.01 2.8 4.52 0 .22-.21 1.08-.21 1.51-.22 1.94-.22 3.02-.65 4.3-1.5 5.6-2.15 9.49-4.1 14.87a260.2 260.2 0 0 0-4.09 12.07v.43l12.71-1.08h5.4c.2 0 2.15-.43 3-.43.22.22.65.86 1.08 1.08 0 .21 0 .64.22 1.07-.22 0-.65.22-1.08.65z"/><path id="iuzre" d="M336.2 89.85l-2.37 7.97c-.22.65-.22 1.94-.86 2.8 0 1.51-.86 4.53-1.73 6.68-.21.86-.64 2.37-.86 3.23-.64 2.8-1.29 6.47-2.15 10.13 0 .43-.43 1.08-.65 1.72-.21 1.51-.64 3.23-.86 4.96.22-.22.43-.22.65-.65-.22.43-.22.65 0 .86l.21-.21c-.21.43 0 .86.22 1.07-.22.22-.22.22-.22.65 0 0 0 .22.22.22 0 0-.22.21-.22.64h.22c0 .43-.22.65-.43 1.08.21.22.21 0 .43 0a18.96 18.96 0 0 1-1.08 3.23c-.21.22 0 .43.22.65h-.65c-.43 0-.22.21-.65.21-.43 0-.86-.43-1.29-.43-.21 0 0 .22-.21.22-.65 0-2.16-2.37-2.16-2.8-.21-.86-.65-1.94-.65-2.8l2.59-13.58c.86-3.87 1.94-7.97 2.8-11.84.43-1.94 1.5-4.53 1.94-6.9 0-.43 0-1.5.21-2.58.22-.43.44-1.51.65-2.37v-.65c-1.08 1.5-2.8 3.88-5.17 5.39-.65.43-1.08 1.29-1.72 1.93-.22.22-.86.65-1.08.87-1.08 1.07-6.46 8.83-9.7 8.83-.21 0-1.93-.22-2.36-.86-.87-.65-1.94-2.59-2.37-3.88-.22-.86-.22-2.37-.22-2.8 0-.22.22-1.3.22-1.72 0-2.59.86-5.39 1.5-7.98.43-1.5 1.3-3.66 1.94-5.38v-.22-.21c1.73-3.23 5.6-13.57 6.9-13.57.21 0 1.29.21 1.94.43.21.64 1.07 1.5 1.07 1.94 0 1.07-.43 1.5-.64 1.93 0 0 0 .22.21.44-.86 1.93-2.15 4.73-2.37 6.03-.21.64-.43 1.29-.64 1.72a24.7 24.7 0 0 0-2.37 6.68c-.65 2.37-1.51 4.3-1.73 6.03 0 .22-.43.86-.64 1.3-.43 1.5-.43 2.8-.65 4.52 1.08-.65 2.15-2.16 3.02-3.02.21 0 .64-.21.86-.43 2.15-2.58 4.3-4.52 6.25-6.46A62.5 62.5 0 0 0 333.4 76.7c.21-.43.21-1.3-.22-1.5.22-.22.22-.44.65-.44.22 0 .86.43 1.08.43.43 0 1.07 0 1.72.22.22.21.43.64.86.86.22.22.86.22 1.08.86.21.22.43.86.43 1.3-.65.64-1.94 7.75-2.8 11.41z"/><path id="iuzrg" d="M58.94 117.64v-39.2H42.78v39.2h-11.2v-39.2H15.2v39.2H4V80.16c0-1.73.22-3.23.43-4.31a5.88 5.88 0 0 1 1.5-2.8c.66-.86 1.73-1.3 3.02-1.73 1.3-.43 2.8-.64 4.74-.64h46.97c3.66 0 6.25.64 7.54 2.15 1.3 1.51 1.94 3.88 1.94 7.11v37.49h-11.2z"/><path id="iuzrh" d="M127.01 93.51l17.67 24.13h-13.14l-16.38-23.48 19.18-23.48h12.28zm-24.34 24.13V70.68h11.2v46.96z"/><path id="iuzri" d="M160.4 78.43v39.21h-11.2V80.16c0-3.23.65-5.6 2.16-7.11 1.5-1.51 3.87-2.37 7.32-2.37h20.04v7.75z"/><path id="iuzrj" d="M212.76 78.43H194v31.46h18.75zm11.2 29.73c0 1.51-.22 2.8-.43 3.88a7.96 7.96 0 0 1-1.51 3.02A6.13 6.13 0 0 1 219 117c-1.29.43-2.8.64-4.74.86-1.94 0-3.87.21-5.38.21H196.8c-1.5 0-3.23-.21-4.95-.21-3.02 0-5.39-.65-6.9-1.94-1.5-1.3-2.37-3.66-2.37-6.9V80.38c0-3.01.65-5.38 1.94-7.1 1.3-1.73 3.88-2.6 7.54-2.6h5.17c1.3 0 2.59 0 3.88-.2h4.1c1.07 0 2.37 0 3.66.2h5.17c1.5 0 2.8.22 3.88.44 1.07.21 2.15.65 3.01 1.5.86.65 1.51 1.52 1.94 2.8.43 1.3.65 2.8.65 4.75v28z"/><path id="iuzrk" d="M80.7 117.64V82.31h11.2v35.33z"/><path id="iuzrl" d="M80.48 73.26a5.82 5.82 0 1 1 11.63 0 5.82 5.82 0 0 1-11.63 0z"/><path id="iuzrn" d="M197.68 94.16a5.82 5.82 0 1 1 11.63 0 5.82 5.82 0 0 1-11.63 0z"/><path id="iuzrp" d="M240.33 121.52V64h2.16v57.52z"/><linearGradient id="iuzrb" x1="338.77" x2="423.33" y1="-306.02" y2="-306.02" gradientUnits="userSpaceOnUse"><stop offset="0" stop-color="#2aabe3"/><stop offset="1" stop-color="#0c5ba8"/></linearGradient><linearGradient id="iuzrd" x1="338.76" x2="423.29" y1="-306.05" y2="-306.05" gradientUnits="userSpaceOnUse"><stop offset="0" stop-color="#2aabe3"/><stop offset="1" stop-color="#0c5ba8"/></linearGradient><linearGradient id="iuzrf" x1="338.76" x2="423.32" y1="-306.08" y2="-306.08" gradientUnits="userSpaceOnUse"><stop offset="0" stop-color="#2aabe3"/><stop offset="1" stop-color="#0c5ba8"/></linearGradient><linearGradient id="iuzrm" x1="80.55" x2="92.11" y1="73.3" y2="73.3" gradientUnits="userSpaceOnUse"><stop offset="0" stop-color="#2aabe3"/><stop offset="1" stop-color="#0c5ba8"/></linearGradient><linearGradient id="iuzro" x1="197.61" x2="209.17" y1="94.21" y2="94.21" gradientUnits="userSpaceOnUse"><stop offset="0" stop-color="#2aabe3"/><stop offset="1" stop-color="#0c5ba8"/></linearGradient><linearGradient id="iuzrq" x1="241.44" x2="241.44" y1="63.21" y2="121.74" gradientUnits="userSpaceOnUse"><stop offset="0" stop-color="#2aabe3"/><stop offset="1" stop-color="#0c5ba8"/></linearGradient></defs><g><g transform="translate(-4 -64)"><g><g><g><use fill="url(#iuzrb)" xlink:href="#iuzra"/></g><g><use fill="url(#iuzrd)" xlink:href="#iuzrc"/></g><g><use fill="url(#iuzrf)" xlink:href="#iuzre"/></g></g></g><g><g><g><use xlink:href="#iuzrg"/></g><g><use xlink:href="#iuzrh"/></g><g><use xlink:href="#iuzri"/></g><g><use xlink:href="#iuzrj"/></g><g><use xlink:href="#iuzrk"/></g></g><g><use fill="url(#iuzrm)" xlink:href="#iuzrl"/></g><g><use fill="url(#iuzro)" xlink:href="#iuzrn"/></g></g><g><use fill="url(#iuzrq)" xlink:href="#iuzrp"/></g></g></g></svg>