<svg xmlns="http://www.w3.org/2000/svg" xmlns:xlink="http://www.w3.org/1999/xlink" width="56" height="59" viewBox="0 0 56 59"><defs><path id="5utua" d="M1260.24 142.23l-27.45-4.99-27.44 4.99v-57.7h54.89z"/><path id="5utuc" d="M1232.32 127.86c0 1-.11 1.82-.35 2.46a3.57 3.57 0 0 1-1.05 1.53c-.47.35-1.06.64-1.82.76s-1.59.23-2.58.23h-15.13v-4.45h14.19v-10.73h-12.5v-4.4h12.44v-10.5h-13.96V98.3h14.66c1.94 0 3.4.36 4.4 1.06 1 .7 1.47 2.05 1.47 4.1v6.98c0 1.76-.3 2.93-.88 3.7-.59.76-1.53 1.23-2.82 1.46.65.12 1.24.24 1.7.41.47.18.88.41 1.24.77.35.35.58.82.76 1.46.18.59.23 1.41.23 2.4v7.22z"/><path id="5utud" d="M1248.63 101.7h-9.03v13.73h9.03zm5.45 12.67c0 1.64-.3 2.76-.94 3.4-.64.65-1.76.94-3.46 1l-5.75.12-5.45-.12c-.82-.06-1.52-.12-2.11-.23-.53-.12-1-.3-1.35-.6-.35-.28-.53-.64-.7-1.05-.12-.4-.24-1-.24-1.64V102.7c0-1.58.35-2.7 1-3.34.64-.65 1.76-1 3.34-1.06l5.7-.11 5.56.11c1.59.06 2.7.36 3.34 1 .65.65.94 1.76.94 3.28v11.8z"/><path id="5utue" d="M1240 129.1v3.86h-2.34v-3.87l-3.34-8.03h2.23l2.17 5.86h.17l2.35-5.86h2.05z"/><path id="5utuf" d="M1244.11 132.96v-11.9h2.29v11.96h-2.29z"/><path id="5utug" d="M1247.75 132.96v-11.9h2.28v10.44h4.17v1.46z"/><path id="5utuh" d="M1247.75 108.57c0 1.99-1.65 3.63-3.64 3.63-2 0-3.63-1.64-3.63-3.63 0-2 1.64-3.64 3.63-3.64 2 0 3.64 1.58 3.64 3.64z"/><linearGradient id="5utub" x1="1374.47" x2="1429.37" y1="596.36" y2="596.36" gradientUnits="userSpaceOnUse"><stop offset="0"/><stop offset=".32" stop-color="#4a4a49"/><stop offset="1"/></linearGradient></defs><g><g transform="translate(-1205 -84)"><use fill="url(#5utub)" xlink:href="#5utua"/></g><g transform="translate(-1205 -84)"><use fill="#fff" xlink:href="#5utuc"/></g><g transform="translate(-1205 -84)"><use fill="#fff" xlink:href="#5utud"/></g><g transform="translate(-1205 -84)"><use fill="#fff" xlink:href="#5utue"/></g><g transform="translate(-1205 -84)"><use fill="#fff" xlink:href="#5utuf"/></g><g transform="translate(-1205 -84)"><use fill="#fff" xlink:href="#5utug"/></g><g transform="translate(-1205 -84)"><use fill="#e30613" xlink:href="#5utuh"/></g></g></svg>