<svg xmlns="http://www.w3.org/2000/svg" xmlns:xlink="http://www.w3.org/1999/xlink" width="133" height="117" viewBox="0 0 133 117"><defs><path id="2zqga" d="M301.26 779.86c2.91 1.46 2.91 5.1 0 6.56-2.91 1.45-8.01 1.45-11.66 0-2.9-1.46-2.9-5.1 0-6.56 2.92-2.18 8.02-2.18 11.66 0z"/><path id="2zqgb" d="M364.63 738.74l-59.73-34.96-72.11 41.52 59.73 34.96z"/><path id="2zqgc" d="M292.52 780.26l-59.73-34.96v4.37l59.73 34.97z"/><path id="2zqgd" d="M292.52 784.64l72.11-41.53v-4.37l-72.11 41.52z"/><path id="2zqge" d="M292.52 770.8l-42.25-24.04v-42.98l42.25 24.04z"/><path id="2zqgf" d="M292.52 770.8v-42.98l56.82-32.78-.73 42.98z"/><path id="2zqgg" d="M307.09 672.46l39.33 22.58-2.91 1.46-36.42-21.13z"/><path id="2zqgh" d="M256.1 705.24l-2.92-1.46 53.9-31.32v2.91z"/><path id="2zqgi" d="M292.52 726.36l-36.42-21.12 50.99-29.87 36.42 21.13z"/><path id="2zqgj" d="M292.52 726.36l54.63-31.32-39.33-22.58-54.64 31.32zm0 1.46l-42.25-24.04L307.09 671l42.25 24.04z"/><path id="2zqgk" d="M307.82 689.94l-5.83-3.64v-4.37l5.83 3.64z"/><path id="2zqgl" d="M307.82 685.57l-5.83-3.64 5.83-3.65 5.82 3.65z"/><path id="2zqgm" d="M307.82 685.57l5.82-3.64v4.37l-5.82 3.64z"/><path id="2zqgn" d="M296.16 696.5l-5.83-3.65v-4.37l5.83 3.64z"/><path id="2zqgo" d="M296.16 692.12l-5.83-3.64 5.83-3.64 5.83 3.64z"/><path id="2zqgp" d="M296.16 692.12l5.83-3.64v4.37l-5.83 3.65z"/><path id="2zqgq" d="M301.99 764.97l14.57-8.02v-27.68l-14.57 8.75z"/><path id="2zqgr" d="M303.44 764.24l11.66-6.56v-25.5l-11.66 6.56z"/><path id="2zqgs" d="M303.44 762.78l10.2-5.83v-24.03l-10.2 5.82z"/><path id="2zqgt" d="M325.3 744.57h-.73l1.46.73 17.48-10.2v-16.75l-.73-.73v16.75z"/><path id="2zqgu" d="M331.13 722.72l-5.83 3.64h-.73v18.94l.73.73v-18.21h.73v-.73l5.82-3.64 1.46-.73 10.2-5.83h.73l-.73-.73h-.73l-10.2 5.83z"/><path id="2zqgv" d="M342.78 717.62v16.75l-16.75 9.47v-16.02z"/><path id="2zqgw" d="M343.5 718.35v16.75c-9.46 5.83-4.36 2.92-16.75 9.47v-16.02c8.02-5.1 7.29-5.1 16.76-10.2zm-17.47 8.74c-.73.73-.73.73-.73 1.46v18.21h.73c4.37-2.92 13.1-7.29 17.48-10.2 0 0 .73 0 .73-.73V716.16h-.73L333.3 722l-7.28 5.1z"/><path id="2zqgx" d="M300.53 723.45l-1.46-.73v-2.92h1.46z"/><path id="2zqgy" d="M300.53 719.8h-1.46l1.46-.72 1.46.72z"/><path id="2zqgz" d="M300.53 719.8H302v2.92l-1.46.73z"/><path id="2zqgA" d="M339.87 700.14h-1.46v-3.64l1.46.72z"/><path id="2zqgB" d="M339.87 697.22l.72-.72v2.9l-.72.74z"/><path id="2zqgC" d="M299.07 721.26l-2.18-1.46v-13.1l2.18 1.45z"/><path id="2zqgD" d="M299.07 708.15l-2.18-1.46 42.98-24.76 2.18 1.45z"/><path id="2zqgE" d="M299.07 708.15l42.98-24.77v13.12l-42.98 24.76z"/><path id="2zqgF" d="M304.9 759.14h.73l6.56-3.64v-8.74 8.01h-.73z"/><path id="2zqgG" d="M312.19 747.49v8l-6.56 3.65v-8.01l6.56-3.64c0-.73 0 0 0 0z"/><path id="2zqgH" d="M312.19 747.49v8c-5.1 2.92 0 0-6.56 3.65v-8.01c4.37-2.19 1.46-.73 6.56-3.64zm-6.56 2.9c-.73.74-.73.74 0 0-.73.74-.73.74 0 0l-.73 8.75c2.19-1.46 5.1-2.91 7.29-4.37v-8.74l-2.92 2.18-3.64 2.19z"/><path id="2zqgI" d="M304.9 747.49v.72h.73l6.56-4.37v-8.01 8.01h-.73z"/><path id="2zqgJ" d="M312.19 735.83v8.01l-6.56 3.65v-8.02l6.56-3.64z"/><path id="2zqgK" d="M312.19 735.83v8.01c-5.1 2.92 0 0-6.56 3.65v-7.29c4.37-2.91 1.46-1.46 6.56-4.37zm-6.56 3.64c-.73 0-.73 0 0 0-.73 0-.73.73 0 0l-.73 8.74c2.19-1.45 5.1-2.91 7.29-4.37v-8.73l-2.92 2.18-3.64 2.18z"/><path id="2zqgL" d="M294.7 728.55l51.72-30.6 16.76 16.03-52.45 30.6z"/><path id="2zqgM" d="M294.7 728.55l16.03 16.02-16.03-10.92z"/><path id="2zqgN" d="M299.07 725.63l5.1-2.91 16.03 16.02-4.37 2.92z"/><path id="2zqgO" d="M308.54 719.8l5.1-2.9 16.03 16.02-4.37 2.91z"/><path id="2zqgP" d="M318.01 714.7l5.1-2.9 16.03 16.02-4.37 2.91z"/><path id="2zqgQ" d="M327.48 708.88l5.1-2.92L348.61 722l-4.37 2.91z"/><path id="2zqgR" d="M336.95 703.78l5.1-2.91 16.03 16.02-4.37 2.91z"/></defs><g><g opacity=".05" transform="translate(-232 -671)"><use fill="#384763" xlink:href="#2zqga"/></g><g transform="translate(-232 -671)"><use fill="#2c3e50" xlink:href="#2zqgb"/></g><g transform="translate(-232 -671)"><use fill="#2c3e50" xlink:href="#2zqgc"/></g><g transform="translate(-232 -671)"><use fill="#3d566e" xlink:href="#2zqgd"/></g><g transform="translate(-232 -671)"><use fill="#9c9c9c" xlink:href="#2zqge"/></g><g transform="translate(-232 -671)"><use fill="#e6eaeb" xlink:href="#2zqgf"/></g><g transform="translate(-232 -671)"><use fill="#9c9c9c" xlink:href="#2zqgg"/></g><g transform="translate(-232 -671)"><use fill="#e6eaeb" xlink:href="#2zqgh"/></g><g transform="translate(-232 -671)"><use fill="#676f70" xlink:href="#2zqgi"/></g><g transform="translate(-232 -671)"><use fill="#c5ccd1" xlink:href="#2zqgj"/></g><g transform="translate(-232 -671)"><use fill="#9c9c9c" xlink:href="#2zqgk"/></g><g transform="translate(-232 -671)"><use fill="#c5ccd1" xlink:href="#2zqgl"/></g><g transform="translate(-232 -671)"><use fill="#e6eaeb" xlink:href="#2zqgm"/></g><g transform="translate(-232 -671)"><use fill="#9c9c9c" xlink:href="#2zqgn"/></g><g transform="translate(-232 -671)"><use fill="#c5ccd1" xlink:href="#2zqgo"/></g><g transform="translate(-232 -671)"><use fill="#e6eaeb" xlink:href="#2zqgp"/></g><g transform="translate(-232 -671)"><use fill="#999" xlink:href="#2zqgq"/></g><g transform="translate(-232 -671)"><use fill="#666565" xlink:href="#2zqgr"/></g><g transform="translate(-232 -671)"><use fill="#fac13c" xlink:href="#2zqgs"/></g><g transform="translate(-232 -671)"><use fill="#d19917" xlink:href="#2zqgt"/></g><g transform="translate(-232 -671)"><use fill="#d19917" xlink:href="#2zqgu"/></g><g transform="translate(-232 -671)"><use fill="#2192fc" xlink:href="#2zqgv"/></g><g transform="translate(-232 -671)"><use fill="#fac13c" xlink:href="#2zqgw"/></g><g transform="translate(-232 -671)"><use fill="#9c9c9c" xlink:href="#2zqgx"/></g><g transform="translate(-232 -671)"><use fill="#c5ccd1" xlink:href="#2zqgy"/></g><g transform="translate(-232 -671)"><use fill="#dddfe0" xlink:href="#2zqgz"/></g><g transform="translate(-232 -671)"><use fill="#9c9c9c" xlink:href="#2zqgA"/></g><g transform="translate(-232 -671)"><use fill="#dddfe0" xlink:href="#2zqgB"/></g><g transform="translate(-232 -671)"><use fill="#9c9c9c" xlink:href="#2zqgC"/></g><g transform="translate(-232 -671)"><use fill="#c5ccd1" xlink:href="#2zqgD"/></g><g transform="translate(-232 -671)"><use fill="#e6eaeb" xlink:href="#2zqgE"/></g><g transform="translate(-232 -671)"><use fill="#d19917" xlink:href="#2zqgF"/></g><g transform="translate(-232 -671)"><use fill="#2192fc" xlink:href="#2zqgG"/></g><g transform="translate(-232 -671)"><use fill="#fac13c" xlink:href="#2zqgH"/></g><g transform="translate(-232 -671)"><use fill="#d19917" xlink:href="#2zqgI"/></g><g transform="translate(-232 -671)"><use fill="#2192fc" xlink:href="#2zqgJ"/></g><g transform="translate(-232 -671)"><use fill="#fac13c" xlink:href="#2zqgK"/></g><g transform="translate(-232 -671)"><g><use fill="#e74c3c" xlink:href="#2zqgL"/></g><g><use fill="#c0392b" xlink:href="#2zqgM"/></g><g><use fill="#e6eaeb" xlink:href="#2zqgN"/></g><g><use fill="#e6eaeb" xlink:href="#2zqgO"/></g><g><use fill="#e6eaeb" xlink:href="#2zqgP"/></g><g><use fill="#e6eaeb" xlink:href="#2zqgQ"/></g><g><use fill="#e6eaeb" xlink:href="#2zqgR"/></g></g></g></svg>