<svg xmlns="http://www.w3.org/2000/svg" xmlns:xlink="http://www.w3.org/1999/xlink" width="72" height="84" viewBox="0 0 72 84"><defs><path id="h1qea" d="M812.08 1470.28l-20.46-11.84 50.06-28.91 20.5 11.85z"/><path id="h1qeb" d="M812.08 1476.79l-20.46-11.8v-6.55l20.46 11.84z"/><path id="h1qec" d="M812.08 1470.28l50.1-28.9v6.5l-50.1 28.91z"/><path id="h1qed" d="M826.08 1457.1l-11.24-6.46v-49.76l11.24 6.5z"/><path id="h1qee" d="M826.08 1407.38l-11.24-6.5 13.3-7.67 11.25 6.5z"/><path id="h1qef" d="M826.08 1434.78l-11.24-6.5-13.27 7.71 11.24 6.46z"/><path id="h1qeg" d="M812.81 1442.45l-11.24-6.46v22.32l11.24 6.5z"/><path id="h1qeh" d="M839.4 1449.43l-11.25-6.46v-32.44l11.24 6.5z"/><path id="h1qei" d="M839.4 1417.03l-11.25-6.5 13.27-7.67 11.24 6.5z"/><path id="h1qej" d="M839.4 1449.43v-32.4l13.26-7.66v32.4z"/><path id="h1qek" d="M826.08 1457.1v-22.32l-13.27 7.67v22.36z"/><path id="h1qel" d="M826.08 1457.1v-49.72l13.31-7.66v49.71z"/></defs><g><g transform="translate(-791 -1393)"><g><g><use fill="#34485c" xlink:href="#h1qea"/></g><g><use fill="#2c3e50" xlink:href="#h1qeb"/></g></g><g><use fill="#3d566e" xlink:href="#h1qec"/></g><g><use fill="#943b3b" xlink:href="#h1qed"/></g><g><use fill="#bf4a3d" xlink:href="#h1qee"/></g><g><use fill="#bdbdbd" xlink:href="#h1qef"/></g><g><use fill="#9c9c9c" xlink:href="#h1qeg"/></g><g><use fill="#22303d" xlink:href="#h1qeh"/></g><g><use fill="#34485c" xlink:href="#h1qei"/></g><g><use fill="#3d566e" xlink:href="#h1qej"/></g><g><use fill="#e6eaeb" xlink:href="#h1qek"/></g><g><use fill="#e74c3c" xlink:href="#h1qel"/></g></g></g></svg>