<svg id="Layer_1" xmlns="http://www.w3.org/2000/svg" xmlns:xlink="http://www.w3.org/1999/xlink" width="934.2" height="747.3" viewBox="0 0 934.2 747.3"><style>.st0,.st1{fill-rule:evenodd;clip-rule:evenodd;fill:url(#SVGID_1_)}.st1{fill:url(#SVGID_2_)}</style><linearGradient id="SVGID_1_" gradientUnits="userSpaceOnUse" x1="668.174" y1="312.491" x2="791.478" y2="435.795"><stop offset="0" stop-color="#5ad2b1"/><stop offset=".995" stop-color="#3fa9f5"/></linearGradient><path class="st0" d="M719.4 367.6c-1.2 2.4-3.1 4.6-5.3 6.5 2.2 1.9 4.1 4.2 5.4 6.6l40 76.9c3.8 7.2.4 13.1-7.5 13.1h-39.5c-7.9 0-17.3-5.9-21.1-13.1l-40-76.9c-1.1-2-1.5-3.9-1.5-5.6-.5-2.1-.1-4.7 1.3-7.5l40-76.9c3.8-7.2 13.2-13.1 21.1-13.1h39.6c7.9 0 11.3 5.9 7.5 13.1l-40 76.9z"/><linearGradient id="SVGID_2_" gradientUnits="userSpaceOnUse" x1="575.573" y1="319.759" x2="686.436" y2="430.622"><stop offset="0" stop-color="#51f1fc"/><stop offset="1" stop-color="#5ac8fa"/></linearGradient><path class="st1" d="M708.8 380.8L669 447.3c-3.7 6.3-13.2 11.3-21 11.3h-39.4c-7.9 0-11.2-5.1-7.4-11.3l39.8-66.5c1.2-2 3.1-4 5.2-5.6-2.2-1.7-4.1-3.6-5.3-5.7L601.1 303c-3.7-6.3-.4-11.3 7.4-11.3h39.3c7.8 0 17.2 5.1 21 11.3l39.7 66.5c1 1.7 1.5 3.4 1.5 4.9.6 1.8.2 4-1.2 6.4z"/><image width="1047" height="242" xlink:href="20C75D76FF0F949A.png" transform="translate(173.083 327.667) scale(.3635)" overflow="visible"/></svg>