<svg xmlns="http://www.w3.org/2000/svg" xmlns:xlink="http://www.w3.org/1999/xlink" width="123" height="164" viewBox="0 0 123 164"><defs><path id="oofua" d="M762.7 3416.8l-1.1.6-1 .7-1.1.8-1 .8-1 .8-1 .9-.9 1-1 .9-.9 1-.9 1.1-.9 1.1-.8 1.1-.8 1.1-.8 1.2-.8 1.2-.7 1.2-.6 1.1-.6 1.1-.6 1.2-.5 1.1-.5 1.2-.5 1.2-.4 1.2-.4 1.2-.4 1.2-.3 1.2-.3 1.2-.3 1.1-.2 1.2-.2 1.2-.1 1.2-.1 1.1 8.9 5.2v-1.2l.2-1.2.1-1.2.3-1.1.2-1.2.3-1.2.3-1.2.4-1.2.4-1.2.5-1.2.4-1.2.5-1.1.6-1.2.6-1.2.6-1.1.6-1.1.7-1.2.8-1.2.7-1.2.9-1.1.8-1.1.9-1.1.9-1 .9-1.1.9-.9 1-1 1-.8 1-.9 1-.8 1-.7 1.1-.7 1-.7 1.1-.6 1.1-.5 1-.4 1-.4 1-.3 1-.3 1-.2.9-.1h1.8l.9.1.8.1.9.2.7.3.8.3.7.3-8.8-5.1-.8-.3-.7-.4-.8-.2-.8-.2-.9-.2h-2.6l-1 .1-.9.2-1 .2-1 .4-1.1.3-1 .5-1 .5z"/><path id="oofub" d="M852.6 3369.3l-8.8-5.1z"/><path id="oofuc" d="M844 3380.1l-8.9-5.1z"/><path id="oofud" d="M820.5 3390.4l.6-1.2.8-1.2.9-1.2 1.6-2.2.9-1.1 2.7-3 2-1.8 3-2.4 1-.7 1.1-.6 9 5.1-1.1.6-1.1.7-3 2.4-2 1.8-2.7 3-.9 1.1-1.6 2.2-1.6 2.4-.7 1.2-1.2 2.2-.6 1.2-1.5 3.6-1.2 3.6-.9 3.6-.4 2.4-.2 2.4-8.9-5.1.2-2.4.4-2.4.9-3.6 1.2-3.6 1.5-3.6.6-1.2 1.2-2.2zm38.2-11.8l-.7-.4-.04-.01zm-.74-.41l-8.16-4.59-.7-.4-1.6-.6-.8-.2-.8-.1-.9-.1h-.9l-1.8.2-2 .4-1 .3-2 .8-1.1.5-1.1.6 8.9 5 1.1-.6 1.1-.5 2-.8 1-.3 2-.4 1.8-.2h.9l.9.1.8.1.8.2z"/><path id="oofue" d="M802.8 3356.7v-.3l.2-.6.6-.9.2-.2.3-.2.3-.1.2-.1h.2l.2.1 1.6.9-.2-.1h-.2l-.2.1-.3.1-.3.2-.2.2-.6.9-.1.3-.1.3v10.2l-.5.3-.5.4-.4.4-1.6 1.6-2 2.5-.4.5-.9 1.5-.4.6-1.5 3.5-.8 2.8-.1.7-.3.6-.2 1.4v2.4l.1.9.2.9.2.8.3.7.4.7.4.6.5.5-6.7 11.6-.2.3-.2.6v.6l.2.38-1.4-.78-.2-.1-.2-.4v-.6l.2-.6.2-.3 6.7-11.6-.5-.5-.4-.6-.4-.8-.3-.7-.2-.8-.2-.9-.1-.9v-2.4l.4-2.8.8-2.8 1.5-3.5.4-.6.9-1.5 2.4-3 1.6-1.6 1-.8.5-.3v-9.7zm-12.8 48.58l.2.12-.2-.1zm22.4-31.68l-.1-1-.1-.9-.2-.8-.3-.7-.3-.6-.4-.6-1-.8 1.6.8.5.4.5.5.4.6.5 1 .3.7.2.8.1.9v2l-.5 2.5-1.4 3.5-1.2 2-.6.9-.7.9-.7.8-.8.8-.8.7-.8.6-.9.5-.9.4-.8.3-.8.2-.8.1h-.7l-.7-.1-1.2-.6-1.6-.9.6.3.6.2.7.1h.7l.8-.1 1.6-.6.9-.4.9-.5.8-.6.8-.7.8-.8.7-.8.7-.9.6-.9 1.2-2 .4-1 .2-.7.6-1.5.2-1 .1-.5.3-1.5v-1zm7.3 14.7l-1.6-.9-6.7-4 1.6.9zm-14.4-23l.9-.4.9-.3.9-.2.8-.2h.8l.8.1.7.2.7.3 1.6.9-.7-.3-.7-.2-.8-.1h-.8l-.8.1-.9.2-.9.3-.9.4z"/><path id="oofuf" d="M804.4 3357.7c0-.8.6-1.8 1.3-2.2.7-.4 1.3-.1 1.3.7v9.9c2.5-1.1 4.7-1.1 6.4-.1 2 1.1 3.2 3.6 3.2 7 0 2.6-.7 5.5-1.9 8.2l6.9 4c.5.3.5 1.2 0 2.1-.5.9-1.3 1.3-1.8 1l-6.7-4c-1.9 3.1-4.5 5.9-7.3 7.5-2.7 1.6-5.2 1.8-7.1 1.1l-6.6 11.5c-.5.9-1.3 1.3-1.8 1-.5-.3-.5-1.2 0-2.1l6.7-11.6c-1.3-1.3-2.1-3.4-2.1-6.2 0-3.5 1.2-7.3 3.2-10.7 1.7-2.9 3.9-5.5 6.4-7.3v-9.8zm-5 31.6l.1.1c.1 0 .1.1.2.1 1.5.9 3.6.7 5.9-.6 2.3-1.3 4.4-3.6 5.9-6.2s2.4-5.6 2.4-8.2c0-2.7-.9-4.5-2.4-5.4-1.5-.9-3.6-.7-5.9.6-2.3 1.3-4.4 3.6-5.9 6.2s-2.4 5.6-2.4 8.2c0 2.5.8 4.3 2.1 5.2z"/><path id="oofug" d="M852.6 3349.4l-8.8-5.2-.5-.2-.4-.2-.5-.1-.4-.1-.5-.1-.6-.1h-.5l-.5.1h-.6l-.5.1-.6.2-.6.2-.6.2-.6.3-.6.3-.7.3-.6.4-.6.4-.6.4-.6.5-.6.5-.6.5-.6.6-.5.6-.6.5-.5.7-.5.6-.5.6-.5.7-.4.7-.5.7-.4.7-.4.7-.4.8-.3.7-.4.8-.3.7-.3.8-.3.7-.2.8-.2.8-.2.7-.2.8-.1.7-.1.8-.1.8-.1.7v1.4l.1.7.1.7.1.6.1.6.2.6.2.5.2.6.2.4.3.5.3.4.3.4.4.4.3.3.4.3.4.2 8.9 5.1-.4-.2-.4-.3-.4-.3-.3-.4-.3-.4-.3-.4-.3-.4-.3-.5-.2-.5-.2-.6-.1-.6-.2-.6-.1-.6v-.7l-.1-.6v-1.5l.1-.7v-.8l.1-.7.2-.8.1-.8.2-.7.2-.8.3-.8.3-.7.3-.8.3-.7.3-.8.4-.7.4-.8.4-.7.4-.7.4-.7.5-.7.5-.6.5-.7.5-.6.5-.6.5-.6.6-.6.6-.6.5-.5.6-.5.6-.4.6-.5.7-.4.6-.4.6-.3.6-.3.6-.3.6-.2.6-.2.6-.1.6-.2h2.1l.5.1.5.1.4.2.5.1z"/><path id="oofuh" d="M780.2 3391.2l-8.9-5.1-.4-.2-.5-.2-.4-.2-.5-.1-.5-.1h-1.6l-.5.1-.6.1-.6.1-.6.2-.6.2-.6.3-.6.3-.6.3-.6.4-.7.4-.6.5-.6.4-.6.5-.5.6-.6.5-.6.6-.5.6-.5.6-.5.6-.5.7-.5.6-.5.7-.4.7-.4.7-.4.8-.4.7-.4.7-.3.8-.4.7-.2.8-.3.8-.3.7-.2.8-.2.8-.1.7-.2.8-.1.7-.1.8V3409.5l.1.6.1.7.2.6.1.5.2.6.2.5.3.5.3.4.2.4.4.4.3.4.4.3.4.3.4.3 8.8 5.1-.4-.3-.4-.3-.3-.3-.4-.4-.3-.3-.3-.5-.3-.4-.2-.5-.2-.5-.2-.6-.2-.5-.1-.6-.1-.7-.1-.6v-.7l-.1-.7.1-.8v-.7l.1-.8.1-.7.1-.8.2-.7.2-.8.2-.8.2-.7.3-.8.3-.8.3-.7.4-.8.3-.7.4-.7.4-.7.4-.8.5-.7.4-.6.5-.7.5-.7.5-.6.5-.6.6-.6.5-.6.6-.5.6-.6.6-.4.6-.5.6-.5.6-.4.6-.4.7-.3.6-.3.6-.3.6-.2.6-.2.6-.1.5-.1.6-.1h1.6l.5.1.4.1.5.2.4.2z"/><path id="oofui" d="M807.8 3329.6zm0 0l-1.1.8-1.1.7-3 2.4-2 1.8-2.7 3-.9 1.1-1.6 2.2-1.6 2.4-.7 1.2-1.2 2.2-.6 1.2-1.5 3.6-1.2 3.6-.9 3.6-.4 2.4-.2 2.4-8.9-5.1.2-2.4.4-2.4.9-3.6 1.2-3.6 1.5-3.6 1.2-2.4.6-1.1.8-1.2.7-1.3.8-1.2 1.6-2.2.9-1.1 2.7-3 2-1.8 3-2.4 1.1-.7 1.05-.57 8.85 5.07.05-.03zm-8.9-5.1l8.85 5.07 1.05-.57 1.1-.5 2-.8 1-.3 2-.4 1-.1.9-.1h.9l.9.1.8.1.8.2.8.3.7.3.7.4-8.9-5.1-.7-.4-1.6-.6-.8-.2-.8-.1-.9-.1h-.9l-1.8.2-2 .4-1 .3-2 .8-1.1.5-1.1.6.05.03z"/><path id="oofuj" d="M816.4 3298.9zm0 0l-.8-.4-.5-.2-1-.2h-1.5l-.6.1-.6.1-.6.1-1.2.4-.6.3-.7.4-.6.3-1.8 1.2-1.2 1-.6.4-.6.5-.6.6-1.5 1.8-1.5 2.1-2 3.5-.3.7-.9 2.4-.8 3.2-.2 1.6-.1.7v2.8l.1.7.2 1.2.2.6.6 1.5.3.5.4.3.6.8 1.2.9-8.9-5.1-1.2-.9-.9-1.2-.3-.5-.6-1.5-.2-.6-.2-1.2-.1-.7v-2.8l.1-.7.1-.8.1-.6.8-3.2.3-.7.6-1.6.3-.7.4-.8 1.6-2.8 1-1.4.4-.7 1.5-1.8.6-.6 2.4-2 .7-.5 1.2-.8 1.2-.6.7-.3 1.2-.4.5-.1 1.2-.2h1.5l1 .2.5.2.8.4z"/><path id="oofuk" d="M822.4 3328.2c-3.8-2.2-8.9-1.9-14.7 1.5-5.7 3.3-10.9 9-14.7 15.5-3.4 6-5.7 12.6-6 18.8l41.5-24c-.4-5.8-2.6-9.8-6.1-11.8z"/><path id="ooful" d="M858.7 3378.6c-3.8-2.2-8.9-1.9-14.7 1.5-5.7 3.3-10.9 9-14.7 15.5-3.4 6-5.7 12.6-6 18.8l41.4-23.9c-.4-5.8-2.6-9.9-6-11.9z"/><path id="oofum" d="M786.2 3420.4c-3.8-2.2-8.9-1.9-14.7 1.5-5.7 3.3-10.9 9-14.7 15.5-3.4 6-5.7 12.6-6 18.8l41.4-23.9c-.3-5.8-2.5-9.9-6-11.9z"/><path id="oofun" d="M807.8 3327.9c3.4-1.9 6.4-5.3 8.6-9.1 2.2-3.8 3.6-8.1 3.6-12 0-3.9-1.4-6.6-3.6-7.9-2.2-1.3-5.3-1.1-8.6.9-3.4 1.9-6.4 5.3-8.6 9.1-2.2 3.8-3.6 8.1-3.6 12 0 3.9 1.4 6.6 3.6 7.9 2.1 1.3 5.2 1.1 8.6-.9z"/><path id="oofuo" d="M852.6 3349.4c-2.2-1.3-5.3-1.1-8.6.9-3.4 1.9-6.4 5.3-8.6 9.1-2.2 3.8-3.6 8.1-3.6 12 0 3.9 1.4 6.6 3.6 7.9 2.2 1.3 5.3 1.1 8.6-.9 3.4-1.9 6.4-5.3 8.6-9.1 2.2-3.8 3.6-8.1 3.6-12 0-3.9-1.4-6.7-3.6-7.9z"/><path id="oofup" d="M780.2 3391.2c-2.2-1.3-5.3-1.1-8.6.9-3.4 1.9-6.4 5.3-8.6 9.1-2.2 3.8-3.6 8.1-3.6 12 0 3.9 1.4 6.6 3.6 7.9 2.2 1.3 5.3 1.1 8.6-.9 3.4-1.9 6.4-5.3 8.6-9.1 2.2-3.8 3.6-8.1 3.6-12-.1-3.9-1.4-6.6-3.6-7.9z"/></defs><g><g transform="translate(-742 -3293)"><g><use fill="#29648c" xlink:href="#oofua"/></g><g><use fill="#ffe0a6" xlink:href="#oofub"/></g><g><use fill="#2192fc" xlink:href="#oofuc"/></g><g><use fill="#29648c" xlink:href="#oofud"/></g><g><use fill="#5e7d85" xlink:href="#oofue"/></g><g><use fill="#899ea3" xlink:href="#oofuf"/></g><g><use fill="#c2ac78" xlink:href="#oofug"/></g><g><use fill="#c2ac78" xlink:href="#oofuh"/></g><g><g><use fill="#29648c" xlink:href="#oofui"/></g><g><use fill="#c2ac78" xlink:href="#oofuj"/></g></g><g><use fill="#2192fc" xlink:href="#oofuk"/></g><g><use fill="#2192fc" xlink:href="#ooful"/></g><g><use fill="#2192fc" xlink:href="#oofum"/></g><g><use fill="#ffe0a6" xlink:href="#oofun"/></g><g><use fill="#ffe0a6" xlink:href="#oofuo"/></g><g><use fill="#ffe0a6" xlink:href="#oofup"/></g></g></g></svg>