<svg xmlns="http://www.w3.org/2000/svg" xmlns:xlink="http://www.w3.org/1999/xlink" width="122" height="97" viewBox="0 0 122 97"><defs><path id="tlqwa" d="M968.26 3338l-28.29 49.09-4.84-2.75-2.75-1.62-.67-.47-.57-.57-.57-.57-.95-1.33-.47-.76-.38-.76-.48-.95-.28-.85-.29-.95-.19-.95-.19-1.05-.1-1.04-.09-1.14v-2.37l.2-1.24.09-1.23.38-2.47.28-1.33.29-1.24.38-1.23.38-1.33.95-2.47.47-1.14 1.14-2.46.67-1.24.66-1.23.66-1.14 1.52-2.28.76-1.05 2.57-3.13.85-.95 1.9-1.9 1.9-1.7.95-.76 1.04-.67.95-.76 1.05-.47 1.04-.57 2.09-.95.95-.38.95-.29.95-.28.95-.2.95-.09.85-.1h.86l.75.1.86.1.76.19.76.28.76.29 7.6 4.36zm-.76-.28l.2.1c-.1-.1-.2-.1-.2-.1z"/><path id="tlqwb" d="M954.78 3386.14c11.1-6.36 20.03-21.93 20.03-34.75s-9.02-17.94-20.03-11.58c-11.01 6.36-20.03 21.93-20.03 34.75 0 12.81 9.02 17.94 20.03 11.58z"/><path id="tlqwc" d="M966.55 3346.26c2.85 1.33 4.66 2.57 4.85 9.69 0 7.02-8.36 21.45-14.44 24.97-6.17 3.51-8.06 2.47-10.72.66l-.76-.38-2-1.14-.95-.76-.38-.38-.38-.47-.38-.48-.56-1.13-.29-.57-.19-.67-.19-.66-.19-.76-.1-.76-.09-.76-.1-.86v-1.7l.1-.86.2-1.7.18-.86.38-1.9.29-.95.28-.95.28-.86.29-.94.38-.86.38-.85.47-.86.48-.85.47-.86.48-.85.57-.86.57-.85.57-.76.57-.76.57-.76.66-.76.67-.66 1.99-2 .66-.57.67-.57.76-.47.66-.48.76-.47.86-.47.76-.38.76-.29.66-.28.66-.2.67-.18.66-.1.57-.1h1.33l1.71.3.57.18.57.2 2.75 1.6zm-.57-.28h-.1c.1.1.1.1.1 0z"/><path id="tlqwd" d="M956.78 3380.92c7.97-4.56 14.43-15.76 14.43-24.97 0-9.21-6.46-12.91-14.43-8.36-7.98 4.56-14.44 15.76-14.44 24.97 0 9.21 6.46 12.91 14.44 8.36z"/><path id="tlqwe" d="M976.52 3420.8l-12.43-9.88-15.86-30.1-.47-.28-.38-.38-.38-.38-.38-.48-.29-.47-.38-.57-.28-.57-.29-.57-.19-.57-.19-.66-.19-.67-.1-.66-.09-.76-.1-.76v-1.62l.1-.85.1-.86.1-.85.18-.85.2-.86.18-.85.29-.86.28-.85.29-.86.28-.85.38-.86.38-.85.38-.85.48-.86.47-.85.47-.76.48-.76.47-.76.57-.76.57-.76.57-.76c9.88-11.49 31.71-7.6 44.24-3.7 2.1.66 3.7 2 4.56 4.08l2.95 6.27c.75 1.6.85 3.13.56 4.84l-2.46 11.01 13.29 30.38-13.96 7.79c.29.95-3.04 4.93-6.83 3.8-.57.75-.2 2.56-4.47 2.46.2.76-.85 1.52-2.75 1.52l-8.83-1.14c-.57 0-1.04-.19-1.52-.57z"/><path id="tlqwf" d="M1012.7 3408.07l-7.98-6.27-6.08-9.4-5.31-5.31a13.76 13.76 0 0 1-4.09-9.3l-.28-6.65-11.49-1.14-4.37 5.41c-1.23 1.43-3.03 2.28-4.93 1.71l-4.27-1.33c-.38-.1-.67-.38-.86-.76-.19-.38-.1-.76.1-1.14l8.92-14.05a4.15 4.15 0 0 1 2.75-2l19.09-2.94c.47-.1.76.2 1.14.48l11.48 10.16c10.07 8.83 5.22 8.64 15.2 11.01 3.03.76 4.65 1.52 9.1 3.23 7.03 13.86-3.5 24.02-13.76 27.15.1 0-3.51 1.52-4.37 1.14z"/><path id="tlqwg" d="M994.09 3418.6c-3.9-.09-7.7-1.04-10.92-3.7-3.23-2.65-9.78-9.3-9.21-9.87.38-.38 6.74 6.55 9.78 9.12 3.23 2.56 7.12 3.6 10.35 4.46z"/><path id="tlqwh" d="M1001.02 3414.9c-3.52-.09-7.22 0-10.45-2.84-3.22-2.85-12.62-11.11-12.24-11.59.57-.56 10.15 8.26 13 10.83 2.76 2.66 6.84 2.85 9.69 3.6z"/><path id="tlqwi" d="M1009.56 3410.63c-4.65-.47-9.78-1.23-13.48-4.46-3.8-3.23-11.58-9.97-11.1-10.54.47-.47 8.92 6.93 12.14 9.88 3.23 3.03 8.55 3.89 12.44 5.12z"/><path id="tlqwj" d="M989.72 3421.17c-3.6-.38-8.26-1.14-11.1-3.6-2.86-2.47-8.36-7.41-7.89-7.89.57-.57 6.17 5.51 8.74 7.31 2.46 1.9 7.5 3.52 10.25 4.18z"/><path id="tlqwk" d="M1041.46 3377.31zm0 0l-28.3 48.9-4.83-2.76-2.76-1.61-.66-.48-.57-.57-.57-.57-.47-.66-.48-.67-.47-.76-.38-.76-.38-.85-.29-.85-.28-.95-.2-.95-.18-1.05-.1-1.04-.1-1.14v-2.37l.1-1.24.1-1.23.19-1.24.19-1.23.28-1.24.29-1.33.38-1.23.38-1.23.47-1.14.48-1.24.47-1.23.57-1.24.57-1.23.66-1.23.67-1.24.66-1.23.76-1.05.76-1.14.76-1.14.86-1.04 1.7-2.09.86-.95.95-.95.95-.95.95-.85.95-.86.95-.75.85-.48 1.05-.66 1.04-.67 1.04-.57 1.05-.47 1.04-.48.95-.38.95-.28.95-.29.95-.19.95-.1.85-.09h.86l.85.1.86.1.76.18.76.29.76.28zm-.76-.38l.1.05c-.03-.03-.05-.05-.1-.05zm.1.05c.02.02.04.04.1.04z"/><path id="tlqwl" d="M1027.98 3425.35c11.1-6.36 20.03-21.93 20.03-34.75s-9.02-17.94-20.03-11.58c-11.1 6.36-20.03 21.93-20.03 34.75 0 12.81 9.02 17.94 20.03 11.58z"/><path id="tlqwm" d="M969.02 3414.62l-5.88-.19a3.3 3.3 0 0 1-2.38-.95l-.95-.85a3.7 3.7 0 0 1-1.23-2.66v-2.28l-.48-.1a2.98 2.98 0 0 1-1.8-1.23l-1.61-2a4.41 4.41 0 0 1-.86-2.18l-.1-1.61-.56-.19a4.02 4.02 0 0 1-2.1-1.7l-1.04-1.72a6 6 0 0 1-.85-3.6v-.77a6.28 6.28 0 0 1-3.8-5.98v-1.8l.2-3.7c.18-2.1.94-2.57 2.65-2.66.76-.1 1.61 0 2.37.38l.95.47c.76.38 1.24.76 1.8 1.52.48.67.77 1.33.86 2.19v2.37l1.14.47 1.24 1.05c1.04.85 1.51 2 1.42 3.32l-.1 3.42c.57.28.95.47 1.52.95l1.24.95a5.11 5.11 0 0 1 1.61 3.7v4.27c1.43.1 2.09.57 3.32 1.62a4.23 4.23 0 0 1 1.52 2.66l.48 3.5z"/><path id="tlqwn" d="M946.62 3380.82l2.56 2-.28 4.36c0 .1-.2.1-.29.1-.1 0-.28-.2-.38-.29l-1.14-1.04c-.28-.29-.66-.67-.66-1.14z"/><path id="tlqwo" d="M950.13 3387.56l2.94 2v3.8c0 .09 0 .18-.1.18-.09.1-.18.1-.18.1h-.38c-.57 0-1.05-.2-1.52-.67l-.29-.28a2.27 2.27 0 0 1-.47-1.33z"/><path id="tlqwp" d="M955.07 3395.82l2.94 2.28v3.51c0 .1 0 .2-.1.2-.1.09-.19.09-.28.09h-.38c-.57 0-1.04-.29-1.52-.67l-.28-.28a2.27 2.27 0 0 1-.48-1.33z"/><path id="tlqwq" d="M959.9 3405.32l2.95 2.09-.28 3.03c0 .2-.2.29-.38.29h-.38c-.57 0-1.14-.29-1.52-.67a4.32 4.32 0 0 1-.48-1.9z"/><path id="tlqwr" d="M954.5 3385.47c-.57.1-1.05.1-1.52.2-.95.18-2.19.56-2.85 1.42-.57.76-.67 4.46-.76 5.7-.1-5.04-1.04-7.7 5.13-7.32z"/><path id="tlqws" d="M966.55 3368.2l2.28.28c.2 0 .38.1.48.29.66 1.13-3.61 5.4-4.37 6.36l-2.85-.57c.95-2.19 2-4.18 3.8-6.08.19-.19.38-.38.66-.28z"/><path id="tlqwt" d="M958.2 3393.73c-1.33.2-3.04.57-3.6 1.8-.39.77-.48 4.09-.58 5.13-.28-3.6-1.23-7.21 4.18-6.93z"/><path id="tlqwu" d="M962.28 3403.51c-3.23.2-3.32 1.62-3.51 4.37-.1-3.42-.38-4.56 3.51-4.37z"/><path id="tlqwv" d="M976.62 3367.25c.28.66 1.23 2.56-.1 4.17a3.86 3.86 0 0 1 3.04-1.23c-1.7-.48-2.28-1.9-2.94-2.94z"/><path id="tlqww" d="M991.9 3369.71c-1.14.67-1.61 1.05-4.55 1.24 2.46.28 1.6 1.04 1.9 2.56 0-2.37 1.42-2.75 2.65-3.8z"/></defs><g><g transform="translate(-927 -3332)"><g><use fill="#415a73" xlink:href="#tlqwa"/></g><g><use fill="#2c3e50" xlink:href="#tlqwb"/></g><g><use fill="#e6eaeb" xlink:href="#tlqwc"/></g><g><use fill="#bdbdbd" xlink:href="#tlqwd"/></g><g><use fill="#e8d5a7" xlink:href="#tlqwe"/></g><g><use fill="#c2ac78" xlink:href="#tlqwf"/></g><g><use fill="#c2ac78" xlink:href="#tlqwg"/></g><g><use fill="#c2ac78" xlink:href="#tlqwh"/></g><g><use fill="#c2ac78" xlink:href="#tlqwi"/></g><g><use fill="#c2ac78" xlink:href="#tlqwj"/></g><g><use fill="#415a73" xlink:href="#tlqwk"/></g><g><use fill="#2c3e50" xlink:href="#tlqwl"/></g><g><use fill="#c2ac78" xlink:href="#tlqwm"/></g><g><use fill="#d4be8c" xlink:href="#tlqwn"/></g><g><use fill="#d4be8c" xlink:href="#tlqwo"/></g><g><use fill="#d4be8c" xlink:href="#tlqwp"/></g><g><use fill="#d4be8c" xlink:href="#tlqwq"/></g><g><use fill="#ab9667" xlink:href="#tlqwr"/></g><g><use fill="#d4be8c" xlink:href="#tlqws"/></g><g><use fill="#ab9667" xlink:href="#tlqwt"/></g><g><use fill="#ab9667" xlink:href="#tlqwu"/></g><g><use fill="#ab9667" xlink:href="#tlqwv"/></g><g><use fill="#ab9667" xlink:href="#tlqww"/></g></g></g></svg>