<svg xmlns="http://www.w3.org/2000/svg" xmlns:xlink="http://www.w3.org/1999/xlink" width="676" height="497" viewBox="0 0 676 497"><defs><path id="4rl0G" d="M808.28 137.84V127h10.84v10.84z"/><path id="4rl0H" d="M823.85 137.84V127h10.83v10.84z"/><path id="4rl0I" d="M839.34 137.84V127h10.84v10.84z"/><path id="4rl0J" d="M1111.32 405.66v-10.84h10.84v10.84z"/><path id="4rl0K" d="M1126.81 405.66v-10.84h10.84v10.84z"/><path id="4rl0L" d="M1142.37 405.66v-10.84h10.84v10.84z"/><path id="4rl0M" d="M1090.7 260.78v-10.84h10.84v10.84z"/><path id="4rl0N" d="M1106.2 260.78v-10.84h10.83v10.84z"/><path id="4rl0O" d="M1121.75 260.78v-10.84h10.84v10.84z"/><path id="4rl0P" d="M660.33 113.44c-9.38.07-9.64.33-9.78 18.82-.13-18.42-.4-18.69-9.77-18.82 9.37-.07 9.7-.33 9.77-18.82.14 18.42.4 18.69 9.78 18.82z"/><path id="4rl0Q" d="M689 323.92c-9.38.06-9.64.33-9.78 18.82-.13-18.42-.4-18.69-9.77-18.82 9.38-.07 9.7-.33 9.77-18.82.14 18.49.4 18.75 9.78 18.82z"/><path id="4rl0R" d="M1315.6 384.42c-9.38.06-9.65.33-9.78 18.82-.13-18.42-.4-18.69-9.77-18.82 9.37-.07 9.7-.34 9.77-18.82.07 18.48.4 18.75 9.78 18.82z"/><path id="4rl0S" d="M959.28 108.52c-9.38.06-9.64.33-9.77 18.82-.14-18.42-.4-18.69-9.78-18.82 9.38-.07 9.7-.33 9.78-18.82.06 18.49.4 18.75 9.77 18.82z"/><path id="4rl0T" d="M1198.7 341.87c1.34 0 2.54.14 3.8.4a19.72 19.72 0 0 1 19.68-19.22c1.8 0 3.53.27 5.19.74a16.93 16.93 0 0 1 30.46 3.13h.93a18.73 18.73 0 0 1 18.75 18.74v.47a15 15 0 0 1 11.24 14.56c0 8.31-6.72 15.03-15.03 15.03h-75.01a16.91 16.91 0 0 1-16.9-16.89c0-9.44 7.59-16.96 16.9-16.96z"/><path id="4rl0U" d="M1116.12 344.8h.53a28.42 28.42 0 0 1 26.93-19.55c7.38 0 14.1 2.8 19.15 7.45a21.25 21.25 0 0 1 27.13 7.58 16 16 0 0 1 21.08 13.43c.6-.07 1.27-.07 1.87-.07a17.75 17.75 0 1 1 0 35.51H1116.18a22.14 22.14 0 0 1-22.14-22.14 21.97 21.97 0 0 1 22.08-22.21z"/><path id="4rl0V" d="M1084.63 159.12c-1.73 0-3.46.2-5.06.6a26.56 26.56 0 0 0-33.58-24.94 22.77 22.77 0 0 0-40.96 4.12h-1.27a25.26 25.26 0 0 0-25.26 25.28v.66a20.2 20.2 0 0 0 5.05 39.77h101.08a22.73 22.73 0 1 0 0-45.49z"/><path id="4rl0W" d="M1195.94 182.33h-.73a38.21 38.21 0 0 0-62.04-16.3 28.56 28.56 0 0 0-36.5 10.24c-2.2-.72-4.53-1.19-6.99-1.19a21.48 21.48 0 0 0-21.35 19.22 23.9 23.9 0 0 0-26.4 23.74 23.9 23.9 0 0 0 23.88 23.87h130.07a29.86 29.86 0 0 0 29.85-29.86 29.81 29.81 0 0 0-29.79-29.72z"/><path id="4rl0X" d="M866.67 59.64h-.73a39.63 39.63 0 0 0-64.37-16.89 29.86 29.86 0 0 0-12.9-2.92 29.6 29.6 0 0 0-24.94 13.56c-2.26-.8-4.72-1.2-7.25-1.2a22.23 22.23 0 0 0-22.14 19.95c-.87-.06-1.73-.13-2.6-.13a24.73 24.73 0 1 0 0 49.47H866.68a30.9 30.9 0 0 0 30.92-30.92 30.86 30.86 0 0 0-30.92-30.92z"/><path id="4rl0Y" d="M714.2 442h368.72c2.6 0 5.79 1.8 7.12 4l45.08 74.07c2.66 4.4.67 7.98-4.52 7.98H666.45c-5.2 0-7.19-3.59-4.53-7.98L707.01 446a9.47 9.47 0 0 1 7.18-3.99z"/><path id="4rl0Z" d="M665.45 502.98s0 7.32 7.31 7.32h451.59c7.31 0 7.31-7.32 7.31-7.32z"/><path id="4rl0aa" d="M717.71 422.25h361.69a9.02 9.02 0 0 1 6.98 3.93l44.22 72.68c2.66 4.32.66 7.85-4.39 7.85h-455.3c-5.06 0-7.06-3.53-4.4-7.85l44.22-72.68a9.02 9.02 0 0 1 6.98-3.93z"/><path id="4rl0a" d="M1050.87 435.42c-.33 0-.67 0-.93-.07-.33-.06-.6-.06-.87-.13-.26-.07-.46-.13-.6-.27-.13-.06-.26-.2-.33-.26.07.13.14.2.33.26.14.07.4.2.6.27.27.07.54.13.87.13.26.07.6.07.93.07z"/><path id="4rl0ac" d="M1050.87 435.42c-.33 0-.67 0-.93-.07-.33-.06-.6-.06-.87-.13-.26-.07-.46-.13-.6-.27-.13-.06-.26-.2-.33-.26.07.13.14.2.33.26.14.07.4.2.6.27.27.07.54.13.87.13.26.07.6.07.93.07"/><path id="4rl0ad" d="M1058.91 432.5c.34 0 .67 0 .94.06.33.07.6.07.86.13.27.07.47.14.6.2.13.07.26.2.33.27l.73 1.46c.07.14 0 .2-.06.27-.07.06-.2.13-.4.2-.2.06-.4.13-.67.13-.26.07-.6.07-.93.07h-9.5c-.34 0-.67 0-.94-.07-.33-.07-.6-.07-.86-.13-.27-.07-.47-.14-.6-.27-.13-.06-.27-.2-.33-.26l-.67-1.47c-.07-.13 0-.2.07-.26.06-.07.2-.14.4-.2.2-.07.4-.14.66-.14.27-.06.6-.06.93-.06z"/><path id="4rl0b" d="M1048.14 434.69c.07.07.14.2.33.26.14.07.4.2.6.27.27.07.54.13.87.13.33.07.66.07.93.07-.33 0-.67 0-.93-.07-.33-.06-.6-.06-.87-.13-.26-.07-.46-.13-.6-.27-.2-.06-.26-.2-.33-.26z"/><path id="4rl0af" d="M1048.14 434.69c.07.07.14.2.33.26.14.07.4.2.6.27.27.07.54.13.87.13.33.07.66.07.93.07-.33 0-.67 0-.93-.07-.33-.06-.6-.06-.87-.13-.26-.07-.46-.13-.6-.27-.2-.06-.26-.2-.33-.26"/><path id="4rl0c" d="M1045.28 434.69c.07.13 0 .2-.06.26-.07.07-.2.14-.4.2-.2.07-.4.14-.67.14-.26.06-.6.06-.93.06h.27c.26 0 .6-.06.8-.06.26-.07.46-.07.6-.14.13-.06.26-.13.33-.2.06-.13.06-.2.06-.26z"/><path id="4rl0ah" d="M1045.28 434.69c.07.13 0 .2-.06.26-.07.07-.2.14-.4.2-.2.07-.4.14-.67.14-.26.06-.6.06-.93.06.33 0 .67 0 .93-.06.27-.07.53-.07.67-.14.2-.06.33-.13.4-.2.06-.06.06-.2.06-.26"/><path id="4rl0ai" d="M1041.9 432.5c.32 0 .66 0 .92.06.33.07.6.07.8.13.27.07.47.14.6.2.13.07.26.2.33.27l.67 1.46c.06.14 0 .2-.07.27-.07.06-.2.13-.4.2-.2.06-.4.13-.66.13-.27.07-.6.07-.94.07h-9.5c-.34 0-.67 0-.94-.07-.33-.07-.6-.07-.8-.13-.26-.07-.46-.14-.6-.27-.12-.06-.26-.2-.32-.26l-.6-1.47c-.07-.13 0-.2.06-.26.07-.07.2-.14.4-.2.2-.07.4-.14.67-.14.26-.06.6-.06.93-.06z"/><path id="4rl0aj" d="M1024.67 432.43c.33 0 .66 0 .93.06.33.07.6.07.8.14.26.06.46.13.6.2.13.06.26.2.33.26l.6 1.47c.06.13 0 .2-.07.26-.07.07-.27.13-.4.2-.2.07-.4.13-.73.13-.27.07-.6.07-.93.07h-9.51c-.33 0-.67 0-.93-.07-.33-.06-.6-.06-.8-.13-.27-.07-.46-.13-.6-.26-.13-.07-.26-.2-.26-.27l-.54-1.46c-.06-.14 0-.2.07-.27s.27-.13.47-.2c.2-.07.4-.13.73-.13.26-.07.6-.07.93-.07z"/><path id="4rl0ak" d="M1006.98 432.43c.33 0 .66 0 .93.06.27.07.6.07.8.14.26.06.46.13.6.2.13.06.26.2.26.26l.54 1.47c0 .06 0 .2-.07.26-.07.07-.27.13-.47.2-.2.07-.46.13-.73.13-.26.07-.6.07-.93.07h-9.5c-.34 0-.67 0-.94-.07-.33-.06-.6-.06-.8-.13-.26-.07-.46-.13-.6-.26-.13-.07-.26-.2-.26-.27l-.47-1.46c0-.14 0-.2.14-.27.06-.07.26-.13.46-.2s.47-.13.73-.13c.27-.07.6-.07.93-.07z"/><path id="4rl0al" d="M989.03 432.36c.33 0 .66 0 .93.07.26.06.6.06.8.13.26.07.46.13.6.2.13.07.26.2.26.27l.4 1.46c0 .13 0 .2-.13.27a.76.76 0 0 1-.47.2c-.2.06-.47.13-.73.13-.27.06-.6.06-.93.06h-9.51c-.33 0-.67 0-.93-.06-.27-.07-.6-.07-.8-.14-.27-.06-.4-.13-.6-.26-.13-.07-.27-.2-.27-.27l-.33-1.46c0-.07 0-.2.14-.27.13-.06.26-.13.46-.2.2-.06.47-.13.73-.13.27-.07.6-.07.93-.07z"/><path id="4rl0am" d="M1062.64 437.15h.4c.13 0 .26.07.33.07.13 0 .2.06.27.06.06.07.13.07.13.14l2 3.92v.13c0 .07-.07.07-.14.07s-.2.06-.27.06H1051.93c-.13 0-.26-.06-.33-.06-.13 0-.2-.07-.27-.07-.06-.06-.13-.06-.13-.13l-1.8-3.92v-.14c0-.06.07-.06.14-.06.06 0 .2-.07.26-.07h.34z"/><path id="4rl0an" d="M1045.35 437.08h.4c.13 0 .26.07.33.07.13 0 .2.07.27.07.06.06.13.06.13.13l1.8 3.92v.14c-.07.06-.07.06-.2.06-.07 0-.2.07-.27.07H1034.38c-.14 0-.27-.07-.34-.07-.13 0-.2-.06-.26-.06-.07-.07-.13-.07-.13-.14l-1.6-3.92v-.13c.07-.07.07-.07.2-.07.07 0 .2-.07.27-.07h.4z"/><path id="4rl0ao" d="M1027.53 437.08h.4c.13 0 .26.07.33.07s.2.07.27.07c.06.06.13.06.13.13l1.6 3.92v.14c0 .06-.07.06-.2.06-.07 0-.2.07-.27.07H1016.36c-.14 0-.27-.07-.34-.07-.06 0-.2-.06-.26-.06-.07-.07-.14-.07-.14-.14l-1.4-3.92c0-.07 0-.07.07-.13.07-.07.07-.07.2-.07.07 0 .2-.07.27-.07h.4z"/><path id="4rl0ap" d="M889.01 436.82h.4c.14 0 .2.06.33.06.07 0 .14.07.2.07.07.07.07.07.07.13l-.13 3.93c0 .06 0 .06-.07.13s-.13.07-.2.07c-.06 0-.2.06-.33.06H875.85c-.14 0-.2-.06-.34-.06-.06 0-.13-.07-.2-.07-.06-.07-.06-.07-.06-.13l.26-3.93c0-.06 0-.06.07-.13s.13-.07.2-.07.2-.06.33-.06h.4z"/><path id="4rl0aq" d="M746.97 436.55h.34c.13 0 .2.07.26.07.07 0 .14.06.14.06 0 .07.06.07 0 .14l-1.8 3.92c0 .07-.07.07-.13.13-.07.07-.14.07-.27.07s-.2.07-.33.07H731.75c-.14 0-.2-.07-.27-.07s-.13-.07-.13-.07c0-.06-.07-.06 0-.13l2-3.92c0-.07.06-.07.12-.14.07-.06.14-.06.27-.06s.2-.07.33-.07h.4z"/><path id="4rl0d" d="M1052.8 442.67h-.4c-.14 0-.2.07-.27.07-.06 0-.13.06-.13.06 0 .07-.07.07 0 .13v-.13c0-.06.07-.06.13-.06.07 0 .2-.07.27-.07.13.07.26 0 .4 0z"/><path id="4rl0as" d="M1052 443v-.13c0-.07.07-.07.13-.07.07 0 .2-.06.27-.06h.4-.4c-.14 0-.2.06-.27.06-.06 0-.13.07-.13.07 0 .06-.07.06 0 .13"/><path id="4rl0e" d="M1049 443c0-.07-.06-.07-.13-.13-.06-.07-.13-.07-.26-.07-.14 0-.2-.06-.34-.06h-.4.4c.14 0 .27.06.34.06.13 0 .2.07.26.07l.14.13z"/><path id="4rl0au" d="M1049 443c0-.07-.06-.07-.13-.13-.06-.07-.13-.07-.26-.07-.14 0-.2-.06-.34-.06h-.4.4c.14 0 .27.06.34.06.13 0 .2.07.26.07l.14.13"/><path id="4rl0f" d="M1049.94 447.39z"/><path id="4rl0aw" d="M1049.94 447.39"/><path id="4rl0ax" d="M1011.63 442.6h.4c.14 0 .27.07.34.07.13 0 .2.06.26.06.07.07.14.07.14.14l1.4 4.05c0 .07 0 .07-.07.14-.07.06-.07.06-.2.06-.07 0-.2.07-.27.07H1000c-.14 0-.27-.07-.33-.07a.5.5 0 0 1-.27-.13c-.07-.07-.13-.07-.13-.13l-1.2-4.06c0-.07 0-.07.07-.13.06-.07.13-.07.2-.07.06 0 .2-.06.26-.06h.4z"/><path id="4rl0ay" d="M993.35 442.6h.4c.13 0 .26.07.33.07s.2.07.27.07l.13.13 1.2 4.05c0 .07 0 .07-.07.14-.07.06-.13.06-.2.13-.07 0-.2.07-.27.07H976c-.13 0-.26-.07-.33-.07s-.2-.07-.27-.07l-.13-.13-.93-4.06c0-.06 0-.06.07-.13.06-.06.13-.06.2-.06.06 0 .2-.07.26-.07h.4z"/><path id="4rl0az" d="M969.8 442.54h.4c.14 0 .27.06.34.06s.2.07.2.07l.13.13.87 4.06c0 .06 0 .06-.07.13s-.13.07-.2.13c-.07 0-.2.07-.33.07H957.5c-.13 0-.26-.07-.33-.07-.06 0-.2-.06-.2-.13l-.13-.13-.73-4.06c0-.06 0-.06.07-.13.06-.07.13-.07.2-.07.06 0 .2-.06.33-.06h.4z"/><path id="4rl0aA" d="M951.65 442.54h.4c.14 0 .2.06.34.06.06 0 .2.07.2.07.06.07.06.07.06.13l.67 4.06c0 .06 0 .06-.07.13s-.13.07-.2.13c-.07 0-.2.07-.33.07h-13.64c-.13 0-.2-.07-.33-.07-.06 0-.2-.06-.2-.13-.06-.07-.06-.07-.06-.13l-.47-4.06c0-.06 0-.06.07-.13.06-.07.13-.07.2-.07.06 0 .2-.06.33-.06h.4z"/><path id="4rl0aB" d="M933.57 442.47h.4c.13 0 .2.07.33.07.06 0 .2.06.2.06.06.07.06.07.06.14l.47 4.05c0 .07 0 .07-.07.13-.06.07-.13.07-.2.14-.06 0-.2.06-.33.06H920.8c-.13 0-.2-.06-.33-.06-.07 0-.2-.07-.2-.14-.07-.06-.07-.06-.07-.13l-.27-4.05c0-.07 0-.07.07-.14.07-.06.13-.06.2-.06s.2-.07.33-.07h.4z"/><path id="4rl0aC" d="M915.41 442.47h.4c.13 0 .2.07.33.07.07 0 .14.06.2.06.07.07.07.07.07.14l.2 4.05c0 .07 0 .07-.07.13-.06.07-.13.07-.2.07-.06 0-.2.07-.33.07h-13.63c-.13 0-.2-.07-.33-.07-.07 0-.14-.07-.2-.13-.07-.07-.07-.07-.07-.14l-.07-4.05c0-.07 0-.07.07-.13.07-.07.13-.07.2-.07s.2-.07.33-.07h.4z"/><path id="4rl0aD" d="M824.78 442.27h.4c.13 0 .2.07.33.07.06 0 .13.06.2.06.06.07.06.07.06.14l-.93 4.05c0 .07-.06.07-.13.13-.07.07-.13.07-.27.07-.06 0-.2.07-.33.07h-13.63c-.13 0-.2-.07-.27-.07-.06 0-.13-.07-.2-.13-.06-.07-.06-.07-.06-.13l1.06-4.06c0-.07.07-.07.13-.13.07-.07.14-.07.27-.07.07 0 .2-.07.33-.07h.4z"/><path id="4rl0g" d="M1050.47 448.45h.4c.13 0 .26.07.33.07.13 0 .2.07.27.13.06.07.13.07.13.14 0-.07-.07-.07-.13-.14-.07-.06-.14-.06-.27-.13-.13 0-.2-.07-.33-.07h-.4z"/><path id="4rl0aF" d="M1050.47 448.45h.4c.13 0 .26.07.33.07.13 0 .2.07.27.13.06.07.13.07.13.14 0-.07-.07-.07-.13-.14-.07-.06-.14-.06-.27-.13-.13 0-.2-.07-.33-.07h-.4"/><path id="4rl0aG" d="M1065.5 442.74h.4c.13 0 .26.06.33.06.13 0 .2.07.27.13.06.07.13.07.13.14l5.05 10.04v.13c0 .07-.06.07-.2.13-.06 0-.2.07-.26.07h-13.84c-.13 0-.26-.07-.33-.07-.13 0-.2-.06-.26-.13-.07-.06-.14-.06-.14-.13l-4.58-9.98V443c.06-.07.06-.07.2-.07.06 0 .2-.06.26-.06h.4z"/><path id="4rl0aH" d="M1050.47 448.45h.4c.13 0 .26.07.33.07.13 0 .2.07.27.13.06.07.13.07.13.14l1.93 4.19v.13c-.07.07-.07.07-.2.13-.07 0-.2.07-.27.07h-13.83c-.13 0-.26-.07-.33-.07-.13 0-.2-.06-.27-.13-.06-.07-.13-.07-.13-.13l-1.73-4.2v-.13c.07-.06.07-.06.2-.13.07 0 .2-.07.27-.07h.4z"/><path id="4rl0aI" d="M1032.05 448.45h.4c.13 0 .26.07.33.07.13 0 .2.07.27.13.06.07.13.07.13.14l1.66 4.19v.13c-.06.07-.06.07-.2.13-.06 0-.2.07-.26.07h-13.84c-.13 0-.26-.07-.33-.07-.13 0-.2-.06-.26-.13-.07-.07-.14-.07-.14-.13l-1.46-4.2c0-.06 0-.06.07-.13.06-.06.06-.06.2-.13.06 0 .2-.07.26-.07h.4z"/><path id="4rl0aJ" d="M995.01 448.39h.4c.13 0 .27.06.33.06.07 0 .2.07.27.07.06.07.13.07.13.13l1.2 4.2c0 .06 0 .06-.07.13-.07.06-.13.06-.2.13-.06 0-.2.07-.33.07h-.4l-32.32-.07h-.4c-.13 0-.26-.07-.33-.07a.5.5 0 0 1-.26-.13l-.14-.13-.8-4.2c0-.06 0-.06.07-.13.07-.06.13-.06.2-.13.07 0 .2-.07.33-.07h.4z"/><path id="4rl0h" d="M1071.35 454.5h.4c.13 0 .26.07.33.07.13 0 .2.07.27.13.06.07.13.07.13.14 0-.07-.07-.07-.13-.14-.07-.06-.14-.06-.27-.13-.13 0-.2-.06-.33-.06h-.4z"/><path id="4rl0aL" d="M1071.35 454.5h.4c.13 0 .26.07.33.07.13 0 .2.07.27.13.06.07.13.07.13.14 0-.07-.07-.07-.13-.14-.07-.06-.14-.06-.27-.13-.13 0-.2-.06-.33-.06h-.4"/><path id="4rl0aM" d="M1053.13 454.44h.4c.13 0 .26.07.33.07.13 0 .2.06.27.13.06.06.13.06.13.13l2 4.39v.13c-.07.07-.07.07-.2.14-.07 0-.2.06-.27.06H1041.69c-.13 0-.26-.06-.33-.06-.13 0-.2-.07-.27-.14-.06-.06-.13-.06-.13-.13l-1.8-4.39v-.13c.07-.07.07-.07.2-.13.07 0 .2-.07.27-.07h.4z"/><path id="4rl0aN" d="M1034.38 454.44h.4c.13 0 .26.07.33.07.13 0 .2.06.26.13.07.06.14.06.14.13l1.73 4.39v.13c-.07.07-.07.07-.2.14-.07 0-.2.06-.34.06H1022.6c-.13 0-.26-.06-.33-.06-.13 0-.2-.07-.26-.14-.07-.06-.13-.06-.13-.13l-1.53-4.39c0-.07 0-.07.06-.13.07-.07.14-.07.2-.13.07 0 .2-.07.33-.07h.4z"/><path id="4rl0aO" d="M1015.7 454.37h.39c.13 0 .27.07.33.07.14 0 .2.07.27.13.07.07.13.07.13.13l1.46 4.4c0 .06 0 .06-.06.13-.07.06-.13.06-.2.13-.07 0-.2.07-.33.07H1003.59c-.13 0-.27-.07-.33-.07-.14 0-.2-.07-.27-.13-.07-.07-.13-.07-.13-.14l-1.33-4.39c0-.06 0-.06.06-.13.07-.06.14-.06.2-.13.07 0 .2-.07.34-.07h.4z"/><path id="4rl0aP" d="M977.92 454.3h.4c.13 0 .27.07.33.07.07 0 .2.07.27.14l.13.13 1 4.39c0 .06 0 .06-.07.13-.06.07-.13.07-.2.13-.06 0-.2.07-.33.07h-.4l-22.67-.07h-.4c-.14 0-.27-.06-.34-.06a.5.5 0 0 1-.26-.14l-.14-.13-.73-4.39c0-.06 0-.06.07-.13s.13-.07.2-.13c.07 0 .2-.07.33-.07h.4z"/><path id="4rl0aQ" d="M948.66 454.24h.4c.13 0 .27.07.33.07.07 0 .2.06.27.13l.13.13.67 4.4c0 .06 0 .06-.07.12-.07.07-.13.07-.2.14-.07 0-.2.06-.33.06H935.76c-.13 0-.27-.06-.33-.06-.07 0-.2-.07-.2-.14-.07-.06-.07-.06-.07-.13l-.46-4.39c0-.06 0-.06.06-.13.07-.07.14-.07.2-.13.07 0 .2-.07.34-.07h.4z"/><path id="4rl0aR" d="M929.98 454.24h.4c.13 0 .26.07.33.07.06 0 .2.06.2.13.06.07.06.07.06.13l.4 4.4c0 .06 0 .06-.06.12-.07.07-.14.07-.2.14-.07 0-.2.06-.34.06H916.67c-.13 0-.26-.06-.33-.06-.06 0-.2-.07-.2-.14-.06-.06-.06-.06-.06-.13l-.2-4.39c0-.06 0-.06.06-.13.07-.07.14-.07.2-.13.07 0 .2-.07.34-.07h.4z"/><path id="4rl0aS" d="M836.48 454.04h.4c.13 0 .2.07.33.07.07 0 .13.06.2.13s.07.07.07.13l-.8 4.4c0 .06-.07.06-.13.12-.07.07-.14.07-.27.14-.07 0-.2.06-.33.06H821.85c-.13 0-.2-.06-.33-.06-.07 0-.14-.07-.2-.14-.07-.06-.07-.06-.07-.13l1-4.39c0-.06.07-.06.13-.13.07-.07.14-.07.27-.13.06 0 .2-.07.33-.07h.4z"/><path id="4rl0i" d="M1077.2 465.88h.4c.13 0 .2-.07.27-.07.06 0 .13-.07.13-.13 0-.07.07-.07 0-.14v.14c0 .06-.07.06-.13.13-.07 0-.2.07-.27.07h-.4z"/><path id="4rl0aU" d="M1077.2 465.88h.4c.13 0 .2-.07.27-.07.06 0 .13-.07.13-.13 0-.07.07-.07 0-.14v.14c0 .06-.07.06-.13.13-.07 0-.2.07-.27.07h-.4"/><path id="4rl0j" d="M1058.32 465.88h.4c.13 0 .2-.07.26-.07.07 0 .13-.07.13-.13.07-.07.07-.07 0-.14v.14c0 .06-.06.06-.13.13-.07 0-.2.07-.26.07h-.4z"/><path id="4rl0aW" d="M1058.32 465.88h.4c.13 0 .2-.07.26-.07.07 0 .13-.07.13-.13.07-.07.07-.07 0-.14v.14c0 .06-.06.06-.13.13-.07 0-.2.07-.26.07h-.4"/><path id="4rl0aX" d="M1071.35 454.5h.4c.13 0 .26.07.33.07.13 0 .2.07.27.13.06.07.13.07.13.14l5.45 10.77v.13c0 .07-.06.07-.2.14-.06 0-.2.06-.26.06H1063.1c-.13 0-.26-.06-.4-.06-.13 0-.2-.07-.26-.14-.07-.06-.13-.06-.13-.13l-4.92-10.7v-.14c0-.07.06-.07.2-.13.06 0 .2-.07.26-.07h.4z"/><path id="4rl0k" d="M1044.68 465.81h-.4c-.13 0-.26-.07-.33-.07-.13 0-.2-.06-.26-.13-.07-.07-.14-.07-.14-.13 0 .06.07.06.14.13.06.07.13.07.26.13.14 0 .2.07.34.07h.4z"/><path id="4rl0aZ" d="M1043.55 465.48c0 .06.07.06.14.13.06.07.13.07.26.13.14 0 .2.07.34.07h.4-.4c-.14 0-.27-.07-.34-.07-.13 0-.2-.06-.26-.13-.14 0-.14-.07-.14-.13"/><path id="4rl0l" d="M1006.05 465.74h-.4c-.13 0-.27-.06-.33-.06-.14 0-.2-.07-.27-.14-.06-.06-.13-.06-.13-.13 0 .07.06.07.13.13.07.07.13.07.27.14.06 0 .2.06.33.06h.4z"/><path id="4rl0bb" d="M1006.05 465.74h-.4c-.13 0-.27-.06-.33-.06-.14 0-.2-.07-.27-.14-.06-.06-.13-.06-.13-.13 0 .07.06.07.13.13.07.07.13.07.27.14.06 0 .2.06.33.06h.4"/><path id="4rl0bc" d="M1036.84 460.62h.4c.13 0 .26.07.33.07.13 0 .2.07.26.13.07.07.14.07.14.14l1.8 4.52v.13c-.07.07-.07.07-.2.13-.07 0-.2.07-.34.07h-14.3c-.13 0-.26-.07-.33-.07-.13 0-.2-.06-.26-.13-.07-.07-.14-.07-.14-.13l-1.6-4.52c0-.07 0-.07.07-.14.07-.06.14-.06.2-.13.07 0 .2-.07.34-.07h.4z"/><path id="4rl0bd" d="M998.8 460.56h.4c.13 0 .27.06.33.06.14 0 .2.07.27.14.06.06.13.06.13.13l1.33 4.52c0 .07 0 .07-.07.13-.06.07-.13.07-.2.14-.06 0-.2.06-.33.06H986.3c-.13 0-.27-.06-.33-.06-.14-.07-.2-.07-.27-.14-.07-.06-.13-.06-.13-.13l-1.13-4.52c0-.07 0-.07.06-.13.07-.07.14-.07.2-.14.07 0 .2-.06.34-.06h.4z"/><path id="4rl0m" d="M986.7 465.74c-.13 0-.27 0-.4-.06-.13 0-.2-.07-.33-.07-.07 0-.2-.07-.2-.13l-.14-.14c0 .07.07.07.14.14.06.06.13.06.2.13.06 0 .2.07.33.07.13.06.27.06.4.06z"/><path id="4rl0bf" d="M986.7 465.74c-.13 0-.27 0-.4-.06-.13 0-.2-.07-.33-.07-.07 0-.2-.07-.2-.13l-.14-.14c0 .07.07.07.14.14.06.06.13.06.2.13.06 0 .2.07.33.07.13.06.27.06.4.06"/><path id="4rl0bg" d="M1017.89 460.56h.4c.13 0 .26.06.33.06.13 0 .2.07.26.14.07.06.14.06.14.13l1.53 4.52c0 .07 0 .07-.07.13-.07.07-.13.07-.2.14-.07 0-.2.06-.33.06H1005.58c-.13 0-.26-.06-.33-.06-.13 0-.2-.07-.26-.14-.07-.06-.14-.06-.14-.13l-1.33-4.52c0-.07 0-.07.07-.13.07-.07.13-.07.2-.14.06 0 .2-.06.33-.06h.4z"/><path id="4rl0n" d="M1001.26 465.41c0 .07 0 .07-.07.13-.06.07-.13.07-.2.14-.06 0-.2.06-.33.06h-.4.4c.14 0 .2-.06.34-.06.06 0 .13-.07.2-.14.06-.06.06-.06.06-.13z"/><path id="4rl0bi" d="M1001.26 465.41c0 .07 0 .07-.07.13-.06.07-.13.07-.2.14-.06 0-.2.06-.33.06h-.4.4c.14 0 .2-.06.34-.06.06 0 .13-.07.2-.14.06-.06.06-.06.06-.13"/><path id="4rl0o" d="M967.28 465.68c.07 0 .07 0 0 0h0c.07 0 .07 0 0 0z"/><path id="4rl0bk" d="M967.28 465.68c.07 0 .07 0 0 0h0c.07 0 .07 0 0 0"/><path id="4rl0p" d="M735.54 432.63c.06-.14.13-.2.33-.27.13-.07.4-.13.6-.2.26-.06.53-.13.86-.13.33-.07.6-.07.93-.07-.33 0-.66 0-.93.07-.33.07-.6.07-.86.13a3.1 3.1 0 0 0-.6.2c-.13.07-.27.2-.33.27z"/><path id="4rl0bm" d="M735.54 432.63c.06-.14.13-.2.33-.27.13-.07.4-.13.6-.2.26-.06.53-.13.86-.13.33-.07.6-.07.93-.07-.33 0-.66 0-.93.07-.33.07-.6.07-.86.13a3.1 3.1 0 0 0-.6.2c-.13.07-.27.2-.33.27"/><path id="4rl0bn" d="M971.8 432.36c.34 0 .67 0 .93.07.27.06.6.06.8.13.27.07.4.13.6.2.13.07.27.2.27.27l.33 1.46c0 .13 0 .2-.13.27-.14.06-.27.2-.47.2-.2.06-.47.13-.73.13-.27.06-.6.06-.93.06h-9.51c-.33 0-.67 0-.93-.06-.27-.07-.6-.07-.8-.14a4.6 4.6 0 0 1-.53-.2c-.14-.06-.2-.2-.27-.26l-.26-1.46c0-.14 0-.2.13-.27s.26-.13.46-.2.47-.13.74-.13c.26-.07.6-.07.93-.07z"/><path id="4rl0bo" d="M954.11 432.3c.34 0 .67 0 .94.06.26.07.53.07.8.13.2.07.4.14.53.2.13.07.2.2.26.27l.27 1.46c0 .14 0 .2-.14.27-.13.07-.26.13-.46.2-.2.06-.47.13-.73.13-.27.07-.6.07-.93.07h-9.51c-.34 0-.67 0-.93-.07-.27-.07-.54-.07-.8-.13-.2-.07-.4-.13-.53-.27-.14-.06-.2-.2-.2-.26l-.2-1.47c0-.06.06-.2.13-.26.13-.07.27-.14.47-.2.2-.07.46-.14.73-.14.26-.06.6-.06.93-.06z"/><path id="4rl0bp" d="M936.5 432.3c.32 0 .66 0 .92.06.27.07.54.07.8.13.2.07.4.14.53.2.14.07.2.2.2.27l.2 1.46c0 .14-.06.2-.13.27-.13.07-.27.13-.47.2-.2.06-.46.13-.73.13-.26.07-.6.07-.93.07h-9.5c-.34 0-.67 0-.94-.07-.26-.07-.53-.07-.8-.13-.2-.07-.4-.13-.53-.27-.13-.06-.2-.2-.2-.26l-.13-1.47c0-.06.07-.2.13-.26.13-.07.27-.14.47-.2.2-.07.46-.14.73-.14.26-.06.6-.06.93-.06z"/><path id="4rl0bq" d="M908.76 432.23c.34 0 .67 0 .93.06.27.07.54.07.8.14.2.06.4.13.53.2.14.06.2.2.2.26l.07 1.47c0 .13-.07.2-.2.26-.13.07-.27.2-.53.2-.2.07-.47.13-.73.13-.27.07-.6.07-.93.07h-9.51c-.34 0-.67 0-.93-.07-.27-.06-.54-.06-.8-.13-.2-.06-.4-.13-.53-.26-.14-.07-.2-.2-.2-.27v-1.46c0-.07.06-.2.2-.27.13-.07.33-.13.53-.2s.46-.13.73-.13c.27-.07.6-.07.93-.07z"/><path id="4rl0br" d="M891.54 432.23c.33 0 .67 0 .93.07.27.06.53.06.73.13.2.06.4.13.53.2.14.06.2.2.2.26v1.47c0 .13-.06.2-.2.26-.13.07-.33.14-.53.27-.2.07-.46.13-.8.13-.26.07-.6.07-.93.07h-9.5c-.34 0-.67 0-.94-.07-.26-.06-.53-.06-.73-.13-.2-.07-.4-.13-.53-.27-.13-.06-.2-.2-.2-.26l.07-1.47c0-.13.06-.2.2-.26.13-.07.33-.14.53-.2.2-.07.46-.13.8-.13.26-.07.6-.07.93-.07z"/><path id="4rl0bs" d="M873.85 432.16c.33 0 .67 0 .93.07.27.07.53.07.73.13.2.07.4.13.47.2.13.07.2.2.2.27l-.13 1.46c0 .13-.07.2-.2.27l-.54.2c-.2.06-.46.13-.8.13-.26.06-.6.06-.92.06h-9.51c-.34 0-.67 0-.93-.06-.27-.07-.54-.07-.74-.13-.2-.07-.4-.14-.46-.27-.13-.07-.2-.2-.13-.27l.2-1.46c0-.07.06-.2.2-.27.13-.06.33-.13.53-.2.2-.06.46-.13.8-.13.26-.06.6-.06.93-.06z"/><path id="4rl0bt" d="M856.16 432.16c.34 0 .67 0 .93.07.27.07.54.07.74.13.2.07.4.13.46.2.13.07.2.2.13.27l-.2 1.46c0 .13-.06.2-.2.27-.13.06-.33.13-.53.2-.2.06-.46.13-.8.13-.26.06-.6.06-.93.06h-9.5c-.34 0-.67 0-.94-.06-.26-.07-.53-.07-.73-.13-.2-.07-.4-.14-.46-.27-.14-.07-.14-.2-.14-.27l.27-1.46c0-.07.07-.2.27-.27.13-.06.33-.13.53-.2.2-.06.46-.13.8-.13.26-.06.6-.06.93-.06z"/><path id="4rl0bu" d="M828.03 432.1c.34 0 .67 0 .94.06.26.07.53.07.73.13.2.07.33.14.46.2.14.07.14.2.14.27l-.34 1.46c0 .07-.13.2-.26.27-.14.07-.34.2-.6.2-.2.07-.53.13-.8.13-.27.07-.6.07-.93.07h-9.5c-.34 0-.67 0-.94-.07-.27-.06-.53-.06-.73-.13-.2-.07-.33-.13-.47-.27a.5.5 0 0 1-.13-.26l.4-1.47c0-.06.13-.2.26-.26.14-.07.34-.14.6-.2.27-.07.54-.13.8-.13.27-.07.6-.07.93-.07z"/><path id="4rl0bv" d="M810.81 432.03c.33 0 .67 0 .93.07.27.06.53.06.73.13.2.06.34.13.47.2.07.06.13.2.13.26l-.4 1.47c0 .13-.13.2-.26.26-.14.07-.33.2-.6.2-.27.07-.53.14-.8.14-.26.06-.6.06-.93.06h-9.5c-.34 0-.67 0-.94-.06-.27-.07-.53-.07-.73-.14-.2-.06-.33-.13-.47-.26a.5.5 0 0 1-.13-.27l.47-1.46c0-.14.13-.2.26-.27s.33-.13.6-.2c.27-.06.53-.13.8-.13.26-.07.6-.07.93-.07z"/><path id="4rl0bw" d="M793.12 432.03c.34 0 .67 0 .93.07.27.06.54.06.74.13.2.06.33.13.46.2.07.06.13.2.07.26l-.47 1.47c0 .13-.13.2-.26.26a3.1 3.1 0 0 1-.6.2c-.27.07-.53.14-.8.14-.33.06-.6.06-.93.06h-9.51c-.33 0-.67 0-.93-.06-.27-.07-.53-.07-.73-.14-.2-.06-.34-.13-.47-.26-.06-.07-.13-.2-.06-.27l.53-1.46c.06-.07.13-.2.26-.27.14-.07.34-.13.6-.2.27-.06.53-.13.8-.13.27-.07.6-.07.93-.07z"/><path id="4rl0bx" d="M775.43 431.96c.34 0 .67 0 .94.07.26.07.53.07.73.13.2.07.33.13.4.2.06.07.13.2.06.27l-.53 1.46a.52.52 0 0 1-.27.27 3.1 3.1 0 0 1-.6.2c-.26.06-.53.13-.8.13-.32.07-.59.07-.92.07h-9.51c-.33 0-.67 0-.93-.07-.27-.07-.53-.07-.73-.13-.2-.07-.34-.14-.4-.27-.07-.07-.14-.2-.07-.27l.6-1.46c.07-.07.13-.2.33-.27.13-.06.4-.13.6-.2.27-.06.53-.13.8-.13.33-.06.6-.06.93-.06z"/><path id="4rl0q" d="M736.87 434.82c-.34 0-.67 0-.93-.06-.27-.07-.54-.07-.67-.14-.2-.06-.33-.13-.4-.2-.07-.06-.07-.2-.07-.26-.06.13 0 .2.07.26.07.07.2.14.4.2.2.07.4.14.67.14.26.06.6.06.93.06z"/><path id="4rl0bz" d="M736.87 434.82c-.34 0-.67 0-.93-.06-.27-.07-.54-.07-.67-.14-.2-.06-.33-.13-.4-.2-.07-.06-.07-.2-.07-.26-.06.13 0 .2.07.26.07.07.2.14.4.2.2.07.4.14.67.14.26.06.6.06.93.06"/><path id="4rl0bA" d="M747.7 431.96c.34 0 .67 0 .94.07.26.07.53.07.66.13.2.07.33.13.4.2s.13.2.07.27l-.67 1.46c-.06.07-.13.2-.33.27-.13.06-.4.2-.6.2-.27.06-.53.13-.86.13-.34.07-.67.07-1 .07h-9.51c-.33 0-.67 0-.93-.07-.27-.07-.53-.07-.67-.13-.2-.07-.33-.14-.4-.2-.06-.07-.06-.2-.06-.27l.73-1.46c.07-.14.13-.2.33-.27.14-.07.4-.13.6-.2.27-.06.53-.13.87-.13.33-.07.6-.07.93-.07z"/><path id="4rl0r" d="M752.3 436.55h-.4c-.14 0-.27.07-.34.07-.13 0-.2.06-.26.06-.07.07-.14.07-.14.14 0-.07.07-.07.14-.14.06-.06.13-.06.26-.06.07 0 .2-.07.33-.07h.4z"/><path id="4rl0bC" d="M752.3 436.55h-.4c-.14 0-.27.07-.34.07-.13 0-.2.06-.26.06-.07.07-.14.07-.14.14 0-.07.07-.07.14-.14.06-.06.13-.06.26-.06.07 0 .2-.07.33-.07h.4"/><path id="4rl0bD" d="M1009.77 437.02h.4c.13 0 .27.06.33.06.07 0 .2.07.27.07.07.07.13.07.13.13l1.33 3.93c0 .06 0 .06-.06.13-.07.07-.14.07-.2.07-.07 0-.2.06-.27.06H998.27c-.13 0-.27-.06-.33-.06-.07 0-.2-.07-.27-.07l-.13-.13-1.2-3.93c0-.06 0-.06.07-.13.06-.07.13-.07.2-.07.06 0 .2-.06.26-.06h.4z"/><path id="4rl0bE" d="M991.75 437.02h.4c.13 0 .2.06.33.06.07 0 .2.07.27.07l.13.13 1.13 3.93c0 .06 0 .06-.06.13-.07.07-.14.07-.2.07-.07 0-.2.06-.27.06h-.4l-26.8-.06h-.4c-.13 0-.2-.07-.33-.07-.06 0-.2-.07-.26-.07l-.14-.13-.8-3.92c0-.07 0-.07.07-.14.07-.06.13-.06.2-.06s.2-.07.27-.07h.4z"/><path id="4rl0bF" d="M960.03 436.95h.4c.13 0 .2.07.33.07.07 0 .2.06.2.06.07.07.07.07.07.14l.73 3.92c0 .07 0 .07-.06.13-.07.07-.14.07-.2.07-.07 0-.2.07-.27.07H947.8c-.14 0-.2-.07-.34-.07-.06 0-.2-.07-.2-.07-.06-.06-.06-.06-.06-.13l-.6-3.92c0-.07 0-.07.07-.14.06-.06.13-.06.2-.06.06 0 .2-.07.33-.07h.4z"/><path id="4rl0bG" d="M942.28 436.88h.4c.13 0 .2.07.33.07.07 0 .2.07.2.07.07.06.07.06.07.13l.53 3.92c0 .07 0 .07-.07.14-.07.06-.13.06-.2.06s-.2.07-.33.07H929.78c-.14 0-.2-.07-.34-.07-.06 0-.2-.06-.2-.06-.06-.07-.06-.07-.06-.14l-.33-3.92c0-.07 0-.07.06-.13.07-.07.13-.07.2-.07s.2-.07.33-.07h.4z"/><path id="4rl0bH" d="M924.52 436.88h.4c.13 0 .2.07.33.07.07 0 .14.07.2.07.07.06.07.06.07.13l.33 3.92c0 .07 0 .07-.06.14-.07.06-.14.06-.2.06-.07 0-.2.07-.34.07H911.82c-.13 0-.2-.07-.33-.07-.07 0-.13-.06-.2-.06-.07-.07-.07-.07-.07-.14l-.13-3.92c0-.07 0-.07.07-.13.06-.07.13-.07.2-.07.06 0 .2-.07.33-.07h.4z"/><path id="4rl0bI" d="M906.77 436.82h.4c.13 0 .2.06.33.06.07 0 .13.07.2.07.07.07.07.07.07.13l.13 3.93c0 .06 0 .06-.07.13-.06.07-.13.07-.2.07-.06 0-.2.06-.33.06H893.87c-.14 0-.2-.06-.34-.06-.06 0-.13-.07-.2-.07-.06-.07-.06-.07-.06-.13l.07-3.93c0-.06 0-.06.06-.13.07-.07.13-.07.2-.07s.2-.06.33-.06h.4z"/><path id="4rl0bJ" d="M871.26 436.75h.4c.13 0 .2.07.33.07.07 0 .13.06.2.06.07.07.07.07.07.14l-.34 3.92c0 .07-.06.07-.06.13-.07.07-.14.07-.2.07-.07 0-.2.07-.34.07H857.9c-.13 0-.2-.07-.33-.07-.07 0-.13-.07-.2-.07-.07-.06-.07-.06-.07-.13l.54-3.92c0-.07.06-.07.06-.14.07-.06.14-.06.2-.06.07 0 .2-.07.33-.07h.4z"/><path id="4rl0bK" d="M853.5 436.75h.4c.14 0 .2.07.27.07.06 0 .13.06.2.06.06.07.06.07.06.14l-.53 3.92c0 .07-.06.07-.06.13-.07.07-.14.07-.2.07-.07 0-.2.07-.34.07H839.87c-.13 0-.2-.07-.33-.07-.07 0-.13-.07-.2-.07-.07-.06-.07-.06-.07-.13l.73-3.92c0-.07.07-.07.07-.14.07-.06.13-.06.2-.06s.2-.07.33-.07h.4z"/><path id="4rl0bL" d="M835.75 436.68h.4c.13 0 .2.07.26.07.07 0 .14.07.2.07.07.06.07.06.07.13l-.73 3.92c0 .07-.07.07-.07.14-.07.06-.13.06-.2.06-.06 0-.2.07-.33.07H821.92c-.14 0-.2-.07-.27-.07s-.13-.06-.2-.06c-.07-.07-.07-.07-.07-.14l.94-3.92c0-.07.06-.07.13-.13.07-.07.13-.07.2-.07.06 0 .2-.07.33-.07h.4z"/><path id="4rl0bM" d="M818 436.68h.4c.13 0 .2.07.26.07.07 0 .13.07.2.07.06.06.06.06.06.13l-1 3.92c0 .07-.06.07-.13.14-.06.06-.13.06-.26.06-.07 0-.2.07-.33.07H803.76c-.13 0-.2-.07-.26-.07-.07 0-.14-.06-.2-.06-.07-.07-.07-.07-.07-.14l1.13-3.92c0-.07.07-.07.13-.13.07-.07.14-.07.27-.07.07 0 .2-.07.33-.07h.4z"/><path id="4rl0bN" d="M800.24 436.68h.4c.13 0 .2.07.26.07.07 0 .14.07.2.07.07.06.07.06.07.13l-1.2 3.92c0 .07-.06.07-.13.14-.07.06-.13.06-.27.06-.06 0-.2.07-.33.07H785.81c-.13 0-.2-.07-.27-.07-.06 0-.13-.06-.2-.06-.06-.07-.06-.07-.06-.14l1.33-3.92c0-.07.06-.07.13-.13.07-.07.13-.07.27-.07.06 0 .2-.07.33-.07h.4z"/><path id="4rl0bO" d="M782.48 436.62h.4c.14 0 .2.06.27.06s.13.07.2.07c.06.07.06.07.06.13l-1.46 4c0 .06-.06.06-.13.13-.07.06-.13.06-.27.06-.06 0-.2.07-.33.07H767.79c-.14 0-.2-.07-.27-.07-.06 0-.13-.06-.2-.06-.06-.07-.06-.07 0-.14l1.6-3.92c0-.07.06-.07.13-.13.07-.07.13-.07.27-.07.06 0 .2-.07.33-.07h.4z"/><path id="4rl0bP" d="M764.73 436.62h.4c.13 0 .2.06.26.06.07 0 .14.07.2.07.07.07.07.07 0 .13l-1.6 3.93c0 .06-.06.06-.13.13-.06.07-.13.07-.26.07s-.2.06-.33.06H749.83c-.13 0-.2-.06-.26-.06-.07 0-.14-.07-.2-.07 0-.07-.07-.07 0-.13l1.8-3.93c0-.06.06-.06.13-.13.06-.07.13-.07.26-.07.07 0 .2-.06.33-.06h.4z"/><path id="4rl0s" d="M749.43 440.8v.14c0 .07.07.07.2.07.07 0 .2.06.27.06h.4-.4c-.13 0-.2-.06-.27-.06-.06 0-.13-.07-.2-.07v-.13z"/><path id="4rl0bR" d="M749.43 440.8v.14c0 .07.07.07.2.07.07 0 .2.06.27.06h.4-.4c-.13 0-.2-.06-.27-.06-.06 0-.13-.07-.2-.07v-.13"/><path id="4rl0t" d="M744.91 441.07h.4c.13 0 .27-.06.33-.06.14 0 .2-.07.27-.07.07-.07.13-.07.13-.13 0 .06-.06.06-.13.13s-.13.07-.27.07c-.13 0-.2.06-.33.06h-.4z"/><path id="4rl0bT" d="M744.91 441.07h.4c.13 0 .27-.06.33-.06.14 0 .2-.07.27-.07.07-.07.13-.07.13-.13 0 .06-.06.06-.13.13s-.13.07-.27.07c-.13 0-.2.06-.33.06h-.4"/><path id="4rl0bU" d="M1047.88 442.67h.4c.13 0 .26.07.33.07.13 0 .2.06.26.06.07.07.14.07.14.13l1.86 4.06v.13c-.07.07-.07.07-.2.14-.07 0-.2.06-.27.06h-13.63c-.13 0-.27-.06-.33-.06-.13 0-.2-.07-.27-.07-.06-.07-.13-.07-.13-.13l-1.66-4.06v-.13c.06-.07.06-.07.2-.07.06 0 .2-.06.26-.06h.4z"/><path id="4rl0bV" d="M1029.72 442.67h.4c.13 0 .27.07.33.07.14 0 .2.06.27.06.07.07.13.07.13.13l1.6 4.06v.13c-.07.07-.07.07-.2.14-.07 0-.2.06-.27.06h-13.63c-.13 0-.26-.06-.33-.06-.13 0-.2-.07-.27-.07-.06-.07-.13-.07-.13-.13l-1.46-4.06c0-.07 0-.07.06-.13.07-.07.07-.07.2-.07.07 0 .2-.06.27-.06h.4z"/><path id="4rl0bW" d="M897.33 442.4h.4c.13 0 .2.07.33.07.06 0 .13.07.2.13.06.07.06.07.06.14v4.05c0 .07 0 .07-.06.13-.07.07-.14.07-.2.07-.07 0-.2.07-.34.07H884.1c-.13 0-.2-.07-.33-.07-.07 0-.13-.07-.2-.13-.07-.07-.07-.07-.07-.14l.2-4.05c0-.07 0-.07.07-.13.07-.07.13-.07.2-.07s.2-.07.33-.07h.4z"/><path id="4rl0bX" d="M879.17 442.4h.4c.13 0 .2.07.33.07.07 0 .14.07.2.07.07.06.07.06.07.13l-.27 4.05c0 .07 0 .07-.06.14-.07.06-.14.06-.2.13-.07 0-.2.07-.34.07h-13.63c-.13 0-.2-.07-.33-.07-.07 0-.13-.07-.2-.13-.07-.07-.07-.07-.07-.14l.4-4.05c0-.07.07-.07.07-.13.07-.07.13-.07.2-.07s.2-.07.33-.07h.4z"/><path id="4rl0bY" d="M861.02 442.34h.4c.13 0 .2.06.33.06.07 0 .13.07.2.07.06.07.06.07.06.13l-.46 4.06c0 .06-.07.06-.07.13-.06.07-.13.07-.2.13-.06 0-.2.07-.33.07h-13.63c-.13 0-.2-.07-.33-.07-.07 0-.14-.06-.2-.13-.07-.07-.07-.07-.07-.13l.67-4.06c0-.06.06-.06.06-.13.07-.07.14-.07.2-.07.07 0 .2-.06.33-.06h.4z"/><path id="4rl0bZ" d="M842.93 442.34h.4c.13 0 .2.06.33.06.07 0 .13.07.2.07.07.07.07.07.07.13l-.67 4.06c0 .06-.06.06-.06.13-.07.07-.14.07-.2.13-.07 0-.2.07-.34.07h-13.63c-.13 0-.2-.07-.33-.07-.07 0-.13-.06-.2-.13s-.07-.07-.07-.13l.87-4.06c0-.06.06-.06.13-.13s.13-.07.2-.07.2-.06.33-.06h.4z"/><path id="4rl0ca" d="M806.69 442.27h.4c.13 0 .2.07.26.07.07 0 .14.06.2.06.07.07.07.07.07.14l-1.13 4.05c0 .07-.07.07-.13.14-.07.06-.14.06-.27.13-.07 0-.2.06-.33.06h-13.64c-.13 0-.2-.06-.26-.06-.07 0-.13-.07-.2-.13-.07-.07-.07-.07-.07-.14l1.33-4.05c0-.07.07-.07.14-.14.06-.06.13-.06.26-.06.07 0 .2-.07.34-.07h.4z"/><path id="4rl0cb" d="M788.54 442.2h.4c.13 0 .2.07.26.07.07 0 .13.07.2.07.07.06.07.06.07.13l-1.33 4.06c0 .06-.07.06-.14.13-.06.06-.13.06-.26.13-.14 0-.2.07-.34.07h-13.63c-.13 0-.2-.07-.26-.07-.07 0-.14-.07-.2-.07-.07-.06-.07-.06 0-.13l1.53-4.05c0-.07.06-.07.13-.14.07-.06.13-.06.27-.06.06 0 .2-.07.33-.07h.4z"/><path id="4rl0cc" d="M770.38 442.2h.4c.13 0 .2.07.27.07.06 0 .13.07.2.07.06.06.06.06 0 .13l-1.6 4.06c0 .06-.07.06-.13.13-.07.06-.14.06-.27.06s-.2.07-.33.07h-13.63c-.14 0-.2-.07-.27-.07s-.13-.06-.2-.13c-.07-.06-.07-.06 0-.13l1.73-4.06c0-.06.07-.06.13-.13.07-.07.14-.07.27-.07s.2-.06.33-.06h.4z"/><path id="4rl0cd" d="M752.3 442.14h.4c.13 0 .2.06.26.06.07 0 .13.07.2.07.06.07.06.07 0 .13l-1.8 4.06c0 .07-.06.07-.13.13-.07.07-.13.07-.27.07-.13 0-.2.06-.33.06h-.4l-20.81-.06h-.4c-.13 0-.2-.07-.27-.07a.14.14 0 0 1-.13-.13c0-.07-.07-.07 0-.13l2.06-4.06c0-.07.07-.07.14-.13.06-.07.13-.07.26-.07s.2-.07.33-.07h.4z"/><path id="4rl0u" d="M729.35 446.8h-.4c-.13 0-.2-.07-.26-.07a.14.14 0 0 1-.14-.14c0-.06-.06-.06 0-.13v.13c0 .07.07.07.14.14.06 0 .2.06.26.06h.4z"/><path id="4rl0cf" d="M729.35 446.8h-.4c-.13 0-.2-.07-.26-.07a.14.14 0 0 1-.14-.14c0-.06-.06-.06 0-.13v.13c0 .07.07.07.14.14.06 0 .2.06.26.06h.4"/><path id="4rl0cg" d="M1013.63 448.39h.4c.13 0 .26.06.33.06.13 0 .2.07.27.14.06.06.13.06.13.13l1.46 4.19c0 .07 0 .07-.06.13-.07.07-.14.07-.2.14-.07 0-.2.06-.34.06h-13.83c-.13 0-.26-.06-.33-.06-.13 0-.2-.07-.27-.14-.06-.06-.13-.06-.13-.13l-1.26-4.19c0-.07 0-.07.06-.13.07-.07.14-.07.2-.14.07 0 .2-.06.34-.06h.4z"/><path id="4rl0ch" d="M957.84 448.32h.4c.13 0 .26.07.33.07s.2.06.27.13c.06.07.06.07.06.13l.73 4.2c0 .06 0 .06-.06.13-.07.06-.14.06-.2.13-.07 0-.2.07-.33.07H945.2c-.13 0-.26-.07-.33-.07s-.2-.07-.2-.13c-.06-.07-.06-.07-.06-.14l-.54-4.19c0-.06 0-.06.07-.13s.13-.07.2-.07.2-.06.33-.06h.4z"/><path id="4rl0ci" d="M939.48 448.25h.4c.14 0 .27.07.34.07.06 0 .2.07.2.13.06.07.06.07.06.14l.53 4.19c0 .06 0 .06-.06.13-.07.07-.14.07-.2.13-.07 0-.2.07-.33.07h-13.84c-.13 0-.2-.07-.33-.07-.06 0-.2-.06-.2-.13-.06-.07-.06-.07-.06-.13l-.34-4.2c0-.06 0-.06.07-.13.07-.06.13-.06.2-.13.07 0 .2-.07.33-.07h.4z"/><path id="4rl0cj" d="M921.06 448.25h.4c.14 0 .2.07.34.07.06 0 .2.07.2.13.06.07.06.07.06.14l.27 4.19c0 .06 0 .06-.07.13-.06.07-.13.07-.2.13-.06 0-.2.07-.33.07H907.9c-.13 0-.2-.07-.33-.07-.07 0-.2-.06-.2-.13-.07-.07-.07-.07-.07-.13l-.13-4.2c0-.06 0-.06.06-.13.07-.06.14-.06.2-.13.07 0 .2-.07.34-.07h.4z"/><path id="4rl0ck" d="M902.71 448.19h.4c.13 0 .2.06.33.06.07 0 .14.07.2.14.07.06.07.06.07.13l.07 4.19c0 .07 0 .07-.07.13-.07.07-.13.07-.2.14-.07 0-.2.06-.33.06h-13.84c-.13 0-.2-.06-.33-.06-.06 0-.13-.07-.2-.14-.06-.06-.06-.06-.06-.13l.13-4.19c0-.07 0-.07.07-.13.06-.07.13-.07.2-.14.06 0 .2-.06.33-.06h.4z"/><path id="4rl0cl" d="M884.36 448.19h.4c.13 0 .2.06.33.06.07 0 .13.07.2.14.07.06.07.06.07.13l-.2 4.19c0 .07 0 .07-.07.13-.07.07-.13.07-.2.14-.07 0-.2.06-.33.06h-13.83c-.14 0-.2-.06-.34-.06-.06 0-.13-.07-.2-.14-.06-.06-.06-.06-.06-.13l.33-4.19c0-.07.07-.07.07-.13.06-.07.13-.07.2-.14.06 0 .2-.06.33-.06h.4z"/><path id="4rl0cm" d="M866 448.12h.4c.14 0 .2.07.34.07.06 0 .13.06.2.13.06.07.06.07.06.13l-.4 4.2c0 .06-.06.06-.06.13-.07.06-.14.06-.2.13-.07 0-.2.07-.34.07h-13.83c-.13 0-.2-.07-.33-.07-.07 0-.13-.07-.2-.13-.07-.07-.07-.07-.07-.14l.6-4.19c0-.06.07-.06.07-.13.07-.07.13-.07.2-.13.07 0 .2-.07.33-.07h.4z"/><path id="4rl0cn" d="M847.58 448.12h.4c.14 0 .2.07.34.07.06 0 .13.06.2.13.06.07.06.07.06.13l-.66 4.2c0 .06-.07.06-.07.13-.07.06-.13.06-.27.13-.06 0-.2.07-.33.07h-13.83c-.13 0-.2-.07-.33-.07-.07 0-.13-.07-.2-.13-.07-.07-.07-.07-.07-.14l.8-4.19c0-.06.07-.06.13-.13.07-.07.14-.07.27-.07.07 0 .2-.06.33-.06h.4z"/><path id="4rl0co" d="M829.23 448.05h.4c.13 0 .2.07.33.07.07 0 .14.07.2.13.07.07.07.07.07.14l-.87 4.19c0 .06-.06.06-.13.13-.06.07-.13.07-.26.13-.07 0-.2.07-.34.07H814.8c-.13 0-.2-.07-.33-.07-.07 0-.13-.06-.2-.13s-.07-.07-.07-.13l1.07-4.2c0-.06.06-.06.13-.13.07-.06.13-.06.27-.13.06 0 .2-.07.33-.07h.4z"/><path id="4rl0cp" d="M810.88 448.05h.4c.13 0 .2.07.26.07.07 0 .14.07.2.13.07.07.07.07.07.14l-1.06 4.19c0 .06-.07.06-.14.13-.06.07-.13.07-.26.13-.07 0-.2.07-.34.07h-13.83c-.13 0-.2-.07-.33-.07-.07 0-.13-.06-.2-.13s-.07-.07-.07-.13l1.27-4.2c0-.06.06-.06.13-.13.07-.06.13-.06.27-.13.06 0 .2-.07.33-.07h.4z"/><path id="4rl0cq" d="M792.46 447.99h.4c.13 0 .2.06.26.06.07 0 .14.07.2.14.07.06.07.06.07.13l-1.33 4.19c0 .07-.07.07-.13.13-.07.07-.14.07-.27.14-.13 0-.2.06-.33.06H777.5c-.14 0-.2-.06-.34-.06-.06 0-.13-.07-.2-.14-.06-.06-.06-.06-.06-.13l1.53-4.19c0-.07.06-.07.13-.13.07-.07.13-.07.27-.14.13 0 .2-.06.33-.06h.4z"/><path id="4rl0cr" d="M774.1 447.99h.4c.14 0 .2.06.27.06s.13.07.2.14c.07.06.07.06.07.13l-1.53 4.19c0 .07-.07.07-.14.13-.06.07-.13.07-.26.14-.14 0-.2.06-.33.06h-13.84c-.13 0-.2-.06-.26-.06-.07 0-.14-.07-.2-.14-.07-.06-.07-.06 0-.13l1.73-4.19c0-.07.06-.07.13-.13.07-.07.13-.07.27-.14.13 0 .2-.06.33-.06h.4z"/><path id="4rl0cs" d="M755.42 447.92h.4c.13 0 .2.07.26.07.07 0 .14.06.2.13.07.07.07.07 0 .13l-1.8 4.2c0 .06-.06.06-.12.13-.07.06-.14.06-.27.13-.13 0-.2.07-.33.07h-.4l-27-.07h-.4c-.13 0-.2-.07-.27-.07a.14.14 0 0 1-.13-.13c0-.07-.06-.07 0-.13l2.13-4.2c0-.06.07-.06.13-.13.07-.06.14-.06.27-.06s.2-.07.33-.07h.4z"/><path id="4rl0ct" d="M997 454.37h.4c.14 0 .27.07.34.07.13 0 .2.07.26.13.07.07.14.07.14.13l1.26 4.4c0 .06 0 .06-.07.13-.06.06-.13.06-.2.13-.06 0-.2.07-.33.07H984.7c-.13 0-.26-.07-.33-.07-.13 0-.2-.07-.27-.13-.06-.07-.13-.07-.13-.14l-1.06-4.39c0-.06 0-.06.06-.13.07-.06.14-.06.2-.13.07 0 .2-.07.34-.07h.4z"/><path id="4rl0cu" d="M911.29 454.17h.4c.13 0 .26.07.33.07s.2.07.2.13c.07.07.07.07.07.14l.2 4.38c0 .07 0 .07-.07.14-.07.06-.13.06-.2.13-.07 0-.2.07-.33.07H897.79c-.13 0-.27-.07-.33-.07-.07 0-.2-.07-.2-.13-.07-.07-.07-.07-.07-.14v-4.38c0-.07 0-.07.07-.14.07-.06.13-.06.2-.13.06 0 .2-.07.33-.07h.4z"/><path id="4rl0cv" d="M892.6 454.17h.4c.14 0 .2.07.34.07.06 0 .2.07.2.13.06.07.06.07.06.14l-.07 4.38c0 .07 0 .07-.06.14-.07.06-.13.06-.2.13-.07 0-.2.07-.33.07H878.84c-.13 0-.27-.07-.33-.07-.07 0-.14-.07-.2-.13-.07-.07-.07-.07-.07-.14l.27-4.38c0-.07 0-.07.06-.14.07-.06.14-.06.2-.13.07 0 .2-.07.33-.07h.4z"/><path id="4rl0cw" d="M873.85 454.1h.4c.13 0 .2.07.33.07.07 0 .14.07.2.14.07.06.07.06.07.13l-.33 4.39c0 .06-.07.06-.07.13-.07.07-.13.07-.2.13-.07 0-.2.07-.33.07H859.82c-.13 0-.2-.07-.33-.07-.07 0-.13-.06-.2-.13s-.07-.07-.07-.13l.53-4.4c0-.06.07-.06.07-.12.07-.07.13-.07.2-.14.07 0 .2-.06.33-.06h.4z"/><path id="4rl0cx" d="M855.17 454.1h.4c.13 0 .2.07.33.07.06 0 .13.07.2.14.06.06.06.06.06.13l-.53 4.39c0 .06-.07.06-.07.13-.06.07-.13.07-.26.13-.07 0-.2.07-.33.07H840.87c-.13 0-.2-.07-.33-.07-.07 0-.14-.06-.2-.13-.07-.07-.07-.07-.07-.13l.73-4.4c0-.06.07-.06.13-.12.07-.07.14-.07.27-.14.07 0 .2-.06.33-.06h.4z"/><path id="4rl0cy" d="M817.8 454.04h.4c.13 0 .2.07.33.07.06 0 .13.06.2.13.06.07.06.07.06.13l-1 4.4c0 .06-.06.06-.13.12-.07.07-.13.07-.27.14-.13 0-.2.06-.33.06H802.96c-.13 0-.2-.06-.33-.06-.06 0-.13-.07-.2-.14-.06-.06-.06-.06-.06-.13l1.2-4.39c0-.06.06-.06.13-.13.06-.07.13-.07.26-.13.14 0 .2-.07.33-.07h.4z"/><path id="4rl0cz" d="M799.1 453.97h.4c.14 0 .2.07.34.07.07 0 .13.07.2.13.07.07.07.07.07.14l-1.27 4.38c0 .07-.06.07-.13.14-.07.06-.13.06-.27.13-.13 0-.2.07-.33.07H784.01c-.13 0-.2-.07-.33-.07-.07 0-.13-.07-.2-.13-.07-.07-.07-.07-.07-.14l1.47-4.38c0-.07.06-.07.13-.14.07-.06.13-.06.27-.13.13 0 .2-.07.33-.07h.4z"/><path id="4rl0cA" d="M780.36 453.97h.4c.13 0 .2.07.26.07.07 0 .13.07.2.13.07.07.07.07.07.14l-1.53 4.38c0 .07-.07.07-.14.14-.06.06-.13.06-.26.13-.13 0-.2.07-.33.07H764.93c-.13 0-.2-.07-.27-.07-.06 0-.13-.07-.2-.13-.06-.07-.06-.07 0-.14l1.67-4.38c0-.07.06-.07.13-.14.06-.06.13-.06.26-.13.14 0 .2-.07.34-.07h.4z"/><path id="4rl0cB" d="M761.67 453.9h.4c.13 0 .2.07.26.07.07 0 .14.07.2.14.07.06.07.06 0 .13l-1.72 4.39c0 .06-.07.06-.14.13-.06.07-.13.07-.26.13-.14 0-.2.07-.34.07h-.4l-36.44-.07h-.4c-.13 0-.2-.06-.26-.06-.07 0-.13-.07-.2-.14 0-.06-.07-.06 0-.13l2.2-4.39c0-.06.06-.06.13-.13.06-.07.13-.07.26-.13.14 0 .2-.07.34-.07h.4z"/><path id="4rl0v" d="M722.64 460.02h-.4c-.14 0-.27.07-.34.07a.5.5 0 0 0-.26.13c-.07.07-.13.07-.13.14 0-.07.06-.07.13-.14.06-.06.2-.06.26-.13.07-.07.27-.07.34-.07h.4z"/><path id="4rl0cD" d="M721.44 460.36c0-.07.07-.07.13-.14.07-.06.2-.06.27-.13.06-.07.26-.07.33-.07h.4-.4c-.13 0-.27.07-.33.07a.5.5 0 0 0-.27.13l-.13.14"/><path id="4rl0w" d="M911.76 465.54c-.07 0-.14 0-.2-.06-.07 0-.14-.07-.2-.07-.07 0-.07-.07-.14-.07l-.06-.06s0 .06.06.06c0 0 .07.07.14.07.06 0 .13.07.2.07.06.06.13.06.2.06z"/><path id="4rl0cF" d="M911.22 465.28s0 .06.07.06c0 0 .07.07.13.07.07 0 .14.07.2.07.07 0 .14.06.2.06-.06 0-.13 0-.2-.06-.06 0-.13-.07-.2-.07-.06 0-.06-.07-.13-.07l-.07-.06"/><path id="4rl0cG" d="M1055.92 460.62h.4c.13 0 .27.07.33.07.14 0 .2.07.27.13.07.07.13.07.13.14l2.06 4.52v.13c-.06.07-.06.07-.2.13-.06 0-.2.07-.33.07H1044.22c-.13 0-.27-.07-.4-.07s-.2-.06-.27-.13c-.06-.07-.13-.07-.13-.13l-1.86-4.52v-.14c.07-.06.07-.06.2-.13.06 0 .2-.07.33-.07h.4z"/><path id="4rl0x" d="M1025.33 465.81c-.13 0-.26 0-.4-.07-.13 0-.26-.06-.33-.06-.13 0-.2-.07-.26-.14-.07-.06-.14-.06-.14-.13 0 .07.07.07.14.13.06.07.13.07.26.14.13 0 .2.06.33.06.14.07.27.07.4.07z"/><path id="4rl0cI" d="M1024.2 465.48c0 .06.07.06.14.13.06.07.13.07.26.13.13 0 .2.07.33.07.14 0 .27 0 .4.07-.13 0-.26 0-.4-.07-.13 0-.26-.07-.33-.07-.13 0-.2-.06-.26-.13l-.14-.13"/><path id="4rl0y" d="M981.91 465.34c0 .07 0 .07-.07.14-.06.06-.13.06-.2.13-.06 0-.2.07-.33.07h-.4.4c.14 0 .2-.07.33-.07.07 0 .14-.07.2-.13.07 0 .07-.07.07-.14z"/><path id="4rl0cK" d="M981.91 465.34c0 .07 0 .07-.07.14-.06.06-.13.06-.2.13-.06 0-.2.07-.33.07h-.4.4c.14 0 .2-.07.33-.07.07 0 .14-.07.2-.13.07 0 .07-.07.07-.14"/><path id="4rl0z" d="M980.91 465.74h.4c.13 0 .2-.06.33-.06.07 0 .14-.07.2-.14.07-.06.07-.06.07-.13 0 .07 0 .07-.07.13-.06.07-.13.07-.2.14-.06 0-.2.06-.33.06h-.4z"/><path id="4rl0cM" d="M980.91 465.74h.4c.13 0 .2-.06.33-.06.07 0 .14-.07.2-.14.07-.06.07-.06.07-.13 0 .07 0 .07-.07.13-.06.07-.13.07-.2.14-.06 0-.2.06-.33.06h-.4"/><path id="4rl0cN" d="M979.72 460.49h.4c.13 0 .26.07.33.07.13 0 .2.06.26.13.07.07.14.07.14.13l1.06 4.52c0 .07 0 .07-.07.14-.06.06-.13.06-.2.13-.06 0-.2.07-.33.07H966.95c-.13 0-.27-.07-.33-.07-.14 0-.2-.07-.27-.13-.07-.07-.13-.07-.13-.14l-.87-4.52c0-.06 0-.06.07-.13s.13-.07.2-.13c.06 0 .2-.07.33-.07h.4z"/><path id="4rl0cO" d="M959.7 460.49h.4c.13 0 .26.07.33.07.13 0 .2.06.27.13l.13.13.8 4.52c0 .07 0 .07-.07.14-.06.06-.13.06-.2.13-.06 0-.2.07-.33.07h-.4l-21.08-.07h-.4c-.13 0-.26-.07-.33-.07a.5.5 0 0 1-.27-.13c-.06-.07-.06-.07-.06-.13l-.53-4.52c0-.07 0-.07.06-.14.07-.06.13-.06.2-.13.07 0 .2-.07.33-.07h.4z"/><path id="4rl0cP" d="M933.5 460.42h.4c.13 0 .27.07.33.07.07 0 .2.07.27.13.06.07.06.07.06.14l.47 4.52c0 .06 0 .06-.07.13-.06.07-.13.07-.2.13-.06 0-.2.07-.33.07h-.4l-21.74-.07h-.4c-.13 0-.27-.06-.33-.06a.5.5 0 0 1-.27-.14c-.07-.06-.07-.06-.07-.13l-.13-4.52c0-.07 0-.07.07-.13.06-.07.13-.07.2-.14.06 0 .2-.06.33-.06h.4z"/><path id="4rl0A" d="M907.83 465.21c0 .07 0 .07-.06.13-.07.07-.14.07-.2.14-.07 0-.2.06-.34.06h-.4.4c.14 0 .27-.06.34-.06.06 0 .2-.07.2-.14 0 0 .06-.06.06-.13z"/><path id="4rl0cR" d="M907.83 465.21c0 .07 0 .07-.06.13-.07.07-.14.07-.2.14-.07 0-.2.06-.34.06h-.4.4c.14 0 .27-.06.34-.06.06 0 .2-.07.2-.14 0 0 .06-.06.06-.13"/><path id="4rl0B" d="M792.66 465.41h.4c.13 0 .26-.07.33-.07a.5.5 0 0 0 .27-.13c.06-.07.13-.07.13-.13 0 .06-.07.06-.13.13-.07.07-.14.07-.27.13-.07 0-.2.07-.33.07a.42.42 0 0 0-.4 0z"/><path id="4rl0cT" d="M793.72 465.01c0 .07-.06.07-.13.13-.07.07-.13.07-.27.14-.06 0-.2.06-.33.06h-.4.4c.13 0 .27-.06.33-.06a.5.5 0 0 0 .27-.14c.13 0 .13-.06.13-.13"/><path id="4rl0cU" d="M906.63 460.36h.4c.14 0 .27.06.34.06.06 0 .2.07.2.14.06.06.06.06.06.13l.14 4.52c0 .07 0 .07-.07.13-.07.07-.13.07-.2.14-.07 0-.2.06-.33.06h-.4l-107.73-.2h-.4c-.13 0-.2-.06-.33-.06-.07-.07-.13-.07-.2-.14-.07-.06-.07-.06-.07-.13l1.27-4.52c0-.07.06-.07.13-.13.07-.07.13-.07.27-.14.13 0 .2-.06.33-.06h.4z"/><path id="4rl0C" d="M776.57 465.34h-.4c-.14 0-.2-.06-.34-.06-.06-.07-.13-.07-.2-.14-.06-.06-.06-.06-.06-.13 0 .07 0 .07.06.13.07.07.14.07.2.14.07 0 .2.06.34.06h.4z"/><path id="4rl0cW" d="M776.57 465.34h-.4c-.14 0-.2-.06-.34-.06-.06-.07-.13-.07-.2-.14-.06-.06-.06-.06-.06-.13 0 .07 0 .07.06.13.07.07.14.07.2.14.07 0 .2.06.34.06h.4"/><path id="4rl0cX" d="M794.12 460.16h.4c.13 0 .2.06.33.06.07 0 .14.07.2.14.07.06.07.06.07.13l-1.33 4.52c0 .07-.07.07-.13.13-.07.07-.14.07-.27.14-.13 0-.2.06-.33.06h-16.83c-.13 0-.2-.06-.33-.06-.07-.07-.13-.07-.2-.14-.07-.06-.07-.06-.07-.13l1.6-4.52c0-.07.07-.07.13-.13.07-.07.14-.07.27-.14.13 0 .2-.06.33-.06h.4z"/><path id="4rl0D" d="M770.12 465.34s-.07 0 0 0c-.07 0-.07 0 0 0-.07 0-.07 0 0 0-.07 0 0 0 0 0z"/><path id="4rl0cZ" d="M770.05 465.34s.07 0 0 0c.07 0 .07 0 0 0 .07 0 .07 0 0 0 .07 0 .07 0 0 0 .07 0 .07 0 0 0 .07 0 0 0 0 0"/><path id="4rl0E" d="M747.57 465.28h.4c.13 0 .27-.07.33-.07.14 0 .2-.07.27-.13.07-.07.13-.07.13-.13 0 .06-.06.06-.13.13-.07.06-.13.06-.27.13-.13 0-.2.07-.33.07h-.4z"/><path id="4rl0db" d="M747.57 465.28h.4c.13 0 .27-.07.33-.07.14 0 .2-.07.27-.13.07-.07.13-.07.13-.13 0 .06-.06.06-.13.13-.07.06-.13.06-.27.13-.13 0-.2.07-.33.07h-.4"/><path id="4rl0dd" d="M748.77 464.95c0 .06-.07.06-.13.13-.07.06-.14.06-.27.13-.13 0-.2.07-.33.07h-.4.4c.13 0 .26-.07.33-.07.13 0 .2-.07.27-.13l.13-.13"/><path id="4rl0de" d="M771.98 460.16h.4c.13 0 .2.06.33.06.07 0 .13.07.2.14.06.06.06.06 0 .13l-1.66 4.52c0 .07-.07.07-.14.13-.06.07-.13.07-.26.14-.14 0-.2.06-.34.06H753.7c-.13 0-.2-.06-.33-.06-.07 0-.14-.07-.2-.14-.07-.06-.07-.06 0-.13l1.86-4.52c0-.07.07-.07.13-.13.07-.07.14-.07.27-.14.13 0 .2-.06.33-.06h.4z"/><path id="4rl0F" d="M719.11 464.88v.13c0 .07.07.07.2.13.07 0 .2.07.27.07h.4-.4c-.14 0-.2-.07-.27-.07s-.13-.06-.2-.13v-.13z"/><path id="4rl0dg" d="M719.11 464.88v.13c0 .07.07.07.2.13.07 0 .2.07.27.07h.4-.4c-.14 0-.2-.07-.27-.07s-.13-.06-.2-.13v-.13"/><path id="4rl0dh" d="M749.77 460.1h.4c.13 0 .2.06.33.06.06 0 .13.06.2.13.06.07.06.07 0 .13l-1.93 4.53c0 .06-.07.06-.13.13-.07.06-.14.06-.27.13-.13 0-.27.07-.4.07h-.4l-27.53-.07h-.4c-.13 0-.2-.07-.26-.07-.07 0-.14-.06-.2-.13 0-.06-.07-.06 0-.13l2.33-4.52c0-.07.06-.07.13-.14.06-.06.2-.06.26-.13.14 0 .27-.07.4-.07h.4z"/><path id="4rl0di" d="M941.01 476.12c.67 0 1.27.06 1.87.13.6.07 1.06.2 1.53.33.46.14.8.33 1.06.53.27.2.47.4.47.6l3.32 19.75c.07.27-.07.53-.27.73-.2.2-.53.4-1 .6-.4.2-.92.34-1.52.4-.6.07-1.27.13-1.93.13l-92.03-.2c-.67 0-1.33-.06-1.93-.13-.6-.06-1.13-.26-1.53-.4-.4-.2-.8-.4-1-.6-.2-.2-.33-.46-.27-.73l3.33-19.75a1 1 0 0 1 .46-.6c.27-.2.67-.33 1.07-.53.46-.13 1-.26 1.53-.33.6-.07 1.2-.13 1.86-.13z"/><path id="4rl0dj" d="M717.18 422.32h362.75a3.72 3.72 0 0 0 3.72-3.72V195.7a3.72 3.72 0 0 0-3.72-3.73H717.18a3.72 3.72 0 0 0-3.72 3.73v222.9a3.76 3.76 0 0 0 3.72 3.72z"/><path id="4rl0dk" d="M725.83 410.02V204.34h345.52v205.68z"/><path id="4rl0dl" d="M725.83 204.34v205.61h76.34l205.67-205.6z"/><path id="4rl0dm" d="M912.7 250.4v-8.42c0-5.91-4.11-10.84-9.63-12.17a2.87 2.87 0 0 0-2.86-2.82 2.87 2.87 0 0 0-2.86 2.82 12.48 12.48 0 0 0-9.62 12.17v8.42a3.76 3.76 0 0 0-3.76 3.75v2.66h32.52v-2.66a3.82 3.82 0 0 0-3.8-3.76z"/><path id="4rl0dn" d="M900.21 263c2.5 0 4.58-1.69 5.25-3.96h-10.5a5.47 5.47 0 0 0 5.25 3.96z"/><path id="4rl0do" d="M877.28 241.78c0-2.3.66-4.57 1.87-6.53.4-.63.2-1.49-.43-1.88-.62-.4-1.48-.2-1.87.43a15.12 15.12 0 0 0 .11 16.13c.28.39.7.62 1.14.62.27 0 .5-.08.74-.23.63-.43.82-1.26.4-1.88a12.04 12.04 0 0 1-1.96-6.66z"/><path id="4rl0dp" d="M870.94 241.78c0-3.52.97-6.92 2.81-9.9.43-.66.24-1.56-.47-2a1.43 1.43 0 0 0-2 .48 21.55 21.55 0 0 0 .16 23.13 1.44 1.44 0 0 0 2 .43c.67-.43.86-1.33.43-2.04a18.66 18.66 0 0 1-2.93-10.1z"/><path id="4rl0dq" d="M921.7 233.37c-.63.4-.82 1.25-.43 1.88a12.34 12.34 0 0 1-.08 13.19c-.43.62-.24 1.49.4 1.88a1.31 1.31 0 0 0 1.88-.4 15.12 15.12 0 0 0 .12-16.13 1.38 1.38 0 0 0-1.9-.42z"/><path id="4rl0dr" d="M929.13 230.36a1.46 1.46 0 0 0-2-.47c-.66.43-.9 1.33-.46 2a18.77 18.77 0 0 1-.16 20 1.5 1.5 0 0 0 .43 2.03 1.44 1.44 0 0 0 2-.43 21.32 21.32 0 0 0 3.44-11.7c0-4.04-1.13-7.99-3.25-11.43z"/><path id="4rl0ds" d="M745.14 226.33l-6.8 2.5.2 7.2-7.27.46-1.83 7.01-7.06-1.57-3.76 6.2-6.3-3.5-5.34 4.87-5.13-5.18-6.5 3.2-3.4-6.35-7.12 1.22-1.52-7.12-7.17-.8.56-7.22-6.65-2.85 2.54-6.76-5.59-4.57 4.37-5.79-4.07-6 5.85-4.26-2.24-6.91 6.76-2.5-.15-7.2 7.21-.46 1.83-7.01 7.06 1.57 3.76-6.2 6.35 3.5 5.34-4.87 5.08 5.13 6.5-3.15 3.4 6.35 7.17-1.22 1.47 7.12 7.22.81-.61 7.21 6.7 2.85-2.59 6.76 5.59 4.57-4.37 5.79 4.07 5.94-5.8 4.32z"/><path id="4rl0dt" d="M680.1 203.67c-.1.61.26 1.07.72 1.12.46.05.86-.5.91-1.12.05-.6-.25-1.06-.7-1.11-.46-.06-.82.5-.92 1.11zm-2.68 1.02c-.06.6.25 1.12.7 1.12.41 0 .87-.56.87-1.12.05-.66-.25-1.07-.71-1.12-.5-.05-.86.46-.86 1.12zm-.06 13.87c1.48-.36 2.4-2.13 2.9-3.56.3 1.53 1.32 2.34 3 1.78 1.52-.5 2.64-2.39 2.9-4.06.15-.82-.16-1.53-.31-1.68-.2-.15-.4-.05-.46.2-.4 2.14-1.12 4.27-2.18 4.68-.92.4-1.37-.66-1.22-2.34.15-1.52.76-3.91.91-5.23.15-1.53-.4-2.6-.96-2.9-.3-.2-.46-.1-.61.36-.4 1.37-.56 3.4-1.27 6.55-.61 2.7-1.43 4.98-2.44 5.23-.61.16-1.02-.76-.92-2.18.1-1.42.3-2.64.72-4.47.4-1.78.15-2.95-.72-3.6-.3-.16-.56-.11-.66.25a29.48 29.48 0 0 0-1.27 7.72c.05 1.88.71 3.76 2.6 3.25z"/><path id="4rl0du" d="M699.67 210.99c-2.03.56-3.4-.86-3.46-3.15-.05-1.93.87-4.37 1.53-5.94a6.82 6.82 0 0 1-2.8 2.03c-.4 4.82-2.08 9.4-5.28 10.51-3.25 1.12-5.39-1.67-4.88-5.48.56-3.76 2.64-6.1 4.17-5.74.81.15 1.42.45 1.88.96.91.87.3 2.6.3 4.12 0 .4-.05.5-.45.45-.72-.1-1.38-.76-1.38-2.03 0-1.01.41-2.44-.1-2.59-.56-.15-1.93 2.03-2.28 4.83-.36 3.25.91 5.18 2.43 4.72 2.85-.81 4.37-5.84 4.58-9.6-2.29-.1-.97-4.42.1-4.78.76-.3 1.07 1.38 1.01 3.26a7.32 7.32 0 0 0 2.4-2.19c.2-.3.45-.5.75-.3.67.35 1.68 1.37 1.22 2.49-.7 1.77-1.42 3.9-1.37 5.43 0 1.58.66 2.5 1.48 2.24 1.06-.26 1.77-2.44 1.93-4.58 0-.25.2-.35.35-.15.2.26.51.87.46 1.73-.05 1.68-1.22 3.35-2.6 3.76z"/><path id="4rl0dv" d="M706.02 201.39c.46-1.37.56-2.9.1-3.05-.71-.26-2.29 2.03-2.64 4.88 0 .2-.05.35-.05.5 1.47.36 2.18-1.11 2.59-2.33zm-.1 6.6c2.18-.6 3.3-3.3 3.86-5.38.05-.26.25-.3.46-.1.15.15.35.9.1 1.72a6.74 6.74 0 0 1-4.07 4.47c-3.25 1.17-5.48-1.62-4.93-5.53.51-3.87 2.7-6.1 4.22-5.8.76.16 1.37.41 1.98.82.66.45 1.02 2.08.36 3.76-.71 1.98-2.24 3.2-4.52 2.38-.05 2.65 1.11 4.07 2.54 3.66z"/><path id="4rl0dw" d="M708.56 195.6c-.36-.26-.3-.51.1-.61.71-.2 1.42-.51 2.08-.82.3-1.67.61-3.15.87-3.86.1-.4.4-.46.6-.2.51.6.82 1.47.67 3 .96-.36 1.52-.05 1.83.2.3.25.25.46-.16.6-.6.11-1.37.47-1.98.82-.4 2.08-1.01 5.03-1.22 7.52-.2 2.19.61 3.66 1.73 3.35 1.17-.35 1.98-2.64 2.29-4.92.05-.36.3-.51.56-.2.25.35.3.86.25 1.52-.1.86-1.02 3.7-3.05 4.32-1.73.5-3.7-.92-3.5-4.27.1-1.48.4-3.97.8-6.4-.86.3-1.57.15-1.87-.05z"/><path id="4rl0dx" d="M716.38 201.59c.92 1.37 1.98 2.13 2.75 1.58 1.06-.77-.71-4.68-1.53-6.66-.25 1.63-.7 3.4-1.22 5.08zm.76-6.7c-.2-1.07-.15-1.63.26-2.3.4-.7.96-1 1.27-.86.35.16.3.51.2 1.22-.05.2-.05.36-.1.56.61 2.44 1.83 4.27 2.34 6.05.3 1.01.5 2.13-.2 3.1 1.47-1.22 2.03-3.15 2.18-4.73.05-.3.3-.35.5-.15.21.2.41.86.21 1.83a5.74 5.74 0 0 1-3.56 4.37c-1.47.56-3.04.66-4.47-.61-1.01-.97-1.52-2.64-.91-3.66.2-.35.46-.3.6.05.11.2.16.4.26.61a63.11 63.11 0 0 0 1.42-5.49z"/><path id="4rl0dy" d="M726.19 190.16c-.2.46-.97.66-1.58.1a1.66 1.66 0 0 1-.5-1.93c.25-.56 1.11-.5 1.67.05.56.56.61 1.32.4 1.78zm-3.4 8.64c0-2.09.65-5.7 1.11-7.37.1-.4.26-.5.56-.36.5.26 1.12 1.32.92 2.8-.16 1.32-.61 3.4-.72 4.88-.1 1.67.3 2.69 1.12 2.33 1.12-.45 1.98-2.64 2.14-4.67.05-.26.25-.3.4-.15.36.35.46.91.36 1.62-.2 1.83-1.48 3.5-2.9 3.96-1.93.77-3-.66-3-3.04z"/><path id="4rl0dz" d="M732.13 206.52c.66.35 2.09-4.12 2.03-7.01-2.74 3.1-2.74 6.55-2.03 7zm1.37-9.2c-.5-.35-2.03.36-3 1.68-.15.2-.3.3-.45.1-.76-.96-.46-1.98.25-2.8 3.1-3.5 3.86-6.6 2.85-7.2-1.02-.62-3.86 2.38-4.98 5.53-.1.25-.3.25-.4.05-.46-.6-.51-1.88.1-3.15a7.05 7.05 0 0 1 3.04-3.15c1.12-.56 1.88-.66 2.85.05.91.66 1.37 1.83 1.07 3.46-.26 1.37-1.33 3.1-2.6 4.72.61-.25 1.27-.3 1.78-.05.46.2.82.56 1.12 1.02a7.91 7.91 0 0 0 1.93-4.37c.05-.26.25-.36.46-.15.15.15.3.91.2 1.72-.2 1.32-1.37 2.7-2.29 3.5.97 2.75-.4 7.53-1.67 9-.4.46-.92.81-1.83.2-.76-.45-1.73-1.16-1.63-2.79.2-2.54 1.88-4.52 3.76-6.15-.05-.56-.2-1.01-.56-1.22z"/><path id="4rl0dA" d="M693.42 226.54c-.61 2.69-.15 4.97.86 4.67 1.02-.3 1.88-2.34 2.29-5.08.5-3.35.35-5.08-.4-4.88-.82.3-2.14 2.6-2.75 5.29zm6.04 3.15c1.02-.41 1.83-2.6 2.14-4.68.05-.25.2-.35.4-.15.2.2.46.86.36 1.68-.2 1.62-1.32 3.55-2.74 3.96-1.43.4-2.4-.15-2.8-1.32-.45 1.32-1.27 2.64-2.49 3.05-2.38.8-3.96-2.29-2.9-6.05 1.02-3.66 2.65-5.54 3.92-5.94 1.07-.36 1.83.25 2.13 1.22.46-3.1 1.22-7.27 1.68-8.9.15-.45.36-.5.61-.2.66.71.96 1.83.56 4.12-.46 2.64-1.47 7.67-1.83 10.87-.2 1.62.1 2.7.96 2.34z"/><path id="4rl0dB" d="M705.82 220.85c.45-1.38.55-2.9.1-3.05-.71-.26-2.29 2.03-2.64 4.87 0 .2-.06.36-.06.51 1.53.36 2.19-1.11 2.6-2.33zm-.1 6.6c2.18-.6 3.3-3.3 3.85-5.38.06-.26.26-.31.46-.1.15.15.36.9.1 1.72a6.74 6.74 0 0 1-4.06 4.47c-3.25 1.17-5.49-1.62-4.93-5.54.5-3.86 2.7-6.1 4.22-5.79.76.15 1.37.4 1.98.81.66.46 1.02 2.09.36 3.76-.72 1.99-2.24 3.2-4.53 2.4 0 2.69 1.17 4.06 2.54 3.65z"/><path id="4rl0dC" d="M715.06 213.38c.87-.26 1.83.91 1.88 2.18.81-1.62 2.14-3.4 2.95-3.7.91-.31 1.68 1.16 1.57 2.58-.05 1.33-.7 3.46-.91 4.93-.2 1.73.56 2.75 1.47 2.44 1.02-.4 1.63-2.49 1.98-4.62.05-.26.26-.36.46-.2.2.15.4 1.01.3 1.67-.2 1.73-1.42 3.56-2.89 4.07-2.24.76-3.66-.72-3.45-3.15.2-2.44 1.52-6.1 1.06-6.1-.25 0-1.01.56-2.08 2.8-1.37 2.84-1.78 5.73-2.03 8.53-.05.35-.2.5-.56.35-.56-.25-1.27-1.11-1.17-3.2.1-2.44 1.68-6.9 1.07-6.9-.36 0-1.38 1.11-2.4 3.45-.96 2.13-1.36 4.98-1.57 7.72 0 .26-.15.4-.45.3-.72-.3-1.17-1.11-1.17-2.53 0-1.78.6-6.05 1.37-9 .1-.35.3-.4.56-.2.66.56.96 1.57.91 2.74.76-1.72 2.19-3.86 3.1-4.16z"/><path id="4rl0dD" d="M728.93 210.79c.26.45.4 1.11.4 1.98a2.35 2.35 0 0 1-1.16-1.63c-.1-.81.36-1.12.76-.35zm-.05 2.59c.2.05.36.1.61.2 0 .66-.05 1.47-.2 2.34-.4 2.8-1.68 4.21-2.6 3.86-.86-.3-1.26-2.8-.86-5.13a8.01 8.01 0 0 1 1.12-3.1c.3.91 1.27 1.62 1.93 1.83zm3-.61c.05-.2.05-.3-.15-.26-.2.05-.36.16-.51.2l-.15-.6c-.51-1.88-1.33-1.78-2.19-2.4-.76-.5-1.27-.55-2.03-.24-1.53.6-2.6 2.64-2.95 4.72-.46 2.44-.05 4.78 1.58 5.9 1.47.96 2.8.6 3.6 0 1.68-1.33 2.4-4.48 2.19-6.81.25-.1.46-.3.6-.51z"/><clipPath id="4rl0ab"><use xlink:href="#4rl0a"/></clipPath><clipPath id="4rl0ae"><use xlink:href="#4rl0b"/></clipPath><clipPath id="4rl0ag"><use xlink:href="#4rl0c"/></clipPath><clipPath id="4rl0ar"><use xlink:href="#4rl0d"/></clipPath><clipPath id="4rl0at"><use xlink:href="#4rl0e"/></clipPath><clipPath id="4rl0av"><use xlink:href="#4rl0f"/></clipPath><clipPath id="4rl0aE"><use xlink:href="#4rl0g"/></clipPath><clipPath id="4rl0aK"><use xlink:href="#4rl0h"/></clipPath><clipPath id="4rl0aT"><use xlink:href="#4rl0i"/></clipPath><clipPath id="4rl0aV"><use xlink:href="#4rl0j"/></clipPath><clipPath id="4rl0aY"><use xlink:href="#4rl0k"/></clipPath><clipPath id="4rl0ba"><use xlink:href="#4rl0l"/></clipPath><clipPath id="4rl0be"><use xlink:href="#4rl0m"/></clipPath><clipPath id="4rl0bh"><use xlink:href="#4rl0n"/></clipPath><clipPath id="4rl0bj"><use xlink:href="#4rl0o"/></clipPath><clipPath id="4rl0bl"><use xlink:href="#4rl0p"/></clipPath><clipPath id="4rl0by"><use xlink:href="#4rl0q"/></clipPath><clipPath id="4rl0bB"><use xlink:href="#4rl0r"/></clipPath><clipPath id="4rl0bQ"><use xlink:href="#4rl0s"/></clipPath><clipPath id="4rl0bS"><use xlink:href="#4rl0t"/></clipPath><clipPath id="4rl0ce"><use xlink:href="#4rl0u"/></clipPath><clipPath id="4rl0cC"><use xlink:href="#4rl0v"/></clipPath><clipPath id="4rl0cE"><use xlink:href="#4rl0w"/></clipPath><clipPath id="4rl0cH"><use xlink:href="#4rl0x"/></clipPath><clipPath id="4rl0cJ"><use xlink:href="#4rl0y"/></clipPath><clipPath id="4rl0cL"><use xlink:href="#4rl0z"/></clipPath><clipPath id="4rl0cQ"><use xlink:href="#4rl0A"/></clipPath><clipPath id="4rl0cS"><use xlink:href="#4rl0B"/></clipPath><clipPath id="4rl0cV"><use xlink:href="#4rl0C"/></clipPath><clipPath id="4rl0cY"><use xlink:href="#4rl0D"/></clipPath><clipPath id="4rl0da"><use xlink:href="#4rl0E"/></clipPath><clipPath id="4rl0dc"><use xlink:href="#4rl0E"/></clipPath><clipPath id="4rl0df"><use xlink:href="#4rl0F"/></clipPath></defs><g><g transform="translate(-640 -32)"><use fill="#c0392b" xlink:href="#4rl0G"/></g><g transform="translate(-640 -32)"><use fill="#c0392b" xlink:href="#4rl0H"/></g><g transform="translate(-640 -32)"><use fill="#c0392b" xlink:href="#4rl0I"/></g><g transform="translate(-640 -32)"><use fill="#c0392b" xlink:href="#4rl0J"/></g><g transform="translate(-640 -32)"><use fill="#c0392b" xlink:href="#4rl0K"/></g><g transform="translate(-640 -32)"><use fill="#c0392b" xlink:href="#4rl0L"/></g><g transform="translate(-640 -32)"><use fill="#c0392b" xlink:href="#4rl0M"/></g><g transform="translate(-640 -32)"><use fill="#c0392b" xlink:href="#4rl0N"/></g><g transform="translate(-640 -32)"><use fill="#c0392b" xlink:href="#4rl0O"/></g><g transform="translate(-640 -32)"><use fill="#fff" xlink:href="#4rl0P"/></g><g transform="translate(-640 -32)"><use fill="#fff" xlink:href="#4rl0Q"/></g><g transform="translate(-640 -32)"><use fill="#fff" xlink:href="#4rl0R"/></g><g transform="translate(-640 -32)"><use fill="#fff" xlink:href="#4rl0S"/></g><g transform="translate(-640 -32)"><use fill="#eb867c" xlink:href="#4rl0T"/></g><g transform="translate(-640 -32)"><use fill="#c0392b" xlink:href="#4rl0U"/></g><g transform="translate(-640 -32)"><use fill="#eb867c" xlink:href="#4rl0V"/></g><g transform="translate(-640 -32)"><use fill="#c0392b" xlink:href="#4rl0W"/></g><g transform="translate(-640 -32)"><use fill="#c0392b" xlink:href="#4rl0X"/></g><g opacity=".12" transform="translate(-640 -32)"><use xlink:href="#4rl0Y"/></g><g transform="translate(-640 -32)"><use fill="#d9d9d9" xlink:href="#4rl0Z"/></g><g transform="translate(-640 -32)"><use fill="#f2f2f2" xlink:href="#4rl0aa"/></g><g transform="translate(-640 -32)"><g><g><g><use xlink:href="#4rl0a"/></g><g clip-path="url(#4rl0ab)"><use fill="#787878" xlink:href="#4rl0ac"/></g></g></g><g><g><use fill="#929292" xlink:href="#4rl0ad"/></g></g><g><g><g><use xlink:href="#4rl0b"/></g><g clip-path="url(#4rl0ae)"><use fill="#1e2b35" xlink:href="#4rl0af"/></g></g></g><g><g><g><use xlink:href="#4rl0c"/></g><g clip-path="url(#4rl0ag)"><use fill="#787878" xlink:href="#4rl0ah"/></g></g></g><g><g><use fill="#929292" xlink:href="#4rl0ai"/></g></g><g><g><use fill="#929292" xlink:href="#4rl0aj"/></g></g><g><g><use fill="#929292" xlink:href="#4rl0ak"/></g></g><g><g><use fill="#929292" xlink:href="#4rl0al"/></g></g><g><g><use fill="#929292" xlink:href="#4rl0am"/></g></g><g><g><use fill="#929292" xlink:href="#4rl0an"/></g></g><g><g><use fill="#929292" xlink:href="#4rl0ao"/></g></g><g><g><use fill="#929292" xlink:href="#4rl0ap"/></g></g><g><g><use fill="#929292" xlink:href="#4rl0aq"/></g></g><g><g><g><use xlink:href="#4rl0d"/></g><g clip-path="url(#4rl0ar)"><use fill="#787878" xlink:href="#4rl0as"/></g></g></g><g><g><g><use xlink:href="#4rl0e"/></g><g clip-path="url(#4rl0at)"><use fill="#1e2b35" xlink:href="#4rl0au"/></g></g></g><g><g><g><use xlink:href="#4rl0f"/></g><g clip-path="url(#4rl0av)"><use fill="#1e2b35" xlink:href="#4rl0aw"/></g></g></g><g><g><use fill="#929292" xlink:href="#4rl0ax"/></g></g><g><g><use fill="#929292" xlink:href="#4rl0ay"/></g></g><g><g><use fill="#929292" xlink:href="#4rl0az"/></g></g><g><g><use fill="#929292" xlink:href="#4rl0aA"/></g></g><g><g><use fill="#929292" xlink:href="#4rl0aB"/></g></g><g><g><use fill="#929292" xlink:href="#4rl0aC"/></g></g><g><g><use fill="#929292" xlink:href="#4rl0aD"/></g></g><g><g><g><use xlink:href="#4rl0g"/></g><g clip-path="url(#4rl0aE)"><use fill="#787878" xlink:href="#4rl0aF"/></g></g></g><g><g><use fill="#929292" xlink:href="#4rl0aG"/></g></g><g><g><use fill="#929292" xlink:href="#4rl0aH"/></g></g><g><g><use fill="#929292" xlink:href="#4rl0aI"/></g></g><g><g><use fill="#929292" xlink:href="#4rl0aJ"/></g></g><g><g><g><use xlink:href="#4rl0h"/></g><g clip-path="url(#4rl0aK)"><use fill="#787878" xlink:href="#4rl0aL"/></g></g></g><g><g><use fill="#929292" xlink:href="#4rl0aM"/></g></g><g><g><use fill="#929292" xlink:href="#4rl0aN"/></g></g><g><g><use fill="#929292" xlink:href="#4rl0aO"/></g></g><g><g><use fill="#929292" xlink:href="#4rl0aP"/></g></g><g><g><use fill="#929292" xlink:href="#4rl0aQ"/></g></g><g><g><use fill="#929292" xlink:href="#4rl0aR"/></g></g><g><g><use fill="#929292" xlink:href="#4rl0aS"/></g></g><g><g><g><use xlink:href="#4rl0i"/></g><g clip-path="url(#4rl0aT)"><use fill="#1e2b35" xlink:href="#4rl0aU"/></g></g></g><g><g><g><use xlink:href="#4rl0j"/></g><g clip-path="url(#4rl0aV)"><use fill="#1e2b35" xlink:href="#4rl0aW"/></g></g></g><g><g><use fill="#929292" xlink:href="#4rl0aX"/></g></g><g><g><g><use xlink:href="#4rl0k"/></g><g clip-path="url(#4rl0aY)"><use fill="#1e2b35" xlink:href="#4rl0aZ"/></g></g></g><g><g><g><use xlink:href="#4rl0l"/></g><g clip-path="url(#4rl0ba)"><use fill="#787878" xlink:href="#4rl0bb"/></g></g></g><g><g><use fill="#929292" xlink:href="#4rl0bc"/></g></g><g><g><use fill="#929292" xlink:href="#4rl0bd"/></g></g><g><g><g><use xlink:href="#4rl0m"/></g><g clip-path="url(#4rl0be)"><use fill="#787878" xlink:href="#4rl0bf"/></g></g></g><g><g><use fill="#929292" xlink:href="#4rl0bg"/></g></g><g><g><g><use xlink:href="#4rl0n"/></g><g clip-path="url(#4rl0bh)"><use fill="#787878" xlink:href="#4rl0bi"/></g></g></g><g><g><g><use xlink:href="#4rl0o"/></g><g clip-path="url(#4rl0bj)"><use fill="#1e2b35" xlink:href="#4rl0bk"/></g></g></g><g><g><g><use xlink:href="#4rl0p"/></g><g clip-path="url(#4rl0bl)"><use fill="#787878" xlink:href="#4rl0bm"/></g></g></g><g><g><use fill="#929292" xlink:href="#4rl0bn"/></g></g><g><g><use fill="#929292" xlink:href="#4rl0bo"/></g></g><g><g><use fill="#929292" xlink:href="#4rl0bp"/></g></g><g><g><use fill="#929292" xlink:href="#4rl0bq"/></g></g><g><g><use fill="#929292" xlink:href="#4rl0br"/></g></g><g><g><use fill="#929292" xlink:href="#4rl0bs"/></g></g><g><g><use fill="#929292" xlink:href="#4rl0bt"/></g></g><g><g><use fill="#929292" xlink:href="#4rl0bu"/></g></g><g><g><use fill="#929292" xlink:href="#4rl0bv"/></g></g><g><g><use fill="#929292" xlink:href="#4rl0bw"/></g></g><g><g><use fill="#929292" xlink:href="#4rl0bx"/></g></g><g><g><g><use xlink:href="#4rl0q"/></g><g clip-path="url(#4rl0by)"><use fill="#787878" xlink:href="#4rl0bz"/></g></g></g><g><g><use fill="#929292" xlink:href="#4rl0bA"/></g></g><g><g><g><use xlink:href="#4rl0r"/></g><g clip-path="url(#4rl0bB)"><use fill="#1e2b35" xlink:href="#4rl0bC"/></g></g></g><g><g><use fill="#929292" xlink:href="#4rl0bD"/></g></g><g><g><use fill="#929292" xlink:href="#4rl0bE"/></g></g><g><g><use fill="#929292" xlink:href="#4rl0bF"/></g></g><g><g><use fill="#929292" xlink:href="#4rl0bG"/></g></g><g><g><use fill="#929292" xlink:href="#4rl0bH"/></g></g><g><g><use fill="#929292" xlink:href="#4rl0bI"/></g></g><g><g><use fill="#929292" xlink:href="#4rl0bJ"/></g></g><g><g><use fill="#929292" xlink:href="#4rl0bK"/></g></g><g><g><use fill="#929292" xlink:href="#4rl0bL"/></g></g><g><g><use fill="#929292" xlink:href="#4rl0bM"/></g></g><g><g><use fill="#929292" xlink:href="#4rl0bN"/></g></g><g><g><use fill="#929292" xlink:href="#4rl0bO"/></g></g><g><g><use fill="#929292" xlink:href="#4rl0bP"/></g></g><g><g><g><use xlink:href="#4rl0s"/></g><g clip-path="url(#4rl0bQ)"><use fill="#1e2b35" xlink:href="#4rl0bR"/></g></g></g><g><g><g><use xlink:href="#4rl0t"/></g><g clip-path="url(#4rl0bS)"><use fill="#1e2b35" xlink:href="#4rl0bT"/></g></g></g><g><g><use fill="#929292" xlink:href="#4rl0bU"/></g></g><g><g><use fill="#929292" xlink:href="#4rl0bV"/></g></g><g><g><use fill="#929292" xlink:href="#4rl0bW"/></g></g><g><g><use fill="#929292" xlink:href="#4rl0bX"/></g></g><g><g><use fill="#929292" xlink:href="#4rl0bY"/></g></g><g><g><use fill="#929292" xlink:href="#4rl0bZ"/></g></g><g><g><use fill="#929292" xlink:href="#4rl0ca"/></g></g><g><g><use fill="#929292" xlink:href="#4rl0cb"/></g></g><g><g><use fill="#929292" xlink:href="#4rl0cc"/></g></g><g><g><use fill="#929292" xlink:href="#4rl0cd"/></g></g><g><g><g><use xlink:href="#4rl0u"/></g><g clip-path="url(#4rl0ce)"><use fill="#787878" xlink:href="#4rl0cf"/></g></g></g><g><g><use fill="#929292" xlink:href="#4rl0cg"/></g></g><g><g><use fill="#929292" xlink:href="#4rl0ch"/></g></g><g><g><use fill="#929292" xlink:href="#4rl0ci"/></g></g><g><g><use fill="#929292" xlink:href="#4rl0cj"/></g></g><g><g><use fill="#929292" xlink:href="#4rl0ck"/></g></g><g><g><use fill="#929292" xlink:href="#4rl0cl"/></g></g><g><g><use fill="#929292" xlink:href="#4rl0cm"/></g></g><g><g><use fill="#929292" xlink:href="#4rl0cn"/></g></g><g><g><use fill="#929292" xlink:href="#4rl0co"/></g></g><g><g><use fill="#929292" xlink:href="#4rl0cp"/></g></g><g><g><use fill="#929292" xlink:href="#4rl0cq"/></g></g><g><g><use fill="#929292" xlink:href="#4rl0cr"/></g></g><g><g><use fill="#929292" xlink:href="#4rl0cs"/></g></g><g><g><use fill="#929292" xlink:href="#4rl0ct"/></g></g><g><g><use fill="#929292" xlink:href="#4rl0cu"/></g></g><g><g><use fill="#929292" xlink:href="#4rl0cv"/></g></g><g><g><use fill="#929292" xlink:href="#4rl0cw"/></g></g><g><g><use fill="#929292" xlink:href="#4rl0cx"/></g></g><g><g><use fill="#929292" xlink:href="#4rl0cy"/></g></g><g><g><use fill="#929292" xlink:href="#4rl0cz"/></g></g><g><g><use fill="#929292" xlink:href="#4rl0cA"/></g></g><g><g><use fill="#929292" xlink:href="#4rl0cB"/></g></g><g><g><g><use xlink:href="#4rl0v"/></g><g clip-path="url(#4rl0cC)"><use fill="#787878" xlink:href="#4rl0cD"/></g></g></g><g><g><g><use xlink:href="#4rl0w"/></g><g clip-path="url(#4rl0cE)"><use fill="#1e2b35" xlink:href="#4rl0cF"/></g></g></g><g><g><use fill="#929292" xlink:href="#4rl0cG"/></g></g><g><g><g><use xlink:href="#4rl0x"/></g><g clip-path="url(#4rl0cH)"><use fill="#1e2b35" xlink:href="#4rl0cI"/></g></g></g><g><g><g><use xlink:href="#4rl0y"/></g><g clip-path="url(#4rl0cJ)"><use fill="#787878" xlink:href="#4rl0cK"/></g></g></g><g><g><g><use xlink:href="#4rl0z"/></g><g clip-path="url(#4rl0cL)"><use fill="#1e2b35" xlink:href="#4rl0cM"/></g></g></g><g><g><use fill="#929292" xlink:href="#4rl0cN"/></g></g><g><g><use fill="#929292" xlink:href="#4rl0cO"/></g></g><g><g><use fill="#929292" xlink:href="#4rl0cP"/></g></g><g><g><g><use xlink:href="#4rl0A"/></g><g clip-path="url(#4rl0cQ)"><use fill="#787878" xlink:href="#4rl0cR"/></g></g></g><g><g><g><use xlink:href="#4rl0B"/></g><g clip-path="url(#4rl0cS)"><use fill="#787878" xlink:href="#4rl0cT"/></g></g></g><g><g><use fill="#929292" xlink:href="#4rl0cU"/></g></g><g><g><g><use xlink:href="#4rl0C"/></g><g clip-path="url(#4rl0cV)"><use fill="#787878" xlink:href="#4rl0cW"/></g></g></g><g><g><use fill="#929292" xlink:href="#4rl0cX"/></g></g><g><g><g><use xlink:href="#4rl0D"/></g><g clip-path="url(#4rl0cY)"><use fill="#1e2b35" xlink:href="#4rl0cZ"/></g></g></g><g><g><g><use xlink:href="#4rl0E"/></g><g clip-path="url(#4rl0da)"><use fill="#1e2b35" xlink:href="#4rl0db"/></g></g></g><g><g><g><use xlink:href="#4rl0E"/></g><g clip-path="url(#4rl0dc)"><use fill="#787878" xlink:href="#4rl0dd"/></g></g></g><g><g><use fill="#929292" xlink:href="#4rl0de"/></g></g><g><g><g><use xlink:href="#4rl0F"/></g><g clip-path="url(#4rl0df)"><use fill="#1e2b35" xlink:href="#4rl0dg"/></g></g></g><g><g><use fill="#929292" xlink:href="#4rl0dh"/></g></g></g><g transform="translate(-640 -32)"><use fill="#ccc" xlink:href="#4rl0di"/></g><g transform="translate(-640 -32)"><use fill="#fafafa" xlink:href="#4rl0dj"/></g><g transform="translate(-640 -32)"><use fill="#00a3b4" xlink:href="#4rl0dk"/></g><g opacity=".1" transform="translate(-640 -32)"><use fill="#fff" xlink:href="#4rl0dl"/></g><g transform="translate(-640 -32)"/><g transform="translate(-640 -32)"/><g transform="translate(-640 -32)"><g><use fill="#f9f3e9" xlink:href="#4rl0dm"/></g><g><use fill="#f9f3e9" xlink:href="#4rl0dn"/></g><g><use fill="#f9f3e9" xlink:href="#4rl0do"/></g><g><use fill="#f9f3e9" xlink:href="#4rl0dp"/></g><g><use fill="#f9f3e9" xlink:href="#4rl0dq"/></g><g><use fill="#f9f3e9" xlink:href="#4rl0dr"/></g></g><g transform="translate(-640 -32)"><use xlink:href="#4rl0ds"/></g><g transform="translate(-640 -32)"><g><use fill="#fff" xlink:href="#4rl0dt"/></g><g><use fill="#fff" xlink:href="#4rl0du"/></g><g><use fill="#fff" xlink:href="#4rl0dv"/></g><g><use fill="#fff" xlink:href="#4rl0dw"/></g><g><use fill="#fff" xlink:href="#4rl0dx"/></g><g><use fill="#fff" xlink:href="#4rl0dy"/></g><g><use fill="#fff" xlink:href="#4rl0dz"/></g><g><use fill="#fff" xlink:href="#4rl0dA"/></g><g><use fill="#fff" xlink:href="#4rl0dB"/></g><g><use fill="#fff" xlink:href="#4rl0dC"/></g><g><use fill="#fff" xlink:href="#4rl0dD"/></g></g></g></svg>