<svg xmlns="http://www.w3.org/2000/svg" xmlns:xlink="http://www.w3.org/1999/xlink" viewBox="0 0 170 30">
  <defs>
    <style>
      .cls-1 {
        clip-path: url(#clip-_170x30);
      }

      .cls-2 {
        fill: #005a9a;
      }

      .cls-3 {
        fill: #fff;
      }
    </style>
    <clipPath id="clip-_170x30">
      <rect width="170" height="30"/>
    </clipPath>
  </defs>
  <g id="_170x30" data-name="170x30" class="cls-1">
    <rect class="cls-3" width="170" height="30"/>
    <g id="Group_368" data-name="Group 368" transform="translate(3 4.1)">
      <g id="Group_362" data-name="Group 362" transform="translate(0 2.906)">
        <path id="Path_1546" data-name="Path 1546" d="M19.625,25.526V11.5h-5.8V25.526H9.812V11.5H3.973V25.526H0V12.086a6.832,6.832,0,0,1,.138-1.555A2.258,2.258,0,0,1,.656,9.495a2.467,2.467,0,0,1,1.071-.587A5.89,5.89,0,0,1,3.455,8.7H20.247a3.634,3.634,0,0,1,2.695.795,3.747,3.747,0,0,1,.726,2.591v13.44Z" transform="translate(0 -8.665)"/>
        <path id="Path_1547" data-name="Path 1547" d="M102.2,25.526V8.7h3.973V25.492H102.2Zm8.707-8.672,6.288,8.672h-4.7l-5.839-8.43,6.876-8.4h4.388Z" transform="translate(-66.889 -8.665)"/>
        <path id="Path_1548" data-name="Path 1548" d="M154.408,11.564V25.592H150.4V12.151a3.537,3.537,0,0,1,.795-2.557,3.556,3.556,0,0,1,2.66-.795h7.152v2.8h-6.6Z" transform="translate(-98.436 -8.731)"/>
        <path id="Path_1549" data-name="Path 1549" d="M199.984,22.006a5.971,5.971,0,0,1-.138,1.417,2.587,2.587,0,0,1-.518,1.071,3.022,3.022,0,0,1-1.071.691,5.577,5.577,0,0,1-1.693.276c-.726.035-1.347.035-1.935.069-.484.035-.967.035-1.417.035h-1.52c-.415,0-.829,0-1.313-.035-.553-.035-1.14-.035-1.8-.069a4.061,4.061,0,0,1-2.453-.726,3.074,3.074,0,0,1-.829-2.488V12.124a3.851,3.851,0,0,1,.726-2.522,3.486,3.486,0,0,1,2.695-.933c.691,0,1.313,0,1.866-.035.484-.035.967-.035,1.347-.035h1.52c.415,0,.864.035,1.347.035.553.035,1.175.035,1.866.035a8.361,8.361,0,0,1,1.417.173,2.587,2.587,0,0,1,1.071.518,2.31,2.31,0,0,1,.656,1,5.68,5.68,0,0,1,.242,1.693v9.951Zm-4.042-10.572h-6.668V22.662h6.668Z" transform="translate(-121.278 -8.6)"/>
        <rect id="Rectangle_172" data-name="Rectangle 172" width="4.008" height="12.645" transform="translate(27.433 4.181)"/>
      </g>
      <circle id="Ellipse_36" data-name="Ellipse 36" class="cls-2" cx="2.073" cy="2.073" r="2.073" transform="translate(27.364 1.8)"/>
      <circle id="Ellipse_37" data-name="Ellipse 37" class="cls-2" cx="2.073" cy="2.073" r="2.073" transform="translate(69.239 9.263)"/>
      <rect id="Rectangle_173" data-name="Rectangle 173" class="cls-2" width="0.76" height="20.558" transform="translate(84.545 0.556)"/>
      <g id="Group_367" data-name="Group 367" transform="translate(88.138 -0.1)">
        <path id="Path_1550" data-name="Path 1550" class="cls-2" d="M457.02,26.428a.34.34,0,0,1-.276.138h-.484a.835.835,0,0,1-.449-.069,3.223,3.223,0,0,1-.691-.346c-1.728-.691-2-2.522-3.628-4.768a18.734,18.734,0,0,0-2-2.142c-.069,0-.069.069-.138.138-.173.9-.346,1.728-.449,2.557-.069.173-.069.311-.138.484a2.283,2.283,0,0,1,.035.484,2.112,2.112,0,0,1-.242.829c-.1.449.1.967.035,1.417a.718.718,0,0,1-.415.173c-.1,0-.207-.1-.38-.242-.1-.069-.38-.173-.484-.38A4.236,4.236,0,0,1,447,23.595a48.413,48.413,0,0,1,1.417-8.361c.173-.553.9-2.488,1.278-3.731a3.879,3.879,0,0,1-.9-.276c-.207-.173-.138-.518-.415-.587V10.6c0-.035-.034-.069-.034-.1,0-.069.1-.138.1-.242.1-.173.035-.311.069-.484.207-.173.38-.38.553-.553a2.115,2.115,0,0,1,.587-.242c.1,0,.1-.173.207-.173.518-.069,1.555-.207,1.658-.207a8.661,8.661,0,0,1,4.319,1.728.5.5,0,0,1,.069.242,3.179,3.179,0,0,1,.9,1.417,1.153,1.153,0,0,1,.173.415,2.137,2.137,0,0,1-.138.553,4.331,4.331,0,0,1-.415,1.037c-.1.173-.38.38-.518.553a.984.984,0,0,1-.138.276l-.587.553a15.608,15.608,0,0,1-1.624,1.278c-.449.311-.967.656-1.486.967a8.22,8.22,0,0,1-.933.415.753.753,0,0,1-.311.242c2,1.486,3.04,4.526,4.561,5.977.829.38,1.071,1.037,1.658,1.52a.771.771,0,0,1,.1.484C457.158,26.359,457.02,26.394,457.02,26.428Zm-5.044-16.2c-.1,0-.242.069-.311.069a3.3,3.3,0,0,1,.242.795,4.815,4.815,0,0,1-.1,1.106c-.173.726-.553,1.624-.726,2.142l-.622,1.658a.13.13,0,0,1,.207,0c0-.1.173-.242.276-.311a17.078,17.078,0,0,0,2.764-1.969v-.207a5.781,5.781,0,0,0,1.486-2A4.927,4.927,0,0,0,451.975,10.224Z" transform="translate(-380.698 -5.594)"/>
        <path id="Path_1551" data-name="Path 1551" class="cls-2" d="M434.441,22.829c-.173.76-.415,2.177-.415,2.349s.242,1.037.242,1.14c0,.173-.276.311-.276.518-.069,0-.242.035-.38.035-.173,0-.173-.276-.276-.38a2.362,2.362,0,0,1-.691-1.762c-.1-.346.1-1.209.069-2.349,0-.173.38-2.315.38-2.488.242-.691.518-2.8.76-3.8s.587-2,.864-3.04c.1-.484.311-1.106.484-1.693.173-.449.173-1.209.622-1.486a.728.728,0,0,1,.38-.173c.173,0,.345.346.484.346a1.226,1.226,0,0,0,.242-.035.107.107,0,0,1-.069.035v.1c0,.207.415.9.415,1.106a3.009,3.009,0,0,1-.276.967,2.256,2.256,0,0,1,.069.38c-.449,1.555-.933,3.04-1.382,4.457-.1.622-.276,1.347-.449,2A16.281,16.281,0,0,1,434.441,22.829Z" transform="translate(-371.283 -6.314)"/>
        <path id="Path_1552" data-name="Path 1552" class="cls-2" d="M273.1,11.777a1.564,1.564,0,0,1-.1.553,2.751,2.751,0,0,0-.138.311c0,.035,0,.035.035.035,0,.035.035.035.069.035-.1.069-.1.173-.207.346-.449,1.866-.9,3.8-1.278,5.7a1.5,1.5,0,0,0-.035-.173c-.1.173,0,.311,0,.518v-.035c0-.035-.035-.035-.069-.1,0,.207-.138.311-.035.518l.035-.035c.035-.035.035-.035.035-.069,0,.1-.1.173-.035.311-.035,0-.035,0-.035-.035-.035-.035,0-.035-.069-.069A11.141,11.141,0,0,0,271.1,20.9a4.38,4.38,0,0,1,0,1.244c.035.38.1.76.173,1.14a1.094,1.094,0,0,1,.207.518v.311a.478.478,0,0,1-.415.38c-.1,0-.173-.035-.311-.035-.1,0-.311-.173-.484-.311a.208.208,0,0,0-.035-.138,2.319,2.319,0,0,1-.656-1.209,12.88,12.88,0,0,1-.242-2.108c0-.1.173-1.347.173-1.486v-.242h.035a.127.127,0,0,0,.1-.035c.1-.553-.035-.449-.035-.553s.242-.691.311-1.037a3.28,3.28,0,0,0,.069-.691c-.1,0-.138.069-.138.207a1.479,1.479,0,0,1,.276-.9c.035-.1,0-.138,0-.311-.035.035,0,.069.069.173.069-.069.035-.035.035-.138s.069-.311.069-.484c0-.035.1-.138.069-.242l-.035-.035h-.069c0-.415.207-1.209.207-1.347,0-.173.035-.1-.035-.173-.1.1-.346.173-.346.276l-.1-.1c-.069.069-.035.1-.138.173a.092.092,0,0,0,.1.1,1.553,1.553,0,0,1-.242.484c0-.069.035-.1.035-.207a1.253,1.253,0,0,0-.518.726c-.1.173-.276.311-.345.415a4.159,4.159,0,0,1-.311.726c-.069.173,0,.346-.1.518-.449.933-1,1.935-1.52,2.868a1.973,1.973,0,0,0-.242.276c-.449.726-.726,1.624-1.14,2.28-.484.933-.656,2.108-1.209,2.937a2.258,2.258,0,0,1-.726.138c-.1,0-.173-.207-.276-.276a1.5,1.5,0,0,1-.933-1.071l-.173-.173a4.865,4.865,0,0,1-.035-1,3.846,3.846,0,0,1-.138-.795c0-.1.1-.1.138-.173a2.972,2.972,0,0,1,.035-.553l.1-.1c-.242-.38-.1-1-.173-1.52l.035-3.662c0-.1-.035-.035-.069-.1-.069-.1.069-.311.069-.38a2.309,2.309,0,0,0-.173-.656,2.975,2.975,0,0,1,.035-.553,7.783,7.783,0,0,0-.138-1.589.928.928,0,0,0-.38.587c-1,2.349-2.246,5.217-3.144,7.774-.173.484-.415,1-.587,1.486-.276.933-.518,1.866-.726,2.833-.069.1.035.518-.242.726-.069,0-.173.207-.345.207s-.311-.069-.484,0a8.583,8.583,0,0,0-.622-.864.858.858,0,0,1-.035-.656l-.207-.173c-.069-.173.173-.173-.069-.38a.478.478,0,0,0,.173-.311c.035-.035.1-.069.173-.138-.069-.1.035-.242-.138-.242-.1,0-.035-.035-.1.035l.138-.138c.069-.173-.069-.449.035-.656a25.628,25.628,0,0,1,1.209-3.317,3.31,3.31,0,0,1,.311-.553.737.737,0,0,1,0-.276c.069-.38.484-.829.38-1.209a.19.19,0,0,1,.173.1c.035.035-.035.1.069.173.1-.069.069-.242.173-.311a4.423,4.423,0,0,1-.38,1.071V18.2c0,.035,0,.035.035.035.035-.035.1-.069.1-.138l.933-2.246v-.035c0-.035,0-.035-.035-.035a3.592,3.592,0,0,0-.484.967h-.035c-.035,0-.035-.035-.069-.035a.916.916,0,0,0-.207.173,1.01,1.01,0,0,1-.069.311c-.035,0-.035,0-.069-.035-.035,0-.035-.035-.069-.035a8.1,8.1,0,0,1,.691-1.555c.1-.173.173-.622.276-.795.035-.035.069-.138.173-.138-.1.1-.138.38-.207.449-.035.1.035.1.035.138a1.743,1.743,0,0,1-.242.449c0,.1.035.1.035.207a.316.316,0,0,0-.173-.1,5.432,5.432,0,0,1-.1.933c.173-.38.38-.795.553-1.244,0,.069-.035.1-.035.173l.069.1c.1-.1.1-.242.207-.38-.069-.069-.138-.1-.207-.035,0-.035,0-.035.035-.069,0-.035.035-.069.035-.1h.035c.035,0,.035.035.069.035l2.591-5.183-.069-.069-.207.173a1.065,1.065,0,0,0,.173-.242.034.034,0,0,0,.035.035h.069c.1-.069.1-.311.276-.415l-.069-.035c-.1.069-.173.1-.173.173,0-.069.1-.035,0-.1-.1.1-.173.311-.345.415V9.98c0,.035,0,.035.035.035l-.691,1.106a.314.314,0,0,0,.1.242c0-.035-.035-.035-.035-.069a6.261,6.261,0,0,1-.967,1.555c.242-.518.484-1.313.795-1.831a28.5,28.5,0,0,0,1.348-2.522l.173-.138c.1.035.1.138.173.242l.1-.1c.1,0,.207.035.311.035.1-.069,0-.138,0-.207.346.242.484.207.656.553h.1c.069-.1,0-.1,0-.173.518.311.484.933.691,1.347.069.38.242,1.071.311,1.52.069.795.173,2.349.173,2.488v1.9c0,.1-.1,2-.173,3.04l.1.1a.263.263,0,0,0,.207-.276v.035c0,.035.035.035.069.069.069-.035.035-.069.138-.173-.035.035-.035.1.035.242a1.049,1.049,0,0,1,.173-.242v-.242c0-.069-.346.035-.173.1,0,.035,0,.035-.035.035h-.1a10.29,10.29,0,0,0,.691-1,4.225,4.225,0,0,0-.346.795v.035c0,.035,0,.035.035.035a2.741,2.741,0,0,0,.518-.864,1.5,1.5,0,0,0,.035.173.657.657,0,0,0,.173-.449l-.1.1a4.135,4.135,0,0,0,.449-.726c.069-.173.311-.38.1-.518a1.663,1.663,0,0,0,.415-.553c.38-.553.795-1.14,1.175-1.693.311-.518.622-1.14.9-1.728.035-.069.138-.035.207-.173l.795-1.14a8.267,8.267,0,0,1,.449-.967c.1-.1.449-.242.518-.656-.069,0-.1.035-.173.035.069-.1.484-.242.415-.587,0,.069,0,.1.035.1.1-.1.207-.173.207-.276,0-.035-.069-.035-.207-.035-.173,0-.242.207-.311.311a4.361,4.361,0,0,1,.656-1.14h.173v.035c0,.035-.035.035-.035.1.1.069.276-.035.449.069.035-.035.035-.035.035-.069V7.7c.173.1.346.173.449.242a.723.723,0,0,0,.207.138,1.035,1.035,0,0,1,.346.138c.1.069.1.242.173.311a3.828,3.828,0,0,1,.311.656,5.652,5.652,0,0,1,.1,1.209A5.159,5.159,0,0,1,273.1,11.777ZM255.446,23.386l-.035.1-.138-.035.035-.1Zm1.935-4.733h-.1l-.1.415h.1Zm.035-.587-.1-.035-.069.138.069.069Zm.242-.622h-.1l-.1.207.1.035Zm.035-.726v-.173h.1v.173Zm1.209-2.626a1.228,1.228,0,0,0,.069-.346l.069.1C259.039,13.919,258.97,13.988,258.9,14.092Zm.276-.1c.069-.1-.035-.242.035-.38-.069-.069-.173.035-.242.1a.854.854,0,0,1,.138-.311l.1-.1a.092.092,0,0,0-.1-.1.034.034,0,0,1,.035-.035.127.127,0,0,0,.035-.1.747.747,0,0,0,.035.38.754.754,0,0,0,.346-.38Zm.276-.967-.1.173-.1-.035.1-.138Zm2.833,10.572h-.069l-.069-.138.069-.035Zm1.9-4.077h-.1v.138h.1Zm.138-.415-.069.138.069.035.1-.138Zm1.106-1.866-.069-.035.035-.173h.1Zm.518-1.037-.242.587-.035-.035.207-.553Zm.1-.1a2.583,2.583,0,0,1,.553-1C266.433,15.336,266.225,15.785,266.052,16.1Zm.829-1.52-.069.173-.069-.069.035-.138Zm.173-.311-.138.138-.035-.035.138-.138Zm.311-.449c-.035,0-.035,0-.035-.035-.035,0,0-.035-.069-.035-.035,0-.035,0-.035-.035.1-.069.345-.242.345-.311C267.573,13.47,267.365,13.643,267.365,13.815Zm.276-.518-.035-.035.1-.207.069.035Zm.138.1-.069.138-.1-.035.1-.138Zm.276-.726a.316.316,0,0,1-.1-.173h.035c.035,0,.035.035.069.069l.035-.035c.035-.035.035-.035.035-.069C268.126,12.606,268.056,12.606,268.056,12.675Zm.207-.38c0-.1.035-.207.035-.311A.344.344,0,0,1,268.264,12.3Zm.829-1.244v-.1a.264.264,0,0,1,.069-.173A.415.415,0,0,1,269.093,11.051Zm.276,11.367h-.1l-.1-.346h.1Zm.173-12.127-.069.138-.1-.035.1-.138Zm.242-.276c-.035,0-.035,0-.069-.035-.035,0-.035-.035-.069-.035a1.835,1.835,0,0,0,.449-.449C270.026,9.669,269.853,9.808,269.784,10.015Zm.242,3.455c.1,0,.138-.069.138-.173Zm.345-4.492a.957.957,0,0,0-.1.449c-.069-.069-.1-.035-.173-.035ZM270.2,13.3c.173-.173.242-.38.345-.449A.763.763,0,0,0,270.2,13.3Zm.207,1.175h-.069v.138h.069Zm.622-6.357c-.035,0-.035,0-.069-.035,0,.173-.035.38-.035.484a.958.958,0,0,0,.173-.415C271.062,8.149,271.062,8.115,271.028,8.115Z" transform="translate(-255.1 -5.005)"/>
        <path id="Path_1553" data-name="Path 1553" class="cls-2" d="M320.4,16.732c-.069.346-.346.829-.276,1.14a20.456,20.456,0,0,0-.415,2.108c-.1.864-.415,2.349-.415,2.488v1.382c0,.173-.1.035-.1.173a2.663,2.663,0,0,0,.38,1.278,3.266,3.266,0,0,0,.795.553,1.763,1.763,0,0,0,.311.484c-.1.1-.035.415-.207.415h-.242c-.035.035,0,.069.069.138-.1,0-.173.138-.311.138-.173,0-.069-.1-.242-.1a1.765,1.765,0,0,1-.484-.242c-.276-.173-.518-.311-.656-.415a3.671,3.671,0,0,1-.518-.518c-.069-.035-.138-.173-.207-.069v-.069c0-.035.035-.035.035-.069a4.316,4.316,0,0,1-.553-1.486.259.259,0,0,1,.035-.173,2.881,2.881,0,0,1-.138-.518v-3.49c-.035-.1.035-.069-.035-.138-1.728,2.28-3.524,5.735-6.046,6.91a.154.154,0,0,1-.173,0,3.688,3.688,0,0,1-1.52.173c-.346,0-.76-.656-1-.656-.1,0,.035.069-.1.069-.069,0-.207-.1-.38-.311a3.256,3.256,0,0,1-.38-.587,1.277,1.277,0,0,1-.173-.38,3.84,3.84,0,0,0-.1-.449.557.557,0,0,1-.1-.311c0-.069-.035-.242-.035-.38,0-.1.069-1.209.173-1.8.035-.173.1-.449.173-.726V21.12l1.244-4.077,1.728-4.077c.276-.1.311-.553.484-.864a.649.649,0,0,0,.276-.38c.069-.173.035-.38.1-.587,0,.035,0,.035.035.035.035.035.035.035.1.035.173,0,.069.069.173.069s.173-.173.276-.173c.173,0,.035.1.173.1.1,0,.035-.035.207-.035.449,0,.587.484.587.656a8.829,8.829,0,0,1-.76,2.522c-.035.1.035.1.035.207-.345,1-.76,1.969-1.14,2.9-.1.173-.069.553-.138.76l-.726,1.969-.069.553c-.173.484-.484,1.106-.656,1.658-.1.726-.207,2.142-.207,2.246,0,.242-.035.518.311.518a2.635,2.635,0,0,0,1.348-.795c.035-.035.069-.035.138-.035a25.2,25.2,0,0,0,2.66-3.248,15.1,15.1,0,0,1,1.278-1.658c.034,0,0-.173.1-.242a11.767,11.767,0,0,0,1.036-1.52c.311-.518.864-1.762,1.209-1.935-.069-.346.484-.933.656-1.209.1-.311.518-1.209.76-1.866a6.171,6.171,0,0,1,.415-.829c.1.069.173-.069.311-.069.1,0-.035.1.1.1.173,0,.1-.069.1-.1.173.069.38-.035.553-.035.1,0,.656.691.933.933a1.423,1.423,0,0,1,.035.415C321.193,13.864,320.5,15.8,320.4,16.732Z" transform="translate(-289.199 -7.23)"/>
        <path id="Path_1554" data-name="Path 1554" class="cls-2" d="M356.57,10.775c-.035.069-.1.242-.173.415a.3.3,0,0,1-.207-.1l-.173.207h.035c0-.035,0-.035.035-.069V11.19c0-.035,0-.035-.035-.035a1.083,1.083,0,0,0-.38.276.512.512,0,0,0-.035-.242,2.416,2.416,0,0,1-.587-.484l-.069-.173c.035-.1,0-.276.035-.38h-.035a.074.074,0,0,1-.069-.069,1.221,1.221,0,0,1,.035-.484c.035-.035.069.035.1-.035l.069-.1c-.035-.069.035.035.035-.1A3.366,3.366,0,0,0,354.5,7.7a2.312,2.312,0,0,0-.829-.415c-.173,0,.035.035-.138.069-.173,0-.138-.1-.242-.138-.035-.035-.1-.035-.242,0a4.017,4.017,0,0,0-1.278.9,4.049,4.049,0,0,0-.415,1.071.948.948,0,0,0-.069.449,4.281,4.281,0,0,0,.138,1.037c0,.1.207.276.242.484.1.346.069.864.346,1.209l.587,1.624c0,.069.1.173.173.276.415,1.037.622,1.762,1.244,3.11a10.276,10.276,0,0,1,.726,3.11,5.823,5.823,0,0,1-.138,1.106c-.035.1.069.207,0,.311a2.032,2.032,0,0,1-.691,1,3.124,3.124,0,0,1-.345.38.376.376,0,0,0-.173.035,2.679,2.679,0,0,1-1.209.346l-.518.035c-.173,0-1.036-.346-1.209-.346s.035.069-.1.069c-.1,0-.346-.242-.415-.346a8,8,0,0,1-1.175-.76,5.774,5.774,0,0,1-1.071-1.52c-.138-.173-.242-.484-.415-.726,0-.069.138-.138.069-.207-.035-.035-.069-.1-.138-.138a2.13,2.13,0,0,0-.069-.795c0-.1-.138-.138-.138-.276,0-.173.069-.138.069-.242.069,0,.035.1.173.138a2.368,2.368,0,0,1-.035-.726c.035,0,.069.069.138.173a1.2,1.2,0,0,0-.138-.76c.1,0-.035-.1.138-.1s.035.035.138.035c0-.173.069-.276.069-.449,0,.173-.069.311,0,.484.035.1.069.035.1.069.1.069,0,.449.242.484a1.362,1.362,0,0,0,.173.484l.1-.1A3.708,3.708,0,0,0,348.831,20c.173.138.38.656.518.656.1,0,.035-.035.035-.1a3.811,3.811,0,0,0,2.384.864.651.651,0,0,0,.276-.069l.1.1c.069-.069.345-.138.449-.242a1.368,1.368,0,0,0,.484-.656,1.635,1.635,0,0,0,.035-.587c0-.173-.035-.1-.035-.1a1.887,1.887,0,0,0-.035-.622,37.024,37.024,0,0,0-1.935-4.526,33.427,33.427,0,0,1-1.52-4.941V9.255a4.4,4.4,0,0,1,.069-.76,6.1,6.1,0,0,1,.622-1.624c0-.069-.069-.035-.069-.138.173-.069.345-.346.484-.346.173,0-.035.1.069.1.173,0,.587-.553.795-.553.484-.035,1.278-.138,1.451-.138.1,0,.864.276,1.175.346a3.745,3.745,0,0,0,.829.346c1.037.069,1.658,2.626,1.693,3.524C356.674,10.015,356.64,10.533,356.57,10.775Z" transform="translate(-315.248 -3.762)"/>
        <path id="Path_1555" data-name="Path 1555" class="cls-2" d="M380.667,18.293a4.01,4.01,0,0,1-.553.1,4.039,4.039,0,0,0-.207.691c-.1.173-.035.276.035.449-.069.1-.1.035-.138.1a22.312,22.312,0,0,1-.138,2.557c-.173.933.173,1.382-.311,2.349a1.565,1.565,0,0,0-.1.553c-.069,0-.069.069-.173.069a.354.354,0,0,0-.207.173,3.935,3.935,0,0,0-.656-.311c-.587-.829-.311-1.658-.311-2.557a3.621,3.621,0,0,1,.035-.864l.035-2.971h-.864a12.012,12.012,0,0,0-2.349.656c-.345.656-.587,1.417-1.071,2.211a1.219,1.219,0,0,0-.311.38,7.567,7.567,0,0,0-.415,1.14c-.1,0-.035-.1-.1-.173a.584.584,0,0,0-.1.346c-.069,0-.1.069-.173-.035l-.1.1c-.069-.1-.276-.138-.449-.242a.758.758,0,0,1-.242-.587,7.28,7.28,0,0,1,.518-1.624c.138-.38.311-.795.518-1.278-.346-.242-.829-.518-1.106-.726a5.565,5.565,0,0,1-.518-1c0-.138.242-.311.311-.38a.373.373,0,0,0,.242.1,4.17,4.17,0,0,0,1.036-.311,4.137,4.137,0,0,0,1.14-.173c1-2.073,1.9-4.457,2.9-6.357.207-.449.553-1.14,1.071-2.073.242-.38.726-.9,1.071-1.52a1.92,1.92,0,0,0,.138-.795l.035-.035a.5.5,0,0,1,.1-.069c.173,0,.242.069.38.069.1,0,.173.069.242,0,.035.069.035.173.207.173s-.035-.035.1-.035a1.113,1.113,0,0,1,.553.622,4.614,4.614,0,0,1,.173,1.693c0,.1-.069.518-.1.726a3.131,3.131,0,0,0,.035.795c-.173,1.278-.311,2.557-.38,3.87l-.38,2.626c.035.035.138.035.242.035a11.475,11.475,0,0,0,1.866.1c0,.069.035.173.1.173l-.1.138a.671.671,0,0,0,.311.38A5.625,5.625,0,0,1,380.667,18.293ZM378.456,11.9a50.908,50.908,0,0,0-2.419,5.01,6.255,6.255,0,0,0,2,.035Z" transform="translate(-331.087 -4.023)"/>
        <path id="Path_1556" data-name="Path 1556" class="cls-2" d="M416.14,6.929c-.069.276-.449.449-.38.691h.035c.035,0,.035-.035.069-.035-.034.069-.1.069-.173.035q-.155.311-.415.726V8.38c0,.035,0,.035.035.069.1-.1.242-.311.415-.38-.035.1-.311.449-.173.518a11.706,11.706,0,0,0-.795,1.175c-.276.864-.864,1.244-1.037,1.8-.035.1-.207.276-.242.38a1.627,1.627,0,0,1-.138.553c-.173.311-.311.518-.484.795-.173.207-.276.622-.449.9-.173.38-.553.726-.76,1.14a.344.344,0,0,0-.035.311,1.542,1.542,0,0,0-.276.587.5.5,0,0,0-.38.311.259.259,0,0,0,.173.035,1.685,1.685,0,0,1-.345.449c-.069.035.035.138,0,.173-.069.035-.1-.035-.1.035-.38.864-1,1.9-1.486,2.833a3.686,3.686,0,0,1-.311.656,1.213,1.213,0,0,0-.276.346c-.346.726-.587,1.589-.967,2.349a1.58,1.58,0,0,1-.691.311c-.1,0-.242-.173-.415-.242a.588.588,0,0,0-.242-.035c-.346-.276-.38-.622-.933-.829.1-.933-.173-2.557-.242-4.181a7.939,7.939,0,0,1-.069-1.313c0-1.071-.138-4.422-.138-4.526L404.6,8.657c0-.173.138-.276.173-.449a2.035,2.035,0,0,1,.726-.173,1.429,1.429,0,0,1,.829.587,6.366,6.366,0,0,1,.311.967,21.242,21.242,0,0,1,.207,3.006c.035.726.1,1.866.1,2.488a15.646,15.646,0,0,0,.1,3.766c.38-.276.518-.795.795-1.175.1-.173.311-.311.449-.553a3.763,3.763,0,0,1,.173-.484,2.761,2.761,0,0,0,.449-.553c.553-1,1.209-2.142,1.831-3.11.173-.346.656-.864.933-1.347.311-.449.691-1.037,1.037-1.52.035-.035.138-.035.173-.1.242-.484.726-1.14,1-1.589h.069a4.284,4.284,0,0,0,1.175-1.52c.1,0,.207-.069.276-.242.1,0,.207,0,.207.1,0,.035.035.1.035.138h.035c.1.173.069.173,0,.276v.035a.157.157,0,0,1,.173,0ZM413.376,9l-.1.173-.1-.035.138-.207Zm1.313-1.624-.138.138-.035-.035.1-.138Zm.38-.449-.138.138L414.862,7,415,6.86Zm0,1.624c.1,0,.138-.035.138-.138Zm.76-2.419-.449.449-.069-.035.484-.449Zm-.276,1.486-.069-.035-.069.138.069.035Zm.138-1.175-.138.1v-.1l.1-.069Z" transform="translate(-352.947 -3.958)"/>
        <g id="Group_363" data-name="Group 363" transform="translate(64.748)">
          <path id="Path_1557" data-name="Path 1557" class="cls-2" d="M445.091,1.731c-.276.207-.484.622-.795.864a1.955,1.955,0,0,1-.829.207c-.795,0-.967-.691-.967-1.175a.956.956,0,0,1,.1-.449c.207-.207.622-.795.795-.795s-.035.069.173.069c.138,0,.345-.415.622-.553-.069.276.38.553.622.484,0,.138-.035.207-.069.207.207.207.484.484.484.656A2.906,2.906,0,0,1,445.091,1.731Z" transform="translate(-442.5 0.1)"/>
        </g>
        <g id="Group_364" data-name="Group 364" transform="translate(28.47)">
          <path id="Path_1558" data-name="Path 1558" class="cls-2" d="M340.091,1.731c-.276.207-.484.622-.795.864a1.954,1.954,0,0,1-.829.207c-.795,0-.967-.691-.967-1.175a.957.957,0,0,1,.1-.449c.207-.207.622-.795.795-.795s-.035.069.173.069c.138,0,.346-.415.622-.553-.069.276.38.553.622.484,0,.138-.035.207-.069.207.207.207.484.484.484.656A2.9,2.9,0,0,1,340.091,1.731Z" transform="translate(-337.5 0.1)"/>
        </g>
        <g id="Group_365" data-name="Group 365" transform="translate(24.393)">
          <path id="Path_1559" data-name="Path 1559" class="cls-2" d="M328.291,1.731c-.276.207-.484.622-.795.864a1.955,1.955,0,0,1-.829.207c-.795,0-.967-.691-.967-1.175a.956.956,0,0,1,.1-.449c.207-.207.622-.795.795-.795s-.035.069.173.069c.138,0,.345-.415.622-.553-.069.276.38.553.622.484,0,.138-.035.207-.069.207.207.207.484.484.484.656C328.395,1.489,328.291,1.593,328.291,1.731Z" transform="translate(-325.7 0.1)"/>
        </g>
        <g id="Group_366" data-name="Group 366" transform="translate(33.963 19.934)">
          <path id="Path_1560" data-name="Path 1560" class="cls-2" d="M354.817,59.358c-.138,0-.311-.173-.518-.138-.069-.1-.242-.484-.622-.518.069-.035.1-.035.138-.1-.1-.1-.173-.138-.242-.1.069,0,.1,0,.069-.1a.354.354,0,0,0-.207-.173c.035-.069.1-.138.069-.242a.239.239,0,0,0-.1-.138l.276.035c.069-.069.069-.138-.035-.173.069,0,.035-.069.138-.1s.76.38,1,.415a5.594,5.594,0,0,0,1.658.207c.035,0,.069.069.207.1s.242-.035.38-.069a1.425,1.425,0,0,1,.242.38c-.035.069-.138.035-.242.069-.035.069-.069,0-.035.1.035.138.035,0,.069.1.035.069-.035.173-.138.242a1.846,1.846,0,0,1-.691.311A5.432,5.432,0,0,1,354.817,59.358Z" transform="translate(-353.4 -57.594)"/>
        </g>
      </g>
    </g>
  </g>
</svg>
