<svg xmlns="http://www.w3.org/2000/svg" xmlns:xlink="http://www.w3.org/1999/xlink" width="156" height="33" viewBox="0 0 156 33"><defs><path id="xmvoa" d="M729.1 398c-.2.1-.3.2-.3.3-.3 0-.7.1-1 .3-.2.1-.5.2-.7.3-.9.2-1.9.4-3 .6-.1 0-.3.3-.5.3-.5 0-.5.1-1.3.4-.4.1-1.1.2-1.3.2-.1 0-1 .1-1.1.4-.8 1.7-1 3.5-1.6 5.2l6.7-.7 2.6-.1h.2c.1.1.3.3.1.4 0 .1.2.2.3.2 0 .1.1.3.2.4-.1 0-.4.1-.5.1-.1 0-.1.1 0 .3-.1 0-.2 0-.3.1.1 0 .1.1.1.1-.2 0-.3.3-.7.3-1 .4-3.1.8-3.3.8-.2 0-.1-.1-.3-.1-.1 0-.8.4-1.5.5-.4.1-1 .1-1.5.2-.7.1-2.1.2-3.1.5-.1.8-.5 1.9-.7 2.7-.1.5-.1 1.1-.2 1.6 0 .1-.2.3-.2.5-.1.1-.1.7-.1 1l-.1.1c0 .6-.2 1.6-.4 2.3 0-.2 0-.3-.2-.4-.1.2-.1.4-.2.6-.1-.1-.1-.1-.1-.2-.1.1-.2 0-.3.1-.2-.2-.7-.6-.7-.8 0-.1.1-.2.1-.3 0-2.8.4-5.1.8-7.5-.9-.6-1.1-1.3-1.1-2.2.2-.1.6-.1 1-.2.2 0 .6-.1.8-.2.3-1.2.8-2.7 1.1-4 .2-.5.3-1.3.6-2 .1-.2.3-.5.3-.7 0-.2-.3-.8-.3-1v-.1c.1-.1.2-.1.3-.1.2 0 0 .1.2.1.1 0 .3-.2.6-.3.1 0 .1 0 .2.1.6 0 1.5-.1 2.3-.3.4-.1 1-.3 1.2-.3h.2c.1 0 2.3-.3 3.4-.5.2-.1.4-.1.6-.2.3-.1.8-.1 1-.1.5 0 1.3 0 1.7.4 0 .1 0 .3.1.4v.1c0 .1.1.1.1.2s-.2.1-.2.2z"/><path id="xmvob" d="M739 415.1c0 .1.1.2.1.2-.4.1-1.1.6-1.2.6-.2 0 0-.1-.2-.1-.1 0-1.2.3-1.6.4-2 .2-4 .9-5.7.9-.1 0-1.3-.1-1.9-.4-.3-.2-1-.9-1.3-1.3-.2-.4-.3-.9-.4-1.3-.1-.1-.1-.2-.1-.4 0-1.4 1.3-4.1 1.7-5.3.3-.8.5-1.9.9-2.8 0-.1.1-.3.2-.4.4-1.3 1.1-3.2 1.2-4.8.2-.3.3-.7.3-1.1.1-.5.3-1.1.3-1.6v-.7h.7c1.2.5 1.3 1.4 1.3 2.1 0 .1-.1.5-.1.7-.1.9-.1 1.4-.3 2-.7 2.6-1 4.4-1.9 6.9-.6 1.6-1.3 3.7-1.9 5.6v.2l5.9-.5h2.5c.1 0 1-.2 1.4-.2.1.1.3.4.5.5 0 .1 0 .3.1.5-.1 0-.3.1-.5.3z"/><path id="xmvoc" d="M752.2 405l-1.1 3.7c-.1.3-.1.9-.4 1.3 0 .7-.4 2.1-.8 3.1l-.4 1.5c-.3 1.3-.6 3-1 4.7 0 .2-.2.5-.3.8-.1.7-.3 1.5-.4 2.3.1-.1.2-.1.3-.3-.1.2-.1.3 0 .4l.1-.1c-.1.2 0 .4.1.5-.1.1-.1.1-.1.3 0 0 0 .1.1.1 0 0-.1.1-.1.3h.1c0 .2-.1.3-.2.5.1.1.1 0 .2 0-.1.5-.3 1-.5 1.5-.1.1 0 .2.1.3h-.3c-.2 0-.1.1-.3.1-.2 0-.4-.2-.6-.2-.1 0 0 .1-.1.1-.3 0-1-1.1-1-1.3-.1-.4-.3-.9-.3-1.3l1.2-6.3c.4-1.8.9-3.7 1.3-5.5.2-.9.7-2.1.9-3.2 0-.2 0-.7.1-1.2.1-.2.2-.7.3-1.1v-.3c-.5.7-1.3 1.8-2.4 2.5-.3.2-.5.6-.8.9-.1.1-.4.3-.5.4-.5.5-3 4.1-4.5 4.1-.1 0-.9-.1-1.1-.4-.4-.3-.9-1.2-1.1-1.8-.1-.4-.1-1.1-.1-1.3 0-.1.1-.6.1-.8 0-1.2.4-2.5.7-3.7.2-.7.6-1.7.9-2.5v-.1-.1c.8-1.5 2.6-6.3 3.2-6.3.1 0 .6.1.9.2.1.3.5.7.5.9 0 .5-.2.7-.3.9 0 0 0 .1.1.2-.4.9-1 2.2-1.1 2.8-.1.3-.2.6-.3.8-.5.9-.9 2.1-1.1 3.1-.3 1.1-.7 2-.8 2.8 0 .1-.2.4-.3.6-.2.7-.2 1.3-.3 2.1.5-.3 1-1 1.4-1.4.1 0 .3-.1.4-.2 1-1.2 2-2.1 2.9-3 2.4-2.4 4-4.8 5.4-7.5.1-.2.1-.6-.1-.7.1-.1.1-.2.3-.2.1 0 .4.2.5.2.2 0 .5 0 .8.1.1.1.2.3.4.4.1.1.4.1.5.4.1.1.2.4.2.6-.3.3-.9 3.6-1.3 5.3z"/><path id="xmvod" d="M623.5 417.9v-18.2H616v18.2h-5.2v-18.2h-7.6v18.2H598v-17.4c0-.8.1-1.5.2-2s.4-1 .7-1.3c.3-.4.8-.6 1.4-.8.6-.2 1.3-.3 2.2-.3h21.8c1.7 0 2.9.3 3.5 1 .6.7.9 1.8.9 3.3v17.4h-5.2z"/><path id="xmvoe" d="M655.1 406.7l8.2 11.2h-6.1l-7.6-10.9 8.9-10.9h5.7zm-11.3 11.2v-21.8h5.2v21.8z"/><path id="xmvof" d="M670.6 399.7v18.2h-5.2v-17.4c0-1.5.3-2.6 1-3.3.7-.7 1.8-1.1 3.4-1.1h9.3v3.6z"/><path id="xmvog" d="M694.9 399.7h-8.7v14.6h8.7zm5.2 13.8c0 .7-.1 1.3-.2 1.8s-.4 1-.7 1.4c-.3.4-.8.7-1.4.9-.6.2-1.3.3-2.2.4-.9 0-1.8.1-2.5.1h-5.6c-.7 0-1.5-.1-2.3-.1-1.4 0-2.5-.3-3.2-.9-.7-.6-1.1-1.7-1.1-3.2v-13.3c0-1.4.3-2.5.9-3.3.6-.8 1.8-1.2 3.5-1.2h2.4c.6 0 1.2 0 1.8-.1h1.9c.5 0 1.1 0 1.7.1h2.4c.7 0 1.3.1 1.8.2s1 .3 1.4.7c.4.3.7.7.9 1.3.2.6.3 1.3.3 2.2v13z"/><path id="xmvoh" d="M633.6 417.9v-16.4h5.2v16.4z"/><path id="xmvoi" d="M633.5 397.3a2.7 2.7 0 1 1 5.4 0 2.7 2.7 0 0 1-5.4 0z"/><path id="xmvoj" d="M687.9 407a2.7 2.7 0 1 1 5.4 0 2.7 2.7 0 0 1-5.4 0z"/><path id="xmvok" d="M707.7 419.7V393h1v26.7z"/></defs><g><g transform="translate(-598 -393)"><g><g><g><use fill="#53a6dc" xlink:href="#xmvoa"/></g><g><use fill="#53a6dc" xlink:href="#xmvob"/></g><g><use fill="#53a6dc" xlink:href="#xmvoc"/></g></g></g><g><g><g><use fill="#53a6dc" xlink:href="#xmvod"/></g><g><use fill="#53a6dc" xlink:href="#xmvoe"/></g><g><use fill="#53a6dc" xlink:href="#xmvof"/></g><g><use fill="#53a6dc" xlink:href="#xmvog"/></g><g><use fill="#53a6dc" xlink:href="#xmvoh"/></g></g><g><use fill="#53a6dc" xlink:href="#xmvoi"/></g><g><use fill="#53a6dc" xlink:href="#xmvoj"/></g></g><g><use fill="#53a6dc" xlink:href="#xmvok"/></g></g></g></svg>