<svg xmlns="http://www.w3.org/2000/svg" xmlns:xlink="http://www.w3.org/1999/xlink" width="175" height="27" viewBox="0 0 175 27"><defs><path id="7kfoa" d="M725.2 400.26c0 .1 0 .2-.1.3l.1.19c-.1.29-.1.58-.2.88 0 .1.2.29 0 .48 0 .4-.1.98-.1 1.85 0 .88-.1 1.47-.19 1.95-.1.1-.1.59-.1.78 0 .3-.1 1.08-.2 2.25-.09 1.17-.19 2.04-.29 2.43-.1.88-.29 1.46-.58 2.34-.39 1.07-.68 2.15-1.46 3.41 0 .1 0 .2-.1.2-.2.49-.58 1.17-1.17 1.56-.2.1-.58.29-.68.29-.2 0-.1-.1-.2-.1s-.2.1-.39.1c-.2 0-.29-.1-.39-.1-2.63-.29-5.45-2.73-6.43-5.26-.1-.4-.39-.78-.39-.98v-1.46c0-.1.39-.48.49-.68.1-.3.29-.68.68-.88-.2.1-.2.4-.3.49v.1c.2-.2.5-.59.79-.88.2-.2.39-.2.58-.3 0 .2-.1.6.2.69-.2.1-.1.39-.2.49 0 .1-.29.2-.29.39.1.1.3 0 .49-.1a3 3 0 0 0-.78 1.46c0 .2.1.1.2.2-.1.2-.2.48 0 .48.09 0 .09-.1.09-.1-.2.88.1 1.86 1.07 2.74.49.97 1.85 1.07 2.63 1.07 1.95 0 2.54-2.63 3.12-3.8.1-.3.4-1.56.5-2.15 0-.1.09-.2.19-.29.1-.3.19-.97.19-1.95l.2-2.05c.1-.1-.1-.2.1-1.17v-.58c.09-.1.09-.3.09-.4.1-3.4.49-5.55.68-7.4.1 0 .2-.1.4-.1.09 0 .28.3.48.4l.78.77c.1.5.39 1.27.39 1.47.2.1.1.58.1.97z"/><path id="7kfob" d="M740.89 404.45c-.1.4-.39.98-.3 1.27-.19.97-.38 1.56-.48 2.44-.1.97-.49 2.73-.49 2.82v1.56c0 .2-.1 0-.1.2 0 .58.2 1.17.5 1.46.19.3.58.39.87.58 0 .1.2.3.39.59-.1.1-.1.49-.2.49h-.29s0 .1.1.2c-.1 0-.2.19-.39.19-.2 0-.1-.1-.3-.1-.09 0-.19-.1-.58-.3a9 9 0 0 0-.78-.48c-.2-.1-.48-.49-.58-.59-.1 0-.2-.2-.2-.1v-.1s0-.09.1-.09a4.17 4.17 0 0 1-.58-1.66v-.19c0-.2-.2-.39-.2-.59v-4.09c0-.1 0-.1-.1-.2-2.04 2.64-4.09 6.54-6.92 7.9h-.2c-.28.2-1.36.2-1.75.2-.39 0-.87-.78-1.17-.78-.1 0 0 .1-.1.1s-.19-.1-.48-.4c-.2-.29-.4-.48-.4-.68-.09-.1-.19-.3-.19-.39 0-.1 0-.3-.1-.49-.1-.1-.1-.19-.1-.39v-.48c0-.1.1-1.37.2-2.05 0-.2.1-.49.2-.88v-.2l1.46-4.67 1.95-4.68c.3-.1.4-.58.59-.97.1-.1.29-.2.29-.5.1-.19 0-.48.1-.67h.1c.19 0 .1.1.19.1.1 0 .2-.2.29-.2.2 0 0 .1.2.1.1 0 .1-.1.19-.1.49 0 .68.58.68.78 0 .58-.78 3.12-.87 2.92 0 .1.1.1 0 .2-.4 1.17-.88 2.24-1.27 3.31-.1.2-.1.59-.2.88l-.87 2.24-.1.59c-.2.58-.59 1.26-.78 1.85-.1.87-.2 2.43-.2 2.53 0 .3-.1.59.4.59.38 0 1.16-.49 1.55-.88h.2c.97-1.17 2.24-2.24 3.02-3.7.39-.69.97-1.27 1.46-1.95 0 0 0-.2.1-.3.39-.48.88-1.17 1.17-1.75.39-.59.97-2.05 1.36-2.24-.1-.4.59-1.07.78-1.37.1-.39.59-1.36.88-2.14.1-.3.3-.59.49-.98.1.1.2-.1.39-.1.1 0 0 .1.1.1.2 0 .1-.1.1-.1.19.1.48 0 .58 0 .1 0 .78.79 1.07 1.08v.49c.1 1.56-.68 3.7-.78 4.77z"/><path id="7kfoc" d="M759.5 397.63c.1.2 0 .3-.09.49 0-.1 0-.3.1-.5 0 0 .1.1 0 0zm-.67 7.5h-.1l.1-.2zm.1-2.04c-.1.1-.2.29-.4.48.1-.19.2-.39.4-.48zm-.2-4.39c-.1.2-.1.3-.1.49-.1-.1-.1 0-.2 0zm-.2 4.87c0 .1-.1.2-.2.2zm-.48-3.7c-.1 0-.1-.1-.2-.1.2-.1.4-.39.49-.48 0 .2-.2.29-.3.58zm-.2.3l-.1.19h-.1zm-.3 13.93h-.05l.06.3c.1.48.39 1.07.78 1.36v.2c.2.19.49.38.58.38.2 0 .3.1.4.1.19 0 .48-.2.48-.39v-.39c0-.2-.1-.39-.2-.58-.1-.4-.19-.78-.19-1.27.1-1.27 0-1.37 0-1.46.1-.59.1-1.08.2-1.46a.1.1 0 0 1 .06.02c-.03-.1 0-.18.02-.25-.07-.18.11-.37.11-.55.1 0 .1.1.1.1 0-.2-.1-.4 0-.6.1 0 .1.1.1.2.39-2.14.97-4.38 1.46-6.53.1-.2.1-.29.2-.39-.1 0-.1-.1-.1-.1.1-.19.19-.29.19-.39.1-.1.1-.38.1-.58 0-.1.29-1.17 0-1.46 0-.2 0-.88-.1-1.37-.1-.29-.3-.58-.39-.78-.1-.1-.1-.29-.2-.39-.1-.1-.29-.2-.38-.2 0-.09-.1-.09-.2-.19s-.3-.2-.49-.29v.49c-.2-.1-.39 0-.48-.1.1 0 .1-.1.1-.1h-.2a3 3 0 0 0-.78 1.27c.1-.2.2-.39.39-.39.1 0 .2.1.2.1 0 .1-.1.19-.19.28.01.33-.4.5-.5.6.1 0 .1-.1.2-.1-.1.49-.5.68-.59.78-.2.29-.3.68-.49 1.07l-.87 1.27c0 .1-.2.1-.2.2-.39.67-.68 1.36-1.07 1.94-.49.68-.88 1.37-1.37 1.95-.1.2-.29.49-.48.59.29.1 0 .39-.1.58a9 9 0 0 1-.49.78l.1-.1c0 .2-.1.4-.2.5-.1 0-.1-.1-.1-.2-.09.39-.38.68-.58.97v-.1c.1-.29.3-.68.4-.87a7.4 7.4 0 0 1-.71 1.06c.07-.04.21-.05.21 0v.3c-.1.1-.19.2-.19.3-.06-.12-.08-.17-.07-.2-.04.05-.06.1-.13.1-.1 0-.1-.1-.1-.1 0 .1 0 .2-.19.29l-.1-.1c.1-1.26.2-3.4.2-3.5v-2.15c0-.1-.1-1.95-.2-2.83-.1-.48-.29-1.26-.38-1.75-.2-.49-.2-1.17-.78-1.56 0 .1.1.1 0 .2h-.1c-.2-.4-.4-.3-.78-.6 0 0 .1.1 0 .2-.2 0-.3-.1-.4-.1l-.09.1c-.1-.1-.1-.29-.2-.29l-.19.2c-.19.47-.45.97-.72 1.46h-.06s-.1.2-.2.3l.2-.2-.78 1.36c-.3.68-.58 1.56-.88 2.14l.05-.04-.03.06.08.08-.09.18v-.18l-.06.06-.03.05.08.09.01-.02c.01.08.04.16.1.21.06 0 .18-.1.28-.22l-.55.85c.04-.1-.02-.25.07-.34-.1-.1-.2 0-.3.1a.4.4 0 0 1 .04-.14l-.91 1.8c0-.1-.1-.1-.1-.1l-.1.1c0-.1-.1-.1-.1-.2s.1-.39.2-.48c-.1 0-.2.2-.2.2-.1.19-.2.67-.29.87-.3.3-.58 1.27-.78 1.75h.2c.1-.2.1-.29.1-.39l.19-.2c0 .1.1.1.1.1 0-.48.1-.77.1-1.07 0 0 .1 0 .19.1v-.2c.1-.1.2-.29.3-.48v.1c0-.1.09-.1.19 0-.1.1-.1.29-.2.39l-.07-.08c-.17.5-.34.9-.51 1.25.2-.4.39-.88.58-1.08v.2l-.39.92v.15h-.06l-.62 1.46c0 .1 0 .2-.1.2.2-.4.3-.88.4-1.27-.1.1-.1.3-.2.4-.1-.1-.1-.2-.1-.2 0-.1-.1-.1-.2-.1.1.39-.39.97-.48 1.36v.3c-.2.19-.4.48-.4.58-.48 1.27-1.06 2.53-1.36 3.8-.1.3.1.59 0 .78l-.1.1c.3 0 .1.2.2.3l-.2.19c0 .1-.1.29-.19.39.3.2 0 .2.1.39l.2.2c-.1.28-.1.58 0 .77.19.4.58.68.68.98.19-.1.38 0 .58 0 .2 0 .3-.2.39-.2.3-.2.2-.68.3-.78.19-1.07.48-2.14.77-3.22.2-.48.49-1.07.68-1.65 1.08-3.02 2.44-6.24 3.61-8.97.1-.3.3-.59.49-.68.2.58.2 1.26.2 1.85v.58c.1.3.19.59.19.78 0 .1-.2.4-.1.5 0 .09.1 0 .1.09l-.1 4.19c.1.58-.1 1.27.2 1.75l-.1.1v.59c-.1.1-.2.1-.2.2 0 .19.1.58.2.87.1.39 0 .78.1 1.17l.2.2c0 .48.48.87 1.06 1.16.1.1.2.3.3.3.29 0 .77-.1.87-.2.59-.97.78-2.34 1.37-3.41.48-.78.78-1.76 1.26-2.63l.3-.3c.58-1.07 1.26-2.24 1.75-3.3.1-.2 0-.4.1-.6.2-.19.39-.58.39-.77.1-.1.3-.3.39-.5.1-.28.2-.67.58-.87 0 .1-.1.1-.1.2.2-.2.3-.5.3-.59-.1 0-.1 0-.1-.1l.2-.19.1.1c0-.1.29-.2.38-.3.1.1 0 0 0 .2s-.2 1.07-.2 1.56h.1c0 .1-.1.3-.1.3 0 .19-.09.48-.09.58 0 .1.1.1 0 .2-.1-.1-.1-.2-.1-.2v.39c-.2.39-.29.87-.29 1.07 0-.1.1-.2.2-.2 0 .3 0 .59-.1.78-.1.4-.4 1.08-.4 1.17 0 .1.2 0 .1.59h-.19v.29c0 .1-.2 1.56-.2 1.66 0 .14.06 1 .17 1.75h.03zm-.09 0l-.1-.39h.07l.07.4zm-.2-13.06v-.1c0-.1 0-.2.1-.2 0 .1 0 .2-.1.3zm-.77 1.07c0 .2-.1.3-.1.4 0-.2 0-.3.1-.4zm-.4.78c-.1-.1-.1-.2-.1-.2h.1s.09 0 .1.08c-.05.04-.1.06-.1.12zm.1-.12a.52.52 0 0 0 .1-.07l-.1.1v-.03zm-.39 1l-.1.2h-.1zm-.2-.2l.1-.29h.1zm-.28.59c-.1 0-.1-.1-.1-.1l.2-.16a.48.48 0 0 0-.1.26zm.1-.26c.06-.1.14-.18.19-.23 0 .06-.1.15-.2.23zm-.69 1.04l-.1-.1.3-.1zm0 .1l-.1.2-.1-.1.1-.2zm-.97 1.75c0-.3.39-.97.58-1.17-.1.3-.3.88-.58 1.17zm-.1.2h-.04l.04-.1zm-.3.58h-.1l.2-.58h.16zm-.29.59v-.2h.1zm-1.17 2.24l-.1.2-.09-.1.1-.2zm-.19.49h-.1v-.2h.1zm-2.24 4.58l-.2-.2h.1zm-3.41-12.09l.1-.2v.02l-.06.14zm-.1.3l.1-.1c0-.05-.02-.07-.04-.09l-.16.31a.7.7 0 0 1 .1-.13zm0-.2l.1-.1v.01l-.04.1-.06-.01zm.03.82c0 .02-.02.04-.03.05zm.55-.85l.1-.17-.1.17zm-.78.85c0 .09-.03.19-.1.25 0-.12.05-.2.1-.25zm0-.14l.1.1a.16.16 0 0 0-.1.04v-.14zm-1.56 3.41v-.2h.1v.05l-.06.15zm-.1.98h-.09l.1-.2h.1zm-.29.68l-.1-.1.1-.2.1.1zm-.1.97h-.09l.1-.48h.1zm-2.04 4.97l-.1.1-.2-.1.1-.1zm18.03-4.48v-.1.1zm0 .3s0-.05-.03-.08l.03.07zm-18.61 3.99c-.05 0-.05-.03-.05-.03s0 .03-.05.13l.1-.1zm3.02-7.6zm.56-1.4a17.79 17.79 0 0 1 0 0zm-.08.13l.03.02.05-.15c-.03.04-.08.06-.08.13zm.1-.3zm2.93-5.94zm.8-.56c.05.05-.02-.01-.02.07a.1.1 0 0 1 .02-.07zm-1.16 2.12c.06.02.06.1.06.1a.32.32 0 0 1-.06-.1zm4.84 8.48c-.04.04-.06.06-.07.1a.5.5 0 0 1 .07-.1zm-.05-.25l-.05.06h.1c-.04-.02-.05-.04-.05-.06zm7.07-11.06v.1l.01-.01-.01-.09zm-7.04 11.01c-.02.02-.03.03-.03.05 0-.02.02-.03.03-.05zm-6.28-5.69a.91.91 0 0 1 .06-.12z"/><path id="7kfod" d="M768.09 399.68c-.1 0 0-.1 0 0-.2-.1-.4 0-.5 0v.29c0 .2.2.88.2 1.17-.1.87-.29 1.75-.39 2.43-.29 1.27-.68 2.73-.87 3.61-.1.59-.5 1.56-.5 2.15.2 0 .7-.1.89-.2-.2-.39.29-.39.48-.58v.1c-.1.1 0 .1.1.1.1-.1.59-.5.68-.6h-.2c-.09-.1 0-.1 0-.1 1.86-.87 3.71-3.7 3.71-5.55 0-.87-2.53-2.82-3.6-2.82zm5.36 5.65v.2a8.82 8.82 0 0 1-2.25 3.7 19.8 19.8 0 0 1-4.09 2.73c-.2.1-.49-.1-.68-.1-.2 0-.59.2-.78.2-.2 0-.3-.1-.3-.1v-.1c-.19.1-.29.3-.29.49-.2.39-.2 1.17-.48 1.75-.1.4-.4.98-.5 1.37-.09.58 0 1.07-.48 1.95l-.2.29c-.1 0-.1.1-.29.1-.1 0-.2-.2-.39-.2s-.19.1-.29.1c-.1-.1 0-.4-.2-.4h-.19c0-.09.1 0 .1-.19 0-.2-.3-.39-.49-.78.1-.1 0-.2 0-.39 0-.48.59-1.26.68-1.75.4-1.56.88-3.22 1.27-4.78.68-2.73 1.37-5.65 2.15-8.38.1-.39.1-.88.2-1.46-.89-.4-1.18-1.46-1.08-2.15.1-.1.3-.2.39-.2.2-.09.58-.09.97-.09h.69c.2 0 0 .1.1.1.38 0 1.07.39 1.55.58.1.1.4.1.49.2 2.63 1.66 4.68 3.8 4.68 6.04l-.3 1.27z"/><path id="7kfoe" d="M624.21 417.8v-17.83h-7.4v17.84h-5.17v-17.84h-7.31v17.84h-5.07v-17.16c0-.78.1-1.46.2-1.95s.39-.97.68-1.36c.3-.4.78-.59 1.36-.78a6.7 6.7 0 0 1 2.15-.3h21.34c1.66 0 2.83.3 3.42.98.58.68.87 1.75.87 3.31v17.06h-5.07z"/><path id="7kfof" d="M655.3 406.8l8 11h-5.94l-7.41-10.72 8.77-10.62h5.56zm-11.1 11v-21.44h5.07v21.35h-5.07z"/><path id="7kfog" d="M670.51 399.97v17.84h-5.16v-17.16c0-1.46.3-2.53.97-3.22.69-.68 1.76-1.07 3.41-1.07h9.17v3.51h-8.39z"/><path id="7kfoh" d="M694.3 399.97h-8.48v14.33h8.48zm5.16 13.45c0 .68-.1 1.27-.2 1.75-.09.59-.38.98-.67 1.37-.3.39-.78.68-1.37.88-.58.2-1.27.29-2.14.39-.88 0-1.76.1-2.44.1h-5.46c-.68 0-1.46-.1-2.24-.1-1.36 0-2.44-.3-3.12-.88-.68-.59-1.07-1.66-1.07-3.22v-12.86c0-1.37.3-2.44.88-3.22.58-.78 1.75-1.17 3.4-1.17h2.44c.59 0 1.17 0 1.76-.1h1.85c.59 0 1.07 0 1.76.1h2.34c.68 0 1.26.1 1.75.2.58.1.97.29 1.36.68.4.29.69.68.88 1.26.2.59.3 1.27.3 2.15v12.67z"/><path id="7kfoi" d="M634.16 417.8v-16.08h5.16v16.09z"/><path id="7kfoj" d="M634.16 397.53a2.63 2.63 0 1 1 5.26 0 2.63 2.63 0 0 1-5.26 0z"/><path id="7kfok" d="M687.47 407.08a2.63 2.63 0 1 1 5.27 0 2.63 2.63 0 0 1-5.27 0z"/><path id="7kfol" d="M706.87 419.56v-26.22h.98v26.22z"/></defs><g><g transform="translate(-599 -393)"><g><g><g><use fill="#85297d" xlink:href="#7kfoa"/></g><g><use fill="#85297d" xlink:href="#7kfob"/></g><g><use fill="#85297d" xlink:href="#7kfoc"/></g><g><use fill="#85297d" xlink:href="#7kfod"/></g></g></g><g><g><use fill="#85297d" xlink:href="#7kfoe"/></g><g><use fill="#85297d" xlink:href="#7kfof"/></g><g><use fill="#85297d" xlink:href="#7kfog"/></g><g><use fill="#85297d" xlink:href="#7kfoh"/></g><g><use fill="#85297d" xlink:href="#7kfoi"/></g></g><g><use fill="#85297d" xlink:href="#7kfoj"/></g><g><use fill="#85297d" xlink:href="#7kfok"/></g><g><use fill="#85297d" xlink:href="#7kfol"/></g></g></g></svg>