<svg xmlns="http://www.w3.org/2000/svg" xmlns:xlink="http://www.w3.org/1999/xlink" width="171" height="27" viewBox="0 0 171 27"><defs><path id="z5r7a" d="M723.8 397.7c-.2 0-.3.1-.4.1.2.4.3.9.3 1.1 0 .2 0 1-.1 1.5-.2 1-.7 2.2-1 2.9l-.8 2.3c.1-.1.2-.1.3 0 0-.2.2-.3.4-.4 1.3-.9 2.5-1.4 3.8-2.7v-.4c.9-.9 1.8-1.9 2-2.7-.9-.9-3-1.7-4.5-1.7zm9.8 20.3s-.2.2-.4.2h-.6c-.2 0-.9-.2-1.4-.3-.2 0-.5 0-.6-.1-2.3-1-4.9-2.9-7.2-5.3-.6-.7-1.9-1.6-2.9-2.4-.1 0-.1.1-.2.2-.2 1.2-.5 2.3-.6 3.5-.1.2-.1.4-.2.6v.7c0 .4-.2.8-.3 1.1-.1.6.2 1.3 0 1.9-.2.2-.4.2-.6.2-.1 0-.3-.1-.5-.3-.1-.1-.5-.2-.6-.5-.2-.5-.4-1.3-.4-1.5 0-3.2 1.4-9 1.9-11.4.2-.8 1.2-3.4 1.8-5.1-.4-.1-.8-.1-1.2-.4-.3-.2-.2-.7-.6-.8 0 0 0-.1-.1-.1 0-.1.1-.2.1-.3.1-.2.1-.4.1-.6.3-.2.5-.5.8-.8.2-.2.6-.3.8-.3.1 0 .1-.2.3-.2.7-.1 2.1-.3 2.3-.3 1.5 0 5.1 1.4 5.9 2.3 0 .1.1.2.1.3.7.6 1 1.2 1.2 1.9 0 .1.2.4.2.6 0 .2-.1.5-.2.7-.1.4-.3 1-.6 1.4l-.7.7-.2.4-.8.8c-.6.5-1.5 1.3-2.2 1.8-.6.4-1.3.9-2 1.3-.3.2-.9.3-1.3.6-.1.1-.2.2-.4.3 2.1 2 4.9 5.3 7.8 6.5 1.1.5 2.7 1.2 3.6 1.8.1.1.2.5.2.7-.1.1-.3.1-.3.2z"/><path id="z5r7b" d="M748.6 404.7c-.1.5-.5 1.1-.4 1.5-.3 1.1-.4 1.9-.6 2.8-.2 1.1-.6 3.2-.6 3.3v1.9c0 .2-.2 0-.2.2 0 .6.3 1.3.5 1.7.3.3.7.5 1.1.7 0 .2.2.4.4.6-.1.2-.1.6-.3.6h-.3s0 .1.1.2c-.1 0-.2.2-.4.2s-.1-.1-.3-.1c-.1 0-.3-.1-.6-.3-.4-.2-.7-.4-.9-.6l-.7-.7c-.1 0-.2-.2-.3-.1v-.1s0-.1.1-.1c-.4-.4-.5-1.2-.7-2v-.2c0-.2-.2-.5-.2-.7v-4.8c0-.1 0-.1-.1-.2-2.3 3.1-4.8 7.7-8.1 9.3h-.2c-.4.3-1.6.2-2 .2-.5 0-1-.9-1.3-.9-.2 0 0 .1-.1.1s-.3-.2-.5-.4c-.2-.3-.4-.6-.5-.8-.1-.2-.2-.3-.2-.5 0-.1 0-.4-.1-.6-.1-.1-.1-.3-.2-.4v-.5c0-.1.1-1.6.2-2.4 0-.2.2-.6.2-1v-.2l1.7-5.5 2.3-5.5c.4-.2.4-.7.6-1.1.1-.1.3-.3.4-.5.1-.2 0-.5.1-.8h.2c.2 0 .1.1.2.1.2 0 .2-.2.4-.2s0 .1.2.1.1-.1.3-.1c.6 0 .8.6.8.9 0 .6-.9 3.6-1 3.4 0 .1.1.2 0 .3-.5 1.3-1 2.7-1.5 3.9-.1.2-.1.7-.2 1l-1 2.7-.1.7c-.2.6-.6 1.5-.9 2.2-.2 1-.3 2.9-.3 3 0 .3-.1.7.4.7s1.4-.6 1.8-1.1h.2c1.1-1.3 2.6-2.7 3.6-4.4.5-.8 1.1-1.5 1.7-2.3 0 0 0-.2.1-.3.5-.6 1-1.3 1.4-2 .4-.7 1.1-2.4 1.6-2.6-.1-.5.6-1.2.9-1.6.2-.4.7-1.6 1-2.5.2-.3.3-.7.6-1.1.1.1.2-.1.4-.1s0 .2.1.2c.2 0 .1-.1.1-.1.2.1.5 0 .7 0 .2 0 .9.9 1.2 1.3v.6c.3 1.2-.6 3.8-.8 5z"/><path id="z5r7c" d="M765.1 396.1l-.2.2h.1l.1-.2zm-.3.6l-.1.4h.1l.1-.4zM751.4 408zm0 0c0 .1.1 0 .1.2s-.2.6-.3.9c.1-.4.2-.7.2-1.1zm-.3 1.3c-.1.3-.2.8-.3 1.2.1-.4.1-.9.3-1.2zm-1 3.6h-.1l.2-.3zm-.4 1c0-.1.1-.4.2-.6v.5zm0 .5l-.1-.1.2-.1zm17.6-15.7c.4-.9 1.3-2.5 1.3-2.5 0-.4-.5-.3-.5-.9-.2 0-.3-.1-.4-.2 0-.2 0-.3-.1-.5 0 .1-.1.2-.2.2-.2-.4-.4-.2-.6-.3l-.1.03.1.07c0 .1 0 .1-.1.2-.4-.1-.7 0-1.1-.1.1.1.2.2.2.4 0 .1 0 .2-.1.3-.1 0-.1-.1-.1-.2-.1.1-.2.2-.2.3 0-.1.1-.2.2-.1-.3.7-.6 1.4-.8 2.1-.4.3-.5 1.4-.8 1.9.1.5-.3.6-.5 1.3l-1.7 7.2c-.3.8-.5 1.8-.7 2.8-.1-.4 0-.8.1-1.1-.2.3-.1.7-.4.9-.1-.2-.3-.3-.3-.4-.5-1.8-1.1-4.1-1.6-5.8-.3-1.3-.8-2.7-1.2-4-.1-.1-.1-.4-.1-.5-.1-.5-.5-.9-.4-1.3.1-.5.2-.9.2-1.4v-.6c-.1-.2-.4-.6-.6-.7-.3-.1-.5-.1-.7-.1-.2-.1-.3-.2-.5-.2s-.3.1-.5.3l-.3-.1c-.3.3-.7.5-1 1.3v.6c.1.2 0 .4 0 .6l-.9 3.1c-.4 1.7-.9 3.4-1.3 5v.5c-.7 2.1-1.3 4.3-1.9 6.4-.1.5-.1 1-.2 1.4-.1.3-.3.9-.3 1.1 0 .1.2.7.2.9 0 0 0 .1-.1.2.3.5.6 1 .8 1.4.2-.1.1-.1.2-.1.2 0 .3.2.5.2s.4-.1.6-.1c.2 0 .2-.1.3-.3 0 .1.1.1.2 0-.3-.1-.2-.8-.2-1-.1-.8.4-1.8.7-3.1 0-.1.1-.2.2-.3 0-.5.1-.7.2-1.1.1-.1.2-.1.2-.2.3-.8.5-1.7.8-2.5.1-.1.3-.3.3-.4.5-1.6 1-3.6 1.4-5.3h.1c.1 0 .2.1.2.2.4 1.4.8 2.8 1.2 4.1.2.9.7 2 1 2.9-.1.1-.1.2 0 .3 0 0 .1.1.1.2v.2c.1.4.3 1.2.5 1.4l-.1.1c.3.8.7 2.1.9 2.7.1.3.4.7.6.9.4.4.9.9 1.4 1.2.2.1.4.2.5.2h.8c.2 0 .5-.2.7-.4.1-2 .3-3.3.5-5-.1-.1-.1-.2-.1-.2.1-.4.2-.7.2-1.1h-.1c.1-.1.1 0 .2-.1.2-.8.4-1.8.5-2.5-.1-.1-.1-.2-.1-.2.1-.5.3-1.1.3-1.3 0-.3.2-1.1.4-1.5 0-.6.1-1.2.3-1.7.1-.2.2-.3.2-.4 0-.8.6-2.1.8-2.8.1-.2.1-.5.2-.7.1-.6.4-1.3.6-1.8zm-.8-4.1l.2-.07c-.07-.02-.13 0-.2.07z"/><path id="z5r7d" d="M623.7 418.2v-18.4h-7.6v18.4h-5.3v-18.4h-7.6v18.4H598v-17.6c0-.8.1-1.5.2-2s.4-1 .7-1.4c.3-.4.8-.6 1.4-.8.6-.2 1.3-.3 2.2-.3h22c1.7 0 2.9.3 3.5 1 .7.8 1 1.9 1 3.5v17.6z"/><path id="z5r7e" d="M655.7 406.8l8.2 11.4h-6.2l-7.7-11.1 9-11h5.7zm-11.4 11.4v-22h5.2v22z"/><path id="z5r7f" d="M671.4 399.8v18.4h-5.3v-17.6c0-1.5.3-2.6 1-3.4.7-.7 1.8-1.1 3.5-1.1h9.4v3.7z"/><path id="z5r7g" d="M695.9 399.8h-8.8v14.7h8.8zm5.2 13.9c0 .7-.1 1.3-.2 1.8s-.4 1-.7 1.4c-.3.4-.8.7-1.4.9-.6.2-1.3.3-2.2.4-.9 0-1.8.1-2.6.1h-5.6c-.7 0-1.5-.1-2.3-.1-1.4 0-2.5-.3-3.2-.9-.7-.6-1.1-1.7-1.1-3.3v-13.3c0-1.4.3-2.6.9-3.3.6-.8 1.8-1.2 3.5-1.2h2.5c.7 0 1.2 0 1.8-.1h1.9c.6 0 1.1 0 1.8.1h2.4c.7 0 1.3.1 1.8.2.6.1 1 .3 1.4.7.4.3.7.8.9 1.3.2.6.3 1.3.3 2.2v13.1z"/><path id="z5r7h" d="M634 418.2v-16.6h5.3v16.6z"/><path id="z5r7i" d="M633.9 397.4a2.7 2.7 0 1 1 5.4 0 2.7 2.7 0 0 1-5.4 0z"/><path id="z5r7j" d="M688.8 407.2a2.7 2.7 0 1 1 5.4 0 2.7 2.7 0 0 1-5.4 0z"/><path id="z5r7k" d="M708.8 419.9V393h1v26.9z"/></defs><g><g transform="translate(-598 -393)"><g><g><g><use fill="#d33c36" xlink:href="#z5r7a"/></g><g><use fill="#d33c36" xlink:href="#z5r7b"/></g><g><use fill="#d33c36" xlink:href="#z5r7c"/></g></g></g><g><g><g><use fill="#d33c36" xlink:href="#z5r7d"/></g><g><use fill="#d33c36" xlink:href="#z5r7e"/></g><g><use fill="#d33c36" xlink:href="#z5r7f"/></g><g><use fill="#d33c36" xlink:href="#z5r7g"/></g><g><use fill="#d33c36" xlink:href="#z5r7h"/></g></g><g><use fill="#d33c36" xlink:href="#z5r7i"/></g><g><use fill="#d33c36" xlink:href="#z5r7j"/></g></g><g><use fill="#d33c36" xlink:href="#z5r7k"/></g></g></g></svg>