<svg xmlns="http://www.w3.org/2000/svg" xmlns:xlink="http://www.w3.org/1999/xlink" width="51" height="67" viewBox="0 0 51 67"><defs><path id="8r6ba" d="M810.94 1552.3l-.43.25-.43.29-.43.32-.39.32-.43.32-.4.36-.38.4-.36.39-.4.39-.35.43-.36.43-.32.46-.32.47-.32.46-.32.46-.29.5-.25.47-.25.43-.21.46-.22.5-.21.47-.18.46-.18.5-.18.46-.14.5-.14.47-.11.5-.1.46-.12.47-.07.5-.03.46-.04.47 3.57 2.07.04-.47.07-.46.07-.5.07-.47.11-.5.1-.46.15-.5.14-.46.18-.5.18-.47.18-.46.21-.5.22-.47.21-.46.25-.47.25-.42.29-.5.32-.47.32-.5.32-.43.32-.46.36-.43.36-.43.39-.4.36-.38.39-.4.4-.35.42-.36.4-.32.42-.29.43-.28.43-.25.43-.25.43-.22.43-.18.39-.14.43-.14.39-.07.4-.08.35-.07h.75l.36.04.32.03.32.08.32.1.32.15.29.14-3.57-2.07-.29-.15-.32-.14-.32-.07-.32-.1-.32-.04-.36-.04h-.76l-.35.07-.4.07-.38.08-.43.14-.4.14-.42.18-.43.21z"/><path id="8r6bb" d="M847.26 1533.12l-3.57-2.07z"/><path id="8r6bc" d="M843.76 1537.48l-3.57-2.07z"/><path id="8r6bd" d="M834.26 1541.66l.32-.5.32-.46.65-.93.32-.47.36-.42.35-.43.36-.4.4-.39.31-.4.4-.35.39-.36.43-.32.43-.28.43-.29.42-.25 3.58 2.07-.43.25-.43.29-.43.28-.43.33-.78.7-.79.8-.36.39-.71.86-.32.46-.32.46-.33.47-.28.46-.29.5-.25.47-.25.46-.21.47-.22.46-.21.46-.18.47-.18.46-.18.47-.14.5-.14.46-.22.93-.14.93-.03.46-.04.47-3.57-2.07.03-.47.04-.46.07-.47.07-.46.1-.47.12-.46.14-.5.14-.46.18-.47.36-.93.21-.46.22-.47.21-.46.25-.46.25-.47zm15.43-4.78l-.29-.15-.32-.14-.32-.1-.32-.08-.36-.07-.35-.04h-.36l-.36.04-.4.04-.38.07-.4.1-.39.15-.43.14-.43.18-.43.21-.42.25-3.58-2.07.43-.25.43-.21.43-.18.43-.15.4-.14.38-.1.4-.08.39-.03.36-.04h.35l.36.04.36.07.32.07.32.1.32.15.29.14z"/><path id="8r6be" d="M827.15 1528.05v-.14l.04-.14.04-.1.2-.33.12-.1.1-.08.22-.07h.07l.07.03.64.36-.07-.03h-.07l-.1.03-.11.04-.22.14-.07.1-.07.15-.07.1-.04.15-.03.14v4.15l-.22.1-.18.15-.17.14-.18.18-.18.14-.36.36-.18.18-.18.17-.1.22-.43.64-.18.18-.29.43-.14.25-.1.28-.15.25-.21.58-.15.25-.1.28-.08.29-.2.86-.05.28-.03.29-.04.28v.9l.04.39.07.36.1.32.11.28.15.29.18.25.17.21-2.7 4.68-.08.14-.04.15-.03.14v.21l.03.11.04.07.07.07-.64-.35-.07-.07-.04-.08-.04-.1v-.22l.04-.14.04-.14.07-.15 2.71-4.67-.18-.22-.18-.25-.14-.28-.1-.3-.11-.31-.07-.36-.04-.4v-.88l.04-.3.07-.56.07-.29.07-.28.07-.29.07-.29.11-.28.21-.57.11-.29.14-.25.15-.25.14-.25.86-1.28.14-.18.18-.18.18-.18.18-.18.35-.36.18-.14.18-.14.36-.29v-4zm3.86 6.79l-.07-.43-.04-.36-.07-.32-.1-.28-.15-.25-.18-.22-.17-.18-.22-.14.64.36.25.18.18.17.18.22.14.25.11.28.1.33.04.35v.75l-.1.65-.07.43-.36 1.07-.22.43-.1.2-.11.22-.25.4-.25.35-.29.36-.28.32-.32.32-.32.29-.33.25-.35.21-.36.18-.36.15-.32.1-.32.04h-.29l-.28-.04-.25-.07-.25-.1-.65-.36.25.1.25.08.3.03h.28l.32-.03.32-.11.32-.14.36-.18.36-.22.32-.25.32-.28.32-.32.29-.33.28-.35.25-.36.25-.4.32-.64.1-.21.12-.18.28-.86.04-.21.03-.21.04-.18.04-.22.03-.21v-.43zm2.97 5.96l-.65-.35-2.71-1.61.64.36zm-5.86-9.35l.36-.15.35-.1.36-.08.32-.03h.32l.32.07.29.1.25.15.37.2-.26-.1-.29-.06h-.32l-.32.03-.36.07-.36.11-.35.14zm2.96.17l.25.15-.27-.15z"/><path id="8r6bf" d="M827.76 1528.41c0-.32.22-.71.5-.9.29-.17.5-.03.5.3v4c1-.44 1.9-.44 2.6-.04.8.46 1.3 1.43 1.3 2.85a8.2 8.2 0 0 1-.8 3.33l2.8 1.64c.2.1.2.5 0 .82-.22.36-.54.54-.72.43l-2.71-1.6a9.28 9.28 0 0 1-2.97 3.03c-1.1.64-2.1.75-2.86.43l-2.68 4.64c-.2.36-.53.54-.7.43-.22-.1-.22-.5 0-.82l2.7-4.68c-.53-.54-.82-1.4-.82-2.5 0-1.4.5-2.97 1.29-4.32a9.14 9.14 0 0 1 2.6-2.97v-4.07zm-2 12.79c.04 0 .04.03.04.03.03.04.07.04.07.04.6.36 1.46.28 2.4-.25a7.01 7.01 0 0 0 2.38-2.5 7 7 0 0 0 1-3.32c0-1.08-.39-1.83-1-2.18-.6-.36-1.46-.29-2.39.25a7.01 7.01 0 0 0-2.4 2.5 7 7 0 0 0-1 3.32c.04 1 .36 1.71.9 2.1z"/><path id="8r6bg" d="M847.26 1525.05l-3.57-2.03-.18-.11-.18-.07-.18-.07-.21-.04-.18-.03-.21-.04h-.22l-.21.04h-.22l-.25.07-.21.03-.25.07-.25.11-.25.1-.25.12-.25.14-.25.14-.25.18-.25.18-.25.18-.21.21-.25.22-.22.21-.25.25-.21.21-.22.25-.18.29-.21.25-.18.25-.21.29-.18.28-.14.29-.18.28-.15.32-.14.29-.14.29-.14.32-.11.32-.1.28-.12.33-.07.28-.1.32-.04.32-.07.3-.04.31-.03.29-.04.32V1532.17l.04.28.03.25.04.28.07.22.04.25.1.21.07.21.11.18.1.18.12.18.14.18.14.14.14.1.15.12.18.1 3.57 2.07-.18-.1-.14-.1-.15-.15-.14-.15-.14-.14-.11-.18-.1-.18-.11-.17-.08-.22-.07-.21-.07-.25-.07-.25-.04-.25-.03-.25v-.29l-.04-.28.04-.29v-.32l.03-.29.04-.32.07-.28.07-.33.07-.32.08-.28.1-.32.11-.33.1-.28.15-.32.14-.29.15-.32.14-.29.18-.28.18-.29.17-.28.18-.29.18-.25.22-.28.21-.25.18-.25.25-.22.21-.25.22-.21.25-.22.21-.21.25-.18.25-.18.25-.18.25-.14.25-.14.25-.11.25-.1.25-.11.25-.08.22-.07.25-.03h.21l.21-.04h.22l.21.04.18.03.22.04.17.07.18.07z"/><path id="8r6bh" d="M818.01 1541.95l-3.6-2.04-.15-.1-.18-.08-.21-.07-.18-.03-.22-.04-.17-.04h-.22l-.21.04h-.25l-.22.07-.25.04-.21.07-.25.1-.25.11-.25.1-.25.15-.25.15-.25.17-.25.18-.25.18-.25.22-.22.2-.25.22-.21.25-.21.22-.22.25-.21.28-.18.25-.22.25-.17.29-.18.29-.18.28-.14.29-.18.32-.15.28-.1.29-.15.32-.1.32-.11.29-.1.32-.11.29-.08.32-.07.32-.03.28-.04.33-.03.28-.04.32V1549.05l.04.29.03.25.04.29.03.21.07.25.08.21.1.22.11.18.1.18.11.17.15.18.1.15.15.1.18.11.14.1 3.57 2.08-.14-.1-.15-.12-.17-.14-.11-.14-.14-.14-.11-.18-.1-.18-.12-.18-.1-.21-.07-.22-.08-.25-.03-.25-.04-.25-.03-.25-.04-.28v-.58l.04-.32.03-.28.04-.32.03-.29.08-.32.07-.32.1-.29.11-.32.1-.32.12-.29.14-.32.1-.28.18-.33.15-.28.14-.29.18-.28.18-.29.18-.28.21-.25.18-.29.21-.25.22-.25.21-.21.25-.25.22-.22.25-.21.21-.22.25-.18.25-.17.25-.18.25-.15.25-.14.25-.1.25-.11.25-.11.21-.07.25-.07.22-.04h.25l.21-.03h.22l.21.03.18.04.21.03.18.07.18.08z"/><path id="8r6bi" d="M829.15 1517.09l-.04.03.44-.25.43-.21.42-.18.43-.14.4-.14.39-.11.4-.07.38-.04.36-.03h.36l.36.03.35.07.32.07.33.11.32.14.28.15-3.57-2.07-.28-.15-.33-.14-.32-.1-.32-.08-.36-.07-.35-.04h-.36l-.36.04-.4.04-.38.07-.4.1-.39.15-.43.14-.43.18-.43.21-.38.22 3.56 2.07zm-.42.28l-.43.29-.47.4-.43.31-.78.72-.79.78-.36.4-.35.43-.36.42-1.29 1.86-.28.5-.25.47-.25.46-.22.46-.2.47-.22.46-.18.47-.36.93-.14.46-.15.5-.1.46-.1.47-.08.46-.07.47-.07.93-3.58-2.08.04-.57.04-.46.14-.93.1-.46.11-.47.15-.46.14-.5.36-.93.17-.5.22-.47.21-.46.29-.46.25-.47.25-.46.28-.5.3-.47.31-.46.32-.47.32-.46.36-.43.36-.43.36-.39.39-.36.4-.39.78-.71.43-.33.42-.28.43-.32.43-.25h.01l-.04.03 3.56 2.07z"/><path id="8r6bj" d="M832.62 1504.7l-.18-.08-.18-.07-.18-.07-.18-.03-.42-.08h-.43l-.43.08-.22.07-.25.07-.5.21-.25.11-.25.14-.25.15-.25.17-.25.18-.25.18-.25.22-.25.21-.64.64-.64.75-.36.57-.18.29-.36.57-.42.86-.15.32-.1.32-.22.64-.28 1.29-.04.32-.04.29-.03.28v.57l.03.29.04.25.04.25.07.25.21.64.22.36.1.18.43.43.14.1.18.11-3.57-2.07-.18-.1-.14-.11-.43-.43-.1-.18-.22-.36-.14-.43-.15-.5-.03-.25-.04-.25-.03-.28v-.57l.03-.29.04-.29.03-.32.08-.32.07-.25.14-.64.21-.64.11-.33.14-.32.43-.85.36-.58.18-.28.36-.57.85-1 .43-.43.22-.25.25-.22.5-.35.25-.18.25-.14.25-.15.5-.21.5-.14.25-.08.43-.07h.64l.21.04.18.03.18.08.18.07.18.1 3.57 2.08z"/><path id="8r6bk" d="M835.08 1516.52c-1.5-.86-3.6-.75-5.93.57a17.25 17.25 0 0 0-5.93 6.25 17.6 17.6 0 0 0-2.42 7.57l16.71-9.64c-.14-2.32-1.07-3.97-2.43-4.75z"/><path id="8r6bl" d="M849.69 1536.88c-1.5-.86-3.6-.75-5.93.57-2.32 1.32-4.4 3.64-5.93 6.25a17.6 17.6 0 0 0-2.43 7.57l16.72-9.64c-.14-2.3-1.04-3.93-2.43-4.75z"/><path id="8r6bm" d="M820.44 1553.77c-1.5-.86-3.6-.75-5.93.57-2.32 1.32-4.4 3.64-5.93 6.25a17.6 17.6 0 0 0-2.43 7.57l16.72-9.64c-.15-2.29-1.04-3.93-2.43-4.75z"/><path id="8r6bn" d="M829.15 1516.41c1.36-.79 2.61-2.14 3.5-3.68.9-1.53 1.43-3.28 1.43-4.86 0-1.57-.53-2.67-1.43-3.17-.89-.5-2.1-.43-3.5.35-1.35.79-2.6 2.15-3.5 3.68a10.01 10.01 0 0 0-1.43 4.86c0 1.57.54 2.68 1.43 3.18.9.5 2.15.43 3.5-.36z"/><path id="8r6bo" d="M847.26 1525.05c-.9-.5-2.1-.43-3.5.36-1.36.79-2.6 2.14-3.5 3.68a10.01 10.01 0 0 0-1.43 4.86c0 1.57.54 2.68 1.43 3.18.9.5 2.1.42 3.5-.36a10.14 10.14 0 0 0 3.47-3.68c.89-1.54 1.42-3.29 1.42-4.86.04-1.53-.5-2.64-1.39-3.18z"/><path id="8r6bp" d="M818.01 1541.95c-.9-.5-2.1-.43-3.5.35-1.36.79-2.6 2.15-3.5 3.68a10.01 10.01 0 0 0-1.43 4.86c0 1.57.54 2.68 1.43 3.18.9.5 2.1.43 3.5-.36a10.14 10.14 0 0 0 3.46-3.68c.9-1.53 1.43-3.28 1.43-4.85.04-1.54-.53-2.65-1.39-3.18z"/></defs><g><g opacity=".5" transform="translate(-802 -1502)"><g opacity=".5"><use fill="#29648c" xlink:href="#8r6ba"/></g><g opacity=".5"><use fill="#ffe0a6" xlink:href="#8r6bb"/></g><g opacity=".5"><use fill="#2192fc" xlink:href="#8r6bc"/></g><g opacity=".5"><use fill="#29648c" xlink:href="#8r6bd"/></g><g opacity=".5"><use fill="#5e7d85" xlink:href="#8r6be"/></g><g opacity=".5"><use fill="#899ea3" xlink:href="#8r6bf"/></g><g opacity=".5"><use fill="#c2ac78" xlink:href="#8r6bg"/></g><g opacity=".5"><use fill="#c2ac78" xlink:href="#8r6bh"/></g><g opacity=".5"><g opacity=".5"><use fill="#29648c" xlink:href="#8r6bi"/></g><g opacity=".5"><use fill="#c2ac78" xlink:href="#8r6bj"/></g></g><g opacity=".5"><use fill="#2192fc" xlink:href="#8r6bk"/></g><g opacity=".5"><use fill="#2192fc" xlink:href="#8r6bl"/></g><g opacity=".5"><use fill="#2192fc" xlink:href="#8r6bm"/></g><g opacity=".5"><use fill="#ffe0a6" xlink:href="#8r6bn"/></g><g opacity=".5"><use fill="#ffe0a6" xlink:href="#8r6bo"/></g><g opacity=".5"><use fill="#ffe0a6" xlink:href="#8r6bp"/></g></g></g></svg>