<svg xmlns="http://www.w3.org/2000/svg" xmlns:xlink="http://www.w3.org/1999/xlink" width="72" height="84" viewBox="0 0 72 84"><defs><path id="w88pa" d="M812.08 1470.28l-20.46-11.84 50.06-28.91 20.5 11.85z"/><path id="w88pb" d="M812.08 1476.79l-20.46-11.8v-6.55l20.46 11.84z"/><path id="w88pc" d="M812.08 1470.28l50.1-28.9v6.5l-50.1 28.91z"/><path id="w88pd" d="M826.08 1457.1l-11.24-6.46v-49.76l11.24 6.5z"/><path id="w88pe" d="M826.08 1407.38l-11.24-6.5 13.3-7.67 11.25 6.5z"/><path id="w88pf" d="M826.08 1434.78l-11.24-6.5-13.27 7.71 11.24 6.46z"/><path id="w88pg" d="M812.81 1442.45l-11.24-6.46v22.32l11.24 6.5z"/><path id="w88ph" d="M839.4 1449.43l-11.25-6.46v-32.44l11.24 6.5z"/><path id="w88pi" d="M839.4 1417.03l-11.25-6.5 13.27-7.67 11.24 6.5z"/><path id="w88pj" d="M839.4 1449.43v-32.4l13.26-7.66v32.4z"/><path id="w88pk" d="M826.08 1457.1v-22.32l-13.27 7.67v22.36z"/><path id="w88pl" d="M826.08 1457.1v-49.72l13.31-7.66v49.71z"/></defs><g><g transform="translate(-791 -1393)"><g><g><use fill="#34485c" xlink:href="#w88pa"/></g><g><use fill="#2c3e50" xlink:href="#w88pb"/></g></g><g><use fill="#3d566e" xlink:href="#w88pc"/></g><g><use fill="#943b3b" xlink:href="#w88pd"/></g><g><use fill="#bf4a3d" xlink:href="#w88pe"/></g><g><use fill="#bdbdbd" xlink:href="#w88pf"/></g><g><use fill="#9c9c9c" xlink:href="#w88pg"/></g><g><use fill="#22303d" xlink:href="#w88ph"/></g><g><use fill="#34485c" xlink:href="#w88pi"/></g><g><use fill="#3d566e" xlink:href="#w88pj"/></g><g><use fill="#e6eaeb" xlink:href="#w88pk"/></g><g><use fill="#e74c3c" xlink:href="#w88pl"/></g></g></g></svg>