<svg xmlns="http://www.w3.org/2000/svg" xmlns:xlink="http://www.w3.org/1999/xlink" width="66" height="52" viewBox="0 0 66 52"><defs><path id="34q9a" d="M822.22 1599.37zm0 0l-15.26 26.49-2.62-1.49-1.48-.87-.36-.26-.3-.3-.31-.31-.52-.72-.25-.4-.2-.42-.26-.51-.16-.46-.15-.51-.1-.52-.1-.56-.06-.56-.05-.62v-1.28l.1-.67.06-.66.2-1.33.15-.72.16-.67.2-.66.2-.72.52-1.33.26-.62.61-1.33.72-1.33.36-.62.82-1.23.4-.56 1.39-1.69.46-.51 1.02-1.03 1.03-.92.51-.4.57-.37.5-.4.57-.26.56-.31 1.13-.51.51-.2 1.03-.32.51-.1.51-.05.46-.05h.47l.4.05.47.05.4.1.83.31zm-.4-.15l.1.05c-.05-.05-.1-.05-.1-.05z"/><path id="34q9b" d="M814.95 1625.34c6-3.43 10.8-11.83 10.8-18.75 0-6.91-4.86-9.68-10.8-6.25-5.94 3.43-10.81 11.84-10.81 18.75 0 6.92 4.87 9.69 10.81 6.25z"/><path id="34q9c" d="M821.3 1603.83c1.54.71 2.51 1.38 2.62 5.22 0 3.8-4.51 11.58-7.8 13.48-3.32 1.9-4.35 1.33-5.78.35l-.41-.2-1.08-.62-.5-.4-.21-.21-.2-.26-.21-.25-.47-.92-.2-.72-.1-.41-.1-.82-.06-.46v-.92l.16-1.39.1-.46.2-1.02.31-1.03.16-.46.15-.51.41-.92 1.02-1.85.62-.92.92-1.23.36-.41 1.43-1.43.72-.62.41-.26.36-.25.41-.26.46-.25.41-.2.41-.16.36-.16.72-.2.36-.05.3-.05h.72l.92.15.3.1.32.1 1.48.88zm-.3-.16h-.06c.05.05.05.05.05 0z"/><path id="34q9d" d="M816.03 1622.53c4.3-2.46 7.78-8.5 7.78-13.48 0-4.97-3.48-6.97-7.78-4.5-4.3 2.45-7.8 8.5-7.8 13.47 0 4.97 3.5 6.96 7.8 4.5z"/><path id="34q9e" d="M826.68 1644.04l-6.71-5.33-8.56-16.24-.25-.15-.2-.2-.21-.2-.2-.27-.16-.25-.2-.3-.16-.32-.15-.3-.1-.31-.1-.36-.11-.36-.05-.36-.05-.4-.05-.42v-.87l.05-.46.05-.46.05-.46.1-.46.1-.46.1-.46.16-.47.16-.46.15-.46.15-.46.2-.46.21-.46.2-.46.26-.46.26-.46.26-.41.25-.41.26-.41.3-.41.31-.41.31-.41c5.33-6.2 17.11-4.1 23.87-2 1.13.36 2 1.07 2.46 2.2l1.6 3.38c.4.87.45 1.7.3 2.62l-1.33 5.94 7.17 16.4-7.53 4.2c.15.5-1.64 2.66-3.7 2.04-.3.41-.1 1.39-2.4 1.33.1.41-.46.82-1.48.82l-4.77-.61c-.3 0-.56-.1-.82-.3z"/><path id="34q9f" d="M846.2 1637.18l-4.3-3.38-3.28-5.08-2.87-2.86a7.42 7.42 0 0 1-2.2-5.03l-.16-3.58-6.2-.62-2.35 2.92c-.67.77-1.64 1.23-2.67.93l-2.3-.72a.73.73 0 0 1-.46-.41c-.1-.2-.05-.41.05-.62l4.81-7.58c.36-.56.87-.97 1.49-1.07l10.3-1.6c.25-.04.4.11.61.26l6.2 5.49c5.43 4.76 2.82 4.66 8.2 5.94 1.64.4 2.5.82 4.92 1.74 3.79 7.48-1.9 12.96-7.43 14.65.05 0-1.9.82-2.36.62z"/><path id="34q9g" d="M836.16 1642.86a9.32 9.32 0 0 1-5.9-2c-1.73-1.43-5.27-5.01-4.96-5.32.2-.2 3.64 3.53 5.28 4.92 1.74 1.38 3.84 1.94 5.58 2.4z"/><path id="34q9h" d="M839.9 1640.87c-1.9-.06-3.9 0-5.64-1.54-1.74-1.54-6.81-6-6.6-6.25.3-.3 5.48 4.46 7.01 5.84 1.49 1.43 3.7 1.54 5.23 1.95z"/><path id="34q9i" d="M844.51 1638.56c-2.51-.26-5.28-.67-7.27-2.4-2.05-1.75-6.26-5.39-6-5.7.26-.25 4.82 3.75 6.56 5.33 1.74 1.64 4.61 2.1 6.71 2.77z"/><path id="34q9j" d="M833.8 1644.25c-1.94-.2-4.45-.62-6-1.95-1.53-1.33-4.5-4-4.24-4.25.3-.3 3.33 2.97 4.71 3.94 1.33 1.03 4.05 1.9 5.53 2.26z"/><path id="34q9k" d="M861.72 1620.58l-15.26 26.38-2.62-1.48-1.48-.87-.36-.26-.62-.61-.25-.36-.26-.36-.25-.41-.2-.41-.21-.46-.16-.46-.15-.52-.1-.5-.1-.57-.06-.57-.05-.61v-1.28l.05-.67.05-.66.1-.67.1-.67.16-.66.16-.72.2-.66.2-.67.26-.62.26-.66.25-.67.31-.66.31-.67.72-1.33.36-.67.4-.56.42-.62.4-.61.47-.56.92-1.13.46-.51 1.02-1.03.52-.46.5-.46.52-.41.46-.26 1.13-.71.56-.31.57-.26.56-.25.51-.2 1.03-.32.5-.1.52-.05.46-.05h.46l.46.05.47.05.4.1.83.31 4.1 2.36zm-.4-.2l.04.02c0-.01-.02-.03-.05-.03zm.04.02l.06.02z"/><path id="34q9l" d="M854.45 1646.5c6-3.43 10.8-11.83 10.8-18.75s-4.86-9.68-10.8-6.25c-6 3.43-10.81 11.84-10.81 18.75 0 6.92 4.87 9.68 10.8 6.25z"/><path id="34q9m" d="M822.63 1640.71l-3.17-.1c-.46 0-.92-.15-1.28-.51l-.52-.46a2 2 0 0 1-.66-1.44v-1.23l-.26-.05c-.4-.1-.71-.3-.97-.66l-.87-1.08a2.38 2.38 0 0 1-.46-1.18l-.05-.87-.31-.1a2.17 2.17 0 0 1-1.13-.92l-.56-.93a3.24 3.24 0 0 1-.46-1.94v-.41a3.39 3.39 0 0 1-2.05-3.23v-.97l.1-2c.1-1.13.51-1.39 1.43-1.44.41-.05.88 0 1.29.2l.5.26c.42.2.67.41.98.82.26.36.41.72.46 1.18v1.28l.62.26.66.56c.57.46.82 1.08.77 1.8l-.05 1.84c.3.15.51.26.82.51l.67.51c.56.47.87 1.34.87 2v2.3c.77.06 1.12.32 1.79.88.46.36.72.87.82 1.43l.26 1.9z"/><path id="34q9n" d="M810.54 1622.47l1.39 1.08-.16 2.36c0 .05-.1.05-.15.05-.05 0-.15-.1-.2-.16l-.62-.56c-.15-.15-.36-.36-.36-.61z"/><path id="34q9o" d="M812.44 1626.11l1.59 1.08v2.05c0 .05 0 .1-.05.1-.05.05-.1.05-.1.05h-.21c-.3 0-.56-.1-.82-.36l-.15-.15c-.16-.2-.26-.46-.26-.72z"/><path id="34q9p" d="M815.1 1630.57l1.6 1.23v1.9c0 .04 0 .1-.06.1-.05.05-.1.05-.15.05h-.2c-.32 0-.57-.16-.83-.36l-.15-.15c-.16-.21-.26-.47-.26-.72z"/><path id="34q9q" d="M817.72 1635.7l1.58 1.12-.15 1.64c0 .1-.1.15-.2.15h-.2c-.32 0-.62-.15-.83-.36-.15-.2-.26-.77-.26-1.02z"/><path id="34q9r" d="M814.8 1624.98c-.31.06-.57.06-.82.1-.52.1-1.18.31-1.54.78-.3.4-.36 2.4-.41 3.07-.05-2.72-.56-4.15 2.77-3.95z"/><path id="34q9s" d="M821.3 1615.66l1.23.15c.1 0 .2.06.26.16.36.61-1.95 2.92-2.36 3.43l-1.54-.3a10.63 10.63 0 0 1 2.05-3.29c.1-.1.2-.2.36-.15z"/><path id="34q9t" d="M816.8 1629.44c-.72.1-1.65.3-1.95.97-.2.41-.26 2.2-.31 2.77-.15-1.95-.67-3.9 2.25-3.74z"/><path id="34q9u" d="M819 1634.72c-1.74.1-1.8.87-1.9 2.35-.05-1.84-.2-2.45 1.9-2.35z"/><path id="34q9v" d="M826.73 1615.15c.16.36.67 1.38-.05 2.25a2.08 2.08 0 0 1 1.64-.66c-.92-.26-1.23-1.03-1.59-1.6z"/><path id="34q9w" d="M834.98 1616.48c-.61.36-.87.56-2.46.67 1.33.15.87.56 1.03 1.38 0-1.28.77-1.49 1.43-2.05z"/></defs><g><g opacity=".5" transform="translate(-800 -1596)"><g opacity=".5"><use fill="#415a73" xlink:href="#34q9a"/></g><g opacity=".5"><use fill="#2c3e50" xlink:href="#34q9b"/></g><g opacity=".5"><use fill="#e6eaeb" xlink:href="#34q9c"/></g><g opacity=".5"><use fill="#bdbdbd" xlink:href="#34q9d"/></g><g opacity=".5"><use fill="#e8d5a7" xlink:href="#34q9e"/></g><g opacity=".5"><use fill="#c2ac78" xlink:href="#34q9f"/></g><g opacity=".5"><use fill="#c2ac78" xlink:href="#34q9g"/></g><g opacity=".5"><use fill="#c2ac78" xlink:href="#34q9h"/></g><g opacity=".5"><use fill="#c2ac78" xlink:href="#34q9i"/></g><g opacity=".5"><use fill="#c2ac78" xlink:href="#34q9j"/></g><g opacity=".5"><use fill="#415a73" xlink:href="#34q9k"/></g><g opacity=".5"><use fill="#2c3e50" xlink:href="#34q9l"/></g><g opacity=".5"><use fill="#c2ac78" xlink:href="#34q9m"/></g><g opacity=".5"><use fill="#d4be8c" xlink:href="#34q9n"/></g><g opacity=".5"><use fill="#d4be8c" xlink:href="#34q9o"/></g><g opacity=".5"><use fill="#d4be8c" xlink:href="#34q9p"/></g><g opacity=".5"><use fill="#d4be8c" xlink:href="#34q9q"/></g><g opacity=".5"><use fill="#ab9667" xlink:href="#34q9r"/></g><g opacity=".5"><use fill="#d4be8c" xlink:href="#34q9s"/></g><g opacity=".5"><use fill="#ab9667" xlink:href="#34q9t"/></g><g opacity=".5"><use fill="#ab9667" xlink:href="#34q9u"/></g><g opacity=".5"><use fill="#ab9667" xlink:href="#34q9v"/></g><g opacity=".5"><use fill="#ab9667" xlink:href="#34q9w"/></g></g></g></svg>