<svg xmlns="http://www.w3.org/2000/svg" xmlns:xlink="http://www.w3.org/1999/xlink" width="115" height="200" viewBox="0 0 115 200"><defs><path id="14l8a" d="M839.5 3202.4l-60.42-34.86v-2.23l60.41 34.86z"/><path id="14l8b" d="M839.5 3200.17l-60.42-34.86 53.56-31.64 61.06 35.27z"/><path id="14l8c" d="M839.5 3200.17l54.2-31.23v2.23l-54.2 31.23z"/><path id="14l8d" d="M834.69 3096.34l-35.92-20.74v-7.2l35.92 20.74z"/><path id="14l8e" d="M834.69 3096.34v-7.2l34.75-19.99v7.21z"/><path id="14l8f" d="M833.58 3049.82l33.4 19.28-3.11 1.81-30.3-17.46z"/><path id="14l8g" d="M804.4 3070.2l-3.11-1.75 32.29-18.63v3.63z"/><path id="14l8h" d="M834.69 3088.31l-31.35-18.1 30.24-17.4 31.34 18.1z"/><path id="14l8i" d="M834.69 3089.14l-35.92-20.75 34.75-19.98 35.92 20.74-34.75 19.99zm0-1.41l32.29-18.58-33.4-19.33-32.29 18.57z"/><path id="14l8j" d="M834.51 3085.39l-22.38-12.9v-23.02l22.38 12.89z"/><path id="14l8k" d="M834.51 3062.36l-22.38-12.9 21.33-12.6 22.62 13.07z"/><path id="14l8l" d="M834.51 3062.36l21.57-12.43v23.03l-21.57 12.43z"/><path id="14l8m" d="M834.34 3056.73l-12.42-7.2 11.83-6.98 12.6 7.27z"/><path id="14l8n" d="M834.34 3056.73l-12.42-7.2v-22.27l12.42 7.2z"/><path id="14l8o" d="M834.34 3034.47l-12.42-7.21 11.83-6.97 12.6 7.26z"/><path id="14l8p" d="M834.34 3034.47l12.01-6.92v22.27l-12.01 6.91z"/><path id="14l8q" d="M834.1 3027.9l-.88-.52v-22.27l.88.53z"/><path id="14l8r" d="M834.1 3005.64l-.88-.53.88-.53.88.53z"/><path id="14l8s" d="M834.1 3005.64l.88-.53v22.27l-.88.52z"/><path id="14l8t" d="M834.1 3006.57c.82 0 1.53-.64 1.53-1.52 0-.82-.7-1.52-1.53-1.52-.82 0-1.52.7-1.52 1.52.06.88.7 1.52 1.52 1.52z"/><path id="14l8u" d="M834.28 3006.28c.7 0 1.29-.58 1.29-1.29 0-.7-.59-1.29-1.29-1.29-.7 0-1.29.59-1.29 1.3 0 .75.59 1.28 1.29 1.28z"/><path id="14l8v" d="M835.28 3004.29c-.36-.47-.88-.3-.88.23 0 .36.29.59.58.59.53.06.53-.47.3-.82z"/><path id="14l8w" d="M834.69 3104.96l-35.92-20.75 1.23-.7 34.69 20.04 33.52-19.34 1.23.76z"/><path id="14l8x" d="M834.69 3103.55L800 3083.51l.06-7.2 34.63 20.03z"/><path id="14l8y" d="M834.69 3103.55v-7.2l33.52-19.29v7.15z"/><path id="14l8z" d="M834.69 3107.65l-35.92-20.8v-2.64l35.92 20.75z"/><path id="14l8A" d="M834.69 3107.65v-2.7l34.75-19.98v2.64z"/><path id="14l8B" d="M834.69 3116.26l-35.92-20.74 1.23-.76 34.69 20.04 33.52-19.28 1.23.7z"/><path id="14l8C" d="M834.69 3114.8L800 3094.76l.06-7.15 34.63 20.04z"/><path id="14l8D" d="M834.69 3114.8v-7.15l33.52-19.34v7.21z"/><path id="14l8E" d="M834.69 3118.9l-35.92-20.74v-2.64l35.92 20.74z"/><path id="14l8F" d="M834.69 3118.9v-2.64l34.75-20.03v2.7z"/><path id="14l8G" d="M834.69 3127.52l-35.92-20.75 1.23-.7 34.69 20.04 33.52-19.28 1.23.7z"/><path id="14l8H" d="M834.69 3126.1L800 3106.08l.06-7.15 34.63 19.98z"/><path id="14l8I" d="M834.69 3126.1v-7.2l33.52-19.28v7.21z"/><path id="14l8J" d="M834.69 3130.21l-35.92-20.74v-2.7l35.92 20.75z"/><path id="14l8K" d="M834.69 3130.21v-2.7l34.75-19.98v2.7z"/><path id="14l8L" d="M834.69 3138.82l-35.92-20.74 1.23-.7 34.69 20.04 33.52-19.34 1.23.76z"/><path id="14l8M" d="M834.69 3137.42L800 3117.38l.06-7.2 34.63 20.03z"/><path id="14l8N" d="M834.69 3137.42v-7.2l33.52-19.29v7.15z"/><path id="14l8O" d="M834.69 3141.52l-35.92-20.74v-2.7l35.92 20.74z"/><path id="14l8P" d="M834.69 3141.52v-2.7l34.75-19.98v2.64z"/><path id="14l8Q" d="M834.69 3150.13l-35.92-20.74 1.23-.7 34.69 19.98 33.52-19.28 1.23.7z"/><path id="14l8R" d="M834.69 3148.67L800 3128.69l.06-7.21 34.63 20.04z"/><path id="14l8S" d="M834.69 3148.67v-7.15l33.52-19.34v7.21z"/><path id="14l8T" d="M834.69 3152.77l-35.92-20.74v-2.64l35.92 20.74z"/><path id="14l8U" d="M834.69 3152.77v-2.64l34.75-20.04v2.7z"/><path id="14l8V" d="M834.69 3161.44l-35.92-20.8 1.23-.7 34.69 20.04 33.52-19.28 1.23.7z"/><path id="14l8W" d="M834.69 3159.98v-7.21l33.52-19.28v7.2z"/><path id="14l8X" d="M834.69 3164.08l-35.92-20.74v-2.7l35.92 20.8z"/><path id="14l8Y" d="M834.69 3164.08v-2.64l34.75-20.04v2.7z"/><path id="14l8Z" d="M834.69 3178.14L800 3158.16l.06-14.12 34.63 20.04z"/><path id="14l8aa" d="M834.69 3178.14v-14.06l33.52-19.28v14.06z"/><path id="14l8ab" d="M834.69 3183.24l-35.92-20.74 1.23-.7 34.69 20.03 33.52-19.33 1.23.76z"/><path id="14l8ac" d="M834.69 3181.83L800 3161.8l.06-7.2 34.63 20.04z"/><path id="14l8ad" d="M834.69 3181.83v-7.2l33.52-19.28v7.15z"/><path id="14l8ae" d="M834.69 3185.93l-35.92-20.74v-2.7l35.92 20.75z"/><path id="14l8af" d="M834.69 3185.93v-2.7l34.75-19.97v2.64z"/><path id="14l8ag" d="M887.6 3144.68l-.06-2.7-19.4-11.12v2.63z"/><path id="14l8ah" d="M852.85 3159.1l31.18-18-15.88-9.13-31.06 18.05z"/><path id="14l8ai" d="M854.08 3172.58l34.7-20.04-1.24-.7-33.4 19.33-19.4-11.2-.05.07v1.4z"/><path id="14l8aj" d="M854.08 3161.27l34.7-19.98-1.24-.7-33.4 19.27-19.4-11.2h-.05v1.47z"/><path id="14l8ak" d="M854.14 3163.96l-.06-2.7-21.62-12.42v2.64z"/><path id="14l8al" d="M887.48 3141.99l.06-1.4-18.98-10.97-1.23.77z"/><path id="14l8am" d="M876.76 3174.92l-3.46-2V3154l3.46 2z"/><path id="14l8an" d="M876.76 3156l3.34-1.94v18.98l-3.34 1.88z"/><path id="14l8ao" d="M848.81 3172.16l-3.46-1.99 3.29-1.93 3.51 2.05z"/><path id="14l8ap" d="M852.15 3170.29l3.34-1.93v18.92l-3.34 1.94z"/><path id="14l8aq" d="M854.08 3158.16l34.63-20.04-3.4-1.93-34.62 20.04z"/><path id="14l8ar" d="M854.14 3171.17l33.4-19.34-.06-7.15-33.4 19.28z"/><path id="14l8as" d="M854.14 3175.27l34.63-20.04v-2.7l-34.69 20.05z"/><path id="14l8at" d="M854.14 3163.96l34.63-20.04v-2.63l-34.69 19.98z"/><path id="14l8au" d="M854.08 3173.92l34.7-20.04-.07-15.76-34.63 20.04z"/><path id="14l8av" d="M852.15 3189.22l-3.46-2.05v-17.4l3.46 1.98z"/><path id="14l8aw" d="M854.08 3172.58l-21.85-12.6v2.63l18.46 10.61 3.45 2c0-.89-.06-1.77-.06-2.64z"/><path id="14l8ax" d="M854.14 3171.17v-7.2l-54.02-31.18v7.2c17.99 10.38 35.98 20.75 54.02 31.18z"/><path id="14l8ay" d="M854.08 3175.15v-16.99l-3.4-1.93v16.99z"/></defs><g><g transform="translate(-779 -3003)"><g><use fill="#2c3e50" xlink:href="#14l8a"/></g><g><use fill="#34485c" xlink:href="#14l8b"/></g><g><use fill="#3d566e" xlink:href="#14l8c"/></g><g><use fill="#9c9c9c" xlink:href="#14l8d"/></g><g><use fill="#e6eaeb" xlink:href="#14l8e"/></g><g><use fill="#9c9c9c" xlink:href="#14l8f"/></g><g><use fill="#ebebeb" xlink:href="#14l8g"/></g><g><use fill="#b8bfc4" xlink:href="#14l8h"/></g><g><use fill="#c5ccd1" xlink:href="#14l8i"/></g><g><use fill="#9c9c9c" xlink:href="#14l8j"/></g><g><use fill="#bdbdbd" xlink:href="#14l8k"/></g><g><use fill="#e6eaeb" xlink:href="#14l8l"/></g><g><use fill="#666" xlink:href="#14l8m"/></g><g><use fill="#9c9c9c" xlink:href="#14l8n"/></g><g><use fill="#bdbdbd" xlink:href="#14l8o"/></g><g><use fill="#e6eaeb" xlink:href="#14l8p"/></g><g><use fill="#9c9c9c" xlink:href="#14l8q"/></g><g><use fill="#2c3e50" xlink:href="#14l8r"/></g><g><use fill="#e6eaeb" xlink:href="#14l8s"/></g><g><use fill="red" xlink:href="#14l8r"/></g><g><use fill="#c23e2d" xlink:href="#14l8t"/></g><g><use fill="#f25e4b" xlink:href="#14l8u"/></g><g><use fill="#f08173" xlink:href="#14l8v"/></g><g><g><use fill="#c5ccd1" xlink:href="#14l8w"/></g><g><use fill="#29648c" xlink:href="#14l8x"/></g><g><use fill="#2192fc" xlink:href="#14l8y"/></g><g><use fill="#9c9c9c" xlink:href="#14l8z"/></g><g><use fill="#e6eaeb" xlink:href="#14l8A"/></g></g><g><g><use fill="#c5ccd1" xlink:href="#14l8B"/></g><g><use fill="#29648c" xlink:href="#14l8C"/></g><g><use fill="#2192fc" xlink:href="#14l8D"/></g><g><use fill="#9c9c9c" xlink:href="#14l8E"/></g><g><use fill="#e6eaeb" xlink:href="#14l8F"/></g></g><g><g><use fill="#c5ccd1" xlink:href="#14l8G"/></g><g><use fill="#29648c" xlink:href="#14l8H"/></g><g><use fill="#2192fc" xlink:href="#14l8I"/></g><g><use fill="#9c9c9c" xlink:href="#14l8J"/></g><g><use fill="#e6eaeb" xlink:href="#14l8K"/></g></g><g><g><use fill="#c5ccd1" xlink:href="#14l8L"/></g><g><use fill="#29648c" xlink:href="#14l8M"/></g><g><use fill="#2192fc" xlink:href="#14l8N"/></g><g><use fill="#9c9c9c" xlink:href="#14l8O"/></g><g><use fill="#e6eaeb" xlink:href="#14l8P"/></g></g><g><g><use fill="#c5ccd1" xlink:href="#14l8Q"/></g><g><use fill="#29648c" xlink:href="#14l8R"/></g><g><use fill="#2192fc" xlink:href="#14l8S"/></g><g><use fill="#9c9c9c" xlink:href="#14l8T"/></g><g><use fill="#ebebeb" xlink:href="#14l8U"/></g></g><g><use fill="#c5ccd1" xlink:href="#14l8V"/></g><g><use fill="#3d566e" xlink:href="#14l8W"/></g><g><use fill="#9c9c9c" xlink:href="#14l8X"/></g><g><use fill="#e6eaeb" xlink:href="#14l8Y"/></g><g><use fill="#29648c" xlink:href="#14l8Z"/></g><g><use fill="#2192fc" xlink:href="#14l8aa"/></g><g><g><use fill="#c5ccd1" xlink:href="#14l8ab"/></g><g><use fill="#29648c" xlink:href="#14l8ac"/></g><g><use fill="#2192fc" xlink:href="#14l8ad"/></g><g><use fill="#9c9c9c" xlink:href="#14l8ae"/></g><g><use fill="#e6eaeb" xlink:href="#14l8af"/></g></g><g><use fill="#9c9c9c" xlink:href="#14l8ag"/></g><g><use fill="#b8bfc4" xlink:href="#14l8ah"/></g><g><use fill="#c5ccd1" xlink:href="#14l8ai"/></g><g><use fill="#c5ccd1" xlink:href="#14l8aj"/></g><g><use fill="#9c9c9c" xlink:href="#14l8ak"/></g><g><use fill="#c5ccd1" xlink:href="#14l8al"/></g><g><use fill="#9c9c9c" xlink:href="#14l8am"/></g><g><use fill="#ebebeb" xlink:href="#14l8an"/></g><g><use fill="#c5ccd1" xlink:href="#14l8ao"/></g><g><use fill="#ebebeb" xlink:href="#14l8ap"/></g><g><use fill="#c5ccd1" xlink:href="#14l8aq"/></g><g><use fill="#3d566e" xlink:href="#14l8ar"/></g><g><use fill="#ebebeb" xlink:href="#14l8as"/></g><g><use fill="#9c9c9c" xlink:href="#14l8at"/></g><g><use fill="#ebebeb" xlink:href="#14l8au"/></g><g><use fill="#9c9c9c" xlink:href="#14l8av"/></g><g><use fill="#9c9c9c" xlink:href="#14l8aw"/></g><g><use fill="#29648c" xlink:href="#14l8ax"/></g><g><use fill="#9c9c9c" xlink:href="#14l8ay"/></g></g></g></svg>