<svg xmlns="http://www.w3.org/2000/svg" xmlns:xlink="http://www.w3.org/1999/xlink" width="172" height="130" viewBox="0 0 172 130"><defs><path id="st40a" d="M564.98 3149.25l55.84 32.23a24.01 24.01 0 0 0 24.43 0l28-16.17 53.8-31.06-37.91-21.85-2.23 1.29-35.39-20.45-51.56 29.76-34.93 20.16c-2.98 1.64-2.93 4.4-.05 6.1z"/><path id="st40b" d="M698.57 3120.48l-9.6-5.56v-34.1l9.6 5.56.47.24.53.17.53.06.58.06.53-.06.53-.06.52-.17.47-.24.41-.23.24-.3.17-.35.06-.3v34.05l-.06.35-.17.3-.24.3-.4.28-.48.24-.52.12-.53.11H700.1l-.53-.11-.53-.12z"/><path id="st40c" d="M722.66 3100.27v34.1l-4.58-2.64v-34.04z"/><path id="st40d" d="M718.08 3097.69v34.04l-.35-.23-.29-.3-.12-.34-.06-.3v-34.1l.06.35.12.3.3.29z"/><path id="st40e" d="M659.84 3098.04l-.88-.47-1-.4-.99-.3-1-.3-1.1-.23-1.12-.17-1.12-.06-1.1-.06v-34.04h1.1l1.12.11 1.11.18 1.11.17 1 .3 1 .35 1 .4.87.48 24.96 14.41v34.05z"/><path id="st40f" d="M669.04 3131.27v34.04l-4.57-2.58v-34.1z"/><path id="st40g" d="M597.85 3090.13v34.1l-29.77 17.17-.82.47-.7.59-.59.58-.47.59-.4.64-.24.59-.18.64-.06.7v-34.1l.06-.64.18-.64.23-.65.41-.64.47-.59.59-.59.7-.52.82-.53z"/><path id="st40h" d="M691.07 3113.69v-34.1 34.1z"/><path id="st40i" d="M683.34 3118.14l-.47.23-.53.12-.53.12H680.7l-.53-.12-.52-.12-.47-.23v-34.1l.47.23.52.18.53.06.59.05.52-.05.53-.06.53-.18.47-.23 5.56-3.23v34.1z"/><path id="st40j" d="M679.18 3084.04v34.1l-.35-.3-.3-.29-.17-.29-.06-.35v-34.04l.06.29.17.35.3.3z"/><path id="st40k" d="M643.2 3098.04l-41.2 23.8v-34.11l41.2-23.8.88-.46.94-.41 1-.35 1.05-.3 1.05-.23 1.12-.17 1.1-.12 1.12-.06v34.1h-1.11l-1.11.12-1.12.18-1.05.23-1.06.3-1 .34-.93.41-.88.53zm-11.84-20.92l-14.65 8.44v10.67l3.99 2.34 10.55-6.1z"/><path id="st40l" d="M663.83 3129.39l-24.38 14.06v-34.04l24.38-14.06.35-.3.29-.29.12-.3.06-.34v34.1l-.06.3-.12.34-.3.3z"/><path id="st40m" d="M650 3116.15v34.1l-.06.3-.18.34-.29.3-.35.23v-34.04l.35-.3.3-.29.17-.3z"/><path id="st40n" d="M649.12 3117.38v34.04l-.47.24-.53.17-.53.06-.58.06-.53-.06-.53-.06-.52-.17-.47-.24v-34.04l.47.17.52.18.53.12H647.6l.53-.12.53-.18z"/><path id="st40o" d="M644.96 3117.38v34.04l-47.11-27.19v-34.1z"/><path id="st40p" d="M664.47 3128.63v34.1l-.35-.3-.3-.28-.11-.3-.06-.35v-34.04l.06.29.12.35.29.3z"/><path id="st40q" d="M683.87 3126.81v34.05l-.06.35-.18.3-.3.28-.34.3v-34.1l.35-.24.3-.3.17-.34z"/><path id="st40r" d="M728.93 3101.5v34.1l-53.68 30.94v-34.1z"/><path id="st40s" d="M643.38 3150.84c-3.46 1.99-7.97 2.98-12.49 2.98-4.5 0-9.02-1-12.48-2.98-34.86-20.16-19.57-11.37-54.49-31.53-3.46-1.99-5.16-4.63-5.16-7.2 0-2.58 1.7-5.22 5.16-7.21l31.64-18.23.18-.11.17-.12 43.13-24.84c3.46-2 7.97-3 12.48-3 4.51 0 9.02 1 12.48 3l29.18 16.87-9.84 5.63a4.72 4.72 0 0 1-4.16 0c-1.17-.65-1.17-1.76 0-2.4l5.62-3.29-24.96-14.41c-2.28-1.35-5.33-2-8.32-2s-6.03.65-8.32 2l-41.2 23.73 33.35 19.22 24.32-14.06a4.72 4.72 0 0 1 4.16 0c1.17.64 1.17 1.75 0 2.4l-24.32 14.06 9.67 5.57c1.17.64 1.17 1.76 0 2.4a4.72 4.72 0 0 1-4.16 0l-47.17-27.19-29.77 17.17c-2.28 1.35-3.46 3.05-3.46 4.8 0 1.76 1.18 3.46 3.46 4.81 44.42 25.66 19.34 11.2 54.5 31.52 2.28 1.35 5.33 2 8.32 2 2.98 0 6.03-.65 8.32-2 13.82-8.02 15.93-9.2 29.76-17.22l-4.51-2.64c-1.17-.64-1.17-1.76 0-2.4a4.72 4.72 0 0 1 4.16 0l4.51 2.63 51.57-29.76a4.72 4.72 0 0 1 4.16 0c1.17.64 1.17 1.76 0 2.4l-53.62 31z"/><path id="st40t" d="M630.9 3153.82v34.1l-1.7-.05-1.7-.12-1.64-.23-1.64-.35-1.59-.41-1.52-.53-1.4-.59-1.35-.7c-45.94-26.54-8.56-4.98-54.5-31.53l-1.23-.76-1-.88-.87-.88-.7-.87-.6-.94-.4-.94-.24-1-.06-1v-34.04l.06 1 .24 1 .4.93.6.94.7.88.88.88 1.05.82 1.23.76c45.94 26.55 8.56 4.98 54.5 31.53l1.34.7 1.4.59 1.53.52 1.58.41 1.64.35 1.65.24 1.7.12z"/><path id="st40u" d="M566.32 3145.33l3.28-1.88 14.54 8.38v3.81z"/><path id="st40v" d="M569.49 3128.1l.11 15.35 14.54 8.38v-15.3z"/><path id="st40w" d="M569.6 3128.16v15.3l-3.28 1.87v-19.1z"/><path id="st40x" d="M634.59 3094.4l-3.34-1.92-10.5 6.09 3.29 1.87z"/><path id="st40y" d="M631.25 3077.18v15.3l3.34 1.93v-19.1z"/><path id="st40z" d="M679.18 3164.37c-45.77 26.43 10.02-5.8-35.75 20.57l-1.34.7-1.41.59-1.52.53-1.59.4-1.64.36-1.64.23-1.7.12-1.7.06v-34.1l1.7-.06 1.7-.12 1.64-.24 1.64-.35 1.59-.4 1.52-.53 1.4-.59 1.35-.7c45.77-26.43-10.02 5.8 35.75-20.57z"/><path id="st40A" d="M728.87 3099.1l-6.62-3.81a4.72 4.72 0 0 0-4.17 0c-1.17.64-1.17 1.76 0 2.4l6.63 3.8zm-43.9-20.51l13.6 7.85c1.17.64 3 .64 4.16 0 1.14-.62 1.17-1.69.1-2.34l-17.85-10.32zm17.76 5.45l.1.06c4.43 2.55-6.46-3.75-.1-.06z"/><path id="st40B" d="M729.75 3100.33v34.04l-.06.35-.12.3-.3.29-.4.3v-34.11l.4-.3.3-.29.12-.29z"/><path id="st40C" d="M596.03 3162.5l3.28-1.88 14.53 8.38v3.81z"/><path id="st40D" d="M599.2 3145.21l.11 15.41 14.53 8.38v-15.3z"/><path id="st40E" d="M599.31 3145.27v15.3l-3.28 1.93v-19.1z"/></defs><g><g transform="translate(-558 -3058)"><g><use fill="#bfc7c9" xlink:href="#st40a"/></g><g><use fill="#415a73" xlink:href="#st40b"/></g><g><use fill="#415a73" xlink:href="#st40c"/></g><g><use fill="#415a73" xlink:href="#st40d"/></g><g><use fill="#415a73" xlink:href="#st40e"/></g><g><use fill="#415a73" xlink:href="#st40f"/></g><g><use fill="#4f6d8c" xlink:href="#st40g"/></g><g><use fill="#475459" xlink:href="#st40h"/></g><g><use fill="#4f6d8c" xlink:href="#st40i"/></g><g><use fill="#4f6d8c" xlink:href="#st40j"/></g><g><use fill="#4f6d8c" xlink:href="#st40k"/></g><g><use fill="#4f6d8c" xlink:href="#st40l"/></g><g><use fill="#415a73" xlink:href="#st40m"/></g><g><use fill="#415a73" xlink:href="#st40n"/></g><g><use fill="#415a73" xlink:href="#st40o"/></g><g><use fill="#415a73" xlink:href="#st40p"/></g><g><use fill="#4f6d8c" xlink:href="#st40q"/></g><g><use fill="#4f6d8c" xlink:href="#st40r"/></g><g><use fill="#2c3e50" xlink:href="#st40s"/></g><g><use fill="#415a73" xlink:href="#st40t"/></g><g><use fill="#2c3e50" xlink:href="#st40u"/></g><g><use fill="#bfc7c9" xlink:href="#st40v"/></g><g><use fill="#4f6d8c" xlink:href="#st40w"/></g><g><use fill="#2c3e50" xlink:href="#st40x"/></g><g><use fill="#415a73" xlink:href="#st40y"/></g><g><use fill="#4f6d8c" xlink:href="#st40z"/></g><g><use fill="#2c3e50" xlink:href="#st40A"/></g><g><use fill="#415a73" xlink:href="#st40B"/></g><g><use fill="#2c3e50" xlink:href="#st40C"/></g><g><use fill="#bfc7c9" xlink:href="#st40D"/></g><g><use fill="#4f6d8c" xlink:href="#st40E"/></g></g></g></svg>