<svg xmlns="http://www.w3.org/2000/svg" xmlns:xlink="http://www.w3.org/1999/xlink" width="202" height="233" viewBox="0 0 202 233"><defs><path id="gs7fa" d="M329.26 1370.56c0-11.52 16.34-20.85 36.5-20.85 20.15 0 36.48 9.33 36.48 20.85 0 11.51-16.33 20.85-36.49 20.85-20.15 0-36.49-9.34-36.49-20.85z"/><path id="gs7fb" d="M386.6 1357.52c11.73 6.52 11.73 16.95 0 23.46-11.72 6.52-29.97 6.52-41.7 0-11.73-6.51-11.73-16.94 0-23.46 11.73-6.51 29.98-6.51 41.7 0z"/><path id="gs7fc" d="M381.4 1361.43c9.12 5.22 9.12 13.04 0 18.25-9.13 5.21-22.16 5.21-31.29 0-9.12-5.21-9.12-13.03 0-18.25 7.82-5.2 22.16-5.2 31.28 0z"/><path id="gs7fd" d="M376.18 1364.04c5.21 2.6 5.21 9.12 0 11.73-5.21 2.6-14.34 2.6-20.85 0-5.22-2.6-5.22-9.12 0-11.73 5.21-2.6 14.33-2.6 20.85 0z"/><path id="gs7fe" d="M300.6 1338.43l-35.2-20.85 75.6-43.01 33.88 19.55z"/><path id="gs7ff" d="M342.3 1218.53V1301.93H341v1.31l-1.31 1.3h-1.3v1.3h-3.91v1.31h-5.21l-1.31-1.3h-3.91v-1.3h-1.3v-1.31h-1.3v-1.3l-1.31-1.3v-82.11l1.3 1.3v1.3h1.3v1.3h1.31v1.31H329.26v1.3h3.91v-1.3h5.21v-1.3h1.3v-1.3H341v-1.3h1.3z"/><path id="gs7fg" d="M324.05 1214.62c3.9-2.6 10.43-2.6 14.34 0 3.9 2.6 3.9 6.52 0 9.12-3.91 1.3-10.43 1.3-14.34-1.3s-3.91-6.52 0-7.82z"/><path id="gs7fh" d="M325.35 1215.92c2.6-1.3 7.82-1.3 10.43 0 2.6 1.3 2.6 3.91 0 6.52-2.6 1.3-7.82 1.3-10.43 0-2.6-2.6-2.6-5.21 0-6.52z"/><path id="gs7fi" d="M342.3 1226.35v7.82H341v2.6h-1.31l-1.3 1.3H335.78v1.31H326.66v-1.3H324.05v-1.3h-1.3l-1.3-1.3v-1.31h-1.31v-7.82h1.3v1.3l1.3 1.3h1.31v1.3H327.95v1.31H334.48l1.3-1.3H338.39v-1.3H341V1226.34z"/><path id="gs7fj" d="M324.05 1222.44V1305.84H327.95l1.31 1.31v-83.4H324.05v-1.31z"/><path id="gs7fk" d="M341 1303.24v-82.1h-1.31v1.3h-1.3v1.3H335.78v82.1h2.6v-1.3h1.3z"/><path id="gs7fl" d="M341 1236.77v-7.82H338.38v1.3H335.78v9.13-1.3h2.6l1.3-1.3z"/><path id="gs7fm" d="M324.05 1228.95v9.13h2.6v1.3H329.27v-7.82h-1.3v-1.3h-3.91z"/><path id="gs7fn" d="M377.48 1328l-50.82-28.67v-9.12l50.82 28.67z"/><path id="gs7fo" d="M377.48 1328v-9.12l88.62-52.13v10.42z"/><path id="gs7fp" d="M416.58 1240.68l45.61 26.07-3.9 2.6-41.71-24.76z"/><path id="gs7fq" d="M334.48 1291.51l-3.91-1.3 86.01-49.53v3.91z"/><path id="gs7fr" d="M377.48 1316.27l-43-24.76 82.1-46.92 41.7 24.77z"/><path id="gs7fs" d="M377.48 1316.27l84.71-49.52-46.91-27.37-84.71 50.83zm0 2.6l-50.82-28.66 89.92-52.13 49.52 28.67z"/><path id="gs7ft" d="M416.58 1265.45l-7.82-3.91v-6.52l7.82 3.9z"/><path id="gs7fu" d="M416.58 1258.93l-7.82-3.91 7.82-5.21 9.12 5.21z"/><path id="gs7fv" d="M416.58 1258.93l9.12-3.91v6.52l-9.12 3.9z"/><path id="gs7fw" d="M377.48 1341.03l-50.82-29.97h2.6l48.22 27.37 87.32-50.83 1.3 1.3z"/><path id="gs7fx" d="M377.48 1338.43l-48.22-27.37v-10.43l48.22 27.37z"/><path id="gs7fy" d="M377.48 1338.43V1328l87.32-49.52v9.12z"/><path id="gs7fz" d="M377.48 1374.92l-50.82-28.67v-35.2l50.82 29.98z"/><path id="gs7fA" d="M377.48 1374.92v-33.89l88.62-52.13v35.2z"/><path id="gs7fB" d="M399.64 1275.87l-7.82-5.21v-6.52l7.82 5.22z"/><path id="gs7fC" d="M399.64 1269.36l-7.82-5.22 7.82-5.21 9.12 5.21z"/><path id="gs7fD" d="M399.64 1269.36l9.12-5.22v6.52l-9.12 5.21z"/><path id="gs7fE" d="M442.64 1317.58l18.25-10.43V1328l-18.25 10.43z"/><path id="gs7fF" d="M441.34 1317.58l19.55-11.73v1.3l-18.25 10.43z"/><path id="gs7fG" d="M441.34 1317.58h1.3v20.85h-1.3z"/><path id="gs7fH" d="M442.64 1318.88l18.25-10.43V1328l-18.25 10.43z"/><path id="gs7fI" d="M443.95 1318.88l16.94-10.43V1328l-16.94 9.12z"/><path id="gs7fJ" d="M451.77 1313.67v19.54z"/><path id="gs7fK" d="M459.59 1313.67v1.3l-6.52 3.9v-1.3z"/><path id="gs7fL" d="M453.07 1317.58l6.52-3.91v1.3l-6.52 3.9z"/><path id="gs7fM" d="M459.59 1311.06l-6.52 3.9z"/><path id="gs7fN" d="M453.07 1314.97l6.52-3.91z"/><path id="gs7fO" d="M459.59 1320.18l-6.52 3.91z"/><path id="gs7fP" d="M453.07 1324.1l6.52-3.92z"/><path id="gs7fQ" d="M459.59 1316.27v1.3l-6.52 3.92v-1.3z"/><path id="gs7fR" d="M453.07 1321.49l6.52-3.91z"/><path id="gs7fS" d="M459.59 1326.7l-6.52 3.9z"/><path id="gs7fT" d="M453.07 1330.6l6.52-3.9z"/><path id="gs7fU" d="M459.59 1322.79v1.3l-6.52 3.91v-1.3z"/><path id="gs7fV" d="M453.07 1326.7l6.52-2.6-6.52 3.9z"/><path id="gs7fW" d="M451.77 1318.88l-7.82 3.9z"/><path id="gs7fX" d="M443.95 1322.79l6.51-3.91h1.3z"/><path id="gs7fY" d="M451.77 1316.27l-7.82 3.91z"/><path id="gs7fZ" d="M443.95 1320.18l6.51-3.9h1.3z"/><path id="gs7faa" d="M451.77 1325.4l-7.82 3.9z"/><path id="gs7fab" d="M443.95 1329.3l6.51-3.9h1.3z"/><path id="gs7fac" d="M451.77 1321.49v1.3l-7.82 3.9v-1.3z"/><path id="gs7fad" d="M443.95 1325.4l6.51-2.61h1.3l-7.81 3.9z"/><path id="gs7fae" d="M451.77 1330.6v1.31l-7.82 3.91v-1.3z"/><path id="gs7faf" d="M443.95 1335.82l6.51-3.9h1.3z"/><path id="gs7fag" d="M451.77 1328l-7.82 3.91z"/><path id="gs7fah" d="M443.95 1331.91l6.51-3.9h1.3z"/><path id="gs7fai" d="M451.77 1313.67v18.24z"/><path id="gs7faj" d="M450.46 1325.4V1322.79z"/><path id="gs7fak" d="M450.46 1322.79l2.61-1.3z"/><path id="gs7fal" d="M450.46 1322.79l2.61-1.3v2.6l-2.6 1.3z"/><path id="gs7fam" d="M314.93 1371l-49.53-28.66v-24.76l50.83 29.97z"/><path id="gs7fan" d="M314.93 1371l1.3-23.45 26.06-15.64v23.46z"/><path id="gs7fao" d="M316.23 1347.55l-23.46-14.34 26.07-15.63 23.46 14.33z"/><path id="gs7fap" d="M415.28 1333.21l19.55-10.42v20.85l-19.55 10.43z"/><path id="gs7faq" d="M413.97 1333.21l19.55-11.72 1.3 1.3-19.54 10.42z"/><path id="gs7far" d="M413.97 1333.21h1.3v20.86h-1.3z"/><path id="gs7fas" d="M416.58 1333.21l16.94-9.12v19.55l-16.94 10.43z"/><path id="gs7fat" d="M416.58 1334.52l16.94-10.43v19.55l-16.94 9.12z"/><path id="gs7fau" d="M424.4 1329.3l1.3-1.3v19.55l-1.3 1.3z"/><path id="gs7fav" d="M433.52 1329.3l-7.82 5.22v-1.3z"/><path id="gs7faw" d="M425.7 1333.21l6.52-3.9h1.3l-7.82 5.2z"/><path id="gs7fax" d="M433.52 1326.7l-7.82 3.9z"/><path id="gs7fay" d="M425.7 1330.6l6.52-3.9h1.3z"/><path id="gs7faz" d="M433.52 1335.82l-7.82 3.91z"/><path id="gs7faA" d="M425.7 1339.73l6.52-3.9h1.3z"/><path id="gs7faB" d="M433.52 1331.91v1.3l-7.82 3.91v-1.3z"/><path id="gs7faC" d="M425.7 1337.12l6.52-3.9h1.3z"/><path id="gs7faD" d="M433.52 1342.34l-7.82 3.9z"/><path id="gs7faE" d="M425.7 1346.25l6.52-3.91h1.3z"/><path id="gs7faF" d="M433.52 1338.43v1.3l-7.82 3.91v-1.3z"/><path id="gs7faG" d="M425.7 1342.34l6.52-3.91 1.3 1.3-7.82 3.91z"/><path id="gs7faH" d="M424.4 1334.52l-6.52 3.9z"/><path id="gs7faI" d="M417.88 1338.43l6.52-3.91z"/><path id="gs7faJ" d="M424.4 1330.6v1.31l-6.52 3.91z"/><path id="gs7faK" d="M417.88 1335.82l6.52-3.9z"/><path id="gs7faL" d="M424.4 1341.03l-6.52 3.91z"/><path id="gs7faM" d="M417.88 1344.94l6.52-3.9z"/><path id="gs7faN" d="M424.4 1337.12v1.3l-6.52 3.92v-1.3z"/><path id="gs7faO" d="M417.88 1341.03l6.52-2.6-6.52 3.9z"/><path id="gs7faP" d="M424.4 1346.25v1.3l-6.52 3.91v-1.3z"/><path id="gs7faQ" d="M417.88 1351.46l6.52-3.91z"/><path id="gs7faR" d="M424.4 1343.64l-6.52 3.91z"/><path id="gs7faS" d="M417.88 1347.55l6.52-3.91z"/><path id="gs7faT" d="M424.4 1329.3h1.3v18.25h-1.3z"/><path id="gs7faU" d="M424.4 1339.73v-1.3z"/><path id="gs7faV" d="M424.4 1338.43l1.3-1.3z"/><path id="gs7faW" d="M424.4 1338.43l1.3-1.3v2.6h-1.3z"/><path id="gs7faX" d="M308.41 1238.08V1321.48h-1.3v1.3h-1.3v1.31H303.2v1.3H291.47v-1.3h-2.6v-1.3h-1.31v-84.71 2.6h1.3v1.3h2.6v1.31H303.2v-1.3H305.8v-1.3h1.3v-1.3h1.31z"/><path id="gs7faY" d="M290.17 1232.86c3.9-2.6 10.42-2.6 15.63 0 3.91 2.61 3.91 6.52 0 9.13-3.9 2.6-10.42 2.6-15.63 0-3.91-2.6-3.91-6.52 0-9.13z"/><path id="gs7faZ" d="M292.77 1234.17c2.6-1.3 7.82-1.3 10.43 0 2.6 2.6 2.6 5.21 0 6.51-2.6 1.3-7.82 1.3-10.43 0-3.9-1.3-3.9-3.9 0-6.51z"/><path id="gs7fba" d="M308.41 1244.6v9.12h-1.3v1.3l-1.3 1.3h-1.3v1.3h-3.91v1.31H294.07v-1.3h-3.91v-1.3h-1.3v-1.31h-1.31V1244.59 1247.2h1.3v1.3h1.3l1.3 1.3h3.91v1.31h3.91l1.31-1.3h3.91v-1.3h1.3v-1.31h1.3v-1.3h1.31z"/><path id="gs7fbb" d="M339.69 1178.13h1.3v-1.3h2.6v-1.3l1.31-1.31v-1.3l1.3-2.61 1.3-1.3v-1.3l1.31-1.31 1.3-1.3h1.3l1.31-1.3v-1.31h2.6v-1.3H357.94v-1.3h6.52l1.3 1.3 3.91 2.6-1.3-1.3h-5.21l-1.3 1.3H359.23l-1.3 1.3-1.3 1.3h-1.31l-1.3 1.31v1.3l-1.3 1.3-1.31 1.31-1.3 1.3v2.61l-1.3 1.3v1.3h-1.31v1.31h-2.6v1.3h-1.31v1.3h-1.3v1.31H341v1.3h-1.31v1.3h-2.6l-1.31 1.31h-1.3v1.3h-1.3l-1.31 1.3-1.3 1.31v1.3h-1.3v1.3l-1.31 1.31v1.3l-1.3 1.3v1.31l-1.3 1.3v9.12l-3.92-2.6-1.3-1.3v-5.21l1.3-1.31v-2.6l1.3-1.31v-1.3l1.31-1.3v-1.3l1.3-1.31 1.3-1.3v-1.3h1.3l1.31-1.31 1.3-1.3h1.3v-1.3h3.91v-1.31l1.31-1.3 1.3-1.3z"/><path id="gs7fbc" d="M343.6 1180.73c1.3-1.3 2.6-1.3 5.21-2.6 1.3-5.21 5.21-9.12 7.82-11.73 1.3-1.3 3.91-2.6 6.52-3.91 2.6-1.3 3.9 0 6.51 0 2.61 1.3 3.91 5.21 3.91 10.43 0 1.3 0 3.9-1.3 6.51 0 2.6-1.3 3.91-2.6 6.52l-1.31 1.3-1.3 1.3-39.1 22.16h-2.6s-1.31 0-1.31-1.3V1206.8c0-1.3 0-3.91 1.3-6.52l3.91-7.82c2.6-2.6 5.22-5.2 6.52-5.2 1.3-1.31 2.6-1.31 3.9-1.31 1.31-2.6 2.61-3.91 3.92-5.22z"/><path id="gs7fbd" d="M290.17 1241.99v82.1h1.3v1.3H295.37v-82.1H291.48v-1.3h-1.3z"/><path id="gs7fbe" d="M307.1 1322.79v-82.1h-1.3v1.3h-2.6v1.3h-1.3v82.1h1.3v-1.3h2.6v-1.3z"/><path id="gs7fbf" d="M307.1 1255.02v-7.82h-1.3v1.3h-1.3v1.3h-2.6v7.83h2.6v-1.3h1.3z"/><path id="gs7fbg" d="M290.17 1248.5V1257.62H294.07v1.3h1.3v-9.11H291.48z"/></defs><g><g opacity=".04" transform="translate(-265 -1159)"><use fill="#2b374d" xlink:href="#gs7fa"/></g><g opacity=".04" transform="translate(-265 -1159)"><use fill="#2f3c54" xlink:href="#gs7fb"/></g><g opacity=".04" transform="translate(-265 -1159)"><use fill="#34415c" xlink:href="#gs7fc"/></g><g opacity=".05" transform="translate(-265 -1159)"><use fill="#384763" xlink:href="#gs7fd"/></g><g transform="translate(-265 -1159)"><g><use fill="#c5ccd1" xlink:href="#gs7fe"/></g><g><use fill="#d1d9de" xlink:href="#gs7ff"/></g><g><use fill="#c5ccd1" xlink:href="#gs7fg"/></g><g><use fill="#676f70" xlink:href="#gs7fh"/></g><g><use fill="#f25e4b" xlink:href="#gs7fi"/></g><g><use fill="#c0cbcc" xlink:href="#gs7fj"/></g><g><use fill="#e6eaeb" xlink:href="#gs7fk"/></g><g><use fill="#f57e6e" xlink:href="#gs7fl"/></g><g><use fill="#cf5444" xlink:href="#gs7fm"/></g><g><use fill="#9c9c9c" xlink:href="#gs7fn"/></g><g><use fill="#e6eaeb" xlink:href="#gs7fo"/></g><g><use fill="#9c9c9c" xlink:href="#gs7fp"/></g><g><use fill="#e6eaeb" xlink:href="#gs7fq"/></g><g><use fill="#676f70" xlink:href="#gs7fr"/></g><g><use fill="#c5ccd1" xlink:href="#gs7fs"/></g><g><use fill="#9c9c9c" xlink:href="#gs7ft"/></g><g><use fill="#c5ccd1" xlink:href="#gs7fu"/></g><g><use fill="#e6eaeb" xlink:href="#gs7fv"/></g><g><use fill="#c5ccd1" xlink:href="#gs7fw"/></g><g><use fill="#2c3e50" xlink:href="#gs7fx"/></g><g><use fill="#3d566e" xlink:href="#gs7fy"/></g><g><use fill="#9c9c9c" xlink:href="#gs7fz"/></g><g><use fill="#e6eaeb" xlink:href="#gs7fA"/></g><g><use fill="#9c9c9c" xlink:href="#gs7fB"/></g><g><use fill="#c5ccd1" xlink:href="#gs7fC"/></g><g><use fill="#e6eaeb" xlink:href="#gs7fD"/></g><g><use fill="#587796" xlink:href="#gs7fE"/></g><g><use fill="#2c3e50" xlink:href="#gs7fF"/></g><g><use fill="#3d566e" xlink:href="#gs7fG"/></g><g><use fill="#2c3e50" xlink:href="#gs7fH"/></g><g><use fill="#4b6680" xlink:href="#gs7fI"/></g><g><use fill="#2c3e50" xlink:href="#gs7fJ"/></g><g><use fill="#2c3e50" xlink:href="#gs7fK"/></g><g><use fill="#3d566e" xlink:href="#gs7fL"/></g><g><use fill="#2c3e50" xlink:href="#gs7fM"/></g><g><use fill="#3d566e" xlink:href="#gs7fN"/></g><g><use fill="#2c3e50" xlink:href="#gs7fO"/></g><g><use fill="#3d566e" xlink:href="#gs7fP"/></g><g><use fill="#2c3e50" xlink:href="#gs7fQ"/></g><g><use fill="#3d566e" xlink:href="#gs7fR"/></g><g><use fill="#2c3e50" xlink:href="#gs7fS"/></g><g><use fill="#3d566e" xlink:href="#gs7fT"/></g><g><use fill="#2c3e50" xlink:href="#gs7fU"/></g><g><use fill="#3d566e" xlink:href="#gs7fV"/></g><g><use fill="#2c3e50" xlink:href="#gs7fW"/></g><g><use fill="#3d566e" xlink:href="#gs7fX"/></g><g><use fill="#2c3e50" xlink:href="#gs7fY"/></g><g><use fill="#3d566e" xlink:href="#gs7fZ"/></g><g><use fill="#2c3e50" xlink:href="#gs7faa"/></g><g><use fill="#3d566e" xlink:href="#gs7fab"/></g><g><use fill="#2c3e50" xlink:href="#gs7fac"/></g><g><use fill="#3d566e" xlink:href="#gs7fad"/></g><g><use fill="#2c3e50" xlink:href="#gs7fae"/></g><g><use fill="#3d566e" xlink:href="#gs7faf"/></g><g><use fill="#2c3e50" xlink:href="#gs7fag"/></g><g><use fill="#3d566e" xlink:href="#gs7fah"/></g><g><use fill="#3d566e" xlink:href="#gs7fai"/></g><g><use fill="#9c9c9c" xlink:href="#gs7faj"/></g><g><use fill="#c5ccd1" xlink:href="#gs7fak"/></g><g><use fill="#e6eaeb" xlink:href="#gs7fal"/></g><g><use fill="#9c9c9c" xlink:href="#gs7fam"/></g><g><use fill="#e6eaeb" xlink:href="#gs7fan"/></g><g><use fill="#c5ccd1" xlink:href="#gs7fao"/></g><g><use fill="#587796" xlink:href="#gs7fap"/></g><g><use fill="#2c3e50" xlink:href="#gs7faq"/></g><g><use fill="#3d566e" xlink:href="#gs7far"/></g><g><use fill="#2c3e50" xlink:href="#gs7fas"/></g><g><use fill="#4b6680" xlink:href="#gs7fat"/></g><g><use fill="#2c3e50" xlink:href="#gs7fau"/></g><g><use fill="#2c3e50" xlink:href="#gs7fav"/></g><g><use fill="#3d566e" xlink:href="#gs7faw"/></g><g><use fill="#2c3e50" xlink:href="#gs7fax"/></g><g><use fill="#3d566e" xlink:href="#gs7fay"/></g><g><use fill="#2c3e50" xlink:href="#gs7faz"/></g><g><use fill="#3d566e" xlink:href="#gs7faA"/></g><g><use fill="#2c3e50" xlink:href="#gs7faB"/></g><g><use fill="#3d566e" xlink:href="#gs7faC"/></g><g><use fill="#2c3e50" xlink:href="#gs7faD"/></g><g><use fill="#3d566e" xlink:href="#gs7faE"/></g><g><use fill="#2c3e50" xlink:href="#gs7faF"/></g><g><use fill="#3d566e" xlink:href="#gs7faG"/></g><g><use fill="#2c3e50" xlink:href="#gs7faH"/></g><g><use fill="#3d566e" xlink:href="#gs7faI"/></g><g><use fill="#2c3e50" xlink:href="#gs7faJ"/></g><g><use fill="#3d566e" xlink:href="#gs7faK"/></g><g><use fill="#2c3e50" xlink:href="#gs7faL"/></g><g><use fill="#3d566e" xlink:href="#gs7faM"/></g><g><use fill="#2c3e50" xlink:href="#gs7faN"/></g><g><use fill="#3d566e" xlink:href="#gs7faO"/></g><g><use fill="#2c3e50" xlink:href="#gs7faP"/></g><g><use fill="#3d566e" xlink:href="#gs7faQ"/></g><g><use fill="#2c3e50" xlink:href="#gs7faR"/></g><g><use fill="#3d566e" xlink:href="#gs7faS"/></g><g><use fill="#3d566e" xlink:href="#gs7faT"/></g><g><use fill="#9c9c9c" xlink:href="#gs7faU"/></g><g><use fill="#c5ccd1" xlink:href="#gs7faV"/></g><g><use fill="#e6eaeb" xlink:href="#gs7faW"/></g><g><use fill="#d1d9de" xlink:href="#gs7faX"/></g><g><use fill="#c5ccd1" xlink:href="#gs7faY"/></g><g><use fill="#676f70" xlink:href="#gs7faZ"/></g><g><use fill="#f25e4b" xlink:href="#gs7fba"/></g><g><use fill="#c5ccd1" xlink:href="#gs7fbb"/></g><g><use fill="#e6eaeb" xlink:href="#gs7fbc"/></g><g><use fill="#c0cbcc" xlink:href="#gs7fbd"/></g><g><use fill="#e6eaeb" xlink:href="#gs7fbe"/></g><g><use fill="#f57e6e" xlink:href="#gs7fbf"/></g><g><use fill="#cf5444" xlink:href="#gs7fbg"/></g></g></g></svg>