<svg xmlns="http://www.w3.org/2000/svg" xmlns:xlink="http://www.w3.org/1999/xlink" width="199" height="225" viewBox="0 0 199 225"><defs><path id="azf9a" d="M321.7 551.63c0-11.65 16.33-21.1 36.48-21.1s36.5 9.45 36.5 21.1c0 11.66-16.35 21.1-36.5 21.1s-36.49-9.44-36.49-21.1z"/><path id="azf9b" d="M378.7 539.66c11.41 6.84 11.41 17.1 0 23.95-11.4 6.84-29.64 6.84-41.04 0-11.4-6.84-11.4-17.1 0-23.95 11.4-6.27 29.64-6.27 41.05 0z"/><path id="azf9c" d="M373.58 543.08c8.55 5.13 8.55 13.12 0 17.68-8.56 5.13-22.24 5.13-30.8 0-8.55-5.13-8.55-13.12 0-17.68 8.56-5.13 22.24-5.13 30.8 0z"/><path id="azf9d" d="M368.44 545.93c5.7 3.42 5.7 8.55 0 11.98-5.7 3.42-14.82 3.42-20.52 0-5.7-3.43-5.7-8.56 0-11.98s14.82-3.42 20.52 0z"/><path id="azf9e" d="M469.93 487.41l-88.37-51.31-107.2 62.15 88.38 51.31z"/><path id="azf9f" d="M362.74 549.56l-88.37-51.31v6.27l88.37 51.31z"/><path id="azf9g" d="M362.74 555.83l107.2-61.57v-6.85l-107.2 62.15z"/><path id="azf9h" d="M362.74 481.14L300.6 445.8v54.74l62.14 35.35z"/><path id="azf9i" d="M404.93 397.33L342.8 361.4l-51.32 89.51 62.15 35.92z"/><path id="azf9j" d="M447.13 487.41v-54.73l9.12-5.13-51.32-30.22-51.31 89.51 9.12-5.7v54.74z"/><path id="azf9k" d="M390.68 519.91l27.37-15.96v-52.46l-27.37 15.97z"/><path id="azf9l" d="M392.96 518.77l22.8-13.11v-49.03l-22.8 13.11z"/><path id="azf9m" d="M392.96 515.35l19.96-11.4v-45.61l-19.96 11.4z"/><path id="azf9n" d="M324.54 477.72l-10.83-6.27v-8.55l.2-.13 1.5.86v6.68l11.41 6.27v-6.38l1.14.68.57.33v25.9l10.84 6.27-1.71 1.14-10.84-6.27v-1.71l-2.28.57-10.83-6.27v-17.1l1.7-.58v17.1l11.41 6.28v-19.96zm-9.12-15.96v1.87l9.7 5.54 1.7 1.03v-.46l1.71-1.14v2.6l11.4 6.52v30.22l1.15-4v-30.2l-11.98-6.85-2.28 1.14-11.97-6.84-1.71 1.14.77.44z"/><path id="azf9o" d="M327.96 469.17v28.5s0 .58.57.58l10.84 6.27h.57v-28.5s0-.58-.57-.58l-11.4-6.27c.56 0 0 0 0 0z"/><path id="azf9p" d="M326.25 496.54v-17.1s0-.58-.57-.58l-10.83-6.27h-.57v17.1s0 .58.57.58l11.4 6.27c0 .57 0 .57 0 0z"/><path id="azf9q" d="M326.25 476.58v-8.55s0-.57-.57-.57l-10.83-6.27h-.57v8.55s0 .57.57.57l11.4 6.27c0 .57 0 .57 0 0z"/><path id="azf9r" d="M326.82 470.31c0-.57.57-.57 0 0l11.4 6.27c.58 0 .58.57.58.57v28.51h-.57l-10.84-6.27c-.57 0-.57-.57-.57-.57zm-1.7 26.8c0 .57 0 .57 0 0l-11.41-5.7c-.57 0-.57-.57-.57-.57v-17.1h.57l10.83 5.7c.57 0 .57.56.57.56zm-11.41-25.66c-.57 0-.57-.57-.57-.57v-8.55h.57l10.83 6.27c.57 0 .57.57.57.57v8.55zm10.83-5.7l-11.97-6.84h-1.14c-.57.57-.57.57-.57 1.14v30.22s.57.57.57 1.14c.57.57.57 1.14 1.14 1.14l11.97 6.84 2.85 1.7 11.98 6.85h1.14c.57-.57.57-.57.57-1.14v-30.22s-.57-.57-.57-1.14c-.57-.57-.57-1.14-1.14-1.14l-11.98-6.84z"/><path id="azf9s" d="M408.93 400.75l-71.84-41.62 53.6 31.36 71.83 41.62z"/><path id="azf9t" d="M408.93 389.92l-71.84-41.62-62.72 108.9 71.84 41.62z"/><path id="azf9u" d="M462.52 432.1l9.7-5.7-63.3-36.48-62.71 108.9 9.7-5.13 53.02-92.94z"/></defs><g><g opacity=".04" transform="translate(-274 -348)"><use fill="#2b374d" xlink:href="#azf9a"/></g><g opacity=".04" transform="translate(-274 -348)"><use fill="#2f3c54" xlink:href="#azf9b"/></g><g opacity=".04" transform="translate(-274 -348)"><use fill="#34415c" xlink:href="#azf9c"/></g><g opacity=".05" transform="translate(-274 -348)"><use fill="#384763" xlink:href="#azf9d"/></g><g transform="translate(-274 -348)"><g><use fill="#2c3e50" xlink:href="#azf9e"/></g><g><use fill="#2c3e50" xlink:href="#azf9f"/></g><g><use fill="#3d566e" xlink:href="#azf9g"/></g><g><g><use fill="#cfd1d1" xlink:href="#azf9h"/></g><g><use fill="#cfd1d1" xlink:href="#azf9i"/></g></g><g><use fill="#e6eaeb" xlink:href="#azf9j"/></g><g><use fill="#999" xlink:href="#azf9k"/></g><g><use fill="#666565" xlink:href="#azf9l"/></g><g><use fill="#fac13c" xlink:href="#azf9m"/></g><g><g><use fill="#d19917" xlink:href="#azf9n"/></g><g><use fill="#2192fc" xlink:href="#azf9o"/></g><g><use fill="#2192fc" xlink:href="#azf9p"/></g><g><use fill="#2192fc" xlink:href="#azf9q"/></g><g><use fill="#fac13c" xlink:href="#azf9r"/></g></g><g><g><use fill="#d14232" xlink:href="#azf9s"/></g><g><use fill="#e74c3c" xlink:href="#azf9t"/></g></g><g><use fill="#c0392b" xlink:href="#azf9u"/></g></g></g></svg>