<svg xmlns="http://www.w3.org/2000/svg" xmlns:xlink="http://www.w3.org/1999/xlink" width="335" height="53" viewBox="0 0 335 53"><defs><path id="qwfra" d="M251.03 83.23c-.4 0-.6.2-.79.2.4.78.6 1.76.6 2.16 0 .39 0 1.96-.2 2.94a31.97 31.97 0 0 1-1.97 5.7l-1.57 4.51c.2-.2.4-.2.59 0 0-.4.4-.59.79-.78 2.55-1.77 4.9-2.75 7.46-5.3v-.8c1.76-1.76 3.53-3.72 3.92-5.3-1.76-1.76-5.89-3.33-8.83-3.33zm19.24 39.86s-.4.4-.78.4h-1.18c-.4 0-1.77-.4-2.75-.6-.4 0-.98 0-1.18-.2-4.52-1.95-9.62-5.69-14.14-10.4-1.18-1.37-3.73-3.14-5.7-4.71-.19 0-.19.2-.38.4-.4 2.35-.99 4.5-1.18 6.86-.2.4-.2.79-.4 1.18v1.38c0 .78-.39 1.57-.58 2.16-.2 1.18.39 2.55 0 3.73-.4.4-.79.4-1.18.4-.2 0-.6-.2-.98-.6-.2-.2-.99-.4-1.18-.98-.4-.98-.79-2.55-.79-2.95 0-6.28 2.75-17.67 3.73-22.38.4-1.57 2.36-6.68 3.54-10.02-.79-.2-1.57-.2-2.36-.78-.59-.4-.4-1.38-1.18-1.57 0 0 0-.2-.2-.2 0-.2.2-.4.2-.59.2-.4.2-.78.2-1.18.59-.39.98-.98 1.57-1.57.4-.39 1.18-.59 1.57-.59.2 0 .2-.39.59-.39 1.37-.2 4.12-.59 4.52-.59 2.94 0 10.01 2.75 11.58 4.52 0 .2.2.4.2.59a7.1 7.1 0 0 1 2.35 3.73c0 .2.4.78.4 1.18 0 .39-.2.98-.4 1.37-.2.79-.58 1.96-1.17 2.75l-1.38 1.37-.4.79-1.56 1.57c-1.18.98-2.95 2.55-4.32 3.54-1.18.78-2.55 1.76-3.93 2.55-.59.4-1.77.59-2.55 1.18-.2.2-.4.39-.79.59 4.13 3.92 9.62 10.4 15.32 12.76 2.16.98 5.3 2.36 7.07 3.53.2.2.4.99.4 1.38-.2.2-.6.2-.6.4z"/><path id="qwfrc" d="M299.73 96.97c-.2.99-.99 2.16-.79 2.95-.59 2.16-.78 3.73-1.18 5.5-.39 2.16-1.18 6.28-1.18 6.48v3.73c0 .4-.39 0-.39.4 0 1.17.6 2.54.98 3.33a8.1 8.1 0 0 0 2.16 1.38c0 .39.4.78.79 1.17-.2.4-.2 1.18-.59 1.18h-.59s0 .2.2.4c-.2 0-.4.39-.79.39-.4 0-.2-.2-.59-.2-.2 0-.59-.2-1.18-.59a6.85 6.85 0 0 1-1.76-1.18l-1.38-1.37c-.2 0-.39-.4-.59-.2v-.2s0-.19.2-.19c-.79-.79-.98-2.36-1.37-3.93v-.39c0-.4-.4-.98-.4-1.38v-9.42c0-.2 0-.2-.2-.4-4.51 6.1-9.42 15.13-15.9 18.27h-.4c-.78.59-3.13.4-3.92.4-.98 0-1.96-1.78-2.55-1.78-.4 0 0 .2-.2.2s-.59-.4-.98-.78c-.4-.6-.79-1.18-.98-1.58-.2-.39-.4-.59-.4-.98 0-.2 0-.78-.2-1.18-.19-.2-.19-.59-.38-.78v-.98c0-.2.2-3.15.39-4.72 0-.39.4-1.17.4-1.96v-.4l3.33-10.8 4.52-10.8c.78-.39.78-1.37 1.17-2.15.2-.2.6-.6.79-.98.2-.4 0-.99.2-1.58h.39c.4 0 .2.2.4.2.38 0 .38-.4.78-.4.39 0 0 .2.39.2.4 0 .2-.2.59-.2 1.18 0 1.57 1.19 1.57 1.78 0 1.17-1.77 7.06-1.96 6.67 0 .2.2.4 0 .6-.99 2.54-1.97 5.3-2.95 7.65-.2.4-.2 1.37-.4 1.96l-1.96 5.3-.2 1.38c-.38 1.18-1.17 2.94-1.76 4.32-.4 1.96-.59 5.7-.59 5.89 0 .59-.2 1.37.79 1.37.98 0 2.75-1.17 3.53-2.16h.4c2.15-2.55 5.1-5.3 7.06-8.64.99-1.57 2.16-2.94 3.34-4.51 0 0 0-.4.2-.6a28.06 28.06 0 0 0 2.75-3.92c.78-1.37 2.16-4.71 3.14-5.1-.2-.99 1.18-2.36 1.77-3.15.39-.78 1.37-3.14 1.96-4.9.4-.6.59-1.38 1.18-2.16.2.2.4-.2.78-.2.4 0 0 .4.2.4.4 0 .2-.2.2-.2.39.2.98 0 1.37 0 .4 0 1.77 1.76 2.36 2.55v1.18c.59 2.35-1.18 7.46-1.57 9.81z"/><path id="qwfre" d="M332.13 80.09l-.4.39h.2l.2-.4zm-.6 1.18l-.19.78h.2l.2-.78zm-26.1 22.58c0 .39-.4 1.18-.6 1.76.2-.78.4-1.37.4-2.16 0 .2.2 0 .2.4zm-.8 2.16c-.19.59-.39 1.57-.58 2.35.2-.78.2-1.76.59-2.35zm-1.96 7.07h-.2l.4-.6zm-.78 1.96c0-.2.2-.79.39-1.18v.98zm0 .98l-.2-.2.4-.19zm34.56-30.83c.78-1.76 2.55-4.9 2.55-4.9 0-.8-.98-.6-.98-1.77-.4 0-.6-.2-.79-.4 0-.39 0-.59-.2-.98 0 .2-.19.4-.39.4-.39-.8-.78-.4-1.17-.6l-.2.07c.06.02.13.07.2.13 0 .2 0 .2-.2.4-.79-.2-1.38 0-2.16-.2.2.2.4.4.4.78 0 .2 0 .4-.2.6-.2 0-.2-.2-.2-.4-.2.2-.4.4-.4.59 0-.2.2-.4.4-.2a35.4 35.4 0 0 0-1.57 4.13c-.79.59-.98 2.75-1.57 3.73.2.98-.6 1.18-.98 2.55l-3.34 14.14c-.6 1.57-.98 3.53-1.38 5.5-.2-.79 0-1.57.2-2.16-.4.59-.2 1.37-.79 1.76-.2-.39-.59-.59-.59-.78-.98-3.54-2.16-8.05-3.14-11.4-.59-2.54-1.57-5.3-2.35-7.85-.2-.2-.2-.78-.2-.98-.2-.98-.98-1.76-.79-2.55.2-.98.4-1.77.4-2.75v-1.18a4 4 0 0 0-1.18-1.37c-.59-.2-.98-.2-1.38-.2-.39-.2-.58-.4-.98-.4-.39 0-.59.2-.98.6l-.59-.2c-.59.6-1.37.98-1.96 2.55v1.18c.2.4 0 .79 0 1.18l-1.77 6.09c-.78 3.34-1.77 6.67-2.55 9.82v.98c-1.38 4.12-2.55 8.44-3.73 12.57-.2.98-.2 1.96-.4 2.74-.2.6-.58 1.77-.58 2.17 0 .2.39 1.37.39 1.76 0 0 0 .2-.2.4.59.98 1.18 1.96 1.57 2.74.4-.2.2-.2.4-.2.39 0 .58.4.98.4.39 0 .78-.2 1.18-.2.39 0 .39-.2.58-.58 0 .2.2.2.4 0-.6-.2-.4-1.58-.4-1.97-.2-1.57.79-3.53 1.38-6.09 0-.2.2-.39.4-.59 0-.98.19-1.37.38-2.16.2-.2.4-.2.4-.39.59-1.57.98-3.34 1.57-4.9.2-.2.59-.6.59-.8.98-3.13 1.96-7.06 2.75-10.4h.2c.19 0 .39.2.39.4.78 2.74 1.57 5.5 2.35 8.04.4 1.77 1.38 3.93 1.97 5.7-.2.2-.2.4 0 .59 0 0 .2.2.2.39v.4c.19.78.58 2.35.97 2.74l-.2.2c.6 1.57 1.38 4.12 1.77 5.3.2.59.79 1.38 1.18 1.77.79.78 1.77 1.77 2.75 2.35.4.2.79.4.98.4h1.57c.4 0 .99-.4 1.38-.79.2-3.93.59-6.48.98-9.82-.2-.2-.2-.39-.2-.39.2-.79.4-1.37.4-2.16h-.2c.2-.2.2 0 .4-.2.39-1.57.78-3.53.98-4.9-.2-.2-.2-.4-.2-.4.2-.98.59-2.16.59-2.55 0-.59.4-2.16.78-2.95 0-1.17.2-2.35.6-3.33.19-.4.39-.6.39-.79 0-1.57 1.17-4.12 1.57-5.5.2-.4.2-.98.39-1.37.2-1.18.78-2.56 1.18-3.54zm-1.57-8.05l.39-.13c-.13-.04-.26 0-.4.13z"/><path id="qwfrg" d="M54.47 123.48V87.35H39.54v36.13h-10.4V87.35H14.2v36.13H4V88.92c0-1.57.2-2.94.4-3.92.19-.99.78-1.97 1.37-2.75.59-.79 1.57-1.18 2.75-1.57a13.5 13.5 0 0 1 4.32-.6h43.2c3.34 0 5.7.6 6.87 1.97 1.37 1.57 1.96 3.73 1.96 6.87v34.56z"/><path id="qwfrh" d="M117.3 101.1l16.1 22.38h-12.17l-15.12-21.8 17.67-21.6h11.2zm-22.38 22.38v-43.2h10.2v43.2z"/><path id="qwfri" d="M148.13 87.35v36.13h-10.4V88.92c0-2.94.58-5.1 1.96-6.67 1.37-1.38 3.53-2.16 6.87-2.16h18.46v7.26z"/><path id="qwfrj" d="M196.24 87.35h-17.28v28.87h17.28zm10.21 27.3c0 1.37-.2 2.55-.39 3.53-.2.98-.79 1.97-1.37 2.75a5.59 5.59 0 0 1-2.75 1.77c-1.18.4-2.56.59-4.32.78-1.77 0-3.54.2-5.1.2H181.5c-1.37 0-2.94-.2-4.51-.2-2.75 0-4.91-.58-6.29-1.76-1.37-1.18-2.16-3.34-2.16-6.48V89.12c0-2.75.6-5.1 1.77-6.48 1.18-1.57 3.54-2.36 6.87-2.36h4.91c1.38 0 2.36 0 3.54-.2h3.73c1.18 0 2.16 0 3.53.2h4.72c1.37 0 2.55.2 3.53.4 1.18.2 1.96.59 2.75 1.37a5.98 5.98 0 0 1 1.77 2.55c.39 1.18.59 2.56.59 4.32v25.73z"/><path id="qwfrk" d="M74.7 123.48v-32.6h10.4v32.6z"/><path id="qwfrl" d="M74.5 82.64a5.3 5.3 0 1 1 10.6 0 5.3 5.3 0 0 1-10.6 0z"/><path id="qwfrn" d="M182.3 101.88a5.3 5.3 0 1 1 10.6 0 5.3 5.3 0 0 1-10.6 0z"/><path id="qwfrp" d="M221.57 126.82V74h1.97v52.82z"/><linearGradient id="qwfrb" x1="237.81" x2="338.93" y1="100.47" y2="100.47" gradientUnits="userSpaceOnUse"><stop offset="0" stop-color="#e52628"/><stop offset="1" stop-color="#931913"/></linearGradient><linearGradient id="qwfrd" x1="237.79" x2="338.94" y1="100.46" y2="100.46" gradientUnits="userSpaceOnUse"><stop offset="0" stop-color="#e52628"/><stop offset="1" stop-color="#931913"/></linearGradient><linearGradient id="qwfrf" x1="237.79" x2="338.93" y1="100.46" y2="100.46" gradientUnits="userSpaceOnUse"><stop offset="0" stop-color="#e52628"/><stop offset="1" stop-color="#931913"/></linearGradient><linearGradient id="qwfrm" x1="74.48" x2="85.12" y1="82.56" y2="82.56" gradientUnits="userSpaceOnUse"><stop offset="0" stop-color="#e52628"/><stop offset="1" stop-color="#931913"/></linearGradient><linearGradient id="qwfro" x1="182.23" x2="192.88" y1="101.81" y2="101.81" gradientUnits="userSpaceOnUse"><stop offset="0" stop-color="#e52628"/><stop offset="1" stop-color="#931913"/></linearGradient><linearGradient id="qwfrq" x1="222.58" x2="222.58" y1="73.28" y2="127.15" gradientUnits="userSpaceOnUse"><stop offset="0" stop-color="#e52628"/><stop offset="1" stop-color="#931913"/></linearGradient></defs><g><g transform="translate(-4 -74)"><g><g><g><use fill="url(#qwfrb)" xlink:href="#qwfra"/></g><g><use fill="url(#qwfrd)" xlink:href="#qwfrc"/></g><g><use fill="url(#qwfrf)" xlink:href="#qwfre"/></g></g></g><g><g><g><use xlink:href="#qwfrg"/></g><g><use xlink:href="#qwfrh"/></g><g><use xlink:href="#qwfri"/></g><g><use xlink:href="#qwfrj"/></g><g><use xlink:href="#qwfrk"/></g></g><g><use fill="url(#qwfrm)" xlink:href="#qwfrl"/></g><g><use fill="url(#qwfro)" xlink:href="#qwfrn"/></g></g><g><use fill="url(#qwfrq)" xlink:href="#qwfrp"/></g></g></g></svg>