<svg xmlns="http://www.w3.org/2000/svg" xmlns:xlink="http://www.w3.org/1999/xlink" width="335" height="52" viewBox="0 0 335 52"><defs><path id="no5ca" d="M246.8 94.08c0 .19 0 .38-.19.56l.19.38c-.19.56-.19 1.12-.38 1.68 0 .19.38.56 0 .94 0 .75-.18 1.87-.18 3.55 0 1.69-.19 2.81-.38 3.75-.18.18-.18 1.12-.18 1.5 0 .56-.2 2.05-.38 4.3a39.21 39.21 0 0 1-.56 4.68c-.19 1.68-.56 2.8-1.12 4.49-.75 2.06-1.31 4.12-2.81 6.55 0 .19 0 .37-.19.37a6.68 6.68 0 0 1-2.24 3 6.8 6.8 0 0 1-1.31.56c-.38 0-.19-.19-.38-.19-.18 0-.37.19-.75.19-.37 0-.56-.19-.74-.19-5.06-.56-10.48-5.24-12.36-10.1-.18-.75-.75-1.5-.75-1.88v-2.8c0-.19.75-.94.94-1.31.19-.56.56-1.31 1.31-1.69-.37.19-.37.75-.56.94v.19c.37-.38.94-1.13 1.5-1.69.37-.37.75-.37 1.12-.56 0 .37-.19 1.12.37 1.31-.37.19-.18.75-.37.94 0 .18-.56.37-.56.74.19.2.56 0 .93-.18a5.76 5.76 0 0 0-1.5 2.8c0 .38.2.2.38.38-.19.37-.37.93 0 .93.19 0 .19-.18.19-.18-.38 1.68.19 3.55 2.06 5.24.93 1.87 3.55 2.06 5.05 2.06 3.74 0 4.87-5.06 5.99-7.3.19-.56.75-3 .93-4.12 0-.19.2-.37.38-.56.19-.56.37-1.87.37-3.74l.38-3.93c.18-.2-.19-.38.18-2.25v-1.12c.2-.19.2-.56.2-.75.18-6.55.93-10.67 1.3-14.23.19 0 .38-.18.75-.18.19 0 .56.56.94.75l1.5 1.5c.18.93.74 2.43.74 2.8.38.19.19 1.12.19 1.87z"/><path id="no5cc" d="M276.93 102.13c-.19.75-.75 1.87-.56 2.43-.38 1.87-.75 3-.94 4.68-.18 1.87-.93 5.24-.93 5.43v3c0 .37-.19 0-.19.37 0 1.12.37 2.24.94 2.8.37.57 1.12.75 1.68 1.13 0 .18.37.56.75 1.12-.19.19-.19.94-.38.94h-.56s0 .18.19.37c-.19 0-.37.37-.75.37-.37 0-.19-.18-.56-.18-.19 0-.37-.19-1.12-.56-.56-.38-1.13-.75-1.5-.94-.37-.19-.94-.94-1.12-1.12-.19 0-.38-.38-.38-.19v-.19s0-.18.19-.18a8.02 8.02 0 0 1-1.12-3.19v-.37c0-.37-.38-.75-.38-1.12v-7.86c0-.19 0-.19-.18-.38-3.93 5.06-7.86 12.54-13.3 15.16h-.37c-.56.38-2.62.38-3.37.38-.74 0-1.68-1.5-2.24-1.5-.19 0 0 .19-.19.19s-.37-.2-.93-.75c-.38-.56-.75-.94-.75-1.31a1.42 1.42 0 0 1-.38-.75c0-.19 0-.56-.18-.94-.2-.18-.2-.37-.2-.75v-.93c0-.19.2-2.62.38-3.93 0-.38.19-.94.38-1.69v-.37l2.8-8.98 3.75-8.99c.56-.18.75-1.12 1.12-1.87.19-.19.56-.37.56-.93.19-.38 0-.94.19-1.31h.19c.37 0 .18.18.37.18s.38-.37.56-.37c.38 0 0 .19.38.19.18 0 .18-.2.37-.2.94 0 1.31 1.13 1.31 1.5 0 1.13-1.5 6-1.68 5.62 0 .19.18.19 0 .38-.75 2.24-1.69 4.3-2.44 6.36-.18.37-.18 1.12-.37 1.68l-1.69 4.3-.18 1.13c-.38 1.12-1.13 2.43-1.5 3.56a104.7 104.7 0 0 0-.37 4.86c0 .56-.2 1.12.74 1.12.75 0 2.25-.93 3-1.68h.37c1.88-2.25 4.3-4.3 5.8-7.11.75-1.31 1.88-2.43 2.81-3.74 0 0 0-.38.19-.57a21.1 21.1 0 0 0 2.25-3.36c.74-1.13 1.87-3.93 2.62-4.3-.2-.76 1.12-2.07 1.5-2.63.18-.75 1.12-2.62 1.68-4.12.18-.56.56-1.12.93-1.87.19.19.38-.19.75-.19.19 0 0 .2.19.2.37 0 .19-.2.19-.2.37.2.93 0 1.12 0 .19 0 1.5 1.5 2.06 2.06v.94c.18 3-1.31 7.11-1.5 9.17z"/><path id="no5ce" d="M312.68 89.03c.18.37 0 .56-.2.93 0-.18 0-.56.2-.93zm-1.31 14.41h-.2l.2-.37zm.18-3.93c-.18.19-.37.56-.75.94.2.18 0 0 0 .37s-.37 2.06-.37 3h.19c0 .18-.19.56-.19.56 0 .37-.19.93-.19 1.12 0 .19.19.19 0 .37-.18-.18-.18-.37-.18-.37v.75a5.68 5.68 0 0 0-.57 2.06.4.4 0 0 1 .38-.38c0 .56 0 1.12-.19 1.5-.19.75-.75 2.06-.75 2.24 0 .2.38 0 .19 1.13h-.37v.56c0 .19-.38 3-.38 3.18 0 .28.1 1.93.32 3.37h.06l.18.75h-.12l.12.56c.19.93.75 2.06 1.5 2.62v.37c.37.38.94.75 1.12.75.38 0 .56.19.75.19.38 0 .94-.38.94-.75v-.75c0-.37-.19-.75-.38-1.12-.18-.75-.37-1.5-.37-2.43.19-2.44 0-2.62 0-2.81.19-1.12.19-2.06.37-2.8.07 0 .1.01.13.04-.06-.2 0-.35.04-.48-.13-.35.2-.71.2-1.07.2 0 .2.2.2.2 0-.38-.2-.76 0-1.13.18 0 .18.19.18.37.75-4.11 1.87-8.42 2.8-12.54.2-.37.2-.56.38-.74-.18 0-.18-.2-.18-.2.18-.37.37-.55.37-.74.19-.19.19-.75.19-1.12 0-.2.56-2.25 0-2.81 0-.38 0-1.69-.19-2.62-.19-.56-.56-1.12-.75-1.5-.19-.19-.19-.56-.37-.75a1.42 1.42 0 0 0-.75-.37c0-.19-.19-.19-.38-.38a4.1 4.1 0 0 0-.93-.56v.94c-.38-.19-.75 0-.94-.19.19 0 .19-.19.19-.19h-.37a5.75 5.75 0 0 0-1.5 2.44c.19-.38.37-.75.75-.75.18 0 .37.19.37.19 0 .18-.17.35-.35.53.03.64-.79.98-.96 1.15.19 0 .19-.19.38-.19-.2.94-.94 1.31-1.13 1.5-.37.56-.56 1.31-.93 2.06L307.62 98c0 .19-.37.19-.37.38-.75 1.3-1.31 2.62-2.06 3.74-.94 1.31-1.68 2.62-2.62 3.74-.19.38-.56.94-.94 1.13.57.18 0 .74-.18 1.12-.19.37-.56.93-.94 1.5l.19-.2c0 .38-.19.76-.38.94-.18 0-.18-.18-.18-.37-.19.75-.75 1.31-1.13 1.87v-.19c.2-.56.57-1.3.75-1.68-.34.68-.84 1.37-1.35 2.05.13-.08.42-.1.42 0v.57c-.19.19-.38.37-.38.56-.1-.22-.15-.3-.13-.38-.07.1-.12.2-.24.2-.19 0-.19-.2-.19-.2 0 .2 0 .38-.37.57l-.19-.19c.19-2.43.37-6.55.37-6.74v-4.11c0-.19-.18-3.75-.37-5.43-.19-.94-.56-2.43-.75-3.37-.37-.94-.37-2.25-1.5-3 0 .2.2.2 0 .38h-.18c-.38-.75-.75-.56-1.5-1.12 0 0 .19.18 0 .37-.37 0-.56-.19-.75-.19l-.19.2c-.18-.2-.18-.57-.37-.57l-.37.37c-.37.92-.87 1.88-1.4 2.81h-.1s-.19.38-.38.56l.38-.37c-.52.92-1.05 1.81-1.5 2.62-.56 1.3-1.12 3-1.68 4.12l.08-.09-.06.11.16.16-.17.34-.01-.34-.12.12-.05.1.17.16.01-.04c.03.15.07.31.17.41.14 0 .36-.18.55-.43l-1.05 1.64c.08-.2-.03-.49.13-.65-.19-.18-.38 0-.56.2 0-.08.02-.17.06-.27l-1.75 3.44c0-.18-.18-.18-.18-.18l-.2.18v.19c0-.19.2-.19.38 0-.18.19-.18.56-.37.75l-.14-.14a20.4 20.4 0 0 1-.98 2.38c0-.93.18-1.5.18-2.05 0 0 .19 0 .38.18v-.37c.18-.19.37-.56.56-.94 0-.18-.19-.18-.19-.37s.19-.75.38-.94c-.2 0-.38.38-.38.38-.19.37-.37 1.3-.56 1.68-.56.56-1.12 2.43-1.5 3.37h.38c.18-.37.18-.56.18-.75l.38-.37c0 .18.19.18.19.18.37-.74.74-1.68 1.12-2.05v.37l-.75 1.77v.29h-.12l-1.19 2.8c0 .2 0 .38-.19.38.38-.75.56-1.68.75-2.43-.19.18-.19.56-.37.75-.19-.2-.19-.38-.19-.38 0-.19-.19-.19-.37-.19.18.75-.75 1.88-.94 2.62v.57c-.37.37-.75.93-.75 1.12-.93 2.43-2.06 4.86-2.62 7.3-.19.56.19 1.12 0 1.5l-.19.18c.57 0 .2.38.38.56l-.38.38c0 .18-.18.56-.37.75.56.37 0 .37.19.74l.37.38c-.19.56-.19 1.12 0 1.5.38.74 1.12 1.3 1.31 1.87.38-.19.75 0 1.12 0 .38 0 .57-.38.75-.38.56-.37.38-1.3.56-1.5.38-2.05.94-4.11 1.5-6.17.38-.94.94-2.06 1.31-3.18a299.6 299.6 0 0 1 6.93-17.22c.18-.56.56-1.12.93-1.3.38 1.11.38 2.42.38 3.55v1.12c.18.56.37 1.12.37 1.5 0 .18-.37.75-.19.93 0 .19.2 0 .2.19l-.2 8.05c.2 1.12-.18 2.43.38 3.37l-.19.18v1.13c-.19.18-.37.18-.37.37 0 .37.18 1.12.37 1.68.19.75 0 1.5.19 2.25l.37.37c0 .94.94 1.69 2.06 2.25.19.19.38.56.56.56.56 0 1.5-.19 1.69-.37 1.12-1.87 1.5-4.5 2.62-6.55.93-1.5 1.5-3.37 2.43-5.06l.56-.56c1.12-2.06 2.43-4.3 3.37-6.36.19-.37 0-.75.19-1.12.37-.38.75-1.13.75-1.5.18-.19.56-.56.74-.94.2-.56.38-1.3 1.13-1.68 0 .19-.19.19-.19.37.37-.37.56-.93.56-1.12-.19 0-.19 0-.19-.19.2-.18.2-.18.38-.37l.19.19c0-.2.56-.38.74-.56.2-.38.38-.75.75-.94zm-.37-8.42c-.19.37-.19.56-.19.93-.19-.18-.19 0-.37 0zm-.38 9.36a.4.4 0 0 1-.37.37zm-.93-7.12c-.19 0-.19-.18-.38-.18.38-.2.75-.75.94-.94 0 .37-.37.56-.56 1.12zm-.38.56zm-.18.38h-.19l.37-.38zm-.56 26.39l-.2-.75h.14l.12.75zm-.38-25.08v-.19c0-.19 0-.37.19-.37 0 .18 0 .37-.19.56zm-1.5 2.06c0 .37-.18.56-.18.75 0-.38 0-.56.18-.75zm-.74 1.5zm-.2-.38h.2s.15 0 .18.15c-.1.06-.18.1-.18.23-.2-.2-.2-.38-.2-.38zm.38.15a1 1 0 0 0 .19-.15l-.19.19v-.04zm-.75 1.9zm-.18.38h-.19l.37-.37zm-.19-.74l.19-.57h.18zm-.56 1.12c-.19 0-.19-.19-.19-.19l.37-.31a.93.93 0 0 0-.18.5zm.18-.5c.12-.18.28-.34.38-.44 0 .11-.18.28-.38.44zm-.93 1.62l-.37.38-.2-.2zm-.37.56l-.2.38-.18-.19.19-.37zm-1.88 3.37c0-.56.75-1.87 1.13-2.24-.19.56-.56 1.68-1.13 2.24zm-.18.38h-.08l.08-.2zm-.56 1.12h-.2l.38-1.12h.3zm-.57 1.12v-.37h.2zm-2.24 4.3l-.19.38-.19-.19.2-.37zm-.38.94h-.18v-.37h.18zm-4.3 8.8l-.37-.38h.18zm-6.55-23.2l.19-.38.02.02-.14.28zm-.19.55l.19-.18c0-.09-.04-.13-.08-.16l-.3.59c.06-.1.13-.18.2-.25zm0-.37l.19-.19.02.03-.1.2c-.05-.04-.1-.04-.1-.04zm.06 1.58a.27.27 0 0 1-.06.1zm1.05-1.64l.2-.32c-.05.11-.12.22-.2.32zm-1.67 2.12c0-.24.08-.4.18-.49-.02.17-.06.37-.18.49zm.19-.75l.18.19a.3.3 0 0 0-.2.07c.02-.1.02-.2.02-.26zm-3 6.55v-.38h.19v.09l-.12.29zm-.18 1.87h-.2l.2-.37h.18zm-.57 1.31l-.18-.19.18-.37.2.19zm-.18 1.87h-.19l.19-.93h.18zm-3.93 9.55l-.19.18-.37-.18.18-.2zm34.62-8.61v-.19l-.02.13.02.06zm0 .56s0-.08-.06-.14l.06.14zm-35.93 7.86l.18-.19c-.18 0 0-.19-.18.19zm7.06-17.46a34.99 34.99 0 0 1 0 0zm-.14.24l.05.05a33 33 0 0 0 .1-.29c-.06.07-.15.11-.15.24zm5.8-11.98zm1.55-1.07c.1.1-.05-.03-.05.14 0-.06.02-.1.05-.14zm-2.24 4.08c.13.03.13.17.13.17a.62.62 0 0 1-.13-.17zm9.3 16.27c-.08.08-.12.12-.13.18a.96.96 0 0 1 .13-.18zm-.1-.48l-.08.1h.18c-.07-.03-.1-.07-.1-.1zm13.58-21.23v.19l.02-.03a.8.8 0 0 0-.02-.16zm-13.52 21.14a150.42 150.42 0 0 0 0 0zm-12.06-10.92c.04-.08.08-.17.13-.24z"/><path id="no5cg" d="M329.15 92.96c-.2 0 0-.19 0 0-.38-.19-.75 0-.94 0v.56c0 .37.37 1.68.37 2.25-.18 1.68-.56 3.37-.74 4.68-.57 2.43-1.31 5.24-1.69 6.92-.19 1.12-.93 3-.93 4.12.37 0 1.3-.19 1.68-.38-.37-.75.56-.75.94-1.12v.19c-.2.18 0 .18.18.18.19-.18 1.13-.93 1.31-1.12h-.38c-.18-.19 0-.19 0-.19 3.56-1.68 7.12-7.1 7.12-10.66 0-1.69-4.87-5.43-6.92-5.43zm10.29 10.85v.38c-.56 2.24-2.25 5.05-4.3 7.11a38.01 38.01 0 0 1-7.87 5.24c-.37.19-.93-.19-1.3-.19-.38 0-1.13.38-1.5.38-.38 0-.56-.19-.56-.19v-.19c-.38.19-.57.56-.57.94-.37.75-.37 2.24-.93 3.37-.19.75-.75 1.87-.94 2.62-.19 1.12 0 2.06-.93 3.74l-.38.56c-.19 0-.19.19-.56.19-.19 0-.37-.38-.75-.38-.37 0-.37.2-.56.2-.19-.2 0-.76-.37-.76h-.38c0-.18.19 0 .19-.37 0-.38-.56-.75-.94-1.5.19-.19 0-.37 0-.75 0-.93 1.13-2.43 1.31-3.37.75-2.99 1.69-6.17 2.44-9.17 1.3-5.24 2.62-10.85 4.11-16.1.2-.74.2-1.68.38-2.8-1.69-.75-2.25-2.8-2.06-4.12.19-.18.56-.37.75-.37.37-.19 1.12-.19 1.87-.19h1.3c.38 0 0 .19.2.19.75 0 2.06.75 3 1.12.18.19.74.19.93.38 5.05 3.18 8.98 7.3 8.98 11.6-.19.75-.37 1.69-.56 2.43z"/><path id="no5ci" d="M52.91 127.77V93.52H38.7v34.25h-9.92V93.52H14.73v34.25H5V94.83c0-1.5.19-2.8.37-3.74.2-.94.75-1.87 1.31-2.62.57-.75 1.5-1.13 2.62-1.5 1.13-.37 2.44-.56 4.12-.56h40.99c3.18 0 5.43.56 6.55 1.87s1.68 3.37 1.68 6.36v32.75h-9.73z"/><path id="no5cj" d="M112.61 106.62l15.35 21.15h-11.42l-14.22-20.59 16.84-20.4h10.67zm-21.33 21.15V86.6H101v40.98h-9.73z"/><path id="no5ck" d="M141.8 93.52v34.25h-9.91V94.83c0-2.8.56-4.87 1.87-6.18 1.31-1.3 3.37-2.05 6.55-2.05h17.6v6.73h-16.1z"/><path id="no5cl" d="M187.47 93.52H171.2v27.51h16.28zm9.92 25.83c0 1.3-.19 2.43-.37 3.37-.19 1.12-.75 1.87-1.31 2.62a5.32 5.32 0 0 1-2.62 1.68 20.4 20.4 0 0 1-4.12.75c-1.69 0-3.37.19-4.68.19h-10.48c-1.31 0-2.8-.2-4.3-.2-2.62 0-4.68-.55-6-1.68-1.3-1.12-2.05-3.18-2.05-6.17V95.2c0-2.63.56-4.68 1.68-6.18 1.13-1.5 3.37-2.25 6.55-2.25h4.68c1.12 0 2.25 0 3.37-.18H181.3c1.12 0 2.05 0 3.36.18h4.5c1.3 0 2.43.19 3.37.38a4.4 4.4 0 0 1 2.62 1.3 4.75 4.75 0 0 1 1.68 2.44c.37 1.12.56 2.43.56 4.12v24.33z"/><path id="no5cm" d="M72 127.77V96.89h9.92v30.88z"/><path id="no5cn" d="M72 88.84a5.05 5.05 0 1 1 10.1 0 5.05 5.05 0 0 1-10.1 0z"/><path id="no5cp" d="M174.37 107.18a5.05 5.05 0 1 1 10.1 0 5.05 5.05 0 0 1-10.1 0z"/><path id="no5cr" d="M211.61 131.14V80.79h1.88v50.35z"/><linearGradient id="no5cb" x1="222.19" x2="339.86" y1="108.83" y2="108.83" gradientUnits="userSpaceOnUse"><stop offset="0" stop-color="#951b81"/><stop offset="1" stop-color="#5c2483"/></linearGradient><linearGradient id="no5cd" x1="222.18" x2="339.88" y1="108.83" y2="108.83" gradientUnits="userSpaceOnUse"><stop offset="0" stop-color="#951b81"/><stop offset="1" stop-color="#5c2483"/></linearGradient><linearGradient id="no5cf" x1="222.2" x2="339.86" y1="108.83" y2="108.83" gradientUnits="userSpaceOnUse"><stop offset="0" stop-color="#951b81"/><stop offset="1" stop-color="#5c2483"/></linearGradient><linearGradient id="no5ch" x1="222.17" x2="339.87" y1="108.83" y2="108.83" gradientUnits="userSpaceOnUse"><stop offset="0" stop-color="#951b81"/><stop offset="1" stop-color="#5c2483"/></linearGradient><linearGradient id="no5co" x1="71.93" x2="82.04" y1="88.92" y2="88.92" gradientUnits="userSpaceOnUse"><stop offset="0" stop-color="#951b81"/><stop offset="1" stop-color="#5c2483"/></linearGradient><linearGradient id="no5cq" x1="174.28" x2="184.39" y1="107.2" y2="107.2" gradientUnits="userSpaceOnUse"><stop offset="0" stop-color="#951b81"/><stop offset="1" stop-color="#5c2483"/></linearGradient><linearGradient id="no5cs" x1="212.6" x2="212.6" y1="80.1" y2="131.27" gradientUnits="userSpaceOnUse"><stop offset="0" stop-color="#951b81"/><stop offset="1" stop-color="#5c2483"/></linearGradient></defs><g><g transform="translate(-5 -80)"><g><g><g><use fill="url(#no5cb)" xlink:href="#no5ca"/></g><g><use fill="url(#no5cd)" xlink:href="#no5cc"/></g><g><use fill="url(#no5cf)" xlink:href="#no5ce"/></g><g><use fill="url(#no5ch)" xlink:href="#no5cg"/></g></g></g><g><g><use xlink:href="#no5ci"/></g><g><use xlink:href="#no5cj"/></g><g><use xlink:href="#no5ck"/></g><g><use xlink:href="#no5cl"/></g><g><use xlink:href="#no5cm"/></g></g><g><use fill="url(#no5co)" xlink:href="#no5cn"/></g><g><use fill="url(#no5cq)" xlink:href="#no5cp"/></g><g><use fill="url(#no5cs)" xlink:href="#no5cr"/></g></g></g></svg>