<svg xmlns="http://www.w3.org/2000/svg" xmlns:xlink="http://www.w3.org/1999/xlink" width="233" height="215" viewBox="0 0 233 215"><defs><path id="4f9ba" d="M382.46 931.26c16.71 10.28 16.71 25.72 0 36-16.72 10.3-45.01 10.3-61.73 0-16.72-10.28-16.72-25.72 0-36 16.72-10.29 45-10.29 61.73 0z"/><path id="4f9bb" d="M377.31 933.83c14.15 7.71 14.15 21.86 0 29.58-14.14 7.71-37.3 7.71-51.44 0-14.14-7.72-14.14-21.87 0-29.58 14.15-7.72 37.3-7.72 51.44 0z"/><path id="4f9bc" d="M372.17 936.4c11.57 6.43 11.57 16.72 0 23.15-11.58 6.43-29.58 6.43-41.15 0-11.58-6.43-11.58-16.72 0-23.15 11.57-6.43 29.57-6.43 41.15 0z"/><path id="4f9bd" d="M367.02 940.26c9 5.14 9 12.86 0 18-9 3.86-23.14 3.86-30.86-1.28-9-5.15-9-12.86 0-18 7.72-3.86 21.86-3.86 30.86 1.28z"/><path id="4f9be" d="M361.88 942.83c5.14 2.57 5.14 9 0 11.57-5.14 2.58-14.15 2.58-20.58 0-5.14-2.57-5.14-9 0-11.57 5.15-3.86 14.15-3.86 20.58 0z"/><path id="4f9bf" d="M473.76 880.24L368.3 818.52 241 891.82l105.45 61.72z"/><path id="4f9bg" d="M346.45 953.54L241 891.82v7.71l105.45 61.73z"/><path id="4f9bh" d="M346.45 961.26l127.3-73.3v-7.72l-127.3 73.3z"/><path id="4f9bi" d="M346.45 936.82l-74.59-42.43v-75.87l74.59 42.43z"/><path id="4f9bj" d="M346.45 936.82v-75.87l100.3-57.87-1.28 75.88z"/><path id="4f9bk" d="M372.17 763.22l69.44 39.86-5.14 2.58-64.3-37.3z"/><path id="4f9bl" d="M282.15 821.09l-5.14-2.57 95.16-55.3v5.14z"/><path id="4f9bm" d="M346.45 858.38l-64.3-37.3 90.02-52.72 64.3 37.3z"/><path id="4f9bn" d="M346.45 858.38l96.45-55.3-69.45-39.86-96.44 55.3zm0 2.57l-74.59-42.43 100.3-57.87 74.6 42.43-100.31 57.87z"/><path id="4f9bo" d="M373.45 794.08l-10.28-6.43v-7.71l10.28 6.43z"/><path id="4f9bp" d="M373.45 786.37l-10.28-6.43 10.28-6.43 10.3 6.43z"/><path id="4f9bq" d="M373.45 786.37l10.3-6.43v7.71l-10.3 6.43z"/><path id="4f9br" d="M352.88 805.66l-10.29-6.43v-7.72l10.29 6.43z"/><path id="4f9bs" d="M352.88 797.94l-10.29-6.43 10.29-6.43 10.29 6.43z"/><path id="4f9bt" d="M352.88 797.94l10.29-6.43v7.72l-10.3 6.43z"/><path id="4f9bu" d="M363.17 926.54l25.72-14.15v-48.87l-25.72 15.44z"/><path id="4f9bv" d="M365.74 925.25l20.57-11.57v-45.01l-20.57 11.57z"/><path id="4f9bw" d="M365.74 922.68l18-10.29v-42.44l-18 10.3z"/><path id="4f9bx" d="M404.32 890.53h-1.29l2.57 1.29 30.87-18V844.23l-1.29-1.3v29.59z"/><path id="4f9by" d="M414.6 851.95l-10.28 6.43h-1.29v33.44l1.29 1.28v-32.15h1.28v-1.28l10.29-6.43 2.57-1.29 18-10.29h1.3l-1.3-1.28h-1.28l-18 10.29z"/><path id="4f9bz" d="M435.18 842.95v29.58l-29.58 16.71v-28.29l29.58-18z"/><path id="4f9bA" d="M436.47 844.24v29.57c-16.72 10.29-7.72 5.15-29.58 16.72v-28.3c14.14-9 12.86-9 29.58-18zm-30.87 15.43c-1.28 1.28-1.28 1.28-1.28 2.57v32.15h1.28c7.72-5.15 23.15-12.86 30.87-18 0 0 1.28 0 1.28-1.3v-34.71h-1.28l-18 10.29-12.87 9z"/><path id="4f9bB" d="M360.6 853.24l-2.58-1.29v-5.14h2.57z"/><path id="4f9bC" d="M360.6 846.8h-2.58l2.57-1.28 2.58 1.29z"/><path id="4f9bD" d="M360.6 846.8h2.57v5.15l-2.58 1.29z"/><path id="4f9bE" d="M430.04 812.09h-2.58v-6.43l2.58 1.28z"/><path id="4f9bF" d="M430.04 806.94l1.28-1.28v5.14l-1.28 1.29z"/><path id="4f9bG" d="M358.02 849.38l-3.86-2.57v-23.15l3.86 2.57z"/><path id="4f9bH" d="M358.02 826.23l-3.86-2.57 75.88-43.72 3.85 2.57z"/><path id="4f9bI" d="M358.02 826.23l75.87-43.72v23.15l-75.87 43.72z"/><path id="4f9bJ" d="M368.31 916.25h1.29l11.57-6.43V894.39v14.14h-1.29z"/><path id="4f9bK" d="M381.17 895.67v14.15l-11.57 6.43V902.1l11.57-6.43c0-1.28 0 0 0 0z"/><path id="4f9bL" d="M381.17 895.67v14.15c-9 5.14 0 0-11.57 6.43V902.1c7.71-3.85 2.57-1.28 11.57-6.43zm-11.57 5.15c-1.29 1.28-1.29 1.28 0 0-1.29 1.28-1.29 1.28 0 0l-1.29 15.43c3.86-2.57 9-5.14 12.86-7.72V893.1l-5.14 3.86-6.43 3.86z"/><path id="4f9bM" d="M368.31 895.67v1.29h1.29l11.57-7.72V875.1 889.24h-1.29z"/><path id="4f9bN" d="M381.17 875.1v14.14l-11.57 6.43v-14.14z"/><path id="4f9bO" d="M381.17 875.1v14.14c-9 5.15 0 0-11.57 6.43v-12.86c7.71-5.14 2.57-2.57 11.57-7.71zm-11.57 6.43c-1.29 0-1.29 0 0 0-1.29 0-1.29 1.28 0 0l-1.29 15.43c3.86-2.57 9-5.14 12.86-7.72v-15.43l-5.14 3.86-6.43 3.86z"/><path id="4f9bP" d="M350.3 862.24l91.3-54.01 29.59 28.29-92.6 54.01z"/><path id="4f9bQ" d="M350.3 862.24l28.3 28.29-28.3-19.29z"/><path id="4f9bR" d="M358.02 857.1l9-5.15 28.3 28.3-7.72 5.14z"/><path id="4f9bS" d="M374.74 846.8l9-5.14 28.3 28.3-7.72 5.14z"/><path id="4f9bT" d="M391.46 837.8l9-5.14 28.29 28.3-7.72 5.14z"/><path id="4f9bU" d="M408.17 827.52l9-5.15 28.3 28.3-7.72 5.14z"/><path id="4f9bV" d="M424.9 818.52l9-5.15 28.28 28.3-7.71 5.14z"/></defs><g><g opacity=".03" transform="translate(-241 -760)"><use fill="#273246" xlink:href="#4f9ba"/></g><g opacity=".04" transform="translate(-241 -760)"><use fill="#2b374d" xlink:href="#4f9bb"/></g><g opacity=".04" transform="translate(-241 -760)"><use fill="#2f3c54" xlink:href="#4f9bc"/></g><g opacity=".04" transform="translate(-241 -760)"><use fill="#34415c" xlink:href="#4f9bd"/></g><g opacity=".05" transform="translate(-241 -760)"><use fill="#384763" xlink:href="#4f9be"/></g><g transform="translate(-241 -760)"><use fill="#2c3e50" xlink:href="#4f9bf"/></g><g transform="translate(-241 -760)"><use fill="#2c3e50" xlink:href="#4f9bg"/></g><g transform="translate(-241 -760)"><use fill="#3d566e" xlink:href="#4f9bh"/></g><g transform="translate(-241 -760)"><use fill="#9c9c9c" xlink:href="#4f9bi"/></g><g transform="translate(-241 -760)"><use fill="#e6eaeb" xlink:href="#4f9bj"/></g><g transform="translate(-241 -760)"><use fill="#9c9c9c" xlink:href="#4f9bk"/></g><g transform="translate(-241 -760)"><use fill="#e6eaeb" xlink:href="#4f9bl"/></g><g transform="translate(-241 -760)"><use fill="#676f70" xlink:href="#4f9bm"/></g><g transform="translate(-241 -760)"><use fill="#c5ccd1" xlink:href="#4f9bn"/></g><g transform="translate(-241 -760)"><use fill="#9c9c9c" xlink:href="#4f9bo"/></g><g transform="translate(-241 -760)"><use fill="#c5ccd1" xlink:href="#4f9bp"/></g><g transform="translate(-241 -760)"><use fill="#e6eaeb" xlink:href="#4f9bq"/></g><g transform="translate(-241 -760)"><use fill="#9c9c9c" xlink:href="#4f9br"/></g><g transform="translate(-241 -760)"><use fill="#c5ccd1" xlink:href="#4f9bs"/></g><g transform="translate(-241 -760)"><use fill="#e6eaeb" xlink:href="#4f9bt"/></g><g transform="translate(-241 -760)"><use fill="#999" xlink:href="#4f9bu"/></g><g transform="translate(-241 -760)"><use fill="#666565" xlink:href="#4f9bv"/></g><g transform="translate(-241 -760)"><use fill="#fac13c" xlink:href="#4f9bw"/></g><g transform="translate(-241 -760)"><use fill="#d19917" xlink:href="#4f9bx"/></g><g transform="translate(-241 -760)"><use fill="#d19917" xlink:href="#4f9by"/></g><g transform="translate(-241 -760)"><use fill="#2192fc" xlink:href="#4f9bz"/></g><g transform="translate(-241 -760)"><use fill="#fac13c" xlink:href="#4f9bA"/></g><g transform="translate(-241 -760)"><use fill="#9c9c9c" xlink:href="#4f9bB"/></g><g transform="translate(-241 -760)"><use fill="#c5ccd1" xlink:href="#4f9bC"/></g><g transform="translate(-241 -760)"><use fill="#dddfe0" xlink:href="#4f9bD"/></g><g transform="translate(-241 -760)"><use fill="#9c9c9c" xlink:href="#4f9bE"/></g><g transform="translate(-241 -760)"><use fill="#dddfe0" xlink:href="#4f9bF"/></g><g transform="translate(-241 -760)"><use fill="#9c9c9c" xlink:href="#4f9bG"/></g><g transform="translate(-241 -760)"><use fill="#c5ccd1" xlink:href="#4f9bH"/></g><g transform="translate(-241 -760)"><use fill="#e6eaeb" xlink:href="#4f9bI"/></g><g transform="translate(-241 -760)"><use fill="#d19917" xlink:href="#4f9bJ"/></g><g transform="translate(-241 -760)"><use fill="#2192fc" xlink:href="#4f9bK"/></g><g transform="translate(-241 -760)"><use fill="#fac13c" xlink:href="#4f9bL"/></g><g transform="translate(-241 -760)"><use fill="#d19917" xlink:href="#4f9bM"/></g><g transform="translate(-241 -760)"><use fill="#2192fc" xlink:href="#4f9bN"/></g><g transform="translate(-241 -760)"><use fill="#fac13c" xlink:href="#4f9bO"/></g><g transform="translate(-241 -760)"><g><use fill="#e74c3c" xlink:href="#4f9bP"/></g><g><use fill="#c0392b" xlink:href="#4f9bQ"/></g><g><use fill="#e6eaeb" xlink:href="#4f9bR"/></g><g><use fill="#e6eaeb" xlink:href="#4f9bS"/></g><g><use fill="#e6eaeb" xlink:href="#4f9bT"/></g><g><use fill="#e6eaeb" xlink:href="#4f9bU"/></g><g><use fill="#e6eaeb" xlink:href="#4f9bV"/></g></g></g></svg>