<svg xmlns="http://www.w3.org/2000/svg" xmlns:xlink="http://www.w3.org/1999/xlink" width="236" height="220" viewBox="0 0 236 220"><defs><path id="vf7ua" d="M1052.46 2845.25c20.84 11.72 20.84 31.26 0 41.68-20.83 11.72-53.4 11.72-72.93 0-20.83-11.72-20.83-31.26 0-41.68 19.54-11.72 52.1-11.72 72.93 0z"/><path id="vf7ub" d="M1047.25 2849.16c16.93 10.42 16.93 26.05 0 36.46-16.93 10.42-45.58 10.42-62.5 0-16.94-10.41-16.94-26.04 0-36.46 16.92-10.42 45.57-10.42 62.5 0z"/><path id="vf7uc" d="M1042.04 2851.76c14.33 7.82 14.33 22.14 0 29.96-14.32 7.81-37.76 7.81-52.09 0-14.32-7.82-14.32-22.14 0-29.96 14.33-7.81 37.77-7.81 52.1 0z"/><path id="vf7ud" d="M1036.84 2854.37c11.72 6.51 11.72 16.93 0 23.44-11.73 6.51-29.96 6.51-41.68 0-11.72-6.51-11.72-16.93 0-23.44 11.72-6.51 29.95-6.51 41.68 0z"/><path id="vf7ue" d="M993.86 2867.4c0-7.2 9.91-13.03 22.14-13.03s22.14 5.83 22.14 13.02c0 7.2-9.91 13.02-22.14 13.02s-22.14-5.83-22.14-13.02z"/><path id="vf7uf" d="M1026.42 2860.88c5.2 2.6 5.2 9.12 0 11.72-5.21 2.6-14.33 2.6-20.84 0-5.2-2.6-5.2-9.12 0-11.72 5.2-3.9 14.33-3.9 20.84 0z"/><path id="vf7ug" d="M1139.72 2797.11l-106.8-62.5L904 2808.83l106.79 62.5z"/><path id="vf7uh" d="M1010.79 2871.35L904 2808.84v7.8l106.79 62.52z"/><path id="vf7ui" d="M1010.79 2879.16l128.93-74.23v-7.82l-128.93 74.24z"/><path id="vf7uj" d="M1010.79 2854.42l-75.53-42.98v-76.84l75.53 42.98z"/><path id="vf7uk" d="M1010.79 2854.42v-76.84l101.58-58.6-1.3 76.83z"/><path id="vf7ul" d="M1036.84 2678.6l70.32 40.38-5.21 2.6-65.11-37.77z"/><path id="vf7um" d="M945.67 2737.2l-5.2-2.6 96.37-56v5.21z"/><path id="vf7un" d="M1010.79 2774.98l-65.12-37.77 91.17-53.4 65.11 37.77z"/><path id="vf7uo" d="M1010.79 2777.58l-75.53-42.98 101.58-58.6 75.53 42.98zm0-2.6l97.67-56-70.32-40.38-97.68 56z"/><path id="vf7up" d="M1043.35 2721.58l-20.84-11.72v-15.63l20.84 11.72z"/><path id="vf7uq" d="M1043.35 2705.95l-20.84-11.72 19.53-11.72 20.84 11.72z"/><path id="vf7ur" d="M1043.35 2705.95l19.53-11.72v15.63l-19.53 11.72z"/><path id="vf7us" d="M1042.04 2785.4l49.5-28.66v56l-49.5 28.65z"/><path id="vf7ut" d="M1038.14 2784.1l49.49-28.66 3.9 1.3-49.49 28.65z"/><path id="vf7uu" d="M1038.14 2784.1l3.9 1.3v56l-3.9-2.61z"/><path id="vf7uv" d="M1043.35 2786.7l46.88-27.35-1.3 52.09-45.58 27.35z"/><path id="vf7uw" d="M1044.65 2786.7l44.28-24.75v49.49l-44.28 24.74z"/><path id="vf7ux" d="M1065.49 2773.67l1.3-1.3v52.1l-1.3 1.3z"/><path id="vf7uy" d="M1087.63 2774.98v1.3l-18.24 10.42v-1.3z"/><path id="vf7uz" d="M1069.4 2785.4l16.92-10.42 1.3 1.3-18.23 10.42z"/><path id="vf7uA" d="M1087.63 2765.86v1.3l-18.24 11.72v-2.6z"/><path id="vf7uB" d="M1069.4 2777.58l16.92-10.42h1.3l-18.23 11.72z"/><path id="vf7uC" d="M1087.63 2790.6v1.3l-18.24 10.42v-1.3z"/><path id="vf7uD" d="M1069.4 2802.32l16.92-10.41h1.3z"/><path id="vf7uE" d="M1087.63 2782.79v1.3l-18.24 10.42v-1.3z"/><path id="vf7uF" d="M1069.4 2793.2l16.92-9.1h1.3l-18.23 10.41z"/><path id="vf7uG" d="M1087.63 2807.53v1.3l-18.24 10.42v-1.3z"/><path id="vf7uH" d="M1069.4 2817.95l16.92-9.11h1.3l-18.23 10.41z"/><path id="vf7uI" d="M1087.63 2799.72v1.3l-18.24 10.42v-1.3z"/><path id="vf7uJ" d="M1069.4 2810.14l16.92-10.42 1.3 1.3-18.23 10.42z"/><path id="vf7uK" d="M1064.18 2788v1.3l-18.23 10.42v-1.3z"/><path id="vf7uL" d="M1045.95 2798.42l18.23-9.12-18.23 10.42z"/><path id="vf7uM" d="M1064.18 2778.88v2.6l-18.23 10.43v-2.6z"/><path id="vf7uN" d="M1045.95 2790.6l18.23-10.42v1.3l-18.23 10.43z"/><path id="vf7uO" d="M1064.18 2803.63v1.3l-18.23 11.72v-2.6z"/><path id="vf7uP" d="M1045.95 2815.35l18.23-10.42-18.23 11.72z"/><path id="vf7uQ" d="M1064.18 2795.81v1.3l-18.23 10.42v-1.3z"/><path id="vf7uR" d="M1064.18 2820.56v1.3l-18.23 10.42v-1.3z"/><path id="vf7uS" d="M1045.95 2830.97l18.23-9.11-18.23 10.42z"/><path id="vf7uT" d="M1064.18 2812.74v1.3l-18.23 10.42v-1.3z"/><path id="vf7uU" d="M1045.95 2823.16l18.23-10.42v1.3l-18.23 10.42z"/><path id="vf7uV" d="M1064.18 2803.63h-1.3v-3.91h1.3z"/><path id="vf7uW" d="M1064.18 2799.72h-1.3l5.21-3.9h1.3z"/><path id="vf7uX" d="M1064.18 2799.72l5.21-3.9v5.2l-5.2 2.6z"/><path id="vf7uY" d="M987.35 2793.2l-1.3 1.31-31.26-18.23h-1.3V2765.86h2.6v9.12z"/><path id="vf7uZ" d="M975.63 2774.98l11.72 6.5v1.3h1.3v11.73h-1.3l-1.3 1.3V2782.8h-1.3l-10.43-6.51-2.6-1.3-18.23-10.42v-1.3l-1.3 1.3 2.6-1.3 19.53 10.41z"/><path id="vf7uaa" d="M954.79 2765.86v9.12l31.26 18.23v-9.12z"/><path id="vf7uab" d="M984.74 2782.79c1.3 1.3 1.3 1.3 1.3 2.6v11.72h-1.3c-7.81-5.2-23.44-14.32-31.25-19.53 0 0-1.3 0-1.3-1.3v-13.03h1.3l18.23 10.42zm-29.95-16.93c-1.3 0-1.3 0 0 0v9.12c16.93 11.72 7.81 5.2 29.95 18.23v-9.12c-15.62-9.11-14.32-7.81-29.95-18.23z"/></defs><g><g opacity=".03" transform="translate(-904 -2676)"><use fill="#232c3f" xlink:href="#vf7ua"/></g><g opacity=".03" transform="translate(-904 -2676)"><use fill="#273246" xlink:href="#vf7ub"/></g><g opacity=".04" transform="translate(-904 -2676)"><use fill="#2b374d" xlink:href="#vf7uc"/></g><g opacity=".04" transform="translate(-904 -2676)"><use fill="#2f3c54" xlink:href="#vf7ud"/></g><g opacity=".04" transform="translate(-904 -2676)"><use fill="#34415c" xlink:href="#vf7ue"/></g><g opacity=".05" transform="translate(-904 -2676)"><use fill="#384763" xlink:href="#vf7uf"/></g><g transform="translate(-904 -2676)"><use fill="#2c3e50" xlink:href="#vf7ug"/></g><g transform="translate(-904 -2676)"><use fill="#2c3e50" xlink:href="#vf7uh"/></g><g transform="translate(-904 -2676)"><use fill="#3d566e" xlink:href="#vf7ui"/></g><g transform="translate(-904 -2676)"><use fill="#9c9c9c" xlink:href="#vf7uj"/></g><g transform="translate(-904 -2676)"><use fill="#e6eaeb" xlink:href="#vf7uk"/></g><g transform="translate(-904 -2676)"><use fill="#9c9c9c" xlink:href="#vf7ul"/></g><g transform="translate(-904 -2676)"><use fill="#e6eaeb" xlink:href="#vf7um"/></g><g transform="translate(-904 -2676)"><use fill="#676f70" xlink:href="#vf7un"/></g><g transform="translate(-904 -2676)"><use fill="#c5ccd1" xlink:href="#vf7uo"/></g><g transform="translate(-904 -2676)"><use fill="#9c9c9c" xlink:href="#vf7up"/></g><g transform="translate(-904 -2676)"><use fill="#c5ccd1" xlink:href="#vf7uq"/></g><g transform="translate(-904 -2676)"><use fill="#e6eaeb" xlink:href="#vf7ur"/></g><g transform="translate(-904 -2676)"><use fill="#3d566e" xlink:href="#vf7us"/></g><g transform="translate(-904 -2676)"><use fill="#324557" xlink:href="#vf7ut"/></g><g transform="translate(-904 -2676)"><use fill="#29394a" xlink:href="#vf7uu"/></g><g transform="translate(-904 -2676)"><use fill="#2c3e50" xlink:href="#vf7uv"/></g><g transform="translate(-904 -2676)"><use fill="#3d566e" xlink:href="#vf7uw"/></g><g transform="translate(-904 -2676)"><use fill="#2c3e50" xlink:href="#vf7ux"/></g><g transform="translate(-904 -2676)"><use fill="#2c3e50" xlink:href="#vf7uy"/></g><g transform="translate(-904 -2676)"><use fill="#324557" xlink:href="#vf7uz"/></g><g transform="translate(-904 -2676)"><use fill="#2c3e50" xlink:href="#vf7uA"/></g><g transform="translate(-904 -2676)"><use fill="#324557" xlink:href="#vf7uB"/></g><g transform="translate(-904 -2676)"><use fill="#2c3e50" xlink:href="#vf7uC"/></g><g transform="translate(-904 -2676)"><use fill="#324557" xlink:href="#vf7uD"/></g><g transform="translate(-904 -2676)"><use fill="#2c3e50" xlink:href="#vf7uE"/></g><g transform="translate(-904 -2676)"><use fill="#324557" xlink:href="#vf7uF"/></g><g transform="translate(-904 -2676)"><use fill="#2c3e50" xlink:href="#vf7uG"/></g><g transform="translate(-904 -2676)"><use fill="#324557" xlink:href="#vf7uH"/></g><g transform="translate(-904 -2676)"><use fill="#2c3e50" xlink:href="#vf7uI"/></g><g transform="translate(-904 -2676)"><use fill="#324557" xlink:href="#vf7uJ"/></g><g transform="translate(-904 -2676)"><use fill="#2c3e50" xlink:href="#vf7uK"/></g><g transform="translate(-904 -2676)"><use fill="#324557" xlink:href="#vf7uL"/></g><g transform="translate(-904 -2676)"><use fill="#2c3e50" xlink:href="#vf7uM"/></g><g transform="translate(-904 -2676)"><use fill="#324557" xlink:href="#vf7uN"/></g><g transform="translate(-904 -2676)"><use fill="#2c3e50" xlink:href="#vf7uO"/></g><g transform="translate(-904 -2676)"><use fill="#324557" xlink:href="#vf7uP"/></g><g transform="translate(-904 -2676)"><use fill="#2c3e50" xlink:href="#vf7uQ"/></g><g transform="translate(-904 -2676)"><use fill="#2c3e50" xlink:href="#vf7uR"/></g><g transform="translate(-904 -2676)"><use fill="#324557" xlink:href="#vf7uS"/></g><g transform="translate(-904 -2676)"><use fill="#2c3e50" xlink:href="#vf7uT"/></g><g transform="translate(-904 -2676)"><use fill="#324557" xlink:href="#vf7uU"/></g><g transform="translate(-904 -2676)"><use fill="#9c9c9c" xlink:href="#vf7uV"/></g><g transform="translate(-904 -2676)"><use fill="#c5ccd1" xlink:href="#vf7uW"/></g><g transform="translate(-904 -2676)"><use fill="#e6eaeb" xlink:href="#vf7uX"/></g><g transform="translate(-904 -2676)"><use fill="#324557" xlink:href="#vf7uY"/></g><g transform="translate(-904 -2676)"><use fill="#324557" xlink:href="#vf7uZ"/></g><g transform="translate(-904 -2676)"><use fill="#afdff0" xlink:href="#vf7uaa"/></g><g transform="translate(-904 -2676)"><use fill="#29394a" xlink:href="#vf7uab"/></g></g></svg>