<svg xmlns="http://www.w3.org/2000/svg" xmlns:xlink="http://www.w3.org/1999/xlink" width="164" height="92" viewBox="0 0 164 92"><defs><path id="o85xa" d="M440.4 3099.83l-18.34 10.6 27.13 15.65 18.34-10.6z"/><path id="o85xb" d="M436 3102.35l.48-.24.46-.17.53-.18.59-.17.58-.12.53-.06.59-.06h.64v-5.68h-.64l-.59.06-.53.11-.58.12-.59.12-.53.17-.46.24-.47.23-12.9 7.45v5.62z"/><path id="o85xc" d="M454.23 3154.8l-37.91 21.85a6.2 6.2 0 0 1-5.57 0l-41.83-24.14 40.66-23.5z"/><path id="o85xd" d="M426.87 3138.97l22.32-12.89-53.67-31-22.33 12.9z"/><path id="o85xe" d="M407.35 3127.72l-40.66 23.5-31.4-18.17c-1.53-.88-1.53-2.34 0-3.22l37.9-21.91z"/><path id="o85xf" d="M492.14 3132.88l-37.91 21.91-27.36-15.76 40.66-23.56 24.55 14.18c1.58.94 1.58 2.35.06 3.23z"/><path id="o85xg" d="M402.55 3093.5v5.68l.17-.17.18-.12.06-.17.06-.18v-5.63l-.06.12-.06.18-.18.17z"/><path id="o85xh" d="M402.84 3120.4v5.62l.06.18.06.17.17.12.18.18v-5.63l-.18-.18-.17-.17-.06-.12z"/><path id="o85xi" d="M429.03 3133.35v5.62l4.8-2.75v-5.63z"/><path id="o85xj" d="M468.64 3110.5v5.62l21.86 12.6.41.29.35.3.3.29.29.35.17.29.18.35.06.35.06.35v-5.68l-.06-.35-.06-.3-.18-.35-.17-.35-.3-.29-.29-.3-.35-.29-.41-.29z"/><path id="o85xk" d="M419.83 3110.43v-5.62 5.62z"/><path id="o85xl" d="M423.94 3112.78l.23.12.3.05.29.06h.58l.3-.06.29-.05.23-.12v-5.63l-.23.12-.3.06-.29.06h-.58l-.3-.06-.29-.06-.23-.12-4.05-2.34v5.62l4.05 2.35zm-11.55-6.92l.06.18.12.18.17.11 7.04 4.05v-5.63l-7.04-4.04-.17-.12-.12-.18-.06-.17z"/><path id="o85xm" d="M426.1 3107.15v5.63l.18-.12.18-.17.05-.18.06-.18v-5.62l-.06.17-.05.18-.18.12z"/><path id="o85xn" d="M444.74 3102.35l21.74 12.54v-5.69l-21.74-12.48-.47-.23-.47-.24-.53-.17-.58-.12-.53-.12-.59-.11-.58-.06h-.59v5.68h.59l.58.06.59.06.53.12.58.17.53.18.47.17z"/><path id="o85xo" d="M433.72 3112.43v5.62l.06.18.06.17.17.18.18.12v-5.63l-.18-.17-.17-.12-.06-.18z"/><path id="o85xp" d="M434.19 3113.07v5.63l12.83 7.38v-5.63z"/><path id="o85xq" d="M441.46 3124.03v5.62l.05.18.06.18.18.17.17.12v-5.63l-.17-.17-.18-.12-.06-.18z"/><path id="o85xr" d="M441.92 3124.67v5.63l.24.12.3.05.29.06.29.06.3-.06.28-.06.24-.05.23-.12v-5.63l-.23.12-.24.06-.29.06H442.75l-.3-.06-.3-.06z"/><path id="o85xs" d="M444.1 3124.67v5.63l24.54-14.18v-5.63z"/><path id="o85xt" d="M433.84 3130.6v5.62l.17-.12.18-.18.06-.17.06-.12v-5.68l-.06.17-.06.18-.18.17z"/><path id="o85xu" d="M425.75 3133.99v5.63l27.37 15.82v-5.69z"/><path id="o85xv" d="M421.24 3131v5.63l.06.17.06.18.17.17.18.12v-5.62l-.18-.18-.17-.12-.06-.17z"/><path id="o85xw" d="M421.71 3131.65v5.62l4.04 2.35v-5.63z"/><path id="o85xx" d="M403.31 3121.04v5.63l2.99 1.7v-5.63z"/><path id="o85xy" d="M408.47 3123.97v5.68l2.99 1.7.23.12.23.06.3.06h.59l.29-.06.29-.06.23-.12.18-.11.17-.18.06-.18.06-.17v-5.63l-.06.18-.06.12-.17.17-.18.18-.23.06-.3.11-.29.06h-.59l-.29-.06-.23-.11-.23-.06z"/><path id="o85xz" d="M374.3 3101.7v5.69l20.1-11.66v-5.63z"/><path id="o85xA" d="M336.92 3128.95l35.16-20.33v-5.63l-35.16 20.34-.47.29-.35.3-.3.28-.28.3-.18.35-.12.3-.11.34v5.98-.3l.11-.34.12-.36.18-.29.29-.35.3-.3.34-.29z"/><path id="o85xB" d="M395.22 3115.06v5.69l.18-.18.18-.12.05-.17.06-.18v-5.68l-.06.17-.05.18-.18.18z"/><path id="o85xC" d="M372.08 3103v5.62l20.98 12.13.23.11.24.06.29.06H394.4l.3-.06.29-.06.23-.11v-5.69l-.23.12-.3.12h-.29l-.29.06-.3-.06h-.28l-.24-.12-.23-.12z"/><path id="o85xD" d="M368.92 3146.82v5.69l39.55-22.86v-5.68z"/><path id="o85xE" d="M394.4 3090.1v5.63l5.92 3.45.3.12.23.06.3.06h.58l.3-.06.28-.06.24-.12v-5.68l-.24.12-.29.12-.3.05H401.15l-.29-.05-.23-.12-.3-.12z"/><path id="o85xF" d="M400.32 3093.5c.59.35 1.58.35 2.17 0 .59-.35.59-.94 0-1.29l-7.03-4.04a2.36 2.36 0 0 0-2.17 0l-.12.06-22.03 12.77c-.06 0-.06.06-.12.06-.05 0-.05.06-.11.06l-36.21 20.92c-1.82 1.05-2.7 2.46-2.7 3.8 0 1.35.94 2.76 2.7 3.81l30.82 17.82.06.06.05.05 41.31 23.85a13.43 13.43 0 0 0 6.57 1.58c2.4 0 4.74-.52 6.56-1.58l36.15-20.92.12-.05.12-.06 36.2-20.92c1.82-1.06 2.7-2.4 2.7-3.81 0-1.35-.88-2.75-2.7-3.8l-22.84-13.2-.12-.05-.12-.06-22.67-13.07a13.43 13.43 0 0 0-6.57-1.58c-2.4 0-4.74.53-6.56 1.58l-12.83 7.44-5.92-3.45a2.36 2.36 0 0 0-2.17 0c-.58.35-.58.93 0 1.29l7.03 4.04 4.05 2.34c.58.35 1.58.35 2.16 0 .59-.35.59-.93 0-1.29l-2.98-1.7 12.89-7.44a9.03 9.03 0 0 1 4.4-1.05c1.57 0 3.16.35 4.39 1.05l21.68 12.48-17.23 9.97-12.83-7.39a2.36 2.36 0 0 0-2.17 0c-.59.35-.59.94 0 1.3l12.83 7.37-5.1 2.93c-.58.36-.58.94 0 1.3.59.34 1.59.34 2.17 0l24.5-14.19 21.85 12.6c1.23.7 1.82 1.64 1.82 2.52 0 .94-.59 1.82-1.82 2.52l-35.22 20.33-26.25-15.17 4.8-2.76c.6-.35.6-.93 0-1.29a2.36 2.36 0 0 0-2.16 0l-4.8 2.76-3-1.7a2.36 2.36 0 0 0-2.16 0c-.59.35-.59.94 0 1.29l4.04 2.34 27.3 15.76-35.15 20.34a9.03 9.03 0 0 1-4.4 1.05 9.03 9.03 0 0 1-4.39-1.05l-40.2-23.2 39.56-22.86 2.99 1.7c.58.35 1.58.35 2.16 0 .59-.35.59-.94 0-1.29l-4.04-2.34-4.04-2.35a2.36 2.36 0 0 0-2.17 0c-.59.35-.59.94 0 1.3l2.99 1.7-39.55 22.84-29.89-17.17c-1.23-.7-1.81-1.64-1.81-2.51 0-.94.58-1.82 1.81-2.52l35.22-20.34 20.92 12.07c.58.36 1.58.36 2.16 0 .59-.35.59-.93 0-1.29l-20.97-12.07 20.15-11.6z"/><path id="o85xG" d="M413.56 3172.9v5.62h.88l.88-.06.88-.11.88-.18.82-.23.76-.3.76-.29.7-.35 36.16-20.92.12-.06.06-.06 36.2-20.92.65-.4.53-.42.47-.46.4-.47.3-.47.18-.53.17-.53V3125.61v.53l-.17.53-.18.46-.3.53-.4.47-.47.47-.53.4-.64.42-36.21 20.92-.06.06-.12.06-36.15 20.86-.7.4-.77.3-.76.3-.82.17-.88.17-.88.12-.88.12z"/><path id="o85xH" d="M332 3125.85v5.68l.06.47.12.53.23.52.3.47.34.47.47.47.59.4.59.42 30.82 17.81h.11l.06.06L407 3177l.7.35.77.3.76.29.82.23.88.18.88.11.88.06h.87v-5.62h-.87l-.88-.12-.88-.12-.88-.17-.82-.18-.76-.3-.76-.28-.7-.41-41.32-23.8-.06-.05-.11-.06-30.82-17.76-.6-.4-.58-.42-.47-.47-.35-.46-.29-.53-.23-.47-.12-.53z"/></defs><g><g transform="translate(-332 -3087)"><g><use fill="#ebebeb" xlink:href="#o85xa"/></g><g><use fill="#415a73" xlink:href="#o85xb"/></g><g><use fill="#ebebeb" xlink:href="#o85xc"/></g><g><use fill="#899ea3" xlink:href="#o85xd"/></g><g><use fill="#bfc7c9" xlink:href="#o85xe"/></g><g><use fill="#bfc7c9" xlink:href="#o85xf"/></g><g><use fill="#415a73" xlink:href="#o85xg"/></g><g><use fill="#4f6d8c" xlink:href="#o85xh"/></g><g><use fill="#415a73" xlink:href="#o85xi"/></g><g><use fill="#4f6d8c" xlink:href="#o85xj"/></g><g><use fill="#475459" xlink:href="#o85xk"/></g><g><use fill="#4f6d8c" xlink:href="#o85xl"/></g><g><use fill="#415a73" xlink:href="#o85xm"/></g><g><use fill="#4f6d8c" xlink:href="#o85xn"/></g><g><use fill="#4f6d8c" xlink:href="#o85xo"/></g><g><use fill="#4f6d8c" xlink:href="#o85xp"/></g><g><use fill="#4f6d8c" xlink:href="#o85xq"/></g><g><use fill="#4f6d8c" xlink:href="#o85xr"/></g><g><use fill="#415a73" xlink:href="#o85xs"/></g><g><use fill="#415a73" xlink:href="#o85xt"/></g><g><use fill="#4f6d8c" xlink:href="#o85xu"/></g><g><use fill="#4f6d8c" xlink:href="#o85xv"/></g><g><use fill="#4f6d8c" xlink:href="#o85xw"/></g><g><use fill="#4f6d8c" xlink:href="#o85xx"/></g><g><use fill="#4f6d8c" xlink:href="#o85xy"/></g><g><use fill="#415a73" xlink:href="#o85xz"/></g><g><use fill="#415a73" xlink:href="#o85xA"/></g><g><use fill="#415a73" xlink:href="#o85xB"/></g><g><use fill="#4f6d8c" xlink:href="#o85xC"/></g><g><use fill="#415a73" xlink:href="#o85xD"/></g><g><use fill="#4f6d8c" xlink:href="#o85xE"/></g><g><use fill="#2c3e50" xlink:href="#o85xF"/></g><g><use fill="#415a73" xlink:href="#o85xG"/></g><g><use fill="#4f6d8c" xlink:href="#o85xH"/></g></g></g></svg>