<svg xmlns="http://www.w3.org/2000/svg" xmlns:xlink="http://www.w3.org/1999/xlink" viewBox="0 0 723.447 102.729"><defs><style>.a,.c{fill:#1f1e1e;}.a{font-size:11px;font-family:SegoeUI-Italic, Segoe UI;font-style:italic;}.b{fill:url(#a);}.c{font-size:34px;font-family:SegoeUI, Segoe UI;}.d{fill:#fff;}</style><linearGradient id="a" y1="0.5" x2="1" y2="0.5" gradientUnits="objectBoundingBox"><stop offset="0" stop-color="#951b81"/><stop offset="1" stop-color="#5c2483"/></linearGradient></defs><g transform="translate(-0.7 -1007.542)"><g transform="translate(-36.3 1008.542)"><g transform="translate(409.317 0)"><text class="a" transform="translate(2.145 11)"><tspan x="0" y="0">KOBİLERE MİKRO YAZILIM’DAN</tspan></text><text class="a" transform="translate(0 24.939)"><tspan x="0" y="0">TİCARİ YAZILIM:</tspan></text></g><path class="b" d="M1.273,93.027H-350V2.1H16.642Z" transform="translate(387 0.789)"/><g transform="translate(397.447 24.703)"><text class="c" transform="translate(5.504 34)"><tspan x="0" y="0">MiKRO JUMP </tspan></text><text class="c" transform="translate(0 68.026)"><tspan x="0" y="0">YÜKSELMEK iÇiN SIÇRA!</tspan></text></g></g><g transform="translate(37.261 1043.34)"><g transform="translate(113.07 3.314)"><path class="d" d="M128.867,7.007a.358.358,0,0,1-.1.292l.1.195c-.1.292-.1.585-.195.877,0,.1.195.292,0,.487,0,.39-.1.975-.1,1.852a9.253,9.253,0,0,1-.195,1.949,1.9,1.9,0,0,0-.1.78c0,.292-.1,1.072-.195,2.242a20.422,20.422,0,0,1-.292,2.437,10.282,10.282,0,0,1-.585,2.339,16.288,16.288,0,0,1-1.462,3.412c0,.1,0,.195-.1.195a3.478,3.478,0,0,1-1.17,1.56,3.538,3.538,0,0,1-.682.292c-.195,0-.1-.1-.195-.1s-.195.1-.39.1-.292-.1-.39-.1a8.792,8.792,0,0,1-6.433-5.264c-.1-.39-.39-.78-.39-.975V18.119c0-.1.39-.487.487-.682a1.465,1.465,0,0,1,.682-.877c-.195.1-.195.39-.292.487h0v.1c.195-.195.487-.585.78-.877.195-.195.39-.195.585-.292,0,.195-.1.585.195.682-.195.1-.1.39-.195.487,0,.1-.292.195-.292.39.1.1.292,0,.487-.1a3,3,0,0,0-.78,1.462c0,.195.1.1.195.195-.1.195-.195.487,0,.487a.1.1,0,0,0,.1-.1,2.81,2.81,0,0,0,1.072,2.729h0c.487.975,1.852,1.072,2.632,1.072,1.949,0,2.534-2.632,3.119-3.8.1-.292.39-1.56.487-2.144,0-.1.1-.195.195-.292a7.286,7.286,0,0,0,.195-1.949l.195-2.047c.1-.1-.1-.195.1-1.17V11.3a.586.586,0,0,0,.1-.39c.1-3.412.487-5.556.682-7.408.1,0,.195-.1.39-.1.1,0,.292.292.487.39l.78.78c.1.487.39,1.267.39,1.462C128.964,6.129,128.867,6.617,128.867,7.007Z" transform="translate(-116 -3.4)"/><path class="d" d="M144.911,11.223c-.1.39-.39.975-.292,1.267-.195.975-.39,1.56-.487,2.437-.1.975-.487,2.729-.487,2.827v1.56c0,.195-.1,0-.1.195a2.194,2.194,0,0,0,.487,1.462c.195.292.585.39.877.585,0,.1.195.292.39.585-.1.1-.1.487-.195.487h-.292a.3.3,0,0,0,.1.195c-.1,0-.195.195-.39.195s-.1-.1-.292-.1c-.1,0-.195-.1-.585-.292a8.992,8.992,0,0,0-.78-.487,3.309,3.309,0,0,1-.585-.585c-.1,0-.195-.195-.195-.1v-.1a.1.1,0,0,1,.1-.1,4.174,4.174,0,0,1-.585-1.657v-.195c0-.195-.195-.39-.195-.585V14.732c0-.1,0-.1-.1-.195-2.047,2.632-4.094,6.531-6.921,7.9h-.195a5.112,5.112,0,0,1-1.755.195c-.39,0-.877-.78-1.17-.78-.1,0,0,.1-.1.1s-.195-.1-.487-.39c-.195-.292-.39-.487-.39-.682a.739.739,0,0,1-.195-.39A1.06,1.06,0,0,0,130,20c-.1-.1-.1-.195-.1-.39v-.487c0-.1.1-1.365.195-2.047a4.945,4.945,0,0,1,.195-.877V16l1.462-4.679L133.7,6.642c.292-.1.39-.585.585-.975a.608.608,0,0,0,.292-.487c.1-.195,0-.487.1-.682h.1c.195,0,.1.1.195.1s.195-.195.292-.195c.195,0,0,.1.195.1.1,0,.1-.1.195-.1.487,0,.682.585.682.78a9.546,9.546,0,0,1-.877,2.924c0,.1.1.1,0,.195-.39,1.17-.877,2.242-1.267,3.314-.1.195-.1.585-.195.877l-.877,2.242-.1.585c-.195.585-.585,1.267-.78,1.852-.1.877-.195,2.437-.195,2.534,0,.292-.1.585.39.585a3.185,3.185,0,0,0,1.56-.877h.195a22.732,22.732,0,0,0,3.022-3.7c.39-.682.975-1.267,1.462-1.949a.481.481,0,0,1,.1-.292,10.991,10.991,0,0,0,1.17-1.755c.39-.585.975-2.047,1.365-2.242-.1-.39.585-1.072.78-1.365.1-.39.585-1.365.877-2.144a9.018,9.018,0,0,1,.487-.975c.1.1.195-.1.39-.1.1,0,0,.1.1.1.195,0,.1-.1.1-.1.195.1.487,0,.585,0a10.812,10.812,0,0,1,1.072,1.072v.487C145.788,8.007,145.008,10.151,144.911,11.223Z" transform="translate(-116.351 -3.425)"/><path class="d" d="M166.257,8.579c0,.195,0,.487-.1.585,0,.1-.1.195-.195.39h0a.1.1,0,0,0,.1.1c-.1.1-.1.195-.195.39-.487,2.144-1.072,4.386-1.462,6.531,0-.1,0-.195-.1-.195-.1.195,0,.39,0,.585h0a.1.1,0,0,0-.1-.1c0,.195-.195.39-.1.585h0v-.1c0,.1-.1.195,0,.39h0a.1.1,0,0,0-.1-.1c-.1.39-.1.877-.195,1.462a4.717,4.717,0,0,1,0,1.462,4.939,4.939,0,0,0,.195,1.267,1.385,1.385,0,0,1,.195.585v.39c0,.195-.292.39-.487.39-.1,0-.195-.1-.39-.1a1.483,1.483,0,0,1-.585-.39v-.195a2.414,2.414,0,0,1-.78-1.365,15.682,15.682,0,0,1-.292-2.437c0-.1.195-1.56.195-1.657v-.292h.195c.1-.585-.1-.487-.1-.585s.292-.78.39-1.17a1.9,1.9,0,0,0,.1-.78.21.21,0,0,0-.195.195,2.958,2.958,0,0,1,.292-1.072v-.39a.3.3,0,0,0,.1.195c.1-.1,0-.1,0-.195s.1-.39.1-.585a.982.982,0,0,0,.1-.292h-.1c0-.487.195-1.365.195-1.56s.1-.1,0-.195c-.1.1-.39.195-.39.292l-.1-.1-.195.195c0,.1,0,.1.1.1a1.073,1.073,0,0,1-.292.585c0-.1.1-.1.1-.195a1.3,1.3,0,0,0-.585.877,2.126,2.126,0,0,1-.39.487,1.478,1.478,0,0,1-.39.78c-.1.195,0,.39-.1.585-.487,1.072-1.17,2.242-1.755,3.314l-.292.292c-.487.877-.78,1.852-1.267,2.632-.585,1.072-.78,2.437-1.365,3.412a1.946,1.946,0,0,1-.877.195c-.1,0-.195-.195-.292-.292-.585-.292-1.072-.682-1.072-1.17l-.195-.195c-.1-.39,0-.78-.1-1.17a3.617,3.617,0,0,1-.195-.877c0-.1.1-.1.195-.195V19.3l.1-.1c-.292-.487-.1-1.17-.195-1.755l.1-4.191c0-.1-.1,0-.1-.1-.1-.1.1-.39.1-.487a3.014,3.014,0,0,0-.195-.78v-.585a6,6,0,0,0-.195-1.852,1.243,1.243,0,0,0-.487.682c-1.17,2.729-2.534,5.946-3.607,8.968-.195.585-.487,1.17-.682,1.657-.292,1.072-.585,2.144-.78,3.217-.1.1,0,.585-.292.78-.1,0-.195.195-.39.195s-.39-.1-.585,0c-.1-.292-.487-.585-.682-.975a1.067,1.067,0,0,1,0-.78L145.4,23c-.1-.195.195-.195-.1-.39a.739.739,0,0,0,.195-.39l.195-.195c-.1-.1.1-.292-.195-.292-.1,0,0-.1-.1.1l.195-.195c.1-.195-.1-.487,0-.78a29.667,29.667,0,0,1,1.365-3.8,1.483,1.483,0,0,1,.39-.585v-.292c.1-.39.585-.975.487-1.365.1,0,.195,0,.195.1a.3.3,0,0,0,.1.195c.1-.1.1-.292.195-.39a6.307,6.307,0,0,1-.39,1.267h0c.1,0,.1-.1.1-.195l1.072-2.534v-.195a5.286,5.286,0,0,0-.585,1.072h0a.1.1,0,0,1-.1-.1l-.195.195a.737.737,0,0,1-.1.39h-.195a7.313,7.313,0,0,1,.78-1.755c.1-.195.195-.682.292-.877,0,0,.1-.195.195-.195a1.029,1.029,0,0,0-.195.487c0,.1.1.1.1.195a2.131,2.131,0,0,1-.292.487v.195a.3.3,0,0,0-.195-.1c0,.292-.1.585-.1,1.072a11.348,11.348,0,0,0,.585-1.462c0,.1-.1.1-.1.195l.1.1c.1-.1.1-.292.195-.39-.1-.1-.195-.1-.195,0v-.1l.1-.1h0a.1.1,0,0,1,.1.1l3.022-5.946-.1-.1-.195.195a1.4,1.4,0,0,0,.195-.292h.195c.1-.1.1-.39.292-.487l.292.1c-.1.1-.195.1-.195.195,0-.1.1,0,0-.1-.1.1-.195.39-.39.487v.195l-.78,1.267a.358.358,0,0,0,.1.292.1.1,0,0,0-.1-.1,13.83,13.83,0,0,1-1.072,1.755c.292-.585.585-1.462.877-2.144A27.784,27.784,0,0,0,153,4.875l.195-.195c.1,0,.1.195.195.292l.1-.1c.1,0,.195.1.39.1a.135.135,0,0,0,0-.195c.39.292.585.195.78.585h.1c.1-.1,0-.1,0-.195.585.39.585,1.072.78,1.56.1.487.292,1.267.39,1.755.1.877.195,2.729.195,2.827v2.144c0,.1-.1,2.242-.195,3.509l.1.1c.195-.1.195-.195.195-.292h0a.1.1,0,0,0,.1.1c.1,0,.1-.1.195-.195-.1.1-.1.1,0,.292,0-.1.1-.195.195-.292v-.292c0-.1-.39,0-.195.1h-.1a8.13,8.13,0,0,0,.78-1.17,7.727,7.727,0,0,0-.39.877h0v.1a3.244,3.244,0,0,0,.585-.975c0,.1,0,.195.1.195a.744.744,0,0,0,.195-.487l-.1.1a8.994,8.994,0,0,0,.487-.78c.1-.195.39-.487.1-.585a1.433,1.433,0,0,0,.487-.585c.487-.585.877-1.267,1.365-1.949.39-.585.682-1.267,1.072-1.949,0-.1.195-.1.195-.195l.877-1.267a11.427,11.427,0,0,1,.487-1.072,1.325,1.325,0,0,0,.585-.78c-.1,0-.1.1-.195.1.1-.1.585-.292.487-.682v.1c.1-.1.195-.195.195-.292a.34.34,0,0,0-.195-.1c-.195,0-.292.195-.39.39a2.993,2.993,0,0,1,.78-1.267h.195a.1.1,0,0,1-.1.1c.1.1.292,0,.487.1V3.9a2.131,2.131,0,0,1,.487.292c.1.1.195.1.195.195a.739.739,0,0,1,.39.195c.1.1.1.292.195.39a5.79,5.79,0,0,1,.39.78,7.963,7.963,0,0,1,.1,1.365C166.549,7.409,166.257,8.481,166.257,8.579ZM146.08,21.933l-.1.1-.195-.1.1-.1Zm2.144-5.459h-.1l-.1.487h.1Zm.1-.682-.1-.1-.1.195.1.1Zm.292-.682h-.1l-.1.195h.1Zm0-.78v-.195h.1v.195Zm1.462-3.022a.586.586,0,0,0,.1-.39l.1.1C150.174,11.016,150.076,11.113,150.076,11.308Zm.292-.195c.1-.1,0-.292.1-.39-.1-.1-.195,0-.292.1a.739.739,0,0,1,.195-.39l.1-.1a.1.1,0,0,0-.1-.1l.1-.1.1-.1a.586.586,0,0,0,.1.39c.1,0,.292-.195.39-.39Zm.292-1.072-.1.195-.1-.1.1-.195Zm3.217,12.184h0l-.195-.195h.1Zm2.242-4.776h-.1v.195h.1Zm.1-.39-.1.195.1.1.1-.195Zm1.267-2.144h0V14.72h.1Zm.585-1.267-.292.682h-.1l.195-.585h.195Zm.1-.1a2.656,2.656,0,0,1,.585-1.17A3.294,3.294,0,0,1,158.167,13.55Zm.975-1.755-.1.195-.1-.1.1-.195Zm.195-.292-.195.195-.1-.1.292-.1Zm.39-.585h0a.1.1,0,0,1-.1-.1h0c.1-.1.39-.292.39-.39A.829.829,0,0,0,159.726,10.918Zm.292-.585h0l.1-.292h.1Zm.195.195-.1.195h-.1l.195-.195Zm.292-.877a.3.3,0,0,1-.1-.195h.1a.1.1,0,0,1,.1.1h0l.1-.1C160.6,9.553,160.506,9.553,160.506,9.651Zm.292-.39c0-.1.1-.195.1-.39C160.8,8.969,160.8,9.066,160.8,9.261Zm.877-1.462V7.7c0-.1,0-.195.1-.195A.358.358,0,0,1,161.676,7.8Zm.292,13.061h-.1l-.1-.39h.1Zm.292-13.939-.1.195h-.1l.195-.195Zm.195-.292h0c-.1,0-.1-.1-.195-.1.195-.1.39-.39.487-.487C162.748,6.239,162.553,6.337,162.455,6.629Zm.292,3.9a.21.21,0,0,0,.195-.195Zm.39-5.069a.879.879,0,0,0-.1.487c-.1-.1-.1,0-.195,0Zm-.195,4.874c.195-.195.292-.39.39-.487A.973.973,0,0,0,162.943,10.333Zm.292,1.365h0l-.1.195h.1Zm.682-7.311h0a1.06,1.06,0,0,0-.1.487c.1-.195.195-.292.1-.487Z" transform="translate(-116.74 -3.413)"/><path class="d" d="M178.394,12.088v.195a8.816,8.816,0,0,1-2.242,3.7,19.8,19.8,0,0,1-4.094,2.729c-.195.1-.487-.1-.682-.1s-.585.195-.78.195a.427.427,0,0,1-.292-.1v-.1a.536.536,0,0,0-.292.487c-.195.39-.195,1.17-.487,1.755-.1.39-.39.975-.487,1.365a4.352,4.352,0,0,1-.487,1.949l-.195.292c-.1,0-.1.1-.292.1-.1,0-.195-.195-.39-.195s-.195.1-.292.1c-.1-.1,0-.39-.195-.39h-.195c0-.1.1,0,.1-.195s-.292-.39-.487-.78c.1-.1,0-.195,0-.39,0-.487.585-1.267.682-1.755.39-1.56.877-3.217,1.267-4.776.682-2.729,1.365-5.653,2.144-8.383.1-.39.1-.877.195-1.462a2.094,2.094,0,0,1-1.072-2.144.739.739,0,0,1,.39-.195,2.717,2.717,0,0,1,.975-.1h.682c.195,0,0,.1.1.1a6.232,6.232,0,0,1,1.56.585c.1.1.39.1.487.195,2.632,1.657,4.679,3.8,4.679,6.043C178.589,11.211,178.492,11.7,178.394,12.088Zm-5.361-5.653c-.1,0,0-.1,0,0-.195-.1-.39,0-.487,0v.292c0,.195.195.877.195,1.17-.1.877-.292,1.755-.39,2.437-.292,1.267-.682,2.729-.877,3.607a16.977,16.977,0,0,0-.487,2.144,2.846,2.846,0,0,0,.877-.195c-.195-.39.292-.39.487-.585v.1h0c-.1.1,0,.1.1.1.1-.1.585-.487.682-.585h-.195c-.1-.1,0-.1,0-.1a7.526,7.526,0,0,0,3.7-5.556C176.64,8.384,174.105,6.434,173.033,6.434Z" transform="translate(-117.278 -3.413)"/></g><g transform="translate(0 2.924)"><path class="d" d="M24.953,24.542V6.7H17.545V24.542H12.379V6.7H5.069V24.542H0V7.386A10.054,10.054,0,0,1,.195,5.437,3.6,3.6,0,0,1,.877,4.072a2.664,2.664,0,0,1,1.365-.78A6.7,6.7,0,0,1,4.386,3H25.733c1.657,0,2.827.292,3.412.975a5,5,0,0,1,.877,3.314V24.347H24.953Z" transform="translate(0 -3)"/><path class="d" d="M46.1,24.544V3.1h5.069V24.447H46.1ZM57.212,13.53,65.2,24.544H59.259L51.851,13.822,60.624,3.2H66.18Z" transform="translate(-1.165 -3.003)"/><path class="d" d="M72.966,6.707V24.544H67.8V7.389a4.389,4.389,0,0,1,.975-3.217A4.6,4.6,0,0,1,72.186,3.1h9.163V6.609H72.966Z" transform="translate(-1.713 -3.003)"/><path class="d" d="M102.315,20.158a8.743,8.743,0,0,1-.195,1.755,3.01,3.01,0,0,1-.682,1.365,2.773,2.773,0,0,1-1.365.877,10.62,10.62,0,0,1-2.144.39c-.877,0-1.755.1-2.437.1H90.033c-.682,0-1.462-.1-2.242-.1a4.762,4.762,0,0,1-3.119-.877A4.1,4.1,0,0,1,83.6,20.45V7.584a5.253,5.253,0,0,1,.877-3.217c.585-.78,1.755-1.17,3.412-1.17h2.437a10.594,10.594,0,0,0,1.755-.1h1.852a11.194,11.194,0,0,1,1.755.1h2.339a8.743,8.743,0,0,1,1.755.195,2.289,2.289,0,0,1,1.365.682,2.475,2.475,0,0,1,.877,1.267,6.7,6.7,0,0,1,.292,2.144V20.158ZM97.149,6.707h-8.48V21.035h8.48Z" transform="translate(-2.112 -3.003)"/><rect class="d" width="5.166" height="16.083" transform="translate(34.896 5.459)"/></g><circle class="d" cx="2.632" cy="2.632" r="2.632" transform="translate(34.896 1.56)"/><circle class="d" cx="2.632" cy="2.632" r="2.632" transform="translate(88.214 11.112)"/><rect class="d" width="0.975" height="26.22" transform="translate(107.611)"/></g></g></svg>