<svg xmlns="http://www.w3.org/2000/svg" xmlns:xlink="http://www.w3.org/1999/xlink" width="309" height="302" viewBox="0 0 309 302"><defs><path id="ze5aa" d="M832.7 1163.43l-3.68-3.68-.3-.46-.16-.3-.3-.46-.16-.62-.15-.46-.15-.6v-.47l-.16-.61V1048.39l.16-.76v-.62l.15-.76.15-.61.16-.77.15-.61.15-.77.16-.61.3-.77.3-.61.31-.61.31-.77.3-.61.31-.77.31-.61.46-.61.46-.62.3-.6.47-.62.45-.61.46-.62.46-.46.46-.6.62-.47.46-.61.46-.46.6-.46.47-.3.61-.47.61-.3.46-.46 148.58-85.63.62-.3.61-.31.46-.3.61-.16.46-.15.61-.16h.46l.46-.15h1.54l.45.15h.31l.46.16.46.3.3.16 3.68 3.67-.3-.15-.46-.3-.46-.16h-.3l-.47-.15h-1.53l-.46.15h-.46l-.61.15-.46.16-.61.15-.46.3-.62.31-.6.3-148.6 85.63-.45.46-.61.31-.62.46-.46.3-.6.47-.47.46-.46.6-.61.47-.46.61-.46.46-.46.61-.46.61-.46.62-.3.61-.46.61-.46.62-.31.6-.3.77-.31.62-.3.76-.32.62-.3.6-.3.77-.16.62-.15.76-.16.77-.15.61-.15.61-.16.77v.61l-.15.77V1159.45l.15.6v.47l.16.61.15.46.15.61.3.46.16.46z"/><path id="ze5ab" d="M842.35 1033.53l148.58-85.78c6.13-3.52 11.03-.6 11.03 6.44v105.54c0 7.04-4.9 15.62-11.03 19.14l-148.58 85.78c-6.13 3.53-11.03.62-11.03-6.43v-105.54c0-7.04 5.05-15.62 11.03-19.15z"/><path id="ze5ac" d="M843.11 1041.5l39.22-22.52 107.99-62.5c2.76-1.53 5.05-.3 5.05 2.92v102.78c0 3.22-2.3 7.2-5.05 8.73l-122.08 70.46-25.28 14.55c-2.76 1.69-5.05.3-5.05-2.9v-102.79c.15-3.22 2.3-7.05 5.2-8.73z"/><path id="ze5ad" d="M865.63 1054.83l102.17-58.98v70.31l-102.17 59.13z"/><path id="ze5ae" d="M865.63 1054.83l102.17-58.98V985.6l-102.17 59.13z"/><path id="ze5af" d="M891.52 1056.66c1.38-.76 2.45-.15 2.45 1.38a5.45 5.45 0 0 1-2.45 4.3c-1.38.76-2.45.14-2.45-1.39a5.45 5.45 0 0 1 2.45-4.29z"/><path id="ze5ag" d="M891.52 1072.13c1.38-.76 2.45-.15 2.45 1.38a5.45 5.45 0 0 1-2.45 4.3c-1.38.76-2.45.15-2.45-1.39a5.45 5.45 0 0 1 2.45-4.29z"/><path id="ze5ah" d="M891.52 1088.68c1.38-.77 2.45-.16 2.45 1.38a5.45 5.45 0 0 1-2.45 4.29c-1.38.76-2.45.15-2.45-1.38a5.45 5.45 0 0 1 2.45-4.3z"/><path id="ze5ai" d="M899.18 1053.6l38.75-22.36v2.9l-38.75 22.37z"/><path id="ze5aj" d="M899.18 1069.22l41.97-24.2v2.91l-41.97 24.2z"/><path id="ze5ak" d="M899.18 1085.77l33.08-19.15v2.91l-33.08 19.15z"/><path id="ze5al" d="M1042.7 1169.56l-43.8 25.27v-2.3l43.8-25.27z"/><path id="ze5am" d="M1103.98 1142.14v8.42l-.16.46-.3.46-.16.46-.3.3-.31.47-.3.46-.47.3-.3.46-.46.3-.46.31-.61.46-.46.31-149.2 86.09-.61.3-.61.3-.62.32-.6.3-.77.15-.62.31-.76.15-.62.16-.76.15-.61.15-.77.16h-.77l-.76.15H937.17l-.77-.15h-.77l-.76-.16-.77-.15-.61-.15-.77-.16-.6-.15-.78-.3-.6-.16-.62-.3-.61-.31-.62-.3-.6-.31-91.6-53-.62-.31-.46-.3-.46-.47-.46-.3-.46-.46-.3-.3-.31-.47-.3-.3-.32-.46-.3-.46-.15-.3-.16-.47-.15-.46v-8.12l.15.46.16.46.15.46.3.3.31.47.3.46.31.3.31.46.46.31.46.46.46.3.46.31.61.46 91.6 52.85.61.46.62.3.6.16.62.3.61.3.77.16.61.16.77.15.61.15.77.16.76.15.77.15h1.53l.61.15h1.54l.76-.15h1.53l.77-.15.77-.15.6-.16.77-.15.62-.15.76-.16.62-.15.76-.3.61-.31.62-.16.6-.3.62-.3 149.2-86.25.46-.3.6-.31.47-.46.46-.3.3-.47.46-.3.31-.46.3-.3.31-.47.16-.46.3-.46.16-.3z"/><path id="ze5an" d="M836.68 1167.56l149.2-86.08c6.12-3.52 16.08-3.52 22.05 0l91.6 53c6.13 3.52 6.13 9.34 0 12.87l-149.2 86.08c-6.12 3.52-16.07 3.52-22.2 0l-91.45-53c-6.13-3.52-6.13-9.34 0-12.87z"/><path id="ze5ao" d="M997.06 1197.74l40.9-23.59-31.25-18.07-40.9 23.59z"/><path id="ze5ap" d="M855.37 1170.63l11.8-6.74 17.76-10.26 18.54-10.73 9.34-5.36c.15-.15.3-.15.46-.3l11.8-6.74 17.76-10.27 18.54-10.72 24.2-13.94 5.36-3.06c3.22-1.84 8.58-1.84 11.8 0l46.26 26.8c3.21 1.84 3.21 4.9 0 6.9l-57.45 33.08c-.15.16-.3.16-.46.3l-77.66 44.58c-3.21 1.84-8.57 1.84-11.8 0l-46.25-26.8c-3.22-1.84-3.22-4.9 0-6.74z"/><path id="ze5aq" d="M915.1 1164.2l6.75-3.83a5.52 5.52 0 0 1 4.9 0l6.74 3.82c1.38.77 1.38 2 0 2.76l-6.74 3.83a5.52 5.52 0 0 1-4.9 0l-6.74-3.83c-1.38-.76-1.38-1.99 0-2.76z"/><path id="ze5ar" d="M888.91 1179.36l-6.74 3.83c-1.37.76-1.37 1.99 0 2.76l6.6 3.83c1.37.76 3.51.76 4.9 0l6.73-3.83c1.38-.77 1.38-2 0-2.76l-6.58-3.83a5.52 5.52 0 0 0-4.9 0z"/><path id="ze5as" d="M905.3 1188.86l-6.74 3.83c-1.37.76-1.37 1.99 0 2.75l6.6 3.83c1.37.77 3.51.77 4.9 0l6.73-3.83c1.38-.76 1.38-1.99 0-2.75l-6.58-3.83a5.52 5.52 0 0 0-4.9 0z"/><path id="ze5at" d="M893.82 1170.78l6.74-3.83c1.37-.76 1.37-1.99 0-2.76l-6.59-3.82a5.52 5.52 0 0 0-4.9 0l-6.74 3.82c-1.38.77-1.38 2 0 2.76l6.58 3.83a4.7 4.7 0 0 0 4.9 0z"/><path id="ze5au" d="M910.2 1161.44l6.75-3.83c1.37-.77 1.37-2 0-2.76l-6.74-3.83a5.52 5.52 0 0 0-4.9 0l-6.75 3.83c-1.37.77-1.37 2 0 2.76l6.74 3.83c1.38.76 3.53.76 4.9 0z"/><path id="ze5av" d="M884.01 1176.45l-6.74 3.83a5.52 5.52 0 0 1-4.9 0l-6.74-3.83c-1.38-.77-1.38-2 0-2.76l6.74-3.83a5.52 5.52 0 0 1 4.9 0l6.74 3.83c1.38.77 1.38 2 0 2.76z"/><path id="ze5aw" d="M898.72 1173.7l6.74-3.84a5.52 5.52 0 0 1 4.9 0l6.74 3.83c1.38.77 1.38 2 0 2.76l-6.74 3.83a5.52 5.52 0 0 1-4.9 0l-6.74-3.83c-1.38-.77-1.38-2 0-2.76z"/><path id="ze5ax" d="M947.89 1145.2l6.74-3.83a5.52 5.52 0 0 1 4.9 0l6.74 3.83c1.38.77 1.38 2 0 2.76l-6.74 3.83a5.52 5.52 0 0 1-4.9 0l-6.74-3.83c-1.38-.77-1.38-2 0-2.76z"/><path id="ze5ay" d="M964.28 1154.7l6.74-3.83a5.52 5.52 0 0 1 4.9 0l6.74 3.83c1.38.76 1.38 1.99 0 2.75l-6.74 3.83a5.52 5.52 0 0 1-4.9 0l-6.74-3.83c-1.23-.76-1.23-1.99 0-2.75z"/><path id="ze5az" d="M926.6 1151.94l6.74-3.98c1.37-.77 1.37-2 0-2.76l-6.6-3.83a5.52 5.52 0 0 0-4.9 0l-6.73 3.83c-1.38.77-1.38 2 0 2.76l6.58 3.83c1.38.92 3.53.92 4.9.15z"/><path id="ze5aA" d="M942.99 1142.44l6.74-3.83c1.37-.76 1.37-1.99 0-2.75l-6.74-3.83a5.52 5.52 0 0 0-4.9 0l-6.75 3.83c-1.37.76-1.37 1.99 0 2.75l6.74 3.83c1.38.77 3.68.77 4.9 0z"/><path id="ze5aB" d="M931.5 1154.7l6.74-3.83a5.52 5.52 0 0 1 4.9 0l6.59 3.83c1.37.76 1.37 1.99 0 2.75l-6.74 3.83a5.52 5.52 0 0 1-4.9 0l-6.6-3.83c-1.37-.76-1.37-1.99 0-2.75z"/><path id="ze5aC" d="M915.1 1183.19l39.53-22.82a5.52 5.52 0 0 1 4.9 0l6.74 3.82c1.38.77 1.38 2 0 2.76l-39.52 22.83a5.52 5.52 0 0 1-4.9 0l-6.74-3.83c-1.38-.77-1.38-2 0-2.76z"/><path id="ze5aD" d="M1002.57 1113.65l6.74-3.83a5.52 5.52 0 0 1 4.9 0l6.74 3.83c1.38.76 1.38 1.99 0 2.75l-6.74 3.83a5.52 5.52 0 0 1-4.9 0l-6.58-3.83c-1.54-.76-1.54-1.99-.16-2.75z"/><path id="ze5aE" d="M1018.96 1123.14l6.74-3.83a5.52 5.52 0 0 1 4.9 0l6.74 3.83c1.38.77 1.38 2 0 2.76l-6.74 3.83a5.52 5.52 0 0 1-4.9 0l-6.58-3.83c-1.54-.77-1.54-2-.16-2.76z"/><path id="ze5aF" d="M997.67 1110.89l6.74-3.83c1.38-.77 1.38-2 0-2.76l-6.59-3.83a5.52 5.52 0 0 0-4.9 0l-6.74 3.83c-1.38.77-1.38 2 0 2.76l6.74 3.83a5.2 5.2 0 0 0 4.75 0z"/><path id="ze5aG" d="M986.03 1123.14l6.74-3.83a5.52 5.52 0 0 1 4.9 0l6.74 3.83c1.38.77 1.38 2 0 2.76l-6.74 3.83a5.52 5.52 0 0 1-4.9 0l-6.59-3.83c-1.38-.77-1.38-2-.15-2.76z"/><path id="ze5aH" d="M1002.57 1132.64l6.74-3.83a5.52 5.52 0 0 1 4.9 0l6.74 3.83c1.38.77 1.38 2 0 2.76l-6.74 3.83a5.52 5.52 0 0 1-4.9 0l-6.74-3.83c-1.38-.77-1.38-2 0-2.76z"/><path id="ze5aI" d="M964.74 1129.88l6.74-3.83c1.38-.76 1.38-1.99 0-2.75l-6.74-3.83a5.52 5.52 0 0 0-4.9 0l-6.74 3.83c-1.38.76-1.38 1.99 0 2.75l6.74 3.83c1.37.77 3.67.77 4.9 0z"/><path id="ze5aJ" d="M981.28 1120.39l6.74-3.83c1.38-.77 1.38-2 0-2.76l-6.59-3.83a5.52 5.52 0 0 0-4.9 0l-6.74 3.83c-1.38.77-1.38 1.99 0 2.76l6.74 3.83a5.2 5.2 0 0 0 4.75 0z"/><path id="ze5aK" d="M969.64 1132.64l6.74-3.83a5.52 5.52 0 0 1 4.9 0l6.74 3.83c1.38.77 1.38 2 0 2.76l-6.74 3.83a5.52 5.52 0 0 1-4.9 0l-6.74-3.83c-1.38-.77-1.38-2 0-2.76z"/><path id="ze5aL" d="M986.03 1142.14l6.74-3.83a5.52 5.52 0 0 1 4.9 0l6.74 3.83c1.38.76 1.38 1.99 0 2.75l-6.74 3.83a5.52 5.52 0 0 1-4.9 0l-6.74-3.83c-1.23-.76-1.23-1.99 0-2.75z"/><path id="ze5aM" d="M914.95 1163.12l6.74-3.83a5.52 5.52 0 0 1 4.9 0l6.75 3.83c1.37.77 1.37 2 0 2.76l-6.74 3.83a5.52 5.52 0 0 1-4.9 0l-6.75-3.83c-1.37-.77-1.37-2 0-2.76z"/><path id="ze5aN" d="M888.76 1178.13l-6.74 3.83c-1.38.77-1.38 2 0 2.76l6.74 3.83c1.38.77 3.52.77 4.9 0l6.74-3.83c1.38-.77 1.38-2 0-2.76l-6.74-3.83a5.52 5.52 0 0 0-4.9 0z"/><path id="ze5aO" d="M905.15 1187.63l-6.74 3.83c-1.38.77-1.38 2 0 2.76l6.74 3.83c1.38.76 3.52.76 4.9 0l6.74-3.83c1.38-.77 1.38-2 0-2.76l-6.74-3.83a5.52 5.52 0 0 0-4.9 0z"/><path id="ze5aP" d="M893.66 1169.7l6.74-3.82c1.38-.77 1.38-2 0-2.76l-6.58-3.83a5.52 5.52 0 0 0-4.9 0l-6.75 3.83c-1.37.77-1.37 2 0 2.76l6.6 3.83c1.37.76 3.51.76 4.9 0z"/><path id="ze5aQ" d="M910.05 1160.21l6.74-3.83c1.38-.76 1.38-1.99 0-2.75l-6.74-3.83a5.52 5.52 0 0 0-4.9 0l-6.74 3.83c-1.38.76-1.38 1.99 0 2.75l6.74 3.83c1.38.77 3.52.77 4.9 0z"/><path id="ze5aR" d="M883.86 1175.38l-6.74 3.83a5.52 5.52 0 0 1-4.9 0l-6.74-3.83c-1.38-.77-1.38-2 0-2.76l6.74-3.83a5.52 5.52 0 0 1 4.9 0l6.74 3.83c1.38.77 1.38 2 0 2.76z"/><path id="ze5aS" d="M898.56 1172.62l6.74-3.83a5.52 5.52 0 0 1 4.9 0l6.75 3.83c1.37.77 1.37 2 0 2.76l-6.74 3.83a5.52 5.52 0 0 1-4.9 0l-6.75-3.83c-1.37-.77-1.37-2 0-2.76z"/><path id="ze5aT" d="M947.73 1144.13l6.74-3.83a5.52 5.52 0 0 1 4.9 0l6.75 3.83c1.37.76 1.37 1.99 0 2.76l-6.74 3.82a5.52 5.52 0 0 1-4.9 0l-6.75-3.82c-1.37-.77-1.37-2 0-2.76z"/><path id="ze5aU" d="M964.12 1153.63l6.74-3.83a5.52 5.52 0 0 1 4.9 0l6.75 3.83c1.37.76 1.37 1.99 0 2.75l-6.74 3.83a5.52 5.52 0 0 1-4.9 0l-6.75-3.83c-1.22-.76-1.22-1.99 0-2.75z"/><path id="ze5aV" d="M926.44 1150.71l6.74-3.82c1.38-.77 1.38-2 0-2.76l-6.74-3.83a5.52 5.52 0 0 0-4.9 0l-6.74 3.83c-1.38.76-1.38 1.99 0 2.76l6.74 3.82c1.38.77 3.52.77 4.9 0z"/><path id="ze5aW" d="M942.83 1141.22l6.74-3.83c1.38-.77 1.38-2 0-2.76l-6.74-3.83a5.52 5.52 0 0 0-4.9 0l-6.74 3.83c-1.38.77-1.38 2 0 2.76l6.59 3.83c1.53.76 3.83.76 5.05 0z"/><path id="ze5aX" d="M931.34 1153.63l6.74-3.83a5.52 5.52 0 0 1 4.9 0l6.6 3.83c1.37.76 1.37 1.99 0 2.75l-6.75 3.83a5.52 5.52 0 0 1-4.9 0l-6.59-3.83c-1.37-.76-1.37-1.99 0-2.75z"/><path id="ze5aY" d="M914.95 1181.96l39.52-22.82a5.52 5.52 0 0 1 4.9 0l6.6 3.83c1.37.76 1.37 1.99 0 2.76l-39.53 22.82a5.52 5.52 0 0 1-4.9 0l-6.74-3.83c-1.22-.61-1.22-1.84.15-2.76z"/><path id="ze5aZ" d="M1002.42 1112.57l6.74-3.83a5.52 5.52 0 0 1 4.9 0l6.59 3.83c1.38.77 1.38 2 0 2.76l-6.74 3.83a5.52 5.52 0 0 1-4.9 0l-6.74-3.83c-1.23-.76-1.23-1.99.15-2.76z"/><path id="ze5aaa" d="M1018.8 1122.07l6.75-3.83a5.52 5.52 0 0 1 4.9 0l6.59 3.83c1.38.77 1.38 2 0 2.76l-6.74 3.83a5.52 5.52 0 0 1-4.9 0l-6.6-3.83c-1.37-.77-1.37-2 0-2.76z"/><path id="ze5aab" d="M997.52 1109.66l6.74-3.83c1.38-.76 1.38-1.99 0-2.75l-6.74-3.83a5.52 5.52 0 0 0-4.9 0l-6.74 3.83c-1.38.76-1.38 1.99 0 2.75l6.74 3.83c1.37.77 3.52.77 4.9 0z"/><path id="ze5aac" d="M985.88 1122.07l6.74-3.83a5.52 5.52 0 0 1 4.9 0l6.58 3.83c1.38.77 1.38 2 0 2.76l-6.74 3.83a5.52 5.52 0 0 1-4.9 0l-6.58-3.83c-1.23-.77-1.23-2 0-2.76z"/><path id="ze5aad" d="M1002.27 1131.57l6.74-3.83a5.52 5.52 0 0 1 4.9 0l6.58 3.83c1.38.76 1.38 1.99 0 2.75l-6.74 3.83a5.52 5.52 0 0 1-4.9 0l-6.58-3.83c-1.23-.76-1.23-1.99 0-2.75z"/><path id="ze5aae" d="M964.58 1128.66l6.74-3.83c1.38-.77 1.38-2 0-2.76l-6.74-3.83a5.52 5.52 0 0 0-4.9 0l-6.74 3.83c-1.38.77-1.38 2 0 2.76l6.74 3.83c1.38.76 3.68.76 4.9 0z"/><path id="ze5aaf" d="M981.13 1119.16l6.74-3.83c1.38-.76 1.38-1.99 0-2.76l-6.74-3.83a5.52 5.52 0 0 0-4.9 0l-6.74 3.83c-1.38.77-1.38 2 0 2.76l6.74 3.83c1.22.77 3.52.77 4.9 0z"/><path id="ze5aag" d="M969.49 1131.57l6.74-3.83a5.52 5.52 0 0 1 4.9 0l6.74 3.83c1.38.76 1.38 1.99 0 2.75l-6.74 3.83a5.52 5.52 0 0 1-4.9 0l-6.6-3.83c-1.52-.76-1.52-1.99-.14-2.75z"/><path id="ze5aah" d="M985.88 1141.06l6.74-3.82a5.52 5.52 0 0 1 4.9 0l6.74 3.82c1.38.77 1.38 2 0 2.76l-6.74 3.83a5.52 5.52 0 0 1-4.9 0l-6.74-3.83c-1.23-.76-1.23-1.99 0-2.76z"/><path id="ze5aai" d="M832.7 1163.43l-3.68-3.68-.3-.46-.16-.3-.3-.46-.16-.62-.15-.46-.15-.6v-.47l-.16-.61V1048.39l.16-.76v-.62l.15-.76.15-.61.16-.62.15-.76.15-.77.16-.61.3-.77.3-.61.31-.61.31-.77.3-.61.16-.46 4.29 2.6-.15.16-.31.6-.3.77-.31.62-.3.76-.32.62-.3.6-.3.77-.16.62-.15.76-.16.77-.15.61-.15.61-.16.77v.61l-.15.77V1159.45l.15.6v.47l.16.61.15.46.15.61.3.46.16.46z"/><path id="ze5aaj" d="M940.23 1244v-7.97h-1.69l-.6-.15h-1.54l-.77-.15-.76-.15-.77-.16-.61-.15-.77-.15-.6-.16-.78-.15-.6-.3-.62-.31-.61-.16-.62-.3-.6-.46-91.6-52.85-.62-.46-.46-.3-.46-.31-.46-.46-.46-.3-.3-.47-.31-.3-.3-.46-.32-.46-.3-.3-.15-.47-.16-.46-.15-.46v8.12l.15.46.16.46.15.3.3.47.31.46.3.3.31.46.31.3.46.47.46.3.46.46.46.31.61.3 91.6 53 .61.31.62.3.6.32.62.3.61.15.77.31.61.15.77.16.61.15.77.15.76.16h.77l.77.15h2.91z"/><path id="ze5aak" d="M1078.85 1110.58l-8.57-15.32c-.31-.45-.31-.91 0-1.37.3-.46.76-.77 1.22-.77l17.62-.15-2.76 12.86z"/><path id="ze5aal" d="M1115.16 1131.87l-35.08-20.22c-.61-.45-1.53-1.07-1.53-1.83l.3-5.98 2.6-2.75c0-.31.93-4.75 1.23-4.9l5.52-3.22c.92-.16 1.68 0 2.6.46l35.08 20.22-.3-.16-.31-.15-.3-.15h-2.15l-.31.15-.3.15-.31.16-.3.15-.32.15-.3.16-.3.15-.31.3-.31.31-.3.3-.31.31-.31.31-.3.3-.31.31-.3.3-.31.47-.31.46-.3.46-.31.46-.31.46-.3.46-.31.46-.3.46-.16.46-.16.45-.15.46-.15.46-.16.46-.15.46-.15.46-.15.46-.16.46-.15.46V1129.12l.15.3.16.31.15.3.15.31.15.3.16.32.15.3.15.3.16.16.3.15z"/><path id="ze5aam" d="M1115.16 1131.87l-35.08-20.22c-.61-.45-1.53-1.07-1.53-1.83l.3-5.98 34.78 20.07v.15l-.16.46-.15.46V1129.12l.15.3.16.31.15.3.15.31.16.3.15.32.15.3.16.3.15.16.3.15z"/><path id="ze5aan" d="M1116.84 1132.95l-1.68-.92-.3-.16-.31-.15-.16-.3-.15-.16-.3-.3-.16-.31-.15-.3-.16-.31v-.31l-.15-.46-.15-.3v-.47l-.16-.3V1126.52l.16-.47v-.92l.15-.46.15-.45.16-.46.15-.46.15-.46.16-.46.15-.46.15-.46.3-.46.16-.46.3-.46.16-.46.3-.46.31-.46.31-.46.3-.3.31-.46.3-.31.32-.46.45-.3.31-.47.3-.3.47-.3.3-.32.46-.3.3-.15.47-.31.3-.15.46-.16.31-.3h.3l.47-.16.3-.15h.31l.3-.15h1.07l.31.15h.31l.15.15h.31l.3.16 1.7 1.07-.16-.16-.3-.15h-.31l-.31-.15h-1.53l-.46.15h-.3l-.31.15-.46.16-.31.15-.3.15-.47.31-.3.15-.46.31-.3.3-.47.31-.3.3-.46.32-.31.3-.3.46-.31.3-.46.47-.3.3-.32.46-.3.46-.15.46-.31.3-.3.47-.16.46-.3.46-.16.46-.3.46-.16.46-.15.46-.16.46-.15.45-.15.46v.46l-.16.46-.15.46V1129.58l.15.3v.46l.16.3.15.47.15.3.16.31.15.15.15.31.16.3.3.16.16.15z"/><path id="ze5aao" d="M1121.13 1135.55l-4.29-2.6-.3-.16-.16-.15-.3-.15-.16-.31-.15-.15-.15-.3-.16-.32-.15-.3-.15-.46-.16-.3v-.31l-.15-.46v-3.07l.15-.46.16-.46v-.46l.15-.46.15-.45.16-.46.15-.46.15-.46.31-.46.15-.46.31-.46.15-.46.3-.46.32-.3.15-.47.3-.46.31-.46.3-.3.47-.46.3-.3.31-.47.3-.3.47-.31.3-.3.46-.31.3-.3.47-.32.3-.15.46-.3.31-.16.3-.15.47-.15.3-.16h.3l.47-.15h1.53l.3.15h.31l.3.16.16.15 4.3 2.45-.16-.15-.3-.16h-.31l-.31-.15h-1.69l-.3.15h-.3l-.47.16-.3.15-.31.15-.46.16-.3.3-.47.16-.3.3-.3.3-.47.31-.3.31-.46.3-.31.31-.3.46-.47.3-.3.47-.31.3-.3.46-.31.46-.3.46-.16.31-.3.46-.31.46-.16.46-.3.46-.16.46-.15.46-.15.46-.16.46-.15.46-.15.46-.16.45v.46l-.15.46v.92l-.15.46v.92l.15.3V1132.5l.15.3.16.31.15.46.15.3.16.31.15.3.15.16.16.3.3.16.16.15z"/><path id="ze5aap" d="M1124.65 1119.16c3.99-3.52 8.12-3.22 9.2.77 1.07 3.98-1.38 10.1-5.37 13.63-3.98 3.52-8.11 3.22-9.19-.77-.46-1.53-.3-3.37.16-5.36l-4.3-2.45.16-.3.15-.46.16-.46.15-.46.15-.46.16-.46.15-.46.3-.46.31-.46.3-.46.32-.46.3-.46.3-.46.31-.46.31-.46.3-.46.31-.3.16-.16 4.29 2.45c.15 0 .6-.3.91-.61z"/><path id="ze5aaq" d="M1126.19 1120.39c3.67-3.37 7.5-2.91 8.57.76 1.08 3.68-1.22 9.5-4.9 12.72-3.67 3.37-7.5 2.9-8.58-.77-1.07-3.68 1.08-9.34 4.9-12.71z"/><path id="ze5aar" d="M1115.31 1124.98l-1.84-.92.16-.3.15-.46.15-.46.16-.46.15-.46.15-.46.3-.46.16-.46.3-.46.16-.46.3-.46.31-.46.31-.46.3-.3.31-.46.3-.31.32-.46.15-.15 1.84 1.07-.16.15-.3.3-.46.47-.3.3-.31.46-.31.46-.15.46-.31.3-.3.47-.16.46-.3.46-.16.46-.3.46-.16.46-.15.46-.16.46-.15.45z"/><path id="ze5aas" d="M1121.13 1135.55l-4.29-2.6-.3-.16-.16-.15-.3-.15-.16-.31-.15-.15-.15-.3-.16-.32-.15-.3-.15-.46-.16-.3v-.31l-.15-.46v-3.07l.15-.46.16-.46v-.46l.15-.15 4.14 2.45v.16l-.16.45v.46l-.15.46v.92l-.15.46v.92l.15.3V1132.5l.15.3.16.3.15.47.15.3.16.31.15.3.15.16.16.3.3.16.16.15z"/><path id="ze5aat" d="M1078.85 1110.58l-8.57-15.32v-1.37l8.42 10.1z"/><path id="ze5aau" d="M1070.28 1095.26c-.31-.45-.31-.91 0-1.37.3-.46.76-.77 1.22-.77l16.55-.15-5.52 3.21z"/><path id="ze5aav" d="M1073.03 1100.01l-2.6-4.75c-.3-.45-.3-.91 0-1.37.3-.46.77-.77 1.23-.77h5.2l-1.68 1.38.61 3.37z"/><path id="ze5aaw" d="M919.44 1044.97c-7.95 4.6-14.4 15.78-14.4 24.97 0 9.18 6.45 12.92 14.4 8.32 7.96-4.6 14.42-15.78 14.42-24.97.01-9.2-6.44-12.92-14.42-8.32z"/><path id="ze5aax" d="M919.44 1058.2a31.92 31.92 0 0 0-10.74 13.83 4.63 4.63 0 0 1-.96-1.93c-1.63-6.54 3.65-16.65 11.7-22.53z"/><path id="ze5aay" d="M912.42 1033.52l.54-.3.53-.3.53-.25.53-.26.52-.23.52-.22.51-.2.52-.18.5-.16.5-.15.5-.13.49-.11.48-.11.49-.08.47-.06.46-.05.48-.04.46-.01h.89l.43.04.44.05.43.05.42.09.4.1.41.1.4.1.39.16 7.03 4.06-.39-.15-.4-.12-.4-.1-.42-.1-.42-.08-.42-.05-.43-.05-.45-.03-.43-.01h-.92l-.46.05-.47.05-.48.06-.47.08-.49.1-.5.12-.49.13-.5.15-.51.16-.5.18-.52.2-.52.22-.52.23-.52.26-.53.25-.54.29-.55.3-.52.32-.54.34-.53.34-.53.36-.51.37-.53.39-.52.4-.5.4-.51.42-.5.43-.5.43-.49.46-.49.46-.47.48-.47.48-.48.5-.46.5-.46.5-.46.52-.45.53-.43.54-.43.54-.42.56-.42.56-.42.56-.4.58-.4.58-.4.58-.37.6-.38.6-.36.6-.36.61-.35.61-.34.63-.32.62-.33.62-.3.64-.32.63-.3.64-.28.63-.27.65-.27.64-.26.65-.24.65-.23.65-.23.65-.22.65-.2.66-.2.65-.17.65-.17.65-.15.66-.15.65-.14.65-.12.65-.1.65-.1.64-.1.65-.06.63-.07.64-.04.64-.03.63-.03.62v1.24l.03.62.03.6.04.58.07.56.06.56.1.54.1.53.1.53.12.5.14.5.15.48.15.46.17.46.18.45.19.43.2.42.22.41.23.4.23.37.24.37.26.35.27.34.27.32.28.31.3.3.31.27-7.03-4.05-.3-.28-.3-.3-.28-.3-.29-.33-.26-.34-.25-.35-.25-.37-.24-.38-.22-.39-.21-.4-.2-.43-.2-.43-.18-.45-.17-.44-.16-.48-.15-.48-.13-.5-.13-.5-.1-.53-.1-.53-.08-.54-.08-.56-.05-.56-.05-.59-.04-.6-.01-.6-.01-.61.01-.64.01-.62.04-.63.05-.63.05-.65.08-.63.08-.65.1-.64.1-.65.13-.65.13-.65.15-.65.16-.66.17-.65.18-.65.2-.65.2-.66.21-.65.22-.65.24-.65.25-.65.25-.65.26-.64.29-.65.28-.63.3-.64.3-.63.3-.64.33-.62.34-.62.34-.63.34-.6.36-.62.37-.6.36-.6.4-.6.37-.58.41-.58.4-.58.41-.56.42-.56.42-.56.43-.54.45-.54.45-.53.44-.51.46-.52.46-.5.48-.49.47-.48.49-.48.49-.46.48-.46.5-.43.5-.43.5-.42.52-.4.51-.4.52-.4.53-.36.52-.36.53-.34.53-.34z"/><path id="ze5aaz" d="M938.1 1061.52l-7.03-4.06.04.01h.04l.04.01h.04l.03.02h.04l.04.01.04.02h.08l.04.02.03.02.04.01h.04l.04.01.04.02.03.01.04.01.04.02.03.01.04.01.04.03.04.01.03.02.04.01.02.02.04.02.05.02.02.01 7.04 4.06-.04-.01-.03-.02-.04-.02-.04-.02-.03-.01-.04-.02h-.04l-.02-.04h-.05l-.04-.02-.02-.02-.04-.01-.04-.01-.04-.02-.03-.01h-.04l-.04-.01-.04-.02-.04-.01-.04-.01h-.03l-.04-.02-.04-.01h-.04l-.04-.02h-.13z"/><path id="ze5aaA" d="M929.46 1078.47l-7.02-4.06-.07-.04-.07-.04-.05-.05-.07-.04-.06-.06-.06-.05-.06-.05-.05-.06-.06-.05-.05-.07-.05-.05-.06-.07-.04-.06 7.02 4.06.06.06.05.07.06.05.05.07.06.05.05.06.05.05.06.05.07.05.05.05.07.05.06.04z"/><path id="ze5aaB" d="M933.87 1053.29l-7.04-4.06v-.43l-.01-.42-.03-.4-.02-.41-.04-.4-.06-.39-.05-.38-.07-.36-.08-.37-.08-.34-.1-.35-.1-.34-.11-.32-.11-.31-.14-.32-.13-.3-.14-.28-.15-.28-.15-.27-.16-.27-.17-.25-.18-.24-.19-.24-.19-.22-.19-.22-.2-.2-.22-.2-.21-.2-.23-.17-.23-.16-.24-.15-.24-.15 7.04 4.06.24.15.23.15.23.16.23.18.22.19.2.2.2.2.2.22.2.22.19.24.17.24.17.25.16.27.16.27.15.28.13.29.14.3.12.3.12.32.11.32.1.34.1.34.07.35.08.37.07.36.06.38.05.4.04.39.04.4.01.4.02.43z"/><path id="ze5aaC" d="M909.25 1079.26l-7.02-4.05.24.14.26.12.26.1.26.12.27.1.27.07.28.08.29.07.3.06.28.04.3.02.3.03h.62l.32-.01.32-.02.33-.04.34-.04.32-.07.34-.06.34-.07.35-.1.34-.1.35-.11.35-.14.37-.13.35-.15.37-.16.36-.17.37-.19.36-.2.38-.2 7.02 4.06-.36.2-.37.2-.38.18-.35.18-.36.16-.37.15-.35.13-.35.14-.35.1-.36.11-.33.09-.34.08-.34.06-.34.07-.32.04-.33.04-.32.02-.33.01h-.6l-.32-.03-.3-.02-.3-.04-.28-.06-.28-.07-.29-.08-.27-.08-.27-.1-.27-.1-.26-.1-.25-.13z"/><path id="ze5aaD" d="M919.44 1078.26l-7.02-4.06.37-.23.38-.22.36-.24.37-.25.36-.25.35-.27.37-.27.35-.29.34-.3.35-.3.35-.3.34-.3.34-.33.32-.32.34-.34.33-.34.3-.35.33-.35.31-.37.32-.36.3-.37.3-.38.29-.39.3-.38.28-.4.27-.4.29-.39.27-.4.25-.43.26-.4.26-.42.24-.42 7.04 4.06-.24.42-.26.42-.26.4-.27.42-.27.41-.27.4-.29.4-.28.4-.28.37-.3.4-.3.37-.31.37-.3.36-.32.37-.31.35-.33.35-.32.34-.33.34-.34.32-.34.31-.33.33-.34.3-.35.3-.36.3-.35.28-.35.27-.36.25-.37.27-.37.25-.36.23-.37.23z"/><path id="ze5aaE" d="M929.65 1067.5l-7.04-4.06.24-.43.24-.42.23-.44.23-.43.21-.45.22-.43.2-.45.2-.43.18-.45.19-.44.18-.45.17-.46.16-.44.15-.45.15-.46.14-.45.13-.46.14-.44.1-.45.11-.46.11-.45.1-.46.08-.45.08-.44.07-.45.05-.44.06-.45.04-.43.02-.45.03-.43.01-.44v-.43l7.04 4.06-.01.43-.02.44-.01.43-.04.45-.04.43-.05.45-.06.44-.07.45-.08.44-.08.45-.1.46-.09.45-.1.46-.13.44-.12.45-.14.46-.13.45-.15.46-.16.45-.16.44-.17.46-.17.45-.2.44-.18.45-.2.43-.2.45-.21.43-.22.45-.23.43-.23.44-.23.42z"/><path id="ze5aaF" d="M929.65 1043.95l-7.04-4.06-.24-.13-.26-.13-.26-.12 7.04 4.06.26.11.25.14z"/><path id="ze5aaG" d="M929.65 1043.95c-2.61-1.5-6.21-1.28-10.2 1.02-3.97 2.3-7.58 6.24-10.18 10.76-2.61 4.52-4.22 9.6-4.22 14.2s1.6 7.84 4.22 9.34c2.61 1.5 6.2 1.29 10.19-1.01 3.98-2.3 7.59-6.24 10.19-10.76 2.61-4.52 4.22-9.6 4.22-14.21 0-4.6-1.62-7.84-4.22-9.34zm-10.2-6.37c5.75-3.32 10.94-3.63 14.72-1.46 3.76 2.17 6.09 6.83 6.09 13.48 0 3.83-.79 7.91-2.17 11.92.42.07.83.2 1.2.4l15.31 8.85c2.66 1.53 2.66 6.54 0 11.12-2.65 4.58-6.98 7.09-9.62 5.56l-15.32-8.85a3.45 3.45 0 0 1-.95-.83 36.96 36.96 0 0 1-9.27 7.86c-5.73 3.33-10.94 3.64-14.7 1.47-3.77-2.18-6.1-6.84-6.1-13.48 0-6.63 2.33-14 6.1-20.52 3.76-6.5 8.97-12.2 14.7-15.52z"/><path id="ze5aaH" d="M912.42 1033.52l.54-.3.53-.3.53-.25.53-.26.52-.23.52-.22.51-.2.52-.18.5-.16.5-.15.5-.13.49-.11.48-.1.49-.1.47-.05.36-.04 7.03 4.06-.36.04-.48.06-.47.08-.49.1-.5.12-.49.13-.5.15-.51.16-.5.18-.52.2-.52.22-.52.23-.52.26-.53.25-.54.3-.55.3-.52.3-.54.35-.53.34-.53.36-.51.37-.53.39-.52.4-.16.13-7.04-4.06.18-.14.51-.4.52-.38.53-.37.52-.36.53-.34.53-.34z"/><path id="ze5aaI" d="M903.31 1055.75l-.23.48-.3.63-.3.64-.29.63-.27.65-.27.64-.26.65-.24.65-.23.65-.23.65-.22.65-.2.66-.2.65-.17.65-.17.65-.15.66-.15.65-.14.65-.12.65-.1.65-.1.64-.1.65-.06.63-.07.64-.04.64-.03.63-.03.62v1.24l.03.62.03.6.04.58.07.56.06.56.1.54v.05l-7.02-4.06-.02-.05-.08-.54-.08-.56-.05-.56-.05-.59-.04-.6-.02-.6v-1.25l.02-.62.04-.63.05-.63.05-.65.08-.63.08-.65.1-.64.1-.65.13-.65.13-.65.15-.65.16-.66.17-.65.18-.65.2-.65.2-.66.21-.65.22-.65.24-.65.25-.65.25-.65.26-.64.29-.65.28-.63.28-.64.32-.63.23-.48z"/></defs><g><g transform="translate(-827 -942)"><g><use fill="#34485c" xlink:href="#ze5aa"/></g><g><use fill="#3d566e" xlink:href="#ze5ab"/></g><g><use fill="#9dd6f5" xlink:href="#ze5ac"/></g><g><use fill="#e6eaeb" xlink:href="#ze5ad"/></g><g><use fill="#2980b9" xlink:href="#ze5ae"/></g><g><use fill="#9b59b6" xlink:href="#ze5af"/></g><g><use fill="#ffcb05" xlink:href="#ze5ag"/></g><g><use fill="#69f" xlink:href="#ze5ah"/></g><g><use fill="#9c9c9c" xlink:href="#ze5ai"/></g><g><use fill="#9c9c9c" xlink:href="#ze5aj"/></g><g><use fill="#9c9c9c" xlink:href="#ze5ak"/></g><g><use fill="#e6eaeb" xlink:href="#ze5al"/></g><g><use fill="#415a73" xlink:href="#ze5am"/></g><g><use fill="#34485c" xlink:href="#ze5an"/></g><g><use fill="#415a73" xlink:href="#ze5ao"/></g><g><use fill="#3d566e" xlink:href="#ze5ap"/></g><g><g><use fill="#2c3e50" xlink:href="#ze5aq"/></g><g><use fill="#2c3e50" xlink:href="#ze5ar"/></g><g><use fill="#2c3e50" xlink:href="#ze5as"/></g><g><use fill="#2c3e50" xlink:href="#ze5at"/></g><g><use fill="#2c3e50" xlink:href="#ze5au"/></g><g><use fill="#2c3e50" xlink:href="#ze5av"/></g><g><use fill="#2c3e50" xlink:href="#ze5aw"/></g><g><use fill="#2c3e50" xlink:href="#ze5ax"/></g><g><use fill="#2c3e50" xlink:href="#ze5ay"/></g><g><use fill="#2c3e50" xlink:href="#ze5az"/></g><g><use fill="#2c3e50" xlink:href="#ze5aA"/></g><g><use fill="#2c3e50" xlink:href="#ze5aB"/></g><g><use fill="#2c3e50" xlink:href="#ze5aC"/></g><g><use fill="#2c3e50" xlink:href="#ze5aD"/></g><g><use fill="#2c3e50" xlink:href="#ze5aE"/></g><g><use fill="#2c3e50" xlink:href="#ze5aF"/></g><g><use fill="#2c3e50" xlink:href="#ze5aG"/></g><g><use fill="#2c3e50" xlink:href="#ze5aH"/></g><g><use fill="#2c3e50" xlink:href="#ze5aI"/></g><g><use fill="#2c3e50" xlink:href="#ze5aJ"/></g><g><use fill="#2c3e50" xlink:href="#ze5aK"/></g><g><use fill="#2c3e50" xlink:href="#ze5aL"/></g></g><g><use fill="#e6eaeb" xlink:href="#ze5aM"/></g><g><use fill="#e6eaeb" xlink:href="#ze5aN"/></g><g><use fill="#e6eaeb" xlink:href="#ze5aO"/></g><g><use fill="#e6eaeb" xlink:href="#ze5aP"/></g><g><use fill="#e6eaeb" xlink:href="#ze5aQ"/></g><g><use fill="#e6eaeb" xlink:href="#ze5aR"/></g><g><use fill="#e6eaeb" xlink:href="#ze5aS"/></g><g><use fill="#e6eaeb" xlink:href="#ze5aT"/></g><g><use fill="#e6eaeb" xlink:href="#ze5aU"/></g><g><use fill="#e6eaeb" xlink:href="#ze5aV"/></g><g><use fill="#e6eaeb" xlink:href="#ze5aW"/></g><g><use fill="#e6eaeb" xlink:href="#ze5aX"/></g><g><use fill="#e6eaeb" xlink:href="#ze5aY"/></g><g><use fill="#e6eaeb" xlink:href="#ze5aZ"/></g><g><use fill="#e6eaeb" xlink:href="#ze5aaa"/></g><g><use fill="#e6eaeb" xlink:href="#ze5aab"/></g><g><use fill="#e6eaeb" xlink:href="#ze5aac"/></g><g><use fill="#e6eaeb" xlink:href="#ze5aad"/></g><g><use fill="#e6eaeb" xlink:href="#ze5aae"/></g><g><use fill="#e6eaeb" xlink:href="#ze5aaf"/></g><g><use fill="#e6eaeb" xlink:href="#ze5aag"/></g><g><use fill="#e6eaeb" xlink:href="#ze5aah"/></g><g><use fill="#2c3e50" xlink:href="#ze5aai"/></g><g><use fill="#2c3e50" xlink:href="#ze5aaj"/></g><g><g><use fill="#e8d6ac" xlink:href="#ze5aak"/></g><g><use fill="#e74c3c" xlink:href="#ze5aal"/></g><g><use fill="#943b3b" xlink:href="#ze5aam"/></g><g><use fill="#e6eaeb" xlink:href="#ze5aan"/></g><g><use fill="#3d566e" xlink:href="#ze5aao"/></g><g><use fill="#34485c" xlink:href="#ze5aap"/></g><g><use fill="#3d566e" xlink:href="#ze5aaq"/></g><g><use fill="#fff" xlink:href="#ze5aar"/></g><g><use fill="#2c3e50" xlink:href="#ze5aas"/></g><g><use fill="#c2ac78" xlink:href="#ze5aat"/></g><g><use fill="#ffe7bd" xlink:href="#ze5aau"/></g><g><use fill="#1d2833" xlink:href="#ze5aav"/></g></g></g><g transform="translate(-827 -942)"><g><g><use fill="#73bce3" xlink:href="#ze5aaw"/></g><g><use fill="#9dd6f5" xlink:href="#ze5aax"/></g><g><use fill="#2c3e50" xlink:href="#ze5aay"/></g><g><use fill="#8cb0d4" xlink:href="#ze5aaz"/></g><g><use fill="#8cb0d4" xlink:href="#ze5aaA"/></g><g><use fill="#44abc7" xlink:href="#ze5aaB"/></g><g><use fill="#44abc7" xlink:href="#ze5aaC"/></g><g><use fill="#44abc7" xlink:href="#ze5aaD"/></g><g><use fill="#44abc7" xlink:href="#ze5aaE"/></g><g><use fill="#8cb0d4" xlink:href="#ze5aaF"/></g><g><use fill="#3d566e" xlink:href="#ze5aaG"/></g></g><g><use fill="#354c61" xlink:href="#ze5aaH"/></g><g><use fill="#243340" xlink:href="#ze5aaI"/></g></g></g></svg>